G04*
G04 #@! TF.GenerationSoftware,Altium Limited,Altium Designer,22.8.2 (66)*
G04*
G04 Layer_Color=32896*
%FSLAX44Y44*%
%MOMM*%
G71*
G04*
G04 #@! TF.SameCoordinates,D88EF3AF-AA8D-4CAB-B9DB-13285413298B*
G04*
G04*
G04 #@! TF.FilePolarity,Positive*
G04*
G01*
G75*
%ADD10C,0.2000*%
%ADD12C,0.1200*%
%ADD14C,0.1000*%
%ADD15C,0.1500*%
G36*
X27529Y258949D02*
X27929Y258892D01*
X28671Y258550D01*
X28785Y258493D01*
X29099Y258179D01*
X29156Y258064D01*
X29270Y257950D01*
X29527Y257465D01*
X29612Y257151D01*
X29669Y256980D01*
X29727Y239516D01*
X29669Y239288D01*
X29413Y239088D01*
X26958Y239031D01*
X26559Y239088D01*
X26416Y239231D01*
X26359Y247221D01*
X26160Y247421D01*
X20624Y247478D01*
X20310Y247392D01*
X20167Y247192D01*
X20024Y246593D01*
X19910Y246136D01*
X19739Y245566D01*
X19511Y244995D01*
X19168Y244253D01*
X18883Y243739D01*
X18826Y243625D01*
X18540Y243226D01*
X18483Y243112D01*
X18369Y242997D01*
X18312Y242883D01*
X18198Y242769D01*
X18141Y242655D01*
X17913Y242427D01*
X17856Y242313D01*
X17085Y241542D01*
X16971Y241485D01*
X16800Y241314D01*
X16600Y241171D01*
X16286Y240914D01*
X16172Y240857D01*
X16086Y240772D01*
X15744Y240543D01*
X14603Y239916D01*
X14032Y239687D01*
X13490Y239488D01*
X13004Y239345D01*
X12634Y239259D01*
X12462Y239202D01*
X11891Y239145D01*
X11720Y239088D01*
X10294Y239031D01*
X9552Y239088D01*
X9152Y239145D01*
X8467Y239259D01*
X8011Y239373D01*
X7383Y239545D01*
X6812Y239773D01*
X5500Y240401D01*
X4701Y240972D01*
X4586Y241028D01*
X4415Y241200D01*
X4301Y241257D01*
X4016Y241542D01*
X3902Y241599D01*
X3873Y241685D01*
X3787Y241713D01*
X3416Y242084D01*
X3359Y242199D01*
X3131Y242427D01*
X2731Y242940D01*
X2161Y243797D01*
X2104Y243911D01*
X1990Y244025D01*
X1933Y244310D01*
X2018Y244396D01*
X4701Y244453D01*
X4986Y244339D01*
X5243Y244082D01*
X5300Y243968D01*
X5728Y243540D01*
X5842Y243483D01*
X5985Y243340D01*
X6298Y243083D01*
X6584Y242912D01*
X6983Y242626D01*
X7469Y242370D01*
X8039Y242141D01*
X8410Y241999D01*
X8724Y241913D01*
X8952Y241856D01*
X9580Y241742D01*
X10322Y241685D01*
X11378Y241713D01*
X11606Y241770D01*
X12006Y241828D01*
X12234Y241885D01*
X12634Y241999D01*
X12862Y242056D01*
X13147Y242170D01*
X14231Y242684D01*
X14631Y242969D01*
X14745Y243026D01*
X14916Y243197D01*
X15030Y243254D01*
X15972Y244196D01*
X16029Y244310D01*
X16200Y244481D01*
X16257Y244596D01*
X16543Y244995D01*
X17057Y245965D01*
X17285Y246536D01*
X17371Y246850D01*
X17428Y247078D01*
X17513Y247506D01*
X17570Y247677D01*
X17627Y248876D01*
X17570Y249618D01*
X17456Y250303D01*
X17342Y250702D01*
X17171Y251273D01*
X16828Y252015D01*
X16600Y252414D01*
X16543Y252528D01*
X16257Y252928D01*
X16200Y253042D01*
X16029Y253213D01*
X15972Y253328D01*
X15145Y254155D01*
X15030Y254212D01*
X14916Y254326D01*
X14802Y254383D01*
X14717Y254469D01*
X14374Y254697D01*
X13803Y255040D01*
X13176Y255325D01*
X12634Y255525D01*
X12320Y255610D01*
X12091Y255667D01*
X11492Y255753D01*
X11321Y255810D01*
X9694Y255782D01*
X9152Y255696D01*
X8695Y255582D01*
X7954Y255354D01*
X6983Y254897D01*
X6641Y254669D01*
X6527Y254612D01*
X6413Y254498D01*
X6298Y254440D01*
X6184Y254326D01*
X6070Y254269D01*
X5014Y253213D01*
X4957Y253099D01*
X4815Y253014D01*
X2189Y252957D01*
X1961Y253014D01*
X1875Y253156D01*
X1933Y253328D01*
X2218Y253784D01*
X2275Y253898D01*
X2674Y254469D01*
X2731Y254583D01*
X2846Y254697D01*
X2903Y254811D01*
X3302Y255211D01*
X3359Y255325D01*
X4016Y255981D01*
X4130Y256038D01*
X4358Y256267D01*
X4472Y256324D01*
X4586Y256438D01*
X4786Y256581D01*
X5328Y256952D01*
X6156Y257437D01*
X6784Y257722D01*
X7925Y258122D01*
X8153Y258179D01*
X8439Y258236D01*
X8810Y258321D01*
X8981Y258378D01*
X10065Y258435D01*
X10237Y258493D01*
X10779Y258464D01*
X11749Y258407D01*
X12434Y258293D01*
X12805Y258207D01*
X13033Y258150D01*
X13946Y257865D01*
X14346Y257694D01*
X14859Y257465D01*
X15715Y257009D01*
X16115Y256723D01*
X16229Y256666D01*
X16343Y256552D01*
X16457Y256495D01*
X16629Y256324D01*
X16743Y256267D01*
X17199Y255810D01*
X17313Y255753D01*
X17399Y255667D01*
X17456Y255553D01*
X17542Y255525D01*
X17570Y255439D01*
X17827Y255182D01*
X18084Y254869D01*
X18483Y254355D01*
X18540Y254241D01*
X18655Y254126D01*
X18712Y254012D01*
X18997Y253556D01*
X19254Y253071D01*
X19539Y252443D01*
X19796Y251730D01*
X19910Y251444D01*
Y251387D01*
X19939Y251301D01*
X20081Y250588D01*
X20138Y250360D01*
X20281Y250103D01*
X26045Y250046D01*
X26274Y250103D01*
X26359Y250189D01*
X26416Y254869D01*
X26302Y255268D01*
X26102Y255468D01*
X19710Y255525D01*
X19568Y255667D01*
X19482Y255867D01*
X19511Y258806D01*
X19653Y258949D01*
X26958Y259006D01*
X27529Y258949D01*
D02*
G37*
G36*
X11834Y254555D02*
X12576Y254326D01*
X13547Y253870D01*
X13661Y253813D01*
X14003Y253584D01*
X14117Y253527D01*
X14346Y253299D01*
X14460Y253242D01*
X14945Y252757D01*
X15002Y252643D01*
X15202Y252443D01*
X15573Y251901D01*
X15915Y251273D01*
X16058Y250959D01*
X16200Y250588D01*
X16286Y250274D01*
X16372Y249903D01*
X16429Y249732D01*
X16486Y248419D01*
X16372Y247620D01*
X16257Y247164D01*
X16086Y246593D01*
X15687Y245737D01*
X15402Y245338D01*
X15344Y245223D01*
X15173Y245052D01*
X15116Y244938D01*
X14603Y244424D01*
X14289Y244167D01*
X13775Y243768D01*
X13375Y243540D01*
X12833Y243283D01*
X12120Y243026D01*
X11891Y242969D01*
X11720Y242912D01*
X10978Y242855D01*
X10807Y242798D01*
X9894Y242855D01*
X9495Y242912D01*
X8581Y243140D01*
X7269Y243768D01*
X7155Y243882D01*
X7040Y243939D01*
X6926Y244053D01*
X6812Y244110D01*
X6070Y244852D01*
X5528Y245566D01*
X5471Y245680D01*
X5186Y246136D01*
X5128Y246536D01*
X5214Y246622D01*
X7668Y246679D01*
X7954Y246565D01*
X8296Y246222D01*
X8410Y246165D01*
X8581Y245994D01*
X9095Y245708D01*
X9723Y245480D01*
X9951Y245423D01*
X10351Y245366D01*
X11092Y245423D01*
X11321Y245480D01*
X11720Y245594D01*
X12348Y245880D01*
X12462Y245994D01*
X12576Y246051D01*
X12691Y246165D01*
X12890Y246308D01*
X12947Y246422D01*
X13176Y246650D01*
X13318Y246850D01*
X13547Y247192D01*
X13661Y247478D01*
X13803Y247849D01*
X13860Y248020D01*
X13918Y249104D01*
X13803Y249561D01*
X13718Y249875D01*
X13689Y249903D01*
Y249960D01*
X13518Y250360D01*
X13290Y250702D01*
X13233Y250816D01*
X12833Y251216D01*
X12519Y251473D01*
X12034Y251787D01*
X11406Y252015D01*
X11178Y252072D01*
X10722Y252129D01*
X10008Y252101D01*
X9323Y251929D01*
X8924Y251758D01*
X8810Y251701D01*
X8467Y251473D01*
X8353Y251416D01*
X7725Y250788D01*
X5214Y250731D01*
X5014Y250931D01*
X5128Y251216D01*
X5585Y252072D01*
X5699Y252186D01*
X5756Y252300D01*
X5870Y252414D01*
X5928Y252528D01*
X6698Y253299D01*
X6812Y253356D01*
X6926Y253470D01*
X7040Y253527D01*
X7440Y253813D01*
X7954Y254098D01*
X8267Y254241D01*
X8895Y254469D01*
X9266Y254555D01*
X9437Y254612D01*
X11035Y254669D01*
X11834Y254555D01*
D02*
G37*
G36*
X172162Y259925D02*
X172415Y259920D01*
X172665Y259905D01*
X172912Y259881D01*
X173157Y259848D01*
X173399Y259805D01*
X173637Y259754D01*
X173872Y259694D01*
X174104Y259625D01*
X174332Y259548D01*
X174555Y259463D01*
X174775Y259370D01*
X174991Y259270D01*
X175201Y259161D01*
X175408Y259045D01*
X175609Y258922D01*
X175805Y258792D01*
X175997Y258655D01*
X176182Y258511D01*
X176362Y258361D01*
X176537Y258204D01*
X176705Y258042D01*
X176868Y257873D01*
X177024Y257698D01*
X177173Y257518D01*
X177316Y257332D01*
X177452Y257141D01*
X177581Y256945D01*
X177702Y256745D01*
X177817Y256539D01*
X177923Y256329D01*
X178022Y256114D01*
X184854Y239658D01*
X184855Y239654D01*
X184857Y239650D01*
X184859Y239646D01*
X184860Y239642D01*
X184862Y239637D01*
X184863Y239633D01*
X184865Y239629D01*
X184866Y239624D01*
X184868Y239620D01*
X184869Y239616D01*
X184870Y239611D01*
X184871Y239607D01*
X184872Y239602D01*
X184874Y239598D01*
X184875Y239594D01*
X184876Y239589D01*
Y239585D01*
X184877Y239580D01*
X184878Y239576D01*
X184879Y239571D01*
Y239567D01*
X184880Y239562D01*
X184881Y239557D01*
Y239553D01*
Y239548D01*
X184882Y239544D01*
Y239539D01*
Y239534D01*
X184883Y239529D01*
Y239525D01*
Y239520D01*
X184882Y239501D01*
X184881Y239482D01*
X184878Y239464D01*
X184875Y239446D01*
X184870Y239428D01*
X184865Y239411D01*
X184859Y239394D01*
X184852Y239377D01*
X184845Y239361D01*
X184836Y239345D01*
X184827Y239330D01*
X184817Y239315D01*
X184806Y239301D01*
X184795Y239287D01*
X184783Y239274D01*
X184770Y239262D01*
X184757Y239250D01*
X184743Y239238D01*
X184728Y239228D01*
X184713Y239218D01*
X184698Y239209D01*
X184682Y239201D01*
X184665Y239193D01*
X184649Y239186D01*
X184631Y239180D01*
X184614Y239175D01*
X184596Y239171D01*
X184577Y239168D01*
X184558Y239165D01*
X184540Y239164D01*
X184520Y239163D01*
X168893Y239164D01*
X168788Y239167D01*
X168687Y239177D01*
X168589Y239193D01*
X168496Y239215D01*
X168408Y239242D01*
X168324Y239275D01*
X168245Y239313D01*
X168171Y239356D01*
X168102Y239403D01*
X168039Y239455D01*
X167980Y239511D01*
X167927Y239570D01*
X167880Y239633D01*
X167839Y239700D01*
X167804Y239770D01*
X167774Y239842D01*
X167751Y239917D01*
X167734Y239994D01*
X167724Y240073D01*
X167721Y240154D01*
X167724Y240237D01*
X167735Y240320D01*
X167752Y240405D01*
X167777Y240490D01*
X167809Y240576D01*
X167849Y240662D01*
X167896Y240748D01*
X167951Y240834D01*
X168014Y240919D01*
X168086Y241003D01*
X168166Y241086D01*
X173905Y246457D01*
X174183Y246754D01*
X174435Y247075D01*
X174659Y247415D01*
X174856Y247773D01*
X175025Y248146D01*
X175167Y248534D01*
X175281Y248932D01*
X175367Y249340D01*
X175426Y249755D01*
X175456Y250174D01*
X175458Y250596D01*
X175432Y251019D01*
X175377Y251440D01*
X175293Y251858D01*
X175181Y252269D01*
X175040Y252672D01*
X174870Y253065D01*
X174670Y253445D01*
X174442Y253811D01*
X174184Y254160D01*
X173896Y254490D01*
X173578Y254799D01*
X173231Y255084D01*
X172854Y255344D01*
X172447Y255577D01*
X172009Y255779D01*
X171541Y255950D01*
X171043Y256086D01*
X170514Y256187D01*
X169954Y256248D01*
X169363Y256269D01*
X138772D01*
X138757Y256270D01*
X138742Y256271D01*
X138727Y256272D01*
X138712Y256274D01*
X138698Y256277D01*
X138684Y256280D01*
X138669Y256284D01*
X138655Y256288D01*
X138642Y256293D01*
X138628Y256299D01*
X138615Y256305D01*
X138602Y256311D01*
X138590Y256318D01*
X138578Y256325D01*
X138566Y256333D01*
X138554Y256341D01*
X138543Y256350D01*
X138532Y256359D01*
X138521Y256369D01*
X138511Y256379D01*
X138502Y256389D01*
X138492Y256400D01*
X138483Y256411D01*
X138475Y256422D01*
X138467Y256434D01*
X138460Y256446D01*
X138453Y256458D01*
X138446Y256471D01*
X138440Y256484D01*
X138434Y256497D01*
X138429Y256510D01*
X137219Y259435D01*
X137217Y259439D01*
X137216Y259443D01*
X137214Y259447D01*
X137213Y259451D01*
X137211Y259455D01*
X137210Y259459D01*
X137208Y259464D01*
X137207Y259468D01*
X137206Y259472D01*
X137205Y259476D01*
X137204Y259481D01*
X137203Y259485D01*
X137202Y259489D01*
X137201Y259494D01*
X137200Y259498D01*
X137199Y259503D01*
X137198Y259507D01*
Y259511D01*
X137197Y259516D01*
X137196Y259520D01*
Y259525D01*
X137195Y259530D01*
Y259534D01*
X137194Y259539D01*
Y259543D01*
Y259548D01*
X137193Y259552D01*
Y259557D01*
Y259562D01*
Y259566D01*
Y259571D01*
Y259590D01*
X137195Y259609D01*
X137197Y259627D01*
X137201Y259645D01*
X137205Y259663D01*
X137210Y259680D01*
X137216Y259697D01*
X137223Y259714D01*
X137231Y259730D01*
X137239Y259746D01*
X137248Y259761D01*
X137258Y259776D01*
X137269Y259790D01*
X137280Y259804D01*
X137292Y259817D01*
X137305Y259829D01*
X137318Y259841D01*
X137332Y259852D01*
X137346Y259863D01*
X137361Y259873D01*
X137377Y259882D01*
X137393Y259890D01*
X137409Y259898D01*
X137426Y259905D01*
X137443Y259911D01*
X137461Y259916D01*
X137479Y259920D01*
X137497Y259923D01*
X137516Y259926D01*
X137535Y259927D01*
X137554Y259928D01*
X172162Y259925D01*
D02*
G37*
G36*
X146877Y251546D02*
X146915Y251545D01*
X146953Y251543D01*
X146990Y251539D01*
X147027Y251534D01*
X147064Y251528D01*
X147100Y251520D01*
X147135Y251511D01*
X147170Y251500D01*
X147204Y251489D01*
X147238Y251476D01*
X147271Y251462D01*
X147304Y251446D01*
X147335Y251430D01*
X147366Y251412D01*
X147397Y251393D01*
X147426Y251373D01*
X147455Y251352D01*
X147483Y251330D01*
X147510Y251308D01*
X147536Y251284D01*
X147561Y251259D01*
X147585Y251233D01*
X147609Y251206D01*
X147631Y251179D01*
X147652Y251150D01*
X147672Y251121D01*
X147691Y251091D01*
X147709Y251061D01*
X147726Y251029D01*
X147741Y250997D01*
X147756Y250964D01*
X154338Y235059D01*
X154340Y235054D01*
X154343Y235049D01*
X154345Y235045D01*
X154347Y235040D01*
X154350Y235035D01*
X154352Y235030D01*
X154354Y235025D01*
X154356Y235019D01*
X154358Y235014D01*
X154360Y235009D01*
X154361Y235004D01*
X154363Y234999D01*
X154365Y234993D01*
X154366Y234988D01*
X154368Y234983D01*
X154369Y234977D01*
X154370Y234972D01*
X154371Y234967D01*
X154372Y234961D01*
X154373Y234956D01*
X154374Y234950D01*
X154375Y234945D01*
X154376Y234939D01*
X154377Y234934D01*
Y234928D01*
X154378Y234922D01*
Y234917D01*
X154379Y234911D01*
Y234906D01*
Y234900D01*
Y234894D01*
X154378Y234875D01*
X154377Y234857D01*
X154375Y234838D01*
X154371Y234820D01*
X154367Y234803D01*
X154362Y234785D01*
X154356Y234768D01*
X154349Y234752D01*
X154341Y234735D01*
X154333Y234720D01*
X154323Y234704D01*
X154313Y234690D01*
X154303Y234676D01*
X154291Y234662D01*
X154279Y234649D01*
X154267Y234636D01*
X154253Y234624D01*
X154239Y234613D01*
X154225Y234603D01*
X154210Y234593D01*
X154195Y234584D01*
X154179Y234576D01*
X154162Y234568D01*
X154145Y234561D01*
X154128Y234555D01*
X154111Y234550D01*
X154093Y234546D01*
X154074Y234543D01*
X154056Y234540D01*
X154037Y234539D01*
X154018Y234538D01*
X151825Y234537D01*
X151568Y234543D01*
X151314Y234558D01*
X151063Y234582D01*
X150814Y234617D01*
X150569Y234660D01*
X150327Y234713D01*
X150088Y234774D01*
X149853Y234845D01*
X149622Y234923D01*
X149394Y235011D01*
X149171Y235106D01*
X148953Y235209D01*
X148739Y235320D01*
X148530Y235439D01*
X148326Y235565D01*
X148127Y235699D01*
X147933Y235839D01*
X147745Y235986D01*
X147563Y236140D01*
X147387Y236300D01*
X147217Y236467D01*
X147053Y236639D01*
X146896Y236818D01*
X146745Y237002D01*
X146602Y237192D01*
X146466Y237387D01*
X146337Y237587D01*
X146215Y237793D01*
X146102Y238002D01*
X145996Y238217D01*
X145898Y238436D01*
X140667Y251063D01*
X140665Y251067D01*
X140664Y251071D01*
X140662Y251075D01*
X140661Y251079D01*
X140660Y251083D01*
X140658Y251088D01*
X140657Y251092D01*
X140656Y251096D01*
X140655Y251100D01*
X140653Y251104D01*
X140652Y251108D01*
X140651Y251112D01*
X140650Y251117D01*
X140649Y251121D01*
X140648Y251125D01*
X140647Y251129D01*
Y251134D01*
X140646Y251138D01*
X140645Y251142D01*
Y251147D01*
X140644Y251151D01*
X140643Y251155D01*
Y251160D01*
X140642Y251164D01*
Y251168D01*
Y251173D01*
X140641Y251177D01*
Y251182D01*
Y251186D01*
Y251191D01*
Y251195D01*
X140642Y251214D01*
X140643Y251233D01*
X140645Y251251D01*
X140649Y251270D01*
X140653Y251287D01*
X140658Y251305D01*
X140664Y251322D01*
X140671Y251339D01*
X140679Y251355D01*
X140687Y251371D01*
X140697Y251386D01*
X140707Y251401D01*
X140717Y251415D01*
X140729Y251428D01*
X140741Y251441D01*
X140753Y251454D01*
X140767Y251466D01*
X140780Y251477D01*
X140795Y251488D01*
X140810Y251497D01*
X140825Y251506D01*
X140841Y251515D01*
X140858Y251522D01*
X140874Y251529D01*
X140892Y251535D01*
X140909Y251540D01*
X140927Y251544D01*
X140946Y251548D01*
X140964Y251550D01*
X140983Y251551D01*
X141002Y251552D01*
X146877Y251546D01*
D02*
G37*
G36*
X169655Y251549D02*
X169741Y251538D01*
X169826Y251522D01*
X169909Y251499D01*
X169989Y251471D01*
X170068Y251437D01*
X170144Y251397D01*
X170217Y251353D01*
X170286Y251304D01*
X170352Y251250D01*
X170414Y251192D01*
X170471Y251130D01*
X170524Y251065D01*
X170572Y250996D01*
X170615Y250924D01*
X170652Y250849D01*
X170683Y250771D01*
X170707Y250691D01*
X170726Y250609D01*
X170737Y250525D01*
X170740Y250440D01*
X170737Y250353D01*
X170725Y250265D01*
X170705Y250177D01*
X170676Y250088D01*
X170639Y249999D01*
X170592Y249910D01*
X170536Y249822D01*
X170469Y249734D01*
X170393Y249646D01*
X170306Y249561D01*
X164802Y244440D01*
X164795Y244434D01*
X164776Y244415D01*
X164744Y244383D01*
X164702Y244340D01*
X164649Y244285D01*
X164588Y244218D01*
X164518Y244139D01*
X164442Y244050D01*
X164360Y243949D01*
X164272Y243838D01*
X164181Y243716D01*
X164087Y243585D01*
X163991Y243443D01*
X163893Y243291D01*
X163796Y243130D01*
X163700Y242960D01*
X163606Y242780D01*
X163514Y242592D01*
X163427Y242395D01*
X163345Y242190D01*
X163268Y241976D01*
X163199Y241755D01*
X163138Y241526D01*
X163085Y241290D01*
X163043Y241046D01*
X163011Y240796D01*
X162991Y240539D01*
X162985Y240275D01*
X162992Y240006D01*
X163014Y239730D01*
X163052Y239448D01*
X163097Y239201D01*
X163150Y238960D01*
X163210Y238725D01*
X163278Y238497D01*
X163353Y238275D01*
X163434Y238059D01*
X163522Y237849D01*
X163615Y237646D01*
X163714Y237449D01*
X163818Y237258D01*
X163926Y237074D01*
X164039Y236896D01*
X164156Y236724D01*
X164277Y236558D01*
X164400Y236399D01*
X164527Y236246D01*
X164656Y236099D01*
X164787Y235959D01*
X164920Y235824D01*
X165054Y235697D01*
X165190Y235575D01*
X165326Y235460D01*
X165462Y235351D01*
X165598Y235248D01*
X165734Y235152D01*
X165869Y235062D01*
X166003Y234978D01*
X166135Y234901D01*
X166266Y234830D01*
X166394Y234765D01*
X166519Y234707D01*
X166523Y234705D01*
X166530Y234701D01*
X166537Y234696D01*
X166542Y234691D01*
X166548Y234686D01*
X166553Y234680D01*
X166557Y234673D01*
X166561Y234666D01*
X166564Y234659D01*
X166567Y234652D01*
X166569Y234644D01*
X166570Y234637D01*
X166570Y234629D01*
X166570Y234621D01*
X166570Y234613D01*
X166568Y234606D01*
X166566Y234598D01*
X166563Y234591D01*
X166560Y234584D01*
X166556Y234577D01*
X166551Y234571D01*
X166546Y234565D01*
X166541Y234560D01*
X166535Y234555D01*
X166528Y234550D01*
X166521Y234547D01*
X166514Y234543D01*
X166507Y234541D01*
X166500Y234539D01*
X166492Y234538D01*
X166484Y234537D01*
Y234537D01*
X166479D01*
X160060Y234536D01*
X160022Y234537D01*
X159984Y234539D01*
X159947Y234543D01*
X159910Y234548D01*
X159873Y234554D01*
X159837Y234562D01*
X159801Y234571D01*
X159766Y234582D01*
X159732Y234593D01*
X159698Y234606D01*
X159665Y234620D01*
X159633Y234636D01*
X159601Y234652D01*
X159570Y234670D01*
X159539Y234689D01*
X159510Y234709D01*
X159481Y234730D01*
X159453Y234752D01*
X159426Y234774D01*
X159400Y234798D01*
X159375Y234823D01*
X159351Y234849D01*
X159328Y234876D01*
X159305Y234903D01*
X159284Y234932D01*
X159264Y234961D01*
X159245Y234991D01*
X159227Y235022D01*
X159211Y235053D01*
X159195Y235085D01*
X159181Y235118D01*
X152574Y251068D01*
X152572Y251072D01*
X152571Y251076D01*
X152570Y251080D01*
X152568Y251084D01*
X152567Y251088D01*
X152566Y251092D01*
X152565Y251096D01*
X152563Y251100D01*
X152562Y251104D01*
X152561Y251108D01*
X152560Y251112D01*
X152559Y251116D01*
X152558Y251120D01*
X152557Y251124D01*
Y251128D01*
X152556Y251132D01*
X152555Y251136D01*
X152554Y251140D01*
Y251145D01*
X152553Y251149D01*
X152552Y251153D01*
Y251157D01*
Y251161D01*
X152551Y251165D01*
Y251170D01*
Y251174D01*
X152550Y251178D01*
Y251182D01*
Y251187D01*
Y251191D01*
Y251195D01*
Y251214D01*
X152552Y251233D01*
X152554Y251251D01*
X152558Y251270D01*
X152562Y251287D01*
X152567Y251305D01*
X152573Y251322D01*
X152580Y251339D01*
X152588Y251355D01*
X152596Y251371D01*
X152606Y251386D01*
X152616Y251401D01*
X152626Y251415D01*
X152638Y251428D01*
X152650Y251441D01*
X152663Y251454D01*
X152676Y251466D01*
X152690Y251477D01*
X152704Y251488D01*
X152719Y251497D01*
X152735Y251506D01*
X152751Y251515D01*
X152767Y251522D01*
X152784Y251529D01*
X152801Y251535D01*
X152819Y251540D01*
X152837Y251544D01*
X152856Y251548D01*
X152874Y251550D01*
X152893Y251551D01*
X152912Y251552D01*
X169568D01*
X169655Y251549D01*
D02*
G37*
G36*
X6008Y236434D02*
X6106Y236414D01*
X6359Y236395D01*
X6573Y236375D01*
X6690Y236356D01*
X6768Y236336D01*
X7070Y236287D01*
X7148Y236268D01*
X7255Y236239D01*
X7479Y236190D01*
X7556Y236171D01*
X7644Y236141D01*
X7722Y236122D01*
X7868Y236093D01*
X8004Y236034D01*
X8160Y235995D01*
X8287Y235947D01*
X8394Y235917D01*
X8647Y235820D01*
X8822Y235742D01*
X8900Y235723D01*
X9075Y235645D01*
X9757Y235314D01*
X9932Y235216D01*
X10224Y235061D01*
X10263Y235022D01*
X10400Y234944D01*
X10497Y234885D01*
X10536Y234846D01*
X10672Y234769D01*
X10945Y234574D01*
X11120Y234438D01*
X11159Y234418D01*
X11218Y234360D01*
X11257Y234340D01*
X11335Y234262D01*
X11373Y234243D01*
X11432Y234184D01*
X11471Y234165D01*
X11549Y234087D01*
X11588Y234067D01*
X11685Y233970D01*
X11724Y233951D01*
X11919Y233756D01*
X11958Y233736D01*
X11967Y233707D01*
X11997Y233678D01*
X12036Y233659D01*
X12162Y233532D01*
X12182Y233493D01*
X12221Y233473D01*
X12240Y233435D01*
X12289Y233386D01*
X12328Y233366D01*
X12337Y233337D01*
X12513Y233162D01*
X12532Y233123D01*
X12629Y233026D01*
X12649Y232987D01*
X12727Y232909D01*
X12746Y232870D01*
X12824Y232792D01*
X12844Y232753D01*
X12902Y232694D01*
X12922Y232656D01*
X12970Y232607D01*
X13048Y232490D01*
X13233Y232247D01*
X13292Y232149D01*
X13350Y232091D01*
X13370Y232052D01*
X13506Y231838D01*
X13584Y231701D01*
X13623Y231662D01*
X13720Y231487D01*
X13798Y231351D01*
X14129Y230708D01*
X14324Y230280D01*
X14363Y230143D01*
X14392Y230114D01*
X14421Y230007D01*
X14519Y229754D01*
X14538Y229676D01*
X14587Y229569D01*
X14606Y229472D01*
X14626Y229394D01*
X14665Y229296D01*
X14694Y229189D01*
X14713Y229111D01*
X14742Y229004D01*
X14811Y228702D01*
X14840Y228595D01*
X14859Y228517D01*
X14898Y228264D01*
X14918Y228167D01*
X14937Y228089D01*
X14957Y227992D01*
X14976Y227797D01*
X15005Y227475D01*
X15025Y227417D01*
X15044Y227066D01*
X15064Y227008D01*
X15054Y225947D01*
X15035Y225694D01*
X15015Y225538D01*
X14996Y225362D01*
X14957Y224973D01*
X14937Y224876D01*
X14918Y224798D01*
X14898Y224700D01*
X14879Y224545D01*
X14859Y224447D01*
X14840Y224369D01*
X14772Y224067D01*
X14723Y223902D01*
X14694Y223775D01*
X14674Y223697D01*
X14626Y223571D01*
X14596Y223425D01*
X14548Y223318D01*
X14519Y223211D01*
X14470Y223084D01*
X14431Y222987D01*
X14402Y222860D01*
X14373Y222831D01*
X14324Y222704D01*
X14265Y222568D01*
X14246Y222529D01*
X14168Y222354D01*
X13817Y221633D01*
X13740Y221497D01*
X13642Y221322D01*
X13603Y221283D01*
X13584Y221244D01*
X13448Y221029D01*
X13370Y220893D01*
X13311Y220835D01*
X13292Y220796D01*
X13155Y220601D01*
X13107Y220533D01*
X13019Y220426D01*
X13000Y220387D01*
X12941Y220328D01*
X12922Y220289D01*
X12863Y220231D01*
X12844Y220192D01*
X12766Y220114D01*
X12746Y220075D01*
X12668Y219997D01*
X12649Y219958D01*
X12552Y219861D01*
X12532Y219822D01*
X12357Y219647D01*
X12337Y219608D01*
X12308Y219598D01*
X12279Y219569D01*
X12230Y219501D01*
X12191Y219481D01*
X12182Y219452D01*
X12055Y219326D01*
X12016Y219306D01*
X11987Y219277D01*
X11967Y219238D01*
X11938Y219228D01*
X11744Y219033D01*
X11704Y219014D01*
X11607Y218916D01*
X11568Y218897D01*
X11490Y218819D01*
X11451Y218800D01*
X11393Y218741D01*
X11354Y218722D01*
X11296Y218663D01*
X11227Y218615D01*
X11120Y218527D01*
X11081Y218508D01*
X11042Y218469D01*
X11004Y218449D01*
X10964Y218410D01*
X10867Y218352D01*
X10828Y218313D01*
X10731Y218254D01*
X10672Y218196D01*
X10633Y218176D01*
X10419Y218040D01*
X10283Y217962D01*
X10244Y217923D01*
X10108Y217845D01*
X9932Y217748D01*
X9290Y217417D01*
X8968Y217271D01*
X8842Y217222D01*
X8647Y217144D01*
X8394Y217047D01*
X8287Y217018D01*
X8131Y216959D01*
X8004Y216930D01*
X7897Y216882D01*
X7819Y216862D01*
X7722Y216842D01*
X7644Y216823D01*
X7518Y216774D01*
X7381Y216755D01*
X7303Y216735D01*
X7196Y216706D01*
X6982Y216667D01*
X6865Y216648D01*
X6768Y216628D01*
X6690Y216609D01*
X6573Y216589D01*
X6193Y216560D01*
X6057Y216541D01*
X5979Y216521D01*
X5940Y216482D01*
X4158Y216492D01*
X4041Y216550D01*
X4051Y219559D01*
X4158Y219549D01*
X4382Y219520D01*
X4441Y219501D01*
X5220Y219481D01*
X5531Y219501D01*
X5930Y219549D01*
X6232Y219579D01*
X6310Y219598D01*
X6417Y219627D01*
X6602Y219657D01*
X6680Y219676D01*
X6846Y219725D01*
X6972Y219754D01*
X7079Y219783D01*
X7177Y219822D01*
X7284Y219851D01*
X7420Y219910D01*
X7498Y219929D01*
X7673Y220007D01*
X7751Y220027D01*
X8355Y220319D01*
X8559Y220426D01*
X8754Y220543D01*
X8998Y220708D01*
X9037Y220728D01*
X9075Y220767D01*
X9115Y220786D01*
X9261Y220893D01*
X9368Y220981D01*
X9407Y221000D01*
X9465Y221059D01*
X9504Y221078D01*
X9582Y221156D01*
X9621Y221176D01*
X9640Y221215D01*
X9679Y221234D01*
X9757Y221312D01*
X9825Y221360D01*
X9845Y221399D01*
X9903Y221438D01*
X9952Y221507D01*
X9991Y221526D01*
X10030Y221584D01*
X10098Y221633D01*
X10117Y221672D01*
X10147Y221701D01*
X10186Y221721D01*
X10195Y221750D01*
X10273Y221828D01*
X10322Y221896D01*
X10361Y221916D01*
X10371Y221945D01*
X10400Y221974D01*
X10487Y222081D01*
X10507Y222120D01*
X10536Y222149D01*
X10721Y222393D01*
X10770Y222461D01*
X10896Y222646D01*
X10974Y222782D01*
X11013Y222821D01*
X11169Y223094D01*
X11325Y223386D01*
X11364Y223483D01*
X11393Y223512D01*
X11461Y223697D01*
X11500Y223736D01*
X11520Y223814D01*
X11578Y223951D01*
X11617Y224048D01*
X11636Y224126D01*
X11695Y224262D01*
X11714Y224340D01*
X11744Y224447D01*
X11782Y224545D01*
X11812Y224710D01*
X11889Y224905D01*
X11870Y224963D01*
X11802Y224993D01*
X6223Y224983D01*
X6076Y224993D01*
X6037Y225051D01*
X6047Y227806D01*
X6028Y227865D01*
X6067Y227962D01*
X6164Y227982D01*
X11724Y227972D01*
X11860Y227992D01*
X11889Y228040D01*
X11870Y228099D01*
X11831Y228196D01*
X11792Y228371D01*
X11763Y228478D01*
X11714Y228605D01*
X11695Y228683D01*
X11666Y228771D01*
X11627Y228868D01*
X11597Y228994D01*
X11568Y229024D01*
X11520Y229150D01*
X11500Y229228D01*
X11471Y229257D01*
X11422Y229384D01*
X11354Y229510D01*
X11305Y229637D01*
X11266Y229676D01*
X11247Y229754D01*
X11169Y229871D01*
X11130Y229968D01*
X11091Y230007D01*
X10935Y230280D01*
X10896Y230319D01*
X10877Y230358D01*
X10682Y230630D01*
X10663Y230669D01*
X10624Y230708D01*
X10575Y230776D01*
X10487Y230883D01*
X10468Y230922D01*
X10439Y230932D01*
X10429Y230961D01*
X10390Y231000D01*
X10371Y231039D01*
X10332Y231059D01*
X10312Y231098D01*
X10215Y231195D01*
X10195Y231234D01*
X10156Y231253D01*
X10108Y231322D01*
X10069Y231341D01*
X10039Y231370D01*
X10020Y231409D01*
X9962Y231448D01*
X9942Y231487D01*
X9913Y231516D01*
X9874Y231536D01*
X9835Y231594D01*
X9796Y231614D01*
X9699Y231711D01*
X9660Y231731D01*
X9631Y231760D01*
Y231779D01*
X9601Y231789D01*
X9523Y231867D01*
X9485Y231886D01*
X9436Y231935D01*
X9319Y232013D01*
X9212Y232101D01*
X9075Y232198D01*
X8783Y232393D01*
X8686Y232451D01*
X8569Y232529D01*
X7810Y232918D01*
X7732Y232938D01*
X7625Y232987D01*
X7498Y233035D01*
X7362Y233094D01*
X7284Y233113D01*
X7148Y233152D01*
X7050Y233191D01*
X6894Y233230D01*
X6729Y233279D01*
X6632Y233298D01*
X6515Y233318D01*
X6281Y233376D01*
X6125Y233396D01*
X5930Y233415D01*
X5706Y233444D01*
X5648Y233464D01*
X4869Y233483D01*
X4557Y233464D01*
X4295Y233435D01*
X4051Y233405D01*
X4041Y236414D01*
X4148Y236463D01*
X5921Y236482D01*
X6008Y236434D01*
D02*
G37*
G36*
X23029D02*
X23214Y236404D01*
X23467Y236385D01*
X23730Y236356D01*
X23808Y236336D01*
X24090Y236287D01*
X24246Y236249D01*
X24353Y236219D01*
X24518Y236190D01*
X24743Y236122D01*
X24840Y236103D01*
X24918Y236083D01*
X25015Y236044D01*
X25122Y236015D01*
X25200Y235995D01*
X25307Y235947D01*
X25414Y235917D01*
X25580Y235849D01*
X25687Y235820D01*
X25794Y235772D01*
X25921Y235723D01*
X26096Y235645D01*
X26310Y235548D01*
X26407Y235509D01*
X26894Y235255D01*
X26992Y235197D01*
X27031Y235177D01*
X27128Y235119D01*
X27401Y234963D01*
X27440Y234924D01*
X27479Y234905D01*
X27693Y234769D01*
X27790Y234710D01*
X27829Y234671D01*
X27926Y234613D01*
X27966Y234574D01*
X28063Y234515D01*
X28141Y234438D01*
X28180Y234418D01*
X28219Y234379D01*
X28326Y234311D01*
X28345Y234272D01*
X28394Y234243D01*
X28433Y234223D01*
X28550Y234106D01*
X28589Y234087D01*
X28686Y233990D01*
X28725Y233970D01*
X28900Y233795D01*
X28939Y233775D01*
X29338Y233376D01*
X29387Y233308D01*
X29426Y233288D01*
X29436Y233259D01*
X29553Y233142D01*
X29572Y233104D01*
X29669Y233006D01*
X29689Y232967D01*
X29718Y232957D01*
X29728Y232928D01*
X29806Y232850D01*
X29825Y232811D01*
X29893Y232743D01*
X29971Y232626D01*
X30059Y232519D01*
X30351Y232110D01*
X30410Y232013D01*
X30449Y231974D01*
X30507Y231877D01*
X30526Y231838D01*
X30565Y231799D01*
X30585Y231760D01*
X30643Y231662D01*
X30799Y231390D01*
X30896Y231215D01*
X31149Y230728D01*
X31169Y230650D01*
X31198Y230620D01*
X31266Y230436D01*
X31296Y230406D01*
X31344Y230280D01*
X31383Y230182D01*
X31442Y230027D01*
X31481Y229929D01*
X31510Y229861D01*
X31539Y229734D01*
X31588Y229627D01*
X31646Y229413D01*
X31695Y229287D01*
X31734Y229131D01*
X31763Y229024D01*
X31812Y228819D01*
X31831Y228741D01*
X31860Y228634D01*
X31880Y228556D01*
X31909Y228332D01*
X31929Y228254D01*
X31948Y228196D01*
X31967Y228060D01*
X31987Y227982D01*
X32006Y227670D01*
X32026Y227475D01*
X32065Y227378D01*
X32084Y225645D01*
X32026Y225509D01*
X31987Y225119D01*
X31967Y224866D01*
X31938Y224759D01*
X31919Y224681D01*
X31890Y224457D01*
X31870Y224379D01*
X31841Y224272D01*
X31792Y224048D01*
X31744Y223883D01*
X31724Y223805D01*
X31695Y223678D01*
X31646Y223551D01*
X31617Y223444D01*
X31597Y223366D01*
X31539Y223230D01*
X31500Y223074D01*
X31451Y222987D01*
X31432Y222909D01*
X31403Y222802D01*
X31364Y222763D01*
X31344Y222685D01*
X31286Y222549D01*
X31266Y222509D01*
X31257Y222500D01*
X31247Y222471D01*
X31149Y222256D01*
X30935Y221808D01*
X30741Y221458D01*
X30682Y221360D01*
X30604Y221244D01*
X30585Y221205D01*
X30507Y221088D01*
X30487Y221029D01*
X30449Y220991D01*
X30390Y220893D01*
X30351Y220854D01*
X30332Y220815D01*
X30234Y220679D01*
X30215Y220640D01*
X30176Y220601D01*
X30117Y220504D01*
X30078Y220465D01*
X30030Y220397D01*
X29942Y220289D01*
X29923Y220250D01*
X29845Y220173D01*
X29825Y220134D01*
X29747Y220056D01*
X29728Y220017D01*
X29699Y220007D01*
X29689Y219978D01*
X29592Y219881D01*
X29572Y219842D01*
X29455Y219725D01*
X29436Y219686D01*
X29397Y219666D01*
X29377Y219627D01*
X28959Y219209D01*
X28920Y219189D01*
X28744Y219014D01*
X28705Y218994D01*
X28608Y218897D01*
X28569Y218878D01*
X28501Y218809D01*
X28394Y218722D01*
X28355Y218702D01*
X28345Y218673D01*
X28258Y218624D01*
X28199Y218566D01*
X28160Y218547D01*
X28102Y218488D01*
X28004Y218430D01*
X27966Y218391D01*
X27868Y218332D01*
X27839Y218303D01*
X27596Y218138D01*
X27459Y218060D01*
X27420Y218021D01*
X27284Y217943D01*
X27187Y217884D01*
X27070Y217806D01*
X27031Y217787D01*
X26933Y217729D01*
X26894Y217709D01*
X26797Y217670D01*
X26758Y217631D01*
X26719Y217612D01*
X26622Y217573D01*
X26407Y217456D01*
X26369Y217437D01*
X26193Y217359D01*
X26096Y217320D01*
X25745Y217164D01*
X25668Y217144D01*
X25463Y217057D01*
X25336Y217027D01*
X25229Y216979D01*
X25122Y216950D01*
X25044Y216930D01*
X24918Y216882D01*
X24791Y216852D01*
X24567Y216784D01*
X24402Y216755D01*
X24295Y216726D01*
X24139Y216687D01*
X23886Y216648D01*
X23730Y216609D01*
X23272Y216560D01*
X23077Y216541D01*
X22980Y216502D01*
X21208Y216482D01*
X21033Y216560D01*
X20984Y216648D01*
X21003Y216706D01*
X20994Y219442D01*
X21003Y219530D01*
X21052Y219559D01*
X21266Y219540D01*
X21325Y219520D01*
X21636Y219501D01*
X21695Y219481D01*
X22445Y219491D01*
X22678Y219510D01*
X22834Y219530D01*
X22951Y219549D01*
X23146Y219569D01*
X23301Y219588D01*
X23457Y219627D01*
X23671Y219666D01*
X23769Y219686D01*
X23866Y219725D01*
X23993Y219754D01*
X24071Y219773D01*
X24197Y219822D01*
X24324Y219851D01*
X24421Y219890D01*
X24577Y219949D01*
X24772Y220027D01*
X24986Y220124D01*
X25278Y220260D01*
X25609Y220436D01*
X25648Y220474D01*
X25745Y220513D01*
X25804Y220572D01*
X25872Y220601D01*
X26057Y220728D01*
X26154Y220786D01*
X26193Y220825D01*
X26261Y220874D01*
X26369Y220961D01*
X26407Y220981D01*
X26485Y221059D01*
X26524Y221078D01*
X26583Y221137D01*
X26622Y221156D01*
X26778Y221312D01*
X26816Y221331D01*
X27216Y221731D01*
X27235Y221770D01*
X27391Y221925D01*
X27411Y221964D01*
X27459Y222013D01*
X27644Y222256D01*
X27780Y222432D01*
X27800Y222471D01*
X27839Y222509D01*
X27858Y222549D01*
X27936Y222665D01*
X27995Y222763D01*
X28053Y222821D01*
X28073Y222899D01*
X28112Y222938D01*
X28287Y223269D01*
X28404Y223483D01*
X28423Y223522D01*
X28501Y223697D01*
X28579Y223892D01*
X28637Y224048D01*
X28696Y224184D01*
X28715Y224262D01*
X28744Y224369D01*
X28783Y224467D01*
X28813Y224574D01*
X28832Y224652D01*
X28891Y224866D01*
X28910Y224944D01*
X28930Y225080D01*
X28959Y225187D01*
X28978Y225285D01*
X28998Y225440D01*
X29017Y225635D01*
X29046Y225859D01*
X29066Y225917D01*
X29085Y226502D01*
X29066Y226930D01*
X29037Y227193D01*
X29017Y227349D01*
X28998Y227524D01*
X28978Y227680D01*
X28959Y227777D01*
X28930Y227884D01*
X28910Y227962D01*
X28891Y228099D01*
X28871Y228176D01*
X28832Y228274D01*
X28813Y228391D01*
X28793Y228469D01*
X28735Y228605D01*
X28715Y228722D01*
X28637Y228897D01*
X28598Y229053D01*
X28560Y229092D01*
X28540Y229170D01*
X28443Y229384D01*
X28306Y229676D01*
X28112Y230027D01*
X28034Y230163D01*
X27975Y230260D01*
X27936Y230299D01*
X27858Y230436D01*
X27819Y230474D01*
X27800Y230513D01*
X27693Y230660D01*
X27605Y230767D01*
X27586Y230805D01*
X27527Y230864D01*
X27508Y230903D01*
X27430Y230981D01*
X27411Y231020D01*
X27255Y231176D01*
X27235Y231215D01*
X26836Y231614D01*
X26797Y231633D01*
X26641Y231789D01*
X26602Y231808D01*
X26544Y231867D01*
X26505Y231886D01*
X26437Y231954D01*
X26320Y232032D01*
X26213Y232120D01*
X26145Y232169D01*
X25960Y232295D01*
X25823Y232373D01*
X25745Y232451D01*
X25668Y232471D01*
X25629Y232509D01*
X25453Y232607D01*
X25083Y232802D01*
X24986Y232841D01*
X24772Y232938D01*
X24596Y233016D01*
X24518Y233035D01*
X24421Y233074D01*
X24353Y233104D01*
X24197Y233142D01*
X24100Y233181D01*
X23993Y233211D01*
X23915Y233230D01*
X23749Y233279D01*
X23535Y233318D01*
X23301Y233376D01*
X23146Y233396D01*
X22951Y233415D01*
X22727Y233444D01*
X22668Y233464D01*
X21948Y233483D01*
X21578Y233464D01*
X21315Y233435D01*
X21091Y233405D01*
X21013Y233425D01*
X20994Y233483D01*
X21003Y236219D01*
X20984Y236297D01*
X21013Y236385D01*
X21149Y236463D01*
X22941Y236482D01*
X23029Y236434D01*
D02*
G37*
G36*
X180000Y62746D02*
X180138D01*
Y62737D01*
X180284D01*
Y62729D01*
X180405D01*
Y62720D01*
X180482D01*
Y62712D01*
X180603D01*
Y62703D01*
X180655D01*
Y62694D01*
X180749D01*
Y62686D01*
X180810D01*
Y62677D01*
X180870D01*
Y62668D01*
X180939D01*
Y62660D01*
X180982D01*
Y62651D01*
X181051D01*
Y62643D01*
X181094D01*
Y62634D01*
X181154D01*
Y62625D01*
X181206D01*
Y62617D01*
X181240D01*
Y62608D01*
X181309D01*
Y62600D01*
X181326D01*
Y62591D01*
X181387D01*
Y62582D01*
X181421D01*
Y62574D01*
X181464D01*
Y62565D01*
X181516D01*
Y62557D01*
X181542D01*
Y62548D01*
X181593D01*
Y62539D01*
X181619D01*
Y62531D01*
X181662D01*
Y62522D01*
X181697D01*
Y62513D01*
X181731D01*
Y62505D01*
X181774D01*
Y62496D01*
X181800D01*
Y62488D01*
X181843D01*
Y62479D01*
X181869D01*
Y62470D01*
X181903D01*
Y62462D01*
X181938D01*
Y62453D01*
X181964D01*
Y62445D01*
X182007D01*
Y62436D01*
X182033D01*
Y62427D01*
X182058D01*
Y62419D01*
X182093D01*
Y62410D01*
X182110D01*
Y62401D01*
X182153D01*
Y62393D01*
X182170D01*
Y62384D01*
X182213D01*
Y62376D01*
X182231D01*
Y62367D01*
X182257D01*
Y62358D01*
X182299D01*
Y62350D01*
X182317D01*
Y62341D01*
X182351D01*
Y62333D01*
X182368D01*
Y62324D01*
X182403D01*
Y62315D01*
X182420D01*
Y62307D01*
X182446D01*
Y62298D01*
X182480D01*
Y62290D01*
X182498D01*
Y62281D01*
X182532D01*
Y62272D01*
X182549D01*
Y62264D01*
X182575D01*
Y62255D01*
X182601D01*
Y62246D01*
X182618D01*
Y62238D01*
X182653D01*
Y62229D01*
X182670D01*
Y62221D01*
X182696D01*
Y62212D01*
X182722D01*
Y62203D01*
X182730D01*
Y62195D01*
X182765D01*
Y62186D01*
X182782D01*
Y62178D01*
X182808D01*
Y62169D01*
X182833D01*
Y62160D01*
X182851D01*
Y62152D01*
X182876D01*
Y62143D01*
X182894D01*
Y62134D01*
X182920D01*
Y62126D01*
X182937D01*
Y62117D01*
X182963D01*
Y62109D01*
X182980D01*
Y62100D01*
X182997D01*
Y62091D01*
X183032D01*
Y62083D01*
X183040D01*
Y62074D01*
X183066D01*
Y62066D01*
X183083D01*
Y62057D01*
X183100D01*
Y62048D01*
X183126D01*
Y62040D01*
X183144D01*
Y62031D01*
X183169D01*
Y62023D01*
X183178D01*
Y62014D01*
X183204D01*
Y62005D01*
X183221D01*
Y61997D01*
X183238D01*
Y61988D01*
X183264D01*
Y61979D01*
X183281D01*
Y61971D01*
X183299D01*
Y61962D01*
X183316D01*
Y61954D01*
X183333D01*
Y61945D01*
X183359D01*
Y61936D01*
X183368D01*
Y61928D01*
X183393D01*
Y61919D01*
X183410D01*
Y61911D01*
X183428D01*
Y61902D01*
X183445D01*
Y61893D01*
X183462D01*
Y61885D01*
X183479D01*
Y61876D01*
X183497D01*
Y61867D01*
X183514D01*
Y61859D01*
X183531D01*
Y61850D01*
X183548D01*
Y61842D01*
X183574D01*
Y61833D01*
X183583D01*
Y61824D01*
X183600D01*
Y61816D01*
X183617D01*
Y61807D01*
X183634D01*
Y61799D01*
X183652D01*
Y61790D01*
X183669D01*
Y61781D01*
X183686D01*
Y61773D01*
X183703D01*
Y61764D01*
X183721D01*
Y61756D01*
X183738D01*
Y61747D01*
X183755D01*
Y61738D01*
X183772D01*
Y61730D01*
X183781D01*
Y61721D01*
X183798D01*
Y61712D01*
X183815D01*
Y61704D01*
X183833D01*
Y61695D01*
X183850D01*
Y61687D01*
X183867D01*
Y61678D01*
X183884D01*
Y61669D01*
X183893D01*
Y61661D01*
X183910D01*
Y61652D01*
X183927D01*
Y61644D01*
X183944D01*
Y61635D01*
X183962D01*
Y61626D01*
X183970D01*
Y61618D01*
X183988D01*
Y61609D01*
X183996D01*
Y61601D01*
X184013D01*
Y61592D01*
X184031D01*
Y61583D01*
X184048D01*
Y61575D01*
X184065D01*
Y61566D01*
X184074D01*
Y61557D01*
X184091D01*
Y61549D01*
X184108D01*
Y61540D01*
X184117D01*
Y61532D01*
X184134D01*
Y61523D01*
X184143D01*
Y61514D01*
X184168D01*
Y61506D01*
X184177D01*
Y61497D01*
X184194D01*
Y61489D01*
X184212D01*
Y61480D01*
X184220D01*
Y61471D01*
X184237D01*
Y61463D01*
X184246D01*
Y61454D01*
X184263D01*
Y61445D01*
X184280D01*
Y61437D01*
X184289D01*
Y61428D01*
X184306D01*
Y61420D01*
X184315D01*
Y61411D01*
X184332D01*
Y61403D01*
X184341D01*
Y61394D01*
X184358D01*
Y61385D01*
X184375D01*
Y61377D01*
X184384D01*
Y61368D01*
X184401D01*
Y61359D01*
X184410D01*
Y61351D01*
X184427D01*
Y61342D01*
X184435D01*
Y61334D01*
X184453D01*
Y61325D01*
X184461D01*
Y61316D01*
X184478D01*
Y61308D01*
X184496D01*
Y61299D01*
X184504D01*
Y61290D01*
X184513D01*
Y61282D01*
X184530D01*
Y61273D01*
X184539D01*
Y61265D01*
X184556D01*
Y61256D01*
X184565D01*
Y61248D01*
X184582D01*
Y61239D01*
X184590D01*
Y61230D01*
X184608D01*
Y61222D01*
X184616D01*
Y61213D01*
X184625D01*
Y61204D01*
X184642D01*
Y61196D01*
X184651D01*
Y61187D01*
X184668D01*
Y61178D01*
X184677D01*
Y61170D01*
X184694D01*
Y61161D01*
X184702D01*
Y61153D01*
X184711D01*
Y61144D01*
X184728D01*
Y61136D01*
X184737D01*
Y61127D01*
X184754D01*
Y61118D01*
X184763D01*
Y61110D01*
X184771D01*
Y61101D01*
X184788D01*
Y61092D01*
X184797D01*
Y61084D01*
X184814D01*
Y61075D01*
X184823D01*
Y61067D01*
X184832D01*
Y61058D01*
X184849D01*
Y61049D01*
X184857D01*
Y61041D01*
X184866D01*
Y61032D01*
X184875D01*
Y61024D01*
X184892D01*
Y61015D01*
X184900D01*
Y61006D01*
X184909D01*
Y60998D01*
X184926D01*
Y60989D01*
X184935D01*
Y60980D01*
X184952D01*
Y60972D01*
X184961D01*
Y60963D01*
X184969D01*
Y60955D01*
X184987D01*
Y60946D01*
X184995D01*
Y60937D01*
X185004D01*
Y60929D01*
X185012D01*
Y60920D01*
X185030D01*
Y60912D01*
X185038D01*
Y60903D01*
X185047D01*
Y60894D01*
X185064D01*
Y60886D01*
X185073D01*
Y60877D01*
X185081D01*
Y60869D01*
X185099D01*
Y60860D01*
X185107D01*
Y60851D01*
X185116D01*
Y60843D01*
X185124D01*
Y60834D01*
X185133D01*
Y60825D01*
X185142D01*
Y60817D01*
X185159D01*
Y60808D01*
X185168D01*
Y60800D01*
X185176D01*
Y60791D01*
X185193D01*
Y60782D01*
X185202D01*
Y60774D01*
X185210D01*
Y60765D01*
X185219D01*
Y60757D01*
X185228D01*
Y60748D01*
X185245D01*
Y60739D01*
X185254D01*
Y60731D01*
X185262D01*
Y60722D01*
X185271D01*
Y60714D01*
X185279D01*
Y60705D01*
X185297D01*
Y60696D01*
X185305D01*
Y60688D01*
X185314D01*
Y60679D01*
X185322D01*
Y60670D01*
X185331D01*
Y60662D01*
X185348D01*
Y60653D01*
X185357D01*
Y60645D01*
X185366D01*
Y60636D01*
X185374D01*
Y60627D01*
X185383D01*
Y60619D01*
X185391D01*
Y60610D01*
X185400D01*
Y60602D01*
X185417D01*
Y60584D01*
X185434D01*
Y60576D01*
X185443D01*
Y60567D01*
X185452D01*
Y60559D01*
X185460D01*
Y60550D01*
X185469D01*
Y60541D01*
X185478D01*
Y60533D01*
X185495D01*
Y60524D01*
X185503D01*
Y60515D01*
X185512D01*
Y60507D01*
X185521D01*
Y60498D01*
X185529D01*
Y60490D01*
X185538D01*
Y60481D01*
X185546D01*
Y60472D01*
X185555D01*
Y60464D01*
X185564D01*
Y60455D01*
X185572D01*
Y60447D01*
X185581D01*
Y60438D01*
X185598D01*
Y60429D01*
X185607D01*
Y60421D01*
X185615D01*
Y60412D01*
X185624D01*
Y60403D01*
X185632D01*
Y60395D01*
X185641D01*
Y60386D01*
X185650D01*
Y60378D01*
X185658D01*
Y60369D01*
X185667D01*
Y60360D01*
X185676D01*
Y60352D01*
X185684D01*
Y60343D01*
X185693D01*
Y60335D01*
X185701D01*
Y60326D01*
X185710D01*
Y60317D01*
X185727D01*
Y60300D01*
X185736D01*
Y60291D01*
X185744D01*
Y60283D01*
X185753D01*
Y60274D01*
X185770D01*
Y60266D01*
X185779D01*
Y60257D01*
X185788D01*
Y60248D01*
X185796D01*
Y60240D01*
X185805D01*
Y60231D01*
X185813D01*
Y60223D01*
X185822D01*
Y60214D01*
X185831D01*
Y60205D01*
X185839D01*
Y60197D01*
X185848D01*
Y60188D01*
X185856D01*
Y60180D01*
X185865D01*
Y60171D01*
X185874D01*
Y60162D01*
X185882D01*
Y60154D01*
X185891D01*
Y60136D01*
X185908D01*
Y60128D01*
X185917D01*
Y60111D01*
X185934D01*
Y60093D01*
X185943D01*
Y60085D01*
X185951D01*
Y60076D01*
X185960D01*
Y60068D01*
X185968D01*
Y60059D01*
X185977D01*
Y60050D01*
X185986D01*
Y60042D01*
X185994D01*
Y60033D01*
X186003D01*
Y60024D01*
X186012D01*
Y60016D01*
X186020D01*
Y60007D01*
X186029D01*
Y59999D01*
X186037D01*
Y59990D01*
X186046D01*
Y59981D01*
X186054D01*
Y59973D01*
X186063D01*
Y59964D01*
X186072D01*
Y59956D01*
X186080D01*
Y59938D01*
X186089D01*
Y59930D01*
X186098D01*
Y59921D01*
X186115D01*
Y59904D01*
X186124D01*
Y59895D01*
X186132D01*
Y59887D01*
X186141D01*
Y59878D01*
X186149D01*
Y59869D01*
X186158D01*
Y59852D01*
X186166D01*
Y59844D01*
X186175D01*
Y59835D01*
X186184D01*
Y59826D01*
X186192D01*
Y59818D01*
X186201D01*
Y59809D01*
X186210D01*
Y59801D01*
X186218D01*
Y59792D01*
X186227D01*
Y59783D01*
X186235D01*
Y59766D01*
X186244D01*
Y59757D01*
X186253D01*
Y59749D01*
X186261D01*
Y59740D01*
X186270D01*
Y59732D01*
X186278D01*
Y59723D01*
X186287D01*
Y59714D01*
X186296D01*
Y59697D01*
X186304D01*
Y59689D01*
X186313D01*
Y59680D01*
X186322D01*
Y59671D01*
X186330D01*
Y59663D01*
X186339D01*
Y59654D01*
X186347D01*
Y59637D01*
X186356D01*
Y59628D01*
X186365D01*
Y59620D01*
X186373D01*
Y59611D01*
X186382D01*
Y59602D01*
X186390D01*
Y59585D01*
X186399D01*
Y59577D01*
X186408D01*
Y59568D01*
X186416D01*
Y59559D01*
X186425D01*
Y59542D01*
X186434D01*
Y59534D01*
X186442D01*
Y59525D01*
X186451D01*
Y59508D01*
X186459D01*
Y59499D01*
X186468D01*
Y59490D01*
X186477D01*
Y59482D01*
X186485D01*
Y59473D01*
X186494D01*
Y59465D01*
X186502D01*
Y59447D01*
X186511D01*
Y59439D01*
X186520D01*
Y59430D01*
X186528D01*
Y59413D01*
X186537D01*
Y59404D01*
X186545D01*
Y59396D01*
X186554D01*
Y59378D01*
X186563D01*
Y59370D01*
X186571D01*
Y59361D01*
X186580D01*
Y59353D01*
X186588D01*
Y59335D01*
X186597D01*
Y59327D01*
X186606D01*
Y59318D01*
X186614D01*
Y59301D01*
X186623D01*
Y59292D01*
X186632D01*
Y59284D01*
X186640D01*
Y59275D01*
X186649D01*
Y59258D01*
X186657D01*
Y59249D01*
X186666D01*
Y59241D01*
X186675D01*
Y59223D01*
X186683D01*
Y59215D01*
X186692D01*
Y59206D01*
X186700D01*
Y59189D01*
X186709D01*
Y59180D01*
X186718D01*
Y59163D01*
X186726D01*
Y59155D01*
X186735D01*
Y59137D01*
X186744D01*
Y59129D01*
X186752D01*
Y59120D01*
X186761D01*
Y59103D01*
X186769D01*
Y59094D01*
X186778D01*
Y59077D01*
X186787D01*
Y59068D01*
X186795D01*
Y59060D01*
X186804D01*
Y59043D01*
X186812D01*
Y59034D01*
X186821D01*
Y59017D01*
X186830D01*
Y59008D01*
X186838D01*
Y58991D01*
X186847D01*
Y58982D01*
X186856D01*
Y58974D01*
X186864D01*
Y58956D01*
X186873D01*
Y58948D01*
X186881D01*
Y58931D01*
X186890D01*
Y58922D01*
X186899D01*
Y58905D01*
X186907D01*
Y58896D01*
X186916D01*
Y58879D01*
X186924D01*
Y58870D01*
X186933D01*
Y58853D01*
X186942D01*
Y58845D01*
X186950D01*
Y58827D01*
X186959D01*
Y58819D01*
X186968D01*
Y58801D01*
X186976D01*
Y58793D01*
X186985D01*
Y58776D01*
X186993D01*
Y58767D01*
X187002D01*
Y58750D01*
X187010D01*
Y58741D01*
X187019D01*
Y58724D01*
X187028D01*
Y58707D01*
X187036D01*
Y58698D01*
X187045D01*
Y58681D01*
X187054D01*
Y58672D01*
X187062D01*
Y58655D01*
X187071D01*
Y58638D01*
X187079D01*
Y58629D01*
X187088D01*
Y58612D01*
X187097D01*
Y58603D01*
X187105D01*
Y58586D01*
X187114D01*
Y58569D01*
X187122D01*
Y58560D01*
X187131D01*
Y58543D01*
X187140D01*
Y58534D01*
X187148D01*
Y58517D01*
X187157D01*
Y58500D01*
X187166D01*
Y58492D01*
X187174D01*
Y58474D01*
X187183D01*
Y58457D01*
X187191D01*
Y58440D01*
X187200D01*
Y58431D01*
X187209D01*
Y58414D01*
X187217D01*
Y58397D01*
X187226D01*
Y58388D01*
X187234D01*
Y58371D01*
X187243D01*
Y58354D01*
X187252D01*
Y58336D01*
X187260D01*
Y58328D01*
X187269D01*
Y58311D01*
X187278D01*
Y58293D01*
X187286D01*
Y58276D01*
X187295D01*
Y58259D01*
X187303D01*
Y58242D01*
X187312D01*
Y58233D01*
X187321D01*
Y58216D01*
X187329D01*
Y58199D01*
X187338D01*
Y58181D01*
X187346D01*
Y58173D01*
X187355D01*
Y58147D01*
X187364D01*
Y58138D01*
X187372D01*
Y58121D01*
X187381D01*
Y58104D01*
X187390D01*
Y58087D01*
X187398D01*
Y58070D01*
X187407D01*
Y58052D01*
X187415D01*
Y58035D01*
X187424D01*
Y58018D01*
X187432D01*
Y58009D01*
X187441D01*
Y57983D01*
X187450D01*
Y57975D01*
X187458D01*
Y57949D01*
X187467D01*
Y57940D01*
X187476D01*
Y57923D01*
X187484D01*
Y57897D01*
X187493D01*
Y57889D01*
X187502D01*
Y57863D01*
X187510D01*
Y57854D01*
X187519D01*
Y57828D01*
X187527D01*
Y57811D01*
X187536D01*
Y57794D01*
X187544D01*
Y57777D01*
X187553D01*
Y57768D01*
X187562D01*
Y57742D01*
X187570D01*
Y57725D01*
X187579D01*
Y57699D01*
X187588D01*
Y57682D01*
X187596D01*
Y57665D01*
X187605D01*
Y57647D01*
X187613D01*
Y57630D01*
X187622D01*
Y57613D01*
X187631D01*
Y57587D01*
X187639D01*
Y57570D01*
X187648D01*
Y57553D01*
X187656D01*
Y57536D01*
X187665D01*
Y57510D01*
X187674D01*
Y57492D01*
X187682D01*
Y57475D01*
X187691D01*
Y57449D01*
X187700D01*
Y57432D01*
X187708D01*
Y57406D01*
X187717D01*
Y57389D01*
X187725D01*
Y57363D01*
X187734D01*
Y57346D01*
X187743D01*
Y57329D01*
X187751D01*
Y57303D01*
X187760D01*
Y57286D01*
X187768D01*
Y57260D01*
X187777D01*
Y57243D01*
X187786D01*
Y57225D01*
X187794D01*
Y57200D01*
X187803D01*
Y57182D01*
X187812D01*
Y57148D01*
X187820D01*
Y57139D01*
X187829D01*
Y57113D01*
X187837D01*
Y57088D01*
X187846D01*
Y57070D01*
X187855D01*
Y57036D01*
X187863D01*
Y57019D01*
X187872D01*
Y56984D01*
X187880D01*
Y56967D01*
X187889D01*
Y56941D01*
X187898D01*
Y56915D01*
X187906D01*
Y56898D01*
X187915D01*
Y56864D01*
X187923D01*
Y56846D01*
X187932D01*
Y56821D01*
X187941D01*
Y56795D01*
X187949D01*
Y56769D01*
X187958D01*
Y56743D01*
X187966D01*
Y56717D01*
X187975D01*
Y56683D01*
X187984D01*
Y56666D01*
X187992D01*
Y56631D01*
X188001D01*
Y56605D01*
X188010D01*
Y56579D01*
X188018D01*
Y56545D01*
X188027D01*
Y56528D01*
X188035D01*
Y56493D01*
X188044D01*
Y56459D01*
X188053D01*
Y56433D01*
X188061D01*
Y56399D01*
X188070D01*
Y56373D01*
X188078D01*
Y56330D01*
X188087D01*
Y56312D01*
X188096D01*
Y56278D01*
X188104D01*
Y56235D01*
X188113D01*
Y56218D01*
X188121D01*
Y56166D01*
X188130D01*
Y56140D01*
X188139D01*
Y56097D01*
X188147D01*
Y56063D01*
X188156D01*
Y56037D01*
X188165D01*
Y55994D01*
X188173D01*
Y55968D01*
X188182D01*
Y55916D01*
X188190D01*
Y55882D01*
X188199D01*
Y55847D01*
X188208D01*
Y55796D01*
X188216D01*
Y55761D01*
X188225D01*
Y55701D01*
X188234D01*
Y55675D01*
X188242D01*
Y55615D01*
X188251D01*
Y55572D01*
X188259D01*
Y55529D01*
X188268D01*
Y55469D01*
X188277D01*
Y55425D01*
X188285D01*
Y55356D01*
X188294D01*
Y55305D01*
X188302D01*
Y55245D01*
X188311D01*
Y55176D01*
X188320D01*
Y55133D01*
X188328D01*
Y55029D01*
X188337D01*
Y54978D01*
X188346D01*
Y54866D01*
X188354D01*
Y54788D01*
X188363D01*
Y54693D01*
X188371D01*
Y54530D01*
X188380D01*
Y54401D01*
X188389D01*
Y53668D01*
X188380D01*
Y53548D01*
X188371D01*
Y53376D01*
X188363D01*
Y53281D01*
X188354D01*
Y53195D01*
X188346D01*
Y53083D01*
X188337D01*
Y53040D01*
X188328D01*
Y52936D01*
X188320D01*
Y52885D01*
X188311D01*
Y52825D01*
X188302D01*
Y52756D01*
X188294D01*
Y52704D01*
X188285D01*
Y52644D01*
X188277D01*
Y52601D01*
X188268D01*
Y52532D01*
X188259D01*
Y52497D01*
X188251D01*
Y52454D01*
X188242D01*
Y52394D01*
X188234D01*
Y52359D01*
X188225D01*
Y52308D01*
X188216D01*
Y52273D01*
X188208D01*
Y52222D01*
X188199D01*
Y52187D01*
X188190D01*
Y52153D01*
X188182D01*
Y52101D01*
X188173D01*
Y52075D01*
X188165D01*
Y52024D01*
X188156D01*
Y51998D01*
X188147D01*
Y51963D01*
X188139D01*
Y51920D01*
X188130D01*
Y51903D01*
X188121D01*
Y51851D01*
X188113D01*
Y51825D01*
X188104D01*
Y51791D01*
X188096D01*
Y51757D01*
X188087D01*
Y51739D01*
X188078D01*
Y51696D01*
X188070D01*
Y51670D01*
X188061D01*
Y51627D01*
X188053D01*
Y51610D01*
X188044D01*
Y51576D01*
X188035D01*
Y51541D01*
X188027D01*
Y51524D01*
X188018D01*
Y51481D01*
X188010D01*
Y51464D01*
X188001D01*
Y51429D01*
X187992D01*
Y51403D01*
X187984D01*
Y51386D01*
X187975D01*
Y51343D01*
X187966D01*
Y51326D01*
X187958D01*
Y51300D01*
X187949D01*
Y51274D01*
X187941D01*
Y51248D01*
X187932D01*
Y51214D01*
X187923D01*
Y51205D01*
X187915D01*
Y51162D01*
X187906D01*
Y51154D01*
X187898D01*
Y51119D01*
X187889D01*
Y51102D01*
X187880D01*
Y51076D01*
X187872D01*
Y51050D01*
X187863D01*
Y51033D01*
X187855D01*
Y50999D01*
X187846D01*
Y50981D01*
X187837D01*
Y50956D01*
X187829D01*
Y50930D01*
X187820D01*
Y50912D01*
X187812D01*
Y50887D01*
X187803D01*
Y50869D01*
X187794D01*
Y50844D01*
X187786D01*
Y50826D01*
X187777D01*
Y50809D01*
X187768D01*
Y50775D01*
X187760D01*
Y50766D01*
X187751D01*
Y50732D01*
X187743D01*
Y50723D01*
X187734D01*
Y50706D01*
X187725D01*
Y50671D01*
X187717D01*
Y50663D01*
X187708D01*
Y50628D01*
X187700D01*
Y50620D01*
X187691D01*
Y50594D01*
X187682D01*
Y50577D01*
X187674D01*
Y50559D01*
X187665D01*
Y50534D01*
X187656D01*
Y50516D01*
X187648D01*
Y50490D01*
X187639D01*
Y50473D01*
X187631D01*
Y50456D01*
X187622D01*
Y50439D01*
X187613D01*
Y50422D01*
X187605D01*
Y50396D01*
X187596D01*
Y50387D01*
X187588D01*
Y50361D01*
X187579D01*
Y50344D01*
X187570D01*
Y50327D01*
X187562D01*
Y50301D01*
X187553D01*
Y50292D01*
X187544D01*
Y50267D01*
X187536D01*
Y50258D01*
X187527D01*
Y50241D01*
X187519D01*
Y50215D01*
X187510D01*
Y50206D01*
X187502D01*
Y50180D01*
X187493D01*
Y50172D01*
X187484D01*
Y50146D01*
X187476D01*
Y50129D01*
X187467D01*
Y50111D01*
X187458D01*
Y50094D01*
X187450D01*
Y50086D01*
X187441D01*
Y50060D01*
X187432D01*
Y50043D01*
X187424D01*
Y50034D01*
X187415D01*
Y50008D01*
X187407D01*
Y50000D01*
X187398D01*
Y49974D01*
X187390D01*
Y49965D01*
X187381D01*
Y49948D01*
X187372D01*
Y49931D01*
X187364D01*
Y49922D01*
X187355D01*
Y49896D01*
X187346D01*
Y49888D01*
X187338D01*
Y49870D01*
X187329D01*
Y49853D01*
X187321D01*
Y49836D01*
X187312D01*
Y49819D01*
X187303D01*
Y49810D01*
X187295D01*
Y49784D01*
X187286D01*
Y49776D01*
X187278D01*
Y49758D01*
X187269D01*
Y49741D01*
X187260D01*
Y49733D01*
X187252D01*
Y49707D01*
X187243D01*
Y49698D01*
X187234D01*
Y49681D01*
X187226D01*
Y49672D01*
X187217D01*
Y49655D01*
X187209D01*
Y49638D01*
X187200D01*
Y49629D01*
X187191D01*
Y49603D01*
X187183D01*
Y49595D01*
X187174D01*
Y49578D01*
X187166D01*
Y49560D01*
X187157D01*
Y49552D01*
X187148D01*
Y49535D01*
X187140D01*
Y49526D01*
X187131D01*
Y49509D01*
X187122D01*
Y49500D01*
X187114D01*
Y49483D01*
X187105D01*
Y49466D01*
X187097D01*
Y49457D01*
X187088D01*
Y49440D01*
X187079D01*
Y49423D01*
X187071D01*
Y49405D01*
X187062D01*
Y49397D01*
X187054D01*
Y49388D01*
X187045D01*
Y49371D01*
X187036D01*
Y49362D01*
X187028D01*
Y49345D01*
X187019D01*
Y49328D01*
X187010D01*
Y49319D01*
X187002D01*
Y49302D01*
X186993D01*
Y49293D01*
X186985D01*
Y49276D01*
X186976D01*
Y49259D01*
X186968D01*
Y49250D01*
X186959D01*
Y49233D01*
X186950D01*
Y49225D01*
X186942D01*
Y49207D01*
X186933D01*
Y49199D01*
X186924D01*
Y49181D01*
X186916D01*
Y49173D01*
X186907D01*
Y49156D01*
X186899D01*
Y49147D01*
X186890D01*
Y49138D01*
X186881D01*
Y49121D01*
X186873D01*
Y49113D01*
X186864D01*
Y49095D01*
X186856D01*
Y49078D01*
X186847D01*
Y49069D01*
X186838D01*
Y49061D01*
X186830D01*
Y49052D01*
X186821D01*
Y49035D01*
X186812D01*
Y49018D01*
X186804D01*
Y49009D01*
X186795D01*
Y49001D01*
X186787D01*
Y48983D01*
X186778D01*
Y48975D01*
X186769D01*
Y48966D01*
X186761D01*
Y48949D01*
X186752D01*
Y48940D01*
X186744D01*
Y48923D01*
X186735D01*
Y48914D01*
X186726D01*
Y48906D01*
X186718D01*
Y48889D01*
X186709D01*
Y48880D01*
X186700D01*
Y48863D01*
X186692D01*
Y48854D01*
X186683D01*
Y48846D01*
X186675D01*
Y48828D01*
X186666D01*
Y48820D01*
X186657D01*
Y48811D01*
X186649D01*
Y48794D01*
X186640D01*
Y48785D01*
X186632D01*
Y48777D01*
X186623D01*
Y48768D01*
X186614D01*
Y48751D01*
X186606D01*
Y48742D01*
X186597D01*
Y48734D01*
X186588D01*
Y48716D01*
X186580D01*
Y48708D01*
X186571D01*
Y48691D01*
X186563D01*
Y48682D01*
X186554D01*
Y48673D01*
X186545D01*
Y48665D01*
X186537D01*
Y48656D01*
X186528D01*
Y48639D01*
X186520D01*
Y48630D01*
X186511D01*
Y48622D01*
X186502D01*
Y48604D01*
X186494D01*
Y48596D01*
X186485D01*
Y48587D01*
X186477D01*
Y48579D01*
X186468D01*
Y48561D01*
X186459D01*
Y48553D01*
X186451D01*
Y48544D01*
X186442D01*
Y48535D01*
X186434D01*
Y48527D01*
X186425D01*
Y48510D01*
X186416D01*
Y48501D01*
X186408D01*
Y48492D01*
X186399D01*
Y48475D01*
X186390D01*
Y48467D01*
X186382D01*
Y48458D01*
X186373D01*
Y48449D01*
X186365D01*
Y48441D01*
X186356D01*
Y48432D01*
X186347D01*
Y48424D01*
X186339D01*
Y48415D01*
X186330D01*
Y48398D01*
X186322D01*
Y48389D01*
X186313D01*
Y48380D01*
X186304D01*
Y48363D01*
X186296D01*
Y48355D01*
X186287D01*
Y48346D01*
X186278D01*
Y48337D01*
X186270D01*
Y48329D01*
X186261D01*
Y48320D01*
X186253D01*
Y48312D01*
X186244D01*
Y48294D01*
X186235D01*
Y48286D01*
X186218D01*
Y48268D01*
X186210D01*
Y48260D01*
X186201D01*
Y48251D01*
X186192D01*
Y48243D01*
X186184D01*
Y48225D01*
X186175D01*
Y48217D01*
X186166D01*
Y48208D01*
X186158D01*
Y48200D01*
X186149D01*
Y48191D01*
X186141D01*
Y48182D01*
X186132D01*
Y48174D01*
X186124D01*
Y48165D01*
X186115D01*
Y48156D01*
X186106D01*
Y48148D01*
X186098D01*
Y48131D01*
X186089D01*
Y48122D01*
X186080D01*
Y48113D01*
X186072D01*
Y48105D01*
X186063D01*
Y48096D01*
X186054D01*
Y48088D01*
X186046D01*
Y48079D01*
X186037D01*
Y48070D01*
X186029D01*
Y48062D01*
X186020D01*
Y48053D01*
X186012D01*
Y48045D01*
X186003D01*
Y48036D01*
X185994D01*
Y48027D01*
X185986D01*
Y48019D01*
X185977D01*
Y48010D01*
X185968D01*
Y48001D01*
X185960D01*
Y47993D01*
X185951D01*
Y47984D01*
X185943D01*
Y47976D01*
X185934D01*
Y47958D01*
X185917D01*
Y47950D01*
X185908D01*
Y47933D01*
X185891D01*
Y47915D01*
X185874D01*
Y47898D01*
X185865D01*
Y47889D01*
X185856D01*
Y47881D01*
X185848D01*
Y47872D01*
X185839D01*
Y47864D01*
X185831D01*
Y47855D01*
X185822D01*
Y47846D01*
X185813D01*
Y47838D01*
X185805D01*
Y47829D01*
X185796D01*
Y47821D01*
X185788D01*
Y47812D01*
X185779D01*
Y47803D01*
X185770D01*
Y47795D01*
X185762D01*
Y47786D01*
X185753D01*
Y47778D01*
X185744D01*
Y47769D01*
X185736D01*
Y47760D01*
X185727D01*
Y47752D01*
X185710D01*
Y47743D01*
X185701D01*
Y47734D01*
X185693D01*
Y47726D01*
X185684D01*
Y47717D01*
X185676D01*
Y47709D01*
X185667D01*
Y47700D01*
X185658D01*
Y47691D01*
X185650D01*
Y47683D01*
X185641D01*
Y47674D01*
X185632D01*
Y47666D01*
X185624D01*
Y47657D01*
X185615D01*
Y47648D01*
X185607D01*
Y47640D01*
X185598D01*
Y47631D01*
X185590D01*
Y47622D01*
X185581D01*
Y47614D01*
X185564D01*
Y47605D01*
X185555D01*
Y47597D01*
X185546D01*
Y47588D01*
X185538D01*
Y47579D01*
X185529D01*
Y47571D01*
X185521D01*
Y47562D01*
X185512D01*
Y47554D01*
X185503D01*
Y47545D01*
X185486D01*
Y47528D01*
X185469D01*
Y47519D01*
X185460D01*
Y47511D01*
X185452D01*
Y47502D01*
X185443D01*
Y47493D01*
X185434D01*
Y47485D01*
X185426D01*
Y47476D01*
X185417D01*
Y47467D01*
X185409D01*
Y47459D01*
X185391D01*
Y47450D01*
X185383D01*
Y47442D01*
X185374D01*
Y47433D01*
X185366D01*
Y47425D01*
X185357D01*
Y47416D01*
X185340D01*
Y47407D01*
X185331D01*
Y47399D01*
X185322D01*
Y47390D01*
X185314D01*
Y47381D01*
X185305D01*
Y47373D01*
X185297D01*
Y47364D01*
X185288D01*
Y47356D01*
X185271D01*
Y47347D01*
X185262D01*
Y47338D01*
X185254D01*
Y47330D01*
X185245D01*
Y47321D01*
X185236D01*
Y47312D01*
X185219D01*
Y47304D01*
X185210D01*
Y47295D01*
X185202D01*
Y47287D01*
X185193D01*
Y47278D01*
X185176D01*
Y47269D01*
X185168D01*
Y47261D01*
X185159D01*
Y47252D01*
X185150D01*
Y47244D01*
X185142D01*
Y47235D01*
X185124D01*
Y47226D01*
X185116D01*
Y47218D01*
X185107D01*
Y47209D01*
X185099D01*
Y47200D01*
X185081D01*
Y47192D01*
X185073D01*
Y47183D01*
X185064D01*
Y47175D01*
X185047D01*
Y47166D01*
X185038D01*
Y47158D01*
X185030D01*
Y47149D01*
X185021D01*
Y47140D01*
X185012D01*
Y47132D01*
X184995D01*
Y47123D01*
X184987D01*
Y47114D01*
X184969D01*
Y47106D01*
X184961D01*
Y47097D01*
X184952D01*
Y47089D01*
X184935D01*
Y47080D01*
X184926D01*
Y47071D01*
X184918D01*
Y47063D01*
X184909D01*
Y47054D01*
X184892D01*
Y47045D01*
X184883D01*
Y47037D01*
X184875D01*
Y47028D01*
X184857D01*
Y47020D01*
X184849D01*
Y47011D01*
X184840D01*
Y47002D01*
X184823D01*
Y46994D01*
X184814D01*
Y46985D01*
X184797D01*
Y46977D01*
X184788D01*
Y46968D01*
X184780D01*
Y46959D01*
X184763D01*
Y46951D01*
X184754D01*
Y46942D01*
X184746D01*
Y46934D01*
X184728D01*
Y46925D01*
X184720D01*
Y46916D01*
X184711D01*
Y46908D01*
X184694D01*
Y46899D01*
X184685D01*
Y46891D01*
X184668D01*
Y46882D01*
X184651D01*
Y46873D01*
X184642D01*
Y46865D01*
X184625D01*
Y46856D01*
X184616D01*
Y46847D01*
X184608D01*
Y46839D01*
X184590D01*
Y46830D01*
X184582D01*
Y46822D01*
X184565D01*
Y46813D01*
X184556D01*
Y46804D01*
X184539D01*
Y46796D01*
X184530D01*
Y46787D01*
X184522D01*
Y46778D01*
X184504D01*
Y46770D01*
X184496D01*
Y46761D01*
X184478D01*
Y46753D01*
X184470D01*
Y46744D01*
X184453D01*
Y46736D01*
X184444D01*
Y46727D01*
X184427D01*
Y46718D01*
X184410D01*
Y46710D01*
X184401D01*
Y46701D01*
X184384D01*
Y46692D01*
X184375D01*
Y46684D01*
X184366D01*
Y46675D01*
X184341D01*
Y46667D01*
X184332D01*
Y46658D01*
X184315D01*
Y46649D01*
X184306D01*
Y46641D01*
X184289D01*
Y46632D01*
X184280D01*
Y46624D01*
X184263D01*
Y46615D01*
X184246D01*
Y46606D01*
X184237D01*
Y46598D01*
X184220D01*
Y46589D01*
X184212D01*
Y46581D01*
X184194D01*
Y46572D01*
X184177D01*
Y46563D01*
X184168D01*
Y46555D01*
X184151D01*
Y46546D01*
X184134D01*
Y46537D01*
X184125D01*
Y46529D01*
X184108D01*
Y46520D01*
X184100D01*
Y46512D01*
X184074D01*
Y46503D01*
X184065D01*
Y46494D01*
X184048D01*
Y46486D01*
X184031D01*
Y46477D01*
X184022D01*
Y46469D01*
X184005D01*
Y46460D01*
X183988D01*
Y46451D01*
X183970D01*
Y46443D01*
X183962D01*
Y46434D01*
X183944D01*
Y46425D01*
X183927D01*
Y46417D01*
X183919D01*
Y46408D01*
X183893D01*
Y46400D01*
X183884D01*
Y46391D01*
X183867D01*
Y46382D01*
X183850D01*
Y46374D01*
X183833D01*
Y46365D01*
X183815D01*
Y46357D01*
X183807D01*
Y46348D01*
X183790D01*
Y46339D01*
X183772D01*
Y46331D01*
X183755D01*
Y46322D01*
X183738D01*
Y46313D01*
X183729D01*
Y46305D01*
X183703D01*
Y46296D01*
X183686D01*
Y46288D01*
X183669D01*
Y46279D01*
X183660D01*
Y46270D01*
X183643D01*
Y46262D01*
X183617D01*
Y46253D01*
X183609D01*
Y46245D01*
X183583D01*
Y46236D01*
X183574D01*
Y46227D01*
X183557D01*
Y46219D01*
X183531D01*
Y46210D01*
X183522D01*
Y46202D01*
X183497D01*
Y46193D01*
X183488D01*
Y46184D01*
X183462D01*
Y46176D01*
X183445D01*
Y46167D01*
X183436D01*
Y46158D01*
X183410D01*
Y46150D01*
X183393D01*
Y46141D01*
X183376D01*
Y46133D01*
X183359D01*
Y46124D01*
X183342D01*
Y46115D01*
X183316D01*
Y46107D01*
X183307D01*
Y46098D01*
X183281D01*
Y46090D01*
X183264D01*
Y46081D01*
X183247D01*
Y46072D01*
X183221D01*
Y46064D01*
X183212D01*
Y46055D01*
X183187D01*
Y46047D01*
X183169D01*
Y46038D01*
X183144D01*
Y46029D01*
X183126D01*
Y46021D01*
X183109D01*
Y46012D01*
X183083D01*
Y46003D01*
X183075D01*
Y45995D01*
X183040D01*
Y45986D01*
X183032D01*
Y45978D01*
X182997D01*
Y45969D01*
X182988D01*
Y45960D01*
X182971D01*
Y45952D01*
X182945D01*
Y45943D01*
X182928D01*
Y45935D01*
X182894D01*
Y45926D01*
X182876D01*
Y45917D01*
X182859D01*
Y45909D01*
X182833D01*
Y45900D01*
X182816D01*
Y45891D01*
X182782D01*
Y45883D01*
X182773D01*
Y45874D01*
X182747D01*
Y45866D01*
X182722D01*
Y45857D01*
X182704D01*
Y45848D01*
X182679D01*
Y45840D01*
X182653D01*
Y45831D01*
X182627D01*
Y45823D01*
X182610D01*
Y45814D01*
X182575D01*
Y45805D01*
X182549D01*
Y45797D01*
X182532D01*
Y45788D01*
X182498D01*
Y45780D01*
X182480D01*
Y45771D01*
X182454D01*
Y45762D01*
X182429D01*
Y45754D01*
X182403D01*
Y45745D01*
X182377D01*
Y45736D01*
X182351D01*
Y45728D01*
X182317D01*
Y45719D01*
X182299D01*
Y45711D01*
X182265D01*
Y45702D01*
X182239D01*
Y45693D01*
X182222D01*
Y45685D01*
X182179D01*
Y45676D01*
X182162D01*
Y45668D01*
X182119D01*
Y45659D01*
X182101D01*
Y45650D01*
X182067D01*
Y45642D01*
X182033D01*
Y45633D01*
X182015D01*
Y45624D01*
X181964D01*
Y45616D01*
X181946D01*
Y45607D01*
X181912D01*
Y45599D01*
X181877D01*
Y45590D01*
X181852D01*
Y45581D01*
X181809D01*
Y45573D01*
X181774D01*
Y45564D01*
X181740D01*
Y45556D01*
X181705D01*
Y45547D01*
X181671D01*
Y45538D01*
X181619D01*
Y45530D01*
X181602D01*
Y45521D01*
X181550D01*
Y45512D01*
X181524D01*
Y45504D01*
X181473D01*
Y45495D01*
X181430D01*
Y45487D01*
X181404D01*
Y45478D01*
X181335D01*
Y45469D01*
X181318D01*
Y45461D01*
X181249D01*
Y45452D01*
X181206D01*
Y45444D01*
X181163D01*
Y45435D01*
X181102D01*
Y45426D01*
X181068D01*
Y45418D01*
X180990D01*
Y45409D01*
X180947D01*
Y45401D01*
X180887D01*
Y45392D01*
X180810D01*
Y45383D01*
X180767D01*
Y45375D01*
X180663D01*
Y45366D01*
X180611D01*
Y45357D01*
X180508D01*
Y45349D01*
X180422D01*
Y45340D01*
X180327D01*
Y45332D01*
X180164D01*
Y45323D01*
X180043D01*
Y45314D01*
X179294D01*
Y45323D01*
X179173D01*
Y45332D01*
X179010D01*
Y45340D01*
X178915D01*
Y45349D01*
X178829D01*
Y45357D01*
X178725D01*
Y45366D01*
X178674D01*
Y45375D01*
X178570D01*
Y45383D01*
X178527D01*
Y45392D01*
X178458D01*
Y45401D01*
X178389D01*
Y45409D01*
X178346D01*
Y45418D01*
X178269D01*
Y45426D01*
X178234D01*
Y45435D01*
X178174D01*
Y45444D01*
X178131D01*
Y45452D01*
X178088D01*
Y45461D01*
X178019D01*
Y45469D01*
X178002D01*
Y45478D01*
X177933D01*
Y45487D01*
X177907D01*
Y45495D01*
X177864D01*
Y45504D01*
X177821D01*
Y45512D01*
X177795D01*
Y45521D01*
X177735D01*
Y45530D01*
X177718D01*
Y45538D01*
X177666D01*
Y45547D01*
X177632D01*
Y45556D01*
X177597D01*
Y45564D01*
X177563D01*
Y45573D01*
X177537D01*
Y45581D01*
X177485D01*
Y45590D01*
X177468D01*
Y45599D01*
X177425D01*
Y45607D01*
X177399D01*
Y45616D01*
X177373D01*
Y45624D01*
X177330D01*
Y45633D01*
X177304D01*
Y45642D01*
X177270D01*
Y45650D01*
X177244D01*
Y45659D01*
X177218D01*
Y45668D01*
X177184D01*
Y45676D01*
X177158D01*
Y45685D01*
X177115D01*
Y45693D01*
X177098D01*
Y45702D01*
X177072D01*
Y45711D01*
X177037D01*
Y45719D01*
X177020D01*
Y45728D01*
X176986D01*
Y45736D01*
X176968D01*
Y45745D01*
X176934D01*
Y45754D01*
X176908D01*
Y45762D01*
X176882D01*
Y45771D01*
X176856D01*
Y45780D01*
X176839D01*
Y45788D01*
X176805D01*
Y45797D01*
X176788D01*
Y45805D01*
X176762D01*
Y45814D01*
X176736D01*
Y45823D01*
X176719D01*
Y45831D01*
X176684D01*
Y45840D01*
X176667D01*
Y45848D01*
X176632D01*
Y45857D01*
X176615D01*
Y45866D01*
X176598D01*
Y45874D01*
X176572D01*
Y45883D01*
X176555D01*
Y45891D01*
X176521D01*
Y45900D01*
X176503D01*
Y45909D01*
X176478D01*
Y45917D01*
X176460D01*
Y45926D01*
X176443D01*
Y45935D01*
X176409D01*
Y45943D01*
X176400D01*
Y45952D01*
X176374D01*
Y45960D01*
X176357D01*
Y45969D01*
X176340D01*
Y45978D01*
X176305D01*
Y45986D01*
X176297D01*
Y45995D01*
X176262D01*
Y46003D01*
X176254D01*
Y46012D01*
X176228D01*
Y46021D01*
X176210D01*
Y46029D01*
X176193D01*
Y46038D01*
X176168D01*
Y46047D01*
X176159D01*
Y46055D01*
X176133D01*
Y46064D01*
X176116D01*
Y46072D01*
X176090D01*
Y46081D01*
X176073D01*
Y46090D01*
X176056D01*
Y46098D01*
X176030D01*
Y46107D01*
X176021D01*
Y46115D01*
X175995D01*
Y46124D01*
X175978D01*
Y46133D01*
X175969D01*
Y46141D01*
X175944D01*
Y46150D01*
X175926D01*
Y46158D01*
X175900D01*
Y46167D01*
X175892D01*
Y46176D01*
X175875D01*
Y46184D01*
X175849D01*
Y46193D01*
X175840D01*
Y46202D01*
X175814D01*
Y46210D01*
X175806D01*
Y46219D01*
X175780D01*
Y46227D01*
X175771D01*
Y46236D01*
X175754D01*
Y46245D01*
X175737D01*
Y46253D01*
X175720D01*
Y46262D01*
X175702D01*
Y46270D01*
X175685D01*
Y46279D01*
X175668D01*
Y46288D01*
X175651D01*
Y46296D01*
X175634D01*
Y46305D01*
X175616D01*
Y46313D01*
X175599D01*
Y46322D01*
X175582D01*
Y46331D01*
X175565D01*
Y46339D01*
X175556D01*
Y46348D01*
X175530D01*
Y46357D01*
X175522D01*
Y46365D01*
X175504D01*
Y46374D01*
X175487D01*
Y46382D01*
X175470D01*
Y46391D01*
X175453D01*
Y46400D01*
X175444D01*
Y46408D01*
X175418D01*
Y46417D01*
X175410D01*
Y46425D01*
X175392D01*
Y46434D01*
X175375D01*
Y46443D01*
X175366D01*
Y46451D01*
X175349D01*
Y46460D01*
X175332D01*
Y46469D01*
X175315D01*
Y46477D01*
X175306D01*
Y46486D01*
X175289D01*
Y46494D01*
X175272D01*
Y46503D01*
X175263D01*
Y46512D01*
X175246D01*
Y46520D01*
X175229D01*
Y46529D01*
X175212D01*
Y46537D01*
X175203D01*
Y46546D01*
X175194D01*
Y46555D01*
X175168D01*
Y46563D01*
X175160D01*
Y46572D01*
X175143D01*
Y46581D01*
X175125D01*
Y46589D01*
X175117D01*
Y46598D01*
X175100D01*
Y46606D01*
X175091D01*
Y46615D01*
X175074D01*
Y46624D01*
X175065D01*
Y46632D01*
X175048D01*
Y46641D01*
X175031D01*
Y46649D01*
X175022D01*
Y46658D01*
X175005D01*
Y46667D01*
X174996D01*
Y46675D01*
X174979D01*
Y46684D01*
X174962D01*
Y46692D01*
X174953D01*
Y46701D01*
X174936D01*
Y46710D01*
X174927D01*
Y46718D01*
X174910D01*
Y46727D01*
X174901D01*
Y46736D01*
X174884D01*
Y46744D01*
X174876D01*
Y46753D01*
X174858D01*
Y46761D01*
X174841D01*
Y46770D01*
X174832D01*
Y46778D01*
X174824D01*
Y46787D01*
X174807D01*
Y46796D01*
X174798D01*
Y46804D01*
X174781D01*
Y46813D01*
X174772D01*
Y46822D01*
X174755D01*
Y46830D01*
X174746D01*
Y46839D01*
X174729D01*
Y46847D01*
X174721D01*
Y46856D01*
X174712D01*
Y46865D01*
X174695D01*
Y46873D01*
X174686D01*
Y46882D01*
X174669D01*
Y46891D01*
X174660D01*
Y46899D01*
X174643D01*
Y46908D01*
X174634D01*
Y46916D01*
X174626D01*
Y46925D01*
X174609D01*
Y46934D01*
X174600D01*
Y46942D01*
X174583D01*
Y46951D01*
X174574D01*
Y46959D01*
X174566D01*
Y46968D01*
X174548D01*
Y46977D01*
X174540D01*
Y46985D01*
X174522D01*
Y46994D01*
X174514D01*
Y47002D01*
X174505D01*
Y47011D01*
X174488D01*
Y47020D01*
X174479D01*
Y47028D01*
X174462D01*
Y47037D01*
X174454D01*
Y47045D01*
X174445D01*
Y47054D01*
X174436D01*
Y47063D01*
X174419D01*
Y47071D01*
X174410D01*
Y47080D01*
X174402D01*
Y47089D01*
X174385D01*
Y47097D01*
X174376D01*
Y47106D01*
X174368D01*
Y47114D01*
X174350D01*
Y47123D01*
X174342D01*
Y47132D01*
X174333D01*
Y47140D01*
X174316D01*
Y47149D01*
X174307D01*
Y47158D01*
X174299D01*
Y47166D01*
X174290D01*
Y47175D01*
X174273D01*
Y47183D01*
X174264D01*
Y47192D01*
X174256D01*
Y47200D01*
X174247D01*
Y47209D01*
X174230D01*
Y47218D01*
X174221D01*
Y47226D01*
X174212D01*
Y47235D01*
X174195D01*
Y47252D01*
X174178D01*
Y47261D01*
X174169D01*
Y47269D01*
X174161D01*
Y47278D01*
X174144D01*
Y47287D01*
X174135D01*
Y47295D01*
X174126D01*
Y47304D01*
X174118D01*
Y47312D01*
X174109D01*
Y47321D01*
X174092D01*
Y47330D01*
X174083D01*
Y47338D01*
X174075D01*
Y47347D01*
X174066D01*
Y47356D01*
X174057D01*
Y47364D01*
X174049D01*
Y47373D01*
X174032D01*
Y47381D01*
X174023D01*
Y47390D01*
X174014D01*
Y47399D01*
X174006D01*
Y47407D01*
X173997D01*
Y47416D01*
X173980D01*
Y47425D01*
X173971D01*
Y47433D01*
X173963D01*
Y47442D01*
X173954D01*
Y47450D01*
X173945D01*
Y47459D01*
X173937D01*
Y47467D01*
X173928D01*
Y47476D01*
X173911D01*
Y47485D01*
X173902D01*
Y47493D01*
X173894D01*
Y47502D01*
X173885D01*
Y47511D01*
X173876D01*
Y47519D01*
X173868D01*
Y47528D01*
X173859D01*
Y47536D01*
X173851D01*
Y47545D01*
X173834D01*
Y47554D01*
X173825D01*
Y47562D01*
X173816D01*
Y47571D01*
X173808D01*
Y47579D01*
X173799D01*
Y47588D01*
X173790D01*
Y47597D01*
X173782D01*
Y47605D01*
X173773D01*
Y47614D01*
X173765D01*
Y47622D01*
X173747D01*
Y47631D01*
X173739D01*
Y47640D01*
X173730D01*
Y47648D01*
X173722D01*
Y47657D01*
X173713D01*
Y47666D01*
X173704D01*
Y47674D01*
X173696D01*
Y47683D01*
X173687D01*
Y47691D01*
X173678D01*
Y47700D01*
X173670D01*
Y47709D01*
X173661D01*
Y47717D01*
X173653D01*
Y47726D01*
X173644D01*
Y47734D01*
X173635D01*
Y47743D01*
X173627D01*
Y47752D01*
X173618D01*
Y47760D01*
X173610D01*
Y47769D01*
X173601D01*
Y47778D01*
X173592D01*
Y47786D01*
X173584D01*
Y47795D01*
X173575D01*
Y47803D01*
X173558D01*
Y47812D01*
X173549D01*
Y47829D01*
X173532D01*
Y47838D01*
X173523D01*
Y47846D01*
X173515D01*
Y47855D01*
X173506D01*
Y47864D01*
X173498D01*
Y47872D01*
X173489D01*
Y47881D01*
X173480D01*
Y47889D01*
X173472D01*
Y47898D01*
X173463D01*
Y47915D01*
X173446D01*
Y47933D01*
X173437D01*
Y47941D01*
X173429D01*
Y47950D01*
X173420D01*
Y47958D01*
X173412D01*
Y47967D01*
X173403D01*
Y47976D01*
X173394D01*
Y47984D01*
X173386D01*
Y47993D01*
X173377D01*
Y48001D01*
X173368D01*
Y48010D01*
X173360D01*
Y48019D01*
X173351D01*
Y48027D01*
X173343D01*
Y48036D01*
X173334D01*
Y48045D01*
X173325D01*
Y48053D01*
X173317D01*
Y48062D01*
X173308D01*
Y48070D01*
X173300D01*
Y48079D01*
X173291D01*
Y48088D01*
X173282D01*
Y48105D01*
X173265D01*
Y48122D01*
X173256D01*
Y48131D01*
X173248D01*
Y48139D01*
X173239D01*
Y48148D01*
X173231D01*
Y48156D01*
X173222D01*
Y48165D01*
X173213D01*
Y48174D01*
X173205D01*
Y48182D01*
X173196D01*
Y48191D01*
X173188D01*
Y48200D01*
X173179D01*
Y48217D01*
X173170D01*
Y48225D01*
X173162D01*
Y48234D01*
X173153D01*
Y48243D01*
X173144D01*
Y48251D01*
X173136D01*
Y48260D01*
X173127D01*
Y48268D01*
X173119D01*
Y48286D01*
X173101D01*
Y48303D01*
X173093D01*
Y48312D01*
X173084D01*
Y48320D01*
X173076D01*
Y48329D01*
X173067D01*
Y48337D01*
X173058D01*
Y48346D01*
X173050D01*
Y48355D01*
X173041D01*
Y48372D01*
X173032D01*
Y48380D01*
X173024D01*
Y48389D01*
X173015D01*
Y48398D01*
X173007D01*
Y48415D01*
X172998D01*
Y48424D01*
X172990D01*
Y48432D01*
X172981D01*
Y48441D01*
X172972D01*
Y48449D01*
X172964D01*
Y48458D01*
X172955D01*
Y48475D01*
X172946D01*
Y48484D01*
X172938D01*
Y48492D01*
X172929D01*
Y48501D01*
X172921D01*
Y48518D01*
X172912D01*
Y48527D01*
X172903D01*
Y48535D01*
X172895D01*
Y48544D01*
X172886D01*
Y48553D01*
X172878D01*
Y48570D01*
X172869D01*
Y48579D01*
X172860D01*
Y48587D01*
X172852D01*
Y48596D01*
X172843D01*
Y48613D01*
X172834D01*
Y48622D01*
X172826D01*
Y48630D01*
X172817D01*
Y48639D01*
X172809D01*
Y48656D01*
X172800D01*
Y48665D01*
X172791D01*
Y48673D01*
X172783D01*
Y48691D01*
X172774D01*
Y48699D01*
X172766D01*
Y48708D01*
X172757D01*
Y48716D01*
X172748D01*
Y48734D01*
X172740D01*
Y48742D01*
X172731D01*
Y48759D01*
X172722D01*
Y48768D01*
X172714D01*
Y48777D01*
X172705D01*
Y48794D01*
X172697D01*
Y48802D01*
X172688D01*
Y48811D01*
X172679D01*
Y48820D01*
X172671D01*
Y48837D01*
X172662D01*
Y48846D01*
X172654D01*
Y48854D01*
X172645D01*
Y48871D01*
X172636D01*
Y48880D01*
X172628D01*
Y48889D01*
X172619D01*
Y48906D01*
X172610D01*
Y48914D01*
X172602D01*
Y48932D01*
X172593D01*
Y48940D01*
X172585D01*
Y48949D01*
X172576D01*
Y48966D01*
X172567D01*
Y48975D01*
X172559D01*
Y48992D01*
X172550D01*
Y49001D01*
X172542D01*
Y49009D01*
X172533D01*
Y49026D01*
X172524D01*
Y49035D01*
X172516D01*
Y49052D01*
X172507D01*
Y49061D01*
X172499D01*
Y49078D01*
X172490D01*
Y49087D01*
X172481D01*
Y49095D01*
X172473D01*
Y49113D01*
X172464D01*
Y49121D01*
X172456D01*
Y49138D01*
X172447D01*
Y49147D01*
X172438D01*
Y49164D01*
X172430D01*
Y49173D01*
X172421D01*
Y49190D01*
X172412D01*
Y49199D01*
X172404D01*
Y49207D01*
X172395D01*
Y49225D01*
X172387D01*
Y49242D01*
X172378D01*
Y49250D01*
X172369D01*
Y49268D01*
X172361D01*
Y49276D01*
X172352D01*
Y49293D01*
X172344D01*
Y49302D01*
X172335D01*
Y49319D01*
X172326D01*
Y49336D01*
X172318D01*
Y49345D01*
X172309D01*
Y49362D01*
X172300D01*
Y49371D01*
X172292D01*
Y49388D01*
X172283D01*
Y49397D01*
X172275D01*
Y49414D01*
X172266D01*
Y49431D01*
X172257D01*
Y49440D01*
X172249D01*
Y49457D01*
X172240D01*
Y49466D01*
X172232D01*
Y49483D01*
X172223D01*
Y49500D01*
X172214D01*
Y49509D01*
X172206D01*
Y49526D01*
X172197D01*
Y49543D01*
X172188D01*
Y49552D01*
X172180D01*
Y49569D01*
X172171D01*
Y49586D01*
X172163D01*
Y49595D01*
X172154D01*
Y49612D01*
X172146D01*
Y49629D01*
X172137D01*
Y49638D01*
X172128D01*
Y49655D01*
X172120D01*
Y49672D01*
X172111D01*
Y49681D01*
X172102D01*
Y49698D01*
X172094D01*
Y49715D01*
X172085D01*
Y49733D01*
X172076D01*
Y49741D01*
X172068D01*
Y49758D01*
X172059D01*
Y49776D01*
X172051D01*
Y49793D01*
X172042D01*
Y49810D01*
X172034D01*
Y49827D01*
X172025D01*
Y49836D01*
X172016D01*
Y49853D01*
X172008D01*
Y49870D01*
X171999D01*
Y49888D01*
X171990D01*
Y49905D01*
X171982D01*
Y49922D01*
X171973D01*
Y49931D01*
X171965D01*
Y49948D01*
X171956D01*
Y49965D01*
X171947D01*
Y49982D01*
X171939D01*
Y50000D01*
X171930D01*
Y50017D01*
X171922D01*
Y50034D01*
X171913D01*
Y50051D01*
X171904D01*
Y50068D01*
X171896D01*
Y50086D01*
X171887D01*
Y50094D01*
X171879D01*
Y50120D01*
X171870D01*
Y50129D01*
X171861D01*
Y50155D01*
X171853D01*
Y50172D01*
X171844D01*
Y50189D01*
X171835D01*
Y50206D01*
X171827D01*
Y50223D01*
X171818D01*
Y50241D01*
X171810D01*
Y50258D01*
X171801D01*
Y50275D01*
X171792D01*
Y50292D01*
X171784D01*
Y50310D01*
X171775D01*
Y50335D01*
X171766D01*
Y50344D01*
X171758D01*
Y50370D01*
X171749D01*
Y50387D01*
X171741D01*
Y50404D01*
X171732D01*
Y50422D01*
X171723D01*
Y50439D01*
X171715D01*
Y50465D01*
X171706D01*
Y50482D01*
X171698D01*
Y50499D01*
X171689D01*
Y50525D01*
X171680D01*
Y50534D01*
X171672D01*
Y50559D01*
X171663D01*
Y50577D01*
X171654D01*
Y50602D01*
X171646D01*
Y50620D01*
X171637D01*
Y50637D01*
X171629D01*
Y50663D01*
X171620D01*
Y50680D01*
X171611D01*
Y50706D01*
X171603D01*
Y50723D01*
X171594D01*
Y50740D01*
X171586D01*
Y50766D01*
X171577D01*
Y50783D01*
X171568D01*
Y50809D01*
X171560D01*
Y50826D01*
X171551D01*
Y50852D01*
X171543D01*
Y50869D01*
X171534D01*
Y50895D01*
X171525D01*
Y50921D01*
X171517D01*
Y50938D01*
X171508D01*
Y50964D01*
X171500D01*
Y50990D01*
X171491D01*
Y51016D01*
X171482D01*
Y51033D01*
X171474D01*
Y51059D01*
X171465D01*
Y51085D01*
X171457D01*
Y51102D01*
X171448D01*
Y51128D01*
X171439D01*
Y51154D01*
X171431D01*
Y51171D01*
X171422D01*
Y51205D01*
X171413D01*
Y51223D01*
X171405D01*
Y51257D01*
X171396D01*
Y51283D01*
X171388D01*
Y51309D01*
X171379D01*
Y51335D01*
X171370D01*
Y51360D01*
X171362D01*
Y51386D01*
X171353D01*
Y51403D01*
X171345D01*
Y51446D01*
X171336D01*
Y51464D01*
X171327D01*
Y51490D01*
X171319D01*
Y51524D01*
X171310D01*
Y51550D01*
X171301D01*
Y51584D01*
X171293D01*
Y51610D01*
X171284D01*
Y51645D01*
X171276D01*
Y51670D01*
X171267D01*
Y51696D01*
X171258D01*
Y51739D01*
X171250D01*
Y51765D01*
X171241D01*
Y51808D01*
X171232D01*
Y51834D01*
X171224D01*
Y51860D01*
X171215D01*
Y51903D01*
X171207D01*
Y51929D01*
X171198D01*
Y51972D01*
X171189D01*
Y52006D01*
X171181D01*
Y52032D01*
X171172D01*
Y52084D01*
X171164D01*
Y52110D01*
X171155D01*
Y52161D01*
X171146D01*
Y52196D01*
X171138D01*
Y52239D01*
X171129D01*
Y52273D01*
X171121D01*
Y52316D01*
X171112D01*
Y52368D01*
X171103D01*
Y52403D01*
X171095D01*
Y52463D01*
X171086D01*
Y52506D01*
X171077D01*
Y52549D01*
X171069D01*
Y52609D01*
X171060D01*
Y52652D01*
X171052D01*
Y52730D01*
X171043D01*
Y52764D01*
X171034D01*
Y52842D01*
X171026D01*
Y52902D01*
X171017D01*
Y52954D01*
X171009D01*
Y53057D01*
X171000D01*
Y53100D01*
X170991D01*
Y53229D01*
X170983D01*
Y53289D01*
X170974D01*
Y53410D01*
X170965D01*
Y53565D01*
X170957D01*
Y53720D01*
X170948D01*
Y54340D01*
X170957D01*
Y54513D01*
X170965D01*
Y54650D01*
X170974D01*
Y54771D01*
X170983D01*
Y54848D01*
X170991D01*
Y54960D01*
X171000D01*
Y55012D01*
X171009D01*
Y55115D01*
X171017D01*
Y55167D01*
X171026D01*
Y55227D01*
X171034D01*
Y55305D01*
X171043D01*
Y55339D01*
X171052D01*
Y55417D01*
X171060D01*
Y55460D01*
X171069D01*
Y55511D01*
X171077D01*
Y55563D01*
X171086D01*
Y55598D01*
X171095D01*
Y55667D01*
X171103D01*
Y55692D01*
X171112D01*
Y55753D01*
X171121D01*
Y55787D01*
X171129D01*
Y55830D01*
X171138D01*
Y55873D01*
X171146D01*
Y55908D01*
X171155D01*
Y55951D01*
X171164D01*
Y55985D01*
X171172D01*
Y56028D01*
X171181D01*
Y56063D01*
X171189D01*
Y56089D01*
X171198D01*
Y56140D01*
X171207D01*
Y56166D01*
X171215D01*
Y56209D01*
X171224D01*
Y56235D01*
X171232D01*
Y56261D01*
X171241D01*
Y56304D01*
X171250D01*
Y56321D01*
X171258D01*
Y56373D01*
X171267D01*
Y56390D01*
X171276D01*
Y56424D01*
X171284D01*
Y56459D01*
X171293D01*
Y56485D01*
X171301D01*
Y56519D01*
X171310D01*
Y56536D01*
X171319D01*
Y56571D01*
X171327D01*
Y56597D01*
X171336D01*
Y56623D01*
X171345D01*
Y56657D01*
X171353D01*
Y56683D01*
X171362D01*
Y56717D01*
X171370D01*
Y56734D01*
X171379D01*
Y56760D01*
X171388D01*
Y56786D01*
X171396D01*
Y56812D01*
X171405D01*
Y56846D01*
X171413D01*
Y56864D01*
X171422D01*
Y56890D01*
X171431D01*
Y56915D01*
X171439D01*
Y56941D01*
X171448D01*
Y56967D01*
X171457D01*
Y56984D01*
X171465D01*
Y57019D01*
X171474D01*
Y57036D01*
X171482D01*
Y57053D01*
X171491D01*
Y57079D01*
X171500D01*
Y57105D01*
X171508D01*
Y57131D01*
X171517D01*
Y57148D01*
X171525D01*
Y57174D01*
X171534D01*
Y57200D01*
X171543D01*
Y57217D01*
X171551D01*
Y57243D01*
X171560D01*
Y57260D01*
X171568D01*
Y57286D01*
X171577D01*
Y57303D01*
X171586D01*
Y57329D01*
X171594D01*
Y57346D01*
X171603D01*
Y57363D01*
X171611D01*
Y57389D01*
X171620D01*
Y57406D01*
X171629D01*
Y57432D01*
X171637D01*
Y57449D01*
X171646D01*
Y57467D01*
X171654D01*
Y57492D01*
X171663D01*
Y57501D01*
X171672D01*
Y57536D01*
X171680D01*
Y57544D01*
X171689D01*
Y57570D01*
X171698D01*
Y57587D01*
X171706D01*
Y57604D01*
X171715D01*
Y57630D01*
X171723D01*
Y57639D01*
X171732D01*
Y57665D01*
X171741D01*
Y57682D01*
X171749D01*
Y57699D01*
X171758D01*
Y57716D01*
X171766D01*
Y57734D01*
X171775D01*
Y57759D01*
X171784D01*
Y57777D01*
X171792D01*
Y57794D01*
X171801D01*
Y57811D01*
X171810D01*
Y57828D01*
X171818D01*
Y57846D01*
X171827D01*
Y57863D01*
X171835D01*
Y57880D01*
X171844D01*
Y57897D01*
X171853D01*
Y57914D01*
X171861D01*
Y57932D01*
X171870D01*
Y57949D01*
X171879D01*
Y57966D01*
X171887D01*
Y57983D01*
X171896D01*
Y58000D01*
X171904D01*
Y58018D01*
X171913D01*
Y58035D01*
X171922D01*
Y58052D01*
X171930D01*
Y58061D01*
X171939D01*
Y58087D01*
X171947D01*
Y58095D01*
X171956D01*
Y58121D01*
X171965D01*
Y58130D01*
X171973D01*
Y58147D01*
X171982D01*
Y58164D01*
X171990D01*
Y58181D01*
X171999D01*
Y58199D01*
X172008D01*
Y58216D01*
X172016D01*
Y58225D01*
X172025D01*
Y58242D01*
X172034D01*
Y58259D01*
X172042D01*
Y58276D01*
X172051D01*
Y58293D01*
X172059D01*
Y58302D01*
X172068D01*
Y58319D01*
X172076D01*
Y58336D01*
X172085D01*
Y58354D01*
X172094D01*
Y58362D01*
X172102D01*
Y58380D01*
X172111D01*
Y58397D01*
X172120D01*
Y58405D01*
X172128D01*
Y58431D01*
X172137D01*
Y58440D01*
X172146D01*
Y58457D01*
X172154D01*
Y58466D01*
X172163D01*
Y58483D01*
X172171D01*
Y58500D01*
X172180D01*
Y58509D01*
X172188D01*
Y58526D01*
X172197D01*
Y58543D01*
X172206D01*
Y58560D01*
X172214D01*
Y58569D01*
X172223D01*
Y58586D01*
X172232D01*
Y58603D01*
X172240D01*
Y58612D01*
X172249D01*
Y58629D01*
X172257D01*
Y58638D01*
X172266D01*
Y58655D01*
X172275D01*
Y58672D01*
X172283D01*
Y58681D01*
X172292D01*
Y58698D01*
X172300D01*
Y58707D01*
X172309D01*
Y58724D01*
X172318D01*
Y58733D01*
X172326D01*
Y58750D01*
X172335D01*
Y58759D01*
X172344D01*
Y58776D01*
X172352D01*
Y58793D01*
X172361D01*
Y58801D01*
X172369D01*
Y58810D01*
X172378D01*
Y58827D01*
X172387D01*
Y58836D01*
X172395D01*
Y58853D01*
X172404D01*
Y58862D01*
X172412D01*
Y58879D01*
X172421D01*
Y58896D01*
X172430D01*
Y58905D01*
X172438D01*
Y58922D01*
X172447D01*
Y58931D01*
X172456D01*
Y58948D01*
X172464D01*
Y58956D01*
X172473D01*
Y58965D01*
X172481D01*
Y58982D01*
X172490D01*
Y58991D01*
X172499D01*
Y59008D01*
X172507D01*
Y59017D01*
X172516D01*
Y59034D01*
X172524D01*
Y59043D01*
X172533D01*
Y59051D01*
X172542D01*
Y59068D01*
X172550D01*
Y59077D01*
X172559D01*
Y59094D01*
X172567D01*
Y59103D01*
X172576D01*
Y59111D01*
X172585D01*
Y59129D01*
X172593D01*
Y59137D01*
X172602D01*
Y59155D01*
X172610D01*
Y59163D01*
X172619D01*
Y59172D01*
X172628D01*
Y59189D01*
X172636D01*
Y59198D01*
X172645D01*
Y59215D01*
X172654D01*
Y59223D01*
X172662D01*
Y59232D01*
X172671D01*
Y59249D01*
X172679D01*
Y59258D01*
X172688D01*
Y59267D01*
X172697D01*
Y59275D01*
X172705D01*
Y59292D01*
X172714D01*
Y59301D01*
X172722D01*
Y59310D01*
X172731D01*
Y59327D01*
X172740D01*
Y59335D01*
X172748D01*
Y59353D01*
X172757D01*
Y59361D01*
X172766D01*
Y59370D01*
X172774D01*
Y59378D01*
X172783D01*
Y59396D01*
X172791D01*
Y59404D01*
X172800D01*
Y59413D01*
X172809D01*
Y59430D01*
X172826D01*
Y59447D01*
X172834D01*
Y59456D01*
X172843D01*
Y59465D01*
X172852D01*
Y59482D01*
X172860D01*
Y59490D01*
X172869D01*
Y59499D01*
X172878D01*
Y59508D01*
X172886D01*
Y59516D01*
X172895D01*
Y59534D01*
X172903D01*
Y59542D01*
X172912D01*
Y59551D01*
X172921D01*
Y59568D01*
X172929D01*
Y59577D01*
X172938D01*
Y59585D01*
X172946D01*
Y59594D01*
X172955D01*
Y59611D01*
X172964D01*
Y59620D01*
X172972D01*
Y59628D01*
X172981D01*
Y59637D01*
X172990D01*
Y59646D01*
X172998D01*
Y59654D01*
X173007D01*
Y59671D01*
X173015D01*
Y59680D01*
X173024D01*
Y59689D01*
X173032D01*
Y59697D01*
X173041D01*
Y59706D01*
X173050D01*
Y59714D01*
X173058D01*
Y59732D01*
X173067D01*
Y59740D01*
X173076D01*
Y59749D01*
X173084D01*
Y59757D01*
X173093D01*
Y59766D01*
X173101D01*
Y59775D01*
X173110D01*
Y59783D01*
X173119D01*
Y59801D01*
X173127D01*
Y59809D01*
X173136D01*
Y59818D01*
X173144D01*
Y59826D01*
X173153D01*
Y59835D01*
X173162D01*
Y59844D01*
X173170D01*
Y59852D01*
X173179D01*
Y59861D01*
X173188D01*
Y59869D01*
X173196D01*
Y59878D01*
X173205D01*
Y59895D01*
X173213D01*
Y59904D01*
X173222D01*
Y59913D01*
X173231D01*
Y59921D01*
X173239D01*
Y59930D01*
X173248D01*
Y59938D01*
X173256D01*
Y59947D01*
X173265D01*
Y59956D01*
X173274D01*
Y59964D01*
X173282D01*
Y59973D01*
X173291D01*
Y59981D01*
X173300D01*
Y59999D01*
X173308D01*
Y60007D01*
X173325D01*
Y60024D01*
X173334D01*
Y60033D01*
X173343D01*
Y60042D01*
X173351D01*
Y60050D01*
X173360D01*
Y60059D01*
X173368D01*
Y60068D01*
X173377D01*
Y60076D01*
X173386D01*
Y60085D01*
X173394D01*
Y60093D01*
X173403D01*
Y60102D01*
X173412D01*
Y60111D01*
X173420D01*
Y60119D01*
X173429D01*
Y60128D01*
X173437D01*
Y60136D01*
X173446D01*
Y60145D01*
X173454D01*
Y60162D01*
X173463D01*
Y60171D01*
X173472D01*
Y60180D01*
X173480D01*
Y60188D01*
X173489D01*
Y60197D01*
X173498D01*
Y60205D01*
X173506D01*
Y60214D01*
X173515D01*
Y60223D01*
X173532D01*
Y60231D01*
X173541D01*
Y60240D01*
X173549D01*
Y60248D01*
X173558D01*
Y60257D01*
X173566D01*
Y60266D01*
X173575D01*
Y60274D01*
X173584D01*
Y60283D01*
X173592D01*
Y60291D01*
X173601D01*
Y60300D01*
X173610D01*
Y60309D01*
X173618D01*
Y60317D01*
X173627D01*
Y60326D01*
X173635D01*
Y60335D01*
X173644D01*
Y60343D01*
X173653D01*
Y60352D01*
X173661D01*
Y60360D01*
X173670D01*
Y60369D01*
X173678D01*
Y60378D01*
X173687D01*
Y60386D01*
X173696D01*
Y60395D01*
X173704D01*
Y60403D01*
X173713D01*
Y60412D01*
X173722D01*
Y60421D01*
X173739D01*
Y60438D01*
X173756D01*
Y60447D01*
X173765D01*
Y60455D01*
X173773D01*
Y60464D01*
X173782D01*
Y60472D01*
X173790D01*
Y60481D01*
X173799D01*
Y60490D01*
X173808D01*
Y60498D01*
X173816D01*
Y60507D01*
X173834D01*
Y60515D01*
X173842D01*
Y60524D01*
X173851D01*
Y60533D01*
X173859D01*
Y60541D01*
X173868D01*
Y60550D01*
X173876D01*
Y60559D01*
X173885D01*
Y60567D01*
X173902D01*
Y60576D01*
X173911D01*
Y60584D01*
X173920D01*
Y60593D01*
X173928D01*
Y60602D01*
X173937D01*
Y60610D01*
X173945D01*
Y60619D01*
X173954D01*
Y60627D01*
X173963D01*
Y60636D01*
X173971D01*
Y60645D01*
X173988D01*
Y60653D01*
X173997D01*
Y60662D01*
X174006D01*
Y60670D01*
X174014D01*
Y60679D01*
X174032D01*
Y60688D01*
X174040D01*
Y60696D01*
X174049D01*
Y60705D01*
X174057D01*
Y60714D01*
X174066D01*
Y60722D01*
X174075D01*
Y60731D01*
X174083D01*
Y60739D01*
X174092D01*
Y60748D01*
X174109D01*
Y60757D01*
X174118D01*
Y60765D01*
X174126D01*
Y60774D01*
X174144D01*
Y60782D01*
X174152D01*
Y60791D01*
X174161D01*
Y60800D01*
X174169D01*
Y60808D01*
X174187D01*
Y60817D01*
X174195D01*
Y60825D01*
X174204D01*
Y60834D01*
X174212D01*
Y60843D01*
X174221D01*
Y60851D01*
X174238D01*
Y60860D01*
X174247D01*
Y60869D01*
X174256D01*
Y60877D01*
X174273D01*
Y60886D01*
X174281D01*
Y60894D01*
X174290D01*
Y60903D01*
X174299D01*
Y60912D01*
X174316D01*
Y60920D01*
X174324D01*
Y60929D01*
X174333D01*
Y60937D01*
X174350D01*
Y60946D01*
X174359D01*
Y60955D01*
X174368D01*
Y60963D01*
X174376D01*
Y60972D01*
X174393D01*
Y60980D01*
X174402D01*
Y60989D01*
X174410D01*
Y60998D01*
X174428D01*
Y61006D01*
X174436D01*
Y61015D01*
X174445D01*
Y61024D01*
X174462D01*
Y61032D01*
X174471D01*
Y61041D01*
X174488D01*
Y61049D01*
X174497D01*
Y61058D01*
X174505D01*
Y61067D01*
X174514D01*
Y61075D01*
X174531D01*
Y61084D01*
X174540D01*
Y61092D01*
X174548D01*
Y61101D01*
X174566D01*
Y61110D01*
X174574D01*
Y61118D01*
X174591D01*
Y61127D01*
X174600D01*
Y61136D01*
X174609D01*
Y61144D01*
X174626D01*
Y61153D01*
X174634D01*
Y61161D01*
X174652D01*
Y61170D01*
X174660D01*
Y61178D01*
X174669D01*
Y61187D01*
X174686D01*
Y61196D01*
X174695D01*
Y61204D01*
X174712D01*
Y61213D01*
X174721D01*
Y61222D01*
X174738D01*
Y61230D01*
X174746D01*
Y61239D01*
X174764D01*
Y61248D01*
X174772D01*
Y61256D01*
X174781D01*
Y61265D01*
X174798D01*
Y61273D01*
X174807D01*
Y61282D01*
X174824D01*
Y61290D01*
X174832D01*
Y61299D01*
X174850D01*
Y61308D01*
X174867D01*
Y61316D01*
X174876D01*
Y61325D01*
X174893D01*
Y61334D01*
X174901D01*
Y61342D01*
X174910D01*
Y61351D01*
X174927D01*
Y61359D01*
X174936D01*
Y61368D01*
X174953D01*
Y61377D01*
X174970D01*
Y61385D01*
X174979D01*
Y61394D01*
X174996D01*
Y61403D01*
X175005D01*
Y61411D01*
X175022D01*
Y61420D01*
X175031D01*
Y61428D01*
X175048D01*
Y61437D01*
X175065D01*
Y61445D01*
X175074D01*
Y61454D01*
X175091D01*
Y61463D01*
X175100D01*
Y61471D01*
X175117D01*
Y61480D01*
X175134D01*
Y61489D01*
X175143D01*
Y61497D01*
X175160D01*
Y61506D01*
X175177D01*
Y61514D01*
X175194D01*
Y61523D01*
X175203D01*
Y61532D01*
X175220D01*
Y61540D01*
X175237D01*
Y61549D01*
X175246D01*
Y61557D01*
X175263D01*
Y61566D01*
X175280D01*
Y61575D01*
X175298D01*
Y61583D01*
X175306D01*
Y61592D01*
X175323D01*
Y61601D01*
X175341D01*
Y61609D01*
X175349D01*
Y61618D01*
X175366D01*
Y61626D01*
X175384D01*
Y61635D01*
X175401D01*
Y61644D01*
X175410D01*
Y61652D01*
X175427D01*
Y61661D01*
X175444D01*
Y61669D01*
X175461D01*
Y61678D01*
X175478D01*
Y61687D01*
X175487D01*
Y61695D01*
X175504D01*
Y61704D01*
X175522D01*
Y61712D01*
X175539D01*
Y61721D01*
X175556D01*
Y61730D01*
X175565D01*
Y61738D01*
X175590D01*
Y61747D01*
X175599D01*
Y61756D01*
X175616D01*
Y61764D01*
X175642D01*
Y61773D01*
X175651D01*
Y61781D01*
X175668D01*
Y61790D01*
X175685D01*
Y61799D01*
X175702D01*
Y61807D01*
X175720D01*
Y61816D01*
X175737D01*
Y61824D01*
X175754D01*
Y61833D01*
X175771D01*
Y61842D01*
X175788D01*
Y61850D01*
X175806D01*
Y61859D01*
X175823D01*
Y61867D01*
X175840D01*
Y61876D01*
X175857D01*
Y61885D01*
X175883D01*
Y61893D01*
X175892D01*
Y61902D01*
X175909D01*
Y61911D01*
X175935D01*
Y61919D01*
X175944D01*
Y61928D01*
X175969D01*
Y61936D01*
X175978D01*
Y61945D01*
X176004D01*
Y61954D01*
X176021D01*
Y61962D01*
X176038D01*
Y61971D01*
X176064D01*
Y61979D01*
X176073D01*
Y61988D01*
X176099D01*
Y61997D01*
X176116D01*
Y62005D01*
X176133D01*
Y62014D01*
X176159D01*
Y62023D01*
X176176D01*
Y62031D01*
X176202D01*
Y62040D01*
X176210D01*
Y62048D01*
X176236D01*
Y62057D01*
X176254D01*
Y62066D01*
X176271D01*
Y62074D01*
X176297D01*
Y62083D01*
X176314D01*
Y62091D01*
X176340D01*
Y62100D01*
X176357D01*
Y62109D01*
X176374D01*
Y62117D01*
X176400D01*
Y62126D01*
X176417D01*
Y62134D01*
X176452D01*
Y62143D01*
X176469D01*
Y62152D01*
X176486D01*
Y62160D01*
X176503D01*
Y62169D01*
X176529D01*
Y62178D01*
X176555D01*
Y62186D01*
X176572D01*
Y62195D01*
X176607D01*
Y62203D01*
X176615D01*
Y62212D01*
X176641D01*
Y62221D01*
X176667D01*
Y62229D01*
X176684D01*
Y62238D01*
X176719D01*
Y62246D01*
X176736D01*
Y62255D01*
X176770D01*
Y62264D01*
X176788D01*
Y62272D01*
X176805D01*
Y62281D01*
X176839D01*
Y62290D01*
X176856D01*
Y62298D01*
X176891D01*
Y62307D01*
X176917D01*
Y62315D01*
X176943D01*
Y62324D01*
X176968D01*
Y62333D01*
X176986D01*
Y62341D01*
X177029D01*
Y62350D01*
X177046D01*
Y62358D01*
X177080D01*
Y62367D01*
X177106D01*
Y62376D01*
X177123D01*
Y62384D01*
X177167D01*
Y62393D01*
X177184D01*
Y62401D01*
X177227D01*
Y62410D01*
X177244D01*
Y62419D01*
X177278D01*
Y62427D01*
X177313D01*
Y62436D01*
X177330D01*
Y62445D01*
X177373D01*
Y62453D01*
X177399D01*
Y62462D01*
X177442D01*
Y62470D01*
X177468D01*
Y62479D01*
X177494D01*
Y62488D01*
X177537D01*
Y62496D01*
X177563D01*
Y62505D01*
X177614D01*
Y62513D01*
X177640D01*
Y62522D01*
X177683D01*
Y62531D01*
X177718D01*
Y62539D01*
X177743D01*
Y62548D01*
X177795D01*
Y62557D01*
X177821D01*
Y62565D01*
X177873D01*
Y62574D01*
X177916D01*
Y62582D01*
X177950D01*
Y62591D01*
X178011D01*
Y62600D01*
X178028D01*
Y62608D01*
X178105D01*
Y62617D01*
X178140D01*
Y62625D01*
X178183D01*
Y62634D01*
X178243D01*
Y62643D01*
X178286D01*
Y62651D01*
X178355D01*
Y62660D01*
X178398D01*
Y62668D01*
X178476D01*
Y62677D01*
X178527D01*
Y62686D01*
X178588D01*
Y62694D01*
X178682D01*
Y62703D01*
X178734D01*
Y62712D01*
X178855D01*
Y62720D01*
X178932D01*
Y62729D01*
X179053D01*
Y62737D01*
X179208D01*
Y62746D01*
X179345D01*
Y62755D01*
X180000D01*
Y62746D01*
D02*
G37*
G36*
X20000D02*
X20248D01*
Y62723D01*
X20563D01*
Y62701D01*
X20721D01*
Y62678D01*
X20878D01*
Y62656D01*
X21059D01*
Y62633D01*
X21149D01*
Y62611D01*
X21306D01*
Y62588D01*
X21396D01*
Y62566D01*
X21509D01*
Y62543D01*
X21622D01*
Y62521D01*
X21689D01*
Y62498D01*
X21802D01*
Y62476D01*
X21869D01*
Y62453D01*
X21960D01*
Y62431D01*
X22027D01*
Y62408D01*
X22117D01*
Y62386D01*
X22185D01*
Y62363D01*
X22252D01*
Y62341D01*
X22342D01*
Y62318D01*
X22387D01*
Y62296D01*
X22478D01*
Y62273D01*
X22522D01*
Y62250D01*
X22568D01*
Y62228D01*
X22658D01*
Y62206D01*
X22703D01*
Y62183D01*
X22793D01*
Y62160D01*
X22838D01*
Y62138D01*
X22883D01*
Y62115D01*
X22950D01*
Y62093D01*
X22996D01*
Y62070D01*
X23063D01*
Y62048D01*
X23086D01*
Y62025D01*
X23153D01*
Y62003D01*
X23198D01*
Y61980D01*
X23243D01*
Y61958D01*
X23311D01*
Y61935D01*
X23333D01*
Y61913D01*
X23401D01*
Y61890D01*
X23446D01*
Y61868D01*
X23491D01*
Y61845D01*
X23536D01*
Y61823D01*
X23559D01*
Y61800D01*
X23626D01*
Y61778D01*
X23649D01*
Y61755D01*
X23694D01*
Y61733D01*
X23739D01*
Y61710D01*
X23784D01*
Y61687D01*
X23829D01*
Y61665D01*
X23851D01*
Y61642D01*
X23919D01*
Y61620D01*
X23942D01*
Y61597D01*
X23986D01*
Y61575D01*
X24032D01*
Y61552D01*
X24054D01*
Y61530D01*
X24099D01*
Y61507D01*
X24122D01*
Y61485D01*
X24167D01*
Y61462D01*
X24212D01*
Y61440D01*
X24234D01*
Y61417D01*
X24279D01*
Y61395D01*
X24302D01*
Y61372D01*
X24347D01*
Y61350D01*
X24392D01*
Y61327D01*
X24414D01*
Y61305D01*
X24460D01*
Y61282D01*
X24482D01*
Y61259D01*
X24527D01*
Y61237D01*
X24550D01*
Y61214D01*
X24595D01*
Y61192D01*
X24617D01*
Y61169D01*
X24640D01*
Y61147D01*
X24685D01*
Y61124D01*
X24707D01*
Y61102D01*
X24752D01*
Y61079D01*
X24775D01*
Y61057D01*
X24797D01*
Y61034D01*
X24842D01*
Y61012D01*
X24865D01*
Y60989D01*
X24887D01*
Y60967D01*
X24910D01*
Y60944D01*
X24955D01*
Y60922D01*
X24978D01*
Y60899D01*
X25000D01*
Y60877D01*
X25045D01*
Y60854D01*
X25068D01*
Y60832D01*
X25090D01*
Y60809D01*
X25135D01*
Y60786D01*
X25158D01*
Y60764D01*
X25180D01*
Y60742D01*
X25203D01*
Y60719D01*
X25225D01*
Y60696D01*
X25248D01*
Y60674D01*
X25270D01*
Y60651D01*
X25315D01*
Y60629D01*
X25338D01*
Y60606D01*
X25360D01*
Y60584D01*
X25383D01*
Y60561D01*
X25405D01*
Y60539D01*
X25428D01*
Y60516D01*
X25450D01*
Y60494D01*
X25473D01*
Y60471D01*
X25518D01*
Y60449D01*
X25541D01*
Y60426D01*
X25563D01*
Y60404D01*
X25586D01*
Y60381D01*
X25608D01*
Y60359D01*
X25631D01*
Y60336D01*
X25653D01*
Y60314D01*
X25676D01*
Y60291D01*
X25698D01*
Y60269D01*
X25721D01*
Y60246D01*
X25743D01*
Y60223D01*
X25766D01*
Y60201D01*
X25788D01*
Y60178D01*
X25811D01*
Y60156D01*
X25833D01*
Y60133D01*
X25856D01*
Y60111D01*
X25878D01*
Y60088D01*
X25901D01*
Y60066D01*
X25923D01*
Y60043D01*
X25946D01*
Y60021D01*
X25968D01*
Y59998D01*
X25991D01*
Y59976D01*
X26014D01*
Y59953D01*
X26036D01*
Y59931D01*
X26059D01*
Y59886D01*
X26081D01*
Y59863D01*
X26104D01*
Y59841D01*
X26126D01*
Y59818D01*
X26149D01*
Y59796D01*
X26171D01*
Y59773D01*
X26194D01*
Y59750D01*
X26216D01*
Y59706D01*
X26239D01*
Y59683D01*
X26261D01*
Y59660D01*
X26284D01*
Y59638D01*
X26306D01*
Y59615D01*
X26329D01*
Y59570D01*
X26351D01*
Y59548D01*
X26374D01*
Y59525D01*
X26396D01*
Y59503D01*
X26419D01*
Y59480D01*
X26442D01*
Y59435D01*
X26464D01*
Y59413D01*
X26486D01*
Y59390D01*
X26509D01*
Y59345D01*
X26532D01*
Y59323D01*
X26554D01*
Y59300D01*
X26577D01*
Y59278D01*
X26599D01*
Y59233D01*
X26622D01*
Y59210D01*
X26644D01*
Y59187D01*
X26667D01*
Y59142D01*
X26689D01*
Y59120D01*
X26712D01*
Y59075D01*
X26734D01*
Y59052D01*
X26757D01*
Y59030D01*
X26779D01*
Y58985D01*
X26802D01*
Y58962D01*
X26824D01*
Y58917D01*
X26847D01*
Y58895D01*
X26869D01*
Y58850D01*
X26892D01*
Y58827D01*
X26914D01*
Y58782D01*
X26937D01*
Y58737D01*
X26960D01*
Y58714D01*
X26982D01*
Y58669D01*
X27004D01*
Y58647D01*
X27027D01*
Y58602D01*
X27050D01*
Y58557D01*
X27072D01*
Y58534D01*
X27095D01*
Y58489D01*
X27117D01*
Y58467D01*
X27140D01*
Y58422D01*
X27162D01*
Y58377D01*
X27185D01*
Y58332D01*
X27207D01*
Y58286D01*
X27230D01*
Y58264D01*
X27252D01*
Y58219D01*
X27275D01*
Y58174D01*
X27297D01*
Y58129D01*
X27320D01*
Y58084D01*
X27342D01*
Y58061D01*
X27365D01*
Y57994D01*
X27387D01*
Y57971D01*
X27410D01*
Y57904D01*
X27432D01*
Y57859D01*
X27455D01*
Y57814D01*
X27478D01*
Y57769D01*
X27500D01*
Y57723D01*
X27523D01*
Y57678D01*
X27545D01*
Y57633D01*
X27568D01*
Y57566D01*
X27590D01*
Y57521D01*
X27613D01*
Y57476D01*
X27635D01*
Y57408D01*
X27658D01*
Y57363D01*
X27680D01*
Y57296D01*
X27703D01*
Y57250D01*
X27725D01*
Y57206D01*
X27748D01*
Y57138D01*
X27770D01*
Y57093D01*
X27793D01*
Y57003D01*
X27815D01*
Y56958D01*
X27838D01*
Y56890D01*
X27860D01*
Y56823D01*
X27883D01*
Y56755D01*
X27905D01*
Y56665D01*
X27928D01*
Y56620D01*
X27950D01*
Y56530D01*
X27973D01*
Y56462D01*
X27996D01*
Y56372D01*
X28018D01*
Y56282D01*
X28041D01*
Y56214D01*
X28063D01*
Y56102D01*
X28086D01*
Y56034D01*
X28108D01*
Y55899D01*
X28131D01*
Y55832D01*
X28153D01*
Y55719D01*
X28176D01*
Y55561D01*
X28198D01*
Y55471D01*
X28221D01*
Y55269D01*
X28243D01*
Y55156D01*
X28266D01*
Y54953D01*
X28288D01*
Y54660D01*
X28311D01*
Y54255D01*
X28333D01*
Y53827D01*
X28311D01*
Y53422D01*
X28288D01*
Y53151D01*
X28266D01*
Y52926D01*
X28243D01*
Y52814D01*
X28221D01*
Y52611D01*
X28198D01*
Y52521D01*
X28176D01*
Y52386D01*
X28153D01*
Y52273D01*
X28131D01*
Y52183D01*
X28108D01*
Y52048D01*
X28086D01*
Y51980D01*
X28063D01*
Y51868D01*
X28041D01*
Y51800D01*
X28018D01*
Y51710D01*
X27996D01*
Y51620D01*
X27973D01*
Y51575D01*
X27950D01*
Y51462D01*
X27928D01*
Y51417D01*
X27905D01*
Y51327D01*
X27883D01*
Y51259D01*
X27860D01*
Y51214D01*
X27838D01*
Y51124D01*
X27815D01*
Y51079D01*
X27793D01*
Y50989D01*
X27770D01*
Y50967D01*
X27748D01*
Y50899D01*
X27725D01*
Y50832D01*
X27703D01*
Y50786D01*
X27680D01*
Y50719D01*
X27658D01*
Y50674D01*
X27635D01*
Y50606D01*
X27613D01*
Y50561D01*
X27590D01*
Y50516D01*
X27568D01*
Y50471D01*
X27545D01*
Y50426D01*
X27523D01*
Y50359D01*
X27500D01*
Y50336D01*
X27478D01*
Y50269D01*
X27455D01*
Y50223D01*
X27432D01*
Y50178D01*
X27410D01*
Y50133D01*
X27387D01*
Y50088D01*
X27365D01*
Y50043D01*
X27342D01*
Y49998D01*
X27320D01*
Y49953D01*
X27297D01*
Y49908D01*
X27275D01*
Y49886D01*
X27252D01*
Y49818D01*
X27230D01*
Y49796D01*
X27207D01*
Y49750D01*
X27185D01*
Y49706D01*
X27162D01*
Y49683D01*
X27140D01*
Y49638D01*
X27117D01*
Y49593D01*
X27095D01*
Y49548D01*
X27072D01*
Y49525D01*
X27050D01*
Y49480D01*
X27027D01*
Y49458D01*
X27004D01*
Y49413D01*
X26982D01*
Y49368D01*
X26960D01*
Y49345D01*
X26937D01*
Y49300D01*
X26914D01*
Y49278D01*
X26892D01*
Y49233D01*
X26869D01*
Y49210D01*
X26847D01*
Y49165D01*
X26824D01*
Y49142D01*
X26802D01*
Y49097D01*
X26779D01*
Y49075D01*
X26757D01*
Y49030D01*
X26734D01*
Y49007D01*
X26712D01*
Y48985D01*
X26689D01*
Y48940D01*
X26667D01*
Y48917D01*
X26644D01*
Y48895D01*
X26622D01*
Y48850D01*
X26599D01*
Y48827D01*
X26577D01*
Y48805D01*
X26554D01*
Y48759D01*
X26532D01*
Y48737D01*
X26509D01*
Y48714D01*
X26486D01*
Y48669D01*
X26464D01*
Y48647D01*
X26442D01*
Y48624D01*
X26419D01*
Y48579D01*
X26396D01*
Y48557D01*
X26374D01*
Y48534D01*
X26351D01*
Y48512D01*
X26329D01*
Y48467D01*
X26306D01*
Y48444D01*
X26284D01*
Y48422D01*
X26261D01*
Y48399D01*
X26239D01*
Y48377D01*
X26216D01*
Y48332D01*
X26171D01*
Y48286D01*
X26149D01*
Y48264D01*
X26126D01*
Y48242D01*
X26104D01*
Y48219D01*
X26081D01*
Y48196D01*
X26059D01*
Y48174D01*
X26036D01*
Y48151D01*
X26014D01*
Y48129D01*
X25991D01*
Y48106D01*
X25968D01*
Y48084D01*
X25946D01*
Y48039D01*
X25923D01*
Y48016D01*
X25901D01*
Y47994D01*
X25878D01*
Y47971D01*
X25856D01*
Y47949D01*
X25833D01*
Y47926D01*
X25811D01*
Y47904D01*
X25788D01*
Y47881D01*
X25766D01*
Y47859D01*
X25743D01*
Y47836D01*
X25721D01*
Y47814D01*
X25698D01*
Y47791D01*
X25676D01*
Y47769D01*
X25653D01*
Y47746D01*
X25608D01*
Y47723D01*
X25586D01*
Y47678D01*
X25563D01*
Y47656D01*
X25518D01*
Y47633D01*
X25496D01*
Y47611D01*
X25473D01*
Y47588D01*
X25450D01*
Y47566D01*
X25428D01*
Y47543D01*
X25405D01*
Y47521D01*
X25383D01*
Y47498D01*
X25360D01*
Y47476D01*
X25315D01*
Y47453D01*
X25293D01*
Y47431D01*
X25270D01*
Y47408D01*
X25248D01*
Y47386D01*
X25225D01*
Y47363D01*
X25203D01*
Y47341D01*
X25158D01*
Y47318D01*
X25135D01*
Y47296D01*
X25113D01*
Y47273D01*
X25090D01*
Y47250D01*
X25045D01*
Y47228D01*
X25023D01*
Y47206D01*
X25000D01*
Y47183D01*
X24978D01*
Y47160D01*
X24932D01*
Y47138D01*
X24910D01*
Y47115D01*
X24887D01*
Y47093D01*
X24842D01*
Y47070D01*
X24820D01*
Y47048D01*
X24797D01*
Y47025D01*
X24752D01*
Y47003D01*
X24730D01*
Y46980D01*
X24707D01*
Y46958D01*
X24662D01*
Y46935D01*
X24640D01*
Y46913D01*
X24617D01*
Y46890D01*
X24572D01*
Y46868D01*
X24527D01*
Y46845D01*
X24504D01*
Y46823D01*
X24482D01*
Y46800D01*
X24437D01*
Y46778D01*
X24414D01*
Y46755D01*
X24369D01*
Y46733D01*
X24347D01*
Y46710D01*
X24302D01*
Y46687D01*
X24279D01*
Y46665D01*
X24234D01*
Y46642D01*
X24212D01*
Y46620D01*
X24167D01*
Y46597D01*
X24122D01*
Y46575D01*
X24099D01*
Y46552D01*
X24054D01*
Y46530D01*
X24009D01*
Y46507D01*
X23964D01*
Y46485D01*
X23942D01*
Y46462D01*
X23896D01*
Y46440D01*
X23851D01*
Y46417D01*
X23806D01*
Y46395D01*
X23761D01*
Y46372D01*
X23716D01*
Y46350D01*
X23694D01*
Y46327D01*
X23649D01*
Y46305D01*
X23604D01*
Y46282D01*
X23559D01*
Y46259D01*
X23514D01*
Y46237D01*
X23468D01*
Y46214D01*
X23423D01*
Y46192D01*
X23378D01*
Y46169D01*
X23311D01*
Y46147D01*
X23288D01*
Y46124D01*
X23221D01*
Y46102D01*
X23176D01*
Y46079D01*
X23131D01*
Y46057D01*
X23086D01*
Y46034D01*
X23041D01*
Y46012D01*
X22973D01*
Y45989D01*
X22928D01*
Y45967D01*
X22860D01*
Y45944D01*
X22815D01*
Y45922D01*
X22748D01*
Y45899D01*
X22680D01*
Y45877D01*
X22635D01*
Y45854D01*
X22568D01*
Y45832D01*
X22500D01*
Y45809D01*
X22432D01*
Y45786D01*
X22365D01*
Y45764D01*
X22320D01*
Y45742D01*
X22230D01*
Y45719D01*
X22162D01*
Y45697D01*
X22072D01*
Y45674D01*
X22004D01*
Y45651D01*
X21937D01*
Y45629D01*
X21847D01*
Y45606D01*
X21779D01*
Y45584D01*
X21644D01*
Y45561D01*
X21577D01*
Y45539D01*
X21464D01*
Y45516D01*
X21351D01*
Y45494D01*
X21261D01*
Y45471D01*
X21104D01*
Y45449D01*
X21014D01*
Y45426D01*
X20856D01*
Y45404D01*
X20676D01*
Y45381D01*
X20473D01*
Y45359D01*
X20158D01*
Y45336D01*
X19640D01*
Y45314D01*
X19550D01*
Y45336D01*
X19077D01*
Y45359D01*
X18739D01*
Y45381D01*
X18559D01*
Y45404D01*
X18401D01*
Y45426D01*
X18221D01*
Y45449D01*
X18131D01*
Y45471D01*
X17973D01*
Y45494D01*
X17860D01*
Y45516D01*
X17748D01*
Y45539D01*
X17635D01*
Y45561D01*
X17568D01*
Y45584D01*
X17455D01*
Y45606D01*
X17387D01*
Y45629D01*
X17297D01*
Y45651D01*
X17207D01*
Y45674D01*
X17140D01*
Y45697D01*
X17072D01*
Y45719D01*
X17004D01*
Y45742D01*
X16914D01*
Y45764D01*
X16869D01*
Y45786D01*
X16802D01*
Y45809D01*
X16712D01*
Y45832D01*
X16667D01*
Y45854D01*
X16577D01*
Y45877D01*
X16554D01*
Y45899D01*
X16487D01*
Y45922D01*
X16419D01*
Y45944D01*
X16374D01*
Y45967D01*
X16306D01*
Y45989D01*
X16261D01*
Y46012D01*
X16216D01*
Y46034D01*
X16149D01*
Y46057D01*
X16104D01*
Y46079D01*
X16036D01*
Y46102D01*
X16013D01*
Y46124D01*
X15946D01*
Y46147D01*
X15901D01*
Y46169D01*
X15856D01*
Y46192D01*
X15811D01*
Y46214D01*
X15766D01*
Y46237D01*
X15698D01*
Y46259D01*
X15676D01*
Y46282D01*
X15608D01*
Y46305D01*
X15586D01*
Y46327D01*
X15541D01*
Y46350D01*
X15496D01*
Y46372D01*
X15473D01*
Y46395D01*
X15405D01*
Y46417D01*
X15383D01*
Y46440D01*
X15338D01*
Y46462D01*
X15293D01*
Y46485D01*
X15248D01*
Y46507D01*
X15225D01*
Y46530D01*
X15180D01*
Y46552D01*
X15135D01*
Y46575D01*
X15113D01*
Y46597D01*
X15068D01*
Y46620D01*
X15023D01*
Y46642D01*
X15000D01*
Y46665D01*
X14955D01*
Y46687D01*
X14933D01*
Y46710D01*
X14887D01*
Y46733D01*
X14842D01*
Y46755D01*
X14820D01*
Y46778D01*
X14775D01*
Y46800D01*
X14752D01*
Y46823D01*
X14707D01*
Y46845D01*
X14685D01*
Y46868D01*
X14662D01*
Y46890D01*
X14617D01*
Y46913D01*
X14595D01*
Y46935D01*
X14550D01*
Y46958D01*
X14527D01*
Y46980D01*
X14504D01*
Y47003D01*
X14460D01*
Y47025D01*
X14437D01*
Y47048D01*
X14392D01*
Y47093D01*
X14347D01*
Y47115D01*
X14324D01*
Y47138D01*
X14279D01*
Y47160D01*
X14257D01*
Y47183D01*
X14234D01*
Y47206D01*
X14189D01*
Y47228D01*
X14167D01*
Y47250D01*
X14144D01*
Y47273D01*
X14122D01*
Y47296D01*
X14099D01*
Y47318D01*
X14054D01*
Y47341D01*
X14031D01*
Y47363D01*
X14009D01*
Y47386D01*
X13987D01*
Y47408D01*
X13964D01*
Y47431D01*
X13919D01*
Y47453D01*
X13896D01*
Y47476D01*
X13874D01*
Y47498D01*
X13851D01*
Y47521D01*
X13829D01*
Y47543D01*
X13806D01*
Y47566D01*
X13784D01*
Y47588D01*
X13739D01*
Y47611D01*
X13716D01*
Y47633D01*
X13694D01*
Y47656D01*
X13671D01*
Y47678D01*
X13649D01*
Y47701D01*
X13626D01*
Y47723D01*
X13604D01*
Y47746D01*
X13581D01*
Y47769D01*
X13559D01*
Y47791D01*
X13536D01*
Y47814D01*
X13513D01*
Y47836D01*
X13491D01*
Y47859D01*
X13469D01*
Y47881D01*
X13446D01*
Y47904D01*
X13423D01*
Y47926D01*
X13401D01*
Y47949D01*
X13378D01*
Y47971D01*
X13356D01*
Y47994D01*
X13333D01*
Y48016D01*
X13311D01*
Y48039D01*
X13288D01*
Y48061D01*
X13266D01*
Y48084D01*
X13243D01*
Y48106D01*
X13221D01*
Y48129D01*
X13198D01*
Y48151D01*
X13176D01*
Y48174D01*
X13153D01*
Y48219D01*
X13131D01*
Y48242D01*
X13108D01*
Y48264D01*
X13086D01*
Y48286D01*
X13063D01*
Y48309D01*
X13041D01*
Y48332D01*
X13018D01*
Y48354D01*
X12996D01*
Y48399D01*
X12973D01*
Y48422D01*
X12951D01*
Y48444D01*
X12928D01*
Y48467D01*
X12905D01*
Y48489D01*
X12883D01*
Y48534D01*
X12860D01*
Y48557D01*
X12838D01*
Y48579D01*
X12815D01*
Y48602D01*
X12793D01*
Y48647D01*
X12770D01*
Y48669D01*
X12748D01*
Y48692D01*
X12725D01*
Y48714D01*
X12703D01*
Y48759D01*
X12680D01*
Y48782D01*
X12658D01*
Y48827D01*
X12613D01*
Y48872D01*
X12590D01*
Y48895D01*
X12568D01*
Y48940D01*
X12545D01*
Y48962D01*
X12522D01*
Y48985D01*
X12500D01*
Y49030D01*
X12478D01*
Y49052D01*
X12455D01*
Y49097D01*
X12433D01*
Y49120D01*
X12410D01*
Y49142D01*
X12387D01*
Y49187D01*
X12365D01*
Y49210D01*
X12342D01*
Y49255D01*
X12320D01*
Y49300D01*
X12297D01*
Y49323D01*
X12275D01*
Y49368D01*
X12252D01*
Y49390D01*
X12230D01*
Y49435D01*
X12207D01*
Y49480D01*
X12185D01*
Y49503D01*
X12162D01*
Y49548D01*
X12140D01*
Y49570D01*
X12117D01*
Y49638D01*
X12095D01*
Y49660D01*
X12072D01*
Y49706D01*
X12050D01*
Y49728D01*
X12027D01*
Y49773D01*
X12004D01*
Y49818D01*
X11982D01*
Y49863D01*
X11960D01*
Y49908D01*
X11937D01*
Y49931D01*
X11914D01*
Y49998D01*
X11892D01*
Y50043D01*
X11869D01*
Y50066D01*
X11847D01*
Y50111D01*
X11824D01*
Y50156D01*
X11802D01*
Y50223D01*
X11779D01*
Y50246D01*
X11757D01*
Y50291D01*
X11734D01*
Y50359D01*
X11712D01*
Y50404D01*
X11689D01*
Y50449D01*
X11667D01*
Y50494D01*
X11644D01*
Y50539D01*
X11622D01*
Y50606D01*
X11599D01*
Y50651D01*
X11577D01*
Y50719D01*
X11554D01*
Y50764D01*
X11531D01*
Y50832D01*
X11509D01*
Y50877D01*
X11487D01*
Y50944D01*
X11464D01*
Y50989D01*
X11442D01*
Y51034D01*
X11419D01*
Y51124D01*
X11396D01*
Y51169D01*
X11374D01*
Y51259D01*
X11351D01*
Y51305D01*
X11329D01*
Y51372D01*
X11306D01*
Y51462D01*
X11284D01*
Y51507D01*
X11261D01*
Y51620D01*
X11239D01*
Y51687D01*
X11216D01*
Y51755D01*
X11194D01*
Y51845D01*
X11171D01*
Y51935D01*
X11149D01*
Y52048D01*
X11126D01*
Y52115D01*
X11104D01*
Y52250D01*
X11081D01*
Y52341D01*
X11059D01*
Y52453D01*
X11036D01*
Y52611D01*
X11013D01*
Y52701D01*
X10991D01*
Y52904D01*
X10969D01*
Y53061D01*
X10946D01*
Y53309D01*
X10923D01*
Y53534D01*
Y53557D01*
Y53714D01*
X10901D01*
Y54368D01*
X10923D01*
Y54750D01*
X10946D01*
Y55021D01*
X10969D01*
Y55178D01*
X10991D01*
Y55381D01*
X11013D01*
Y55471D01*
X11036D01*
Y55629D01*
X11059D01*
Y55742D01*
X11081D01*
Y55854D01*
X11104D01*
Y55967D01*
X11126D01*
Y56057D01*
X11149D01*
Y56169D01*
X11171D01*
Y56237D01*
X11194D01*
Y56327D01*
X11216D01*
Y56417D01*
X11239D01*
Y56485D01*
X11261D01*
Y56575D01*
X11284D01*
Y56620D01*
X11306D01*
Y56710D01*
X11329D01*
Y56778D01*
X11351D01*
Y56845D01*
X11374D01*
Y56913D01*
X11396D01*
Y56958D01*
X11419D01*
Y57048D01*
X11442D01*
Y57093D01*
X11464D01*
Y57160D01*
X11487D01*
Y57228D01*
X11509D01*
Y57273D01*
X11531D01*
Y57341D01*
X11554D01*
Y57386D01*
X11577D01*
Y57431D01*
X11599D01*
Y57476D01*
X11622D01*
Y57543D01*
X11644D01*
Y57588D01*
X11667D01*
Y57633D01*
X11689D01*
Y57701D01*
X11712D01*
Y57746D01*
X11734D01*
Y57791D01*
X11757D01*
Y57836D01*
X11779D01*
Y57881D01*
X11802D01*
Y57926D01*
X11824D01*
Y57971D01*
X11847D01*
Y58016D01*
X11869D01*
Y58061D01*
X11892D01*
Y58106D01*
X11914D01*
Y58151D01*
X11937D01*
Y58174D01*
X11960D01*
Y58242D01*
X11982D01*
Y58264D01*
X12004D01*
Y58309D01*
X12027D01*
Y58354D01*
X12050D01*
Y58377D01*
X12072D01*
Y58444D01*
X12095D01*
Y58467D01*
X12117D01*
Y58512D01*
X12140D01*
Y58534D01*
X12162D01*
Y58579D01*
X12185D01*
Y58624D01*
X12207D01*
Y58647D01*
X12230D01*
Y58692D01*
X12252D01*
Y58714D01*
X12275D01*
Y58759D01*
X12297D01*
Y58805D01*
X12320D01*
Y58827D01*
X12342D01*
Y58872D01*
X12365D01*
Y58895D01*
X12387D01*
Y58940D01*
X12410D01*
Y58962D01*
X12433D01*
Y58985D01*
X12455D01*
Y59030D01*
X12478D01*
Y59052D01*
X12500D01*
Y59097D01*
X12522D01*
Y59120D01*
X12545D01*
Y59165D01*
X12568D01*
Y59187D01*
X12590D01*
Y59210D01*
X12613D01*
Y59255D01*
X12635D01*
Y59278D01*
X12658D01*
Y59300D01*
X12680D01*
Y59345D01*
X12703D01*
Y59368D01*
X12725D01*
Y59390D01*
X12748D01*
Y59413D01*
X12770D01*
Y59458D01*
X12793D01*
Y59480D01*
X12815D01*
Y59503D01*
X12838D01*
Y59525D01*
X12860D01*
Y59548D01*
X12883D01*
Y59593D01*
X12905D01*
Y59615D01*
X12928D01*
Y59638D01*
X12951D01*
Y59683D01*
X12973D01*
Y59706D01*
X12996D01*
Y59728D01*
X13018D01*
Y59750D01*
X13041D01*
Y59773D01*
X13063D01*
Y59796D01*
X13086D01*
Y59841D01*
X13108D01*
Y59863D01*
X13131D01*
Y59886D01*
X13153D01*
Y59908D01*
X13176D01*
Y59931D01*
X13198D01*
Y59953D01*
X13221D01*
Y59976D01*
X13243D01*
Y59998D01*
X13266D01*
Y60021D01*
X13288D01*
Y60043D01*
X13311D01*
Y60066D01*
X13333D01*
Y60088D01*
X13356D01*
Y60111D01*
X13378D01*
Y60133D01*
X13401D01*
Y60156D01*
X13423D01*
Y60178D01*
X13446D01*
Y60201D01*
X13469D01*
Y60223D01*
X13491D01*
Y60246D01*
X13513D01*
Y60269D01*
X13536D01*
Y60291D01*
X13559D01*
Y60314D01*
X13581D01*
Y60336D01*
X13604D01*
Y60359D01*
X13626D01*
Y60381D01*
X13649D01*
Y60404D01*
X13671D01*
Y60426D01*
X13694D01*
Y60449D01*
X13716D01*
Y60471D01*
X13739D01*
Y60494D01*
X13761D01*
Y60516D01*
X13784D01*
Y60539D01*
X13806D01*
Y60561D01*
X13851D01*
Y60606D01*
X13896D01*
Y60629D01*
X13919D01*
Y60651D01*
X13942D01*
Y60674D01*
X13964D01*
Y60696D01*
X13987D01*
Y60719D01*
X14031D01*
Y60742D01*
X14054D01*
Y60764D01*
X14077D01*
Y60786D01*
X14099D01*
Y60809D01*
X14122D01*
Y60832D01*
X14167D01*
Y60854D01*
X14189D01*
Y60877D01*
X14212D01*
Y60899D01*
X14234D01*
Y60922D01*
X14279D01*
Y60944D01*
X14302D01*
Y60967D01*
X14324D01*
Y60989D01*
X14369D01*
Y61012D01*
X14392D01*
Y61034D01*
X14414D01*
Y61057D01*
X14460D01*
Y61079D01*
X14482D01*
Y61102D01*
X14527D01*
Y61124D01*
X14550D01*
Y61147D01*
X14572D01*
Y61169D01*
X14617D01*
Y61192D01*
X14640D01*
Y61214D01*
X14685D01*
Y61237D01*
X14707D01*
Y61259D01*
X14752D01*
Y61282D01*
X14775D01*
Y61305D01*
X14797D01*
Y61327D01*
X14842D01*
Y61350D01*
X14865D01*
Y61372D01*
X14910D01*
Y61395D01*
X14955D01*
Y61417D01*
X14978D01*
Y61440D01*
X15023D01*
Y61462D01*
X15045D01*
Y61485D01*
X15090D01*
Y61507D01*
X15135D01*
Y61530D01*
X15180D01*
Y61552D01*
X15203D01*
Y61575D01*
X15248D01*
Y61597D01*
X15270D01*
Y61620D01*
X15315D01*
Y61642D01*
X15360D01*
Y61665D01*
X15405D01*
Y61687D01*
X15451D01*
Y61710D01*
X15473D01*
Y61733D01*
X15518D01*
Y61755D01*
X15563D01*
Y61778D01*
X15608D01*
Y61800D01*
X15676D01*
Y61823D01*
X15698D01*
Y61845D01*
X15743D01*
Y61868D01*
X15788D01*
Y61890D01*
X15833D01*
Y61913D01*
X15901D01*
Y61935D01*
X15923D01*
Y61958D01*
X15991D01*
Y61980D01*
X16036D01*
Y62003D01*
X16081D01*
Y62025D01*
X16126D01*
Y62048D01*
X16171D01*
Y62070D01*
X16239D01*
Y62093D01*
X16284D01*
Y62115D01*
X16351D01*
Y62138D01*
X16396D01*
Y62160D01*
X16442D01*
Y62183D01*
X16531D01*
Y62206D01*
X16577D01*
Y62228D01*
X16644D01*
Y62250D01*
X16712D01*
Y62273D01*
X16757D01*
Y62296D01*
X16847D01*
Y62318D01*
X16892D01*
Y62341D01*
X16982D01*
Y62363D01*
X17027D01*
Y62386D01*
X17117D01*
Y62408D01*
X17185D01*
Y62431D01*
X17252D01*
Y62453D01*
X17365D01*
Y62476D01*
X17410D01*
Y62498D01*
X17545D01*
Y62521D01*
X17613D01*
Y62543D01*
X17703D01*
Y62566D01*
X17838D01*
Y62588D01*
X17905D01*
Y62611D01*
X18063D01*
Y62633D01*
X18153D01*
Y62656D01*
X18311D01*
Y62678D01*
X18491D01*
Y62701D01*
X18671D01*
Y62723D01*
X18964D01*
Y62746D01*
X19279D01*
Y62769D01*
X20000D01*
Y62746D01*
D02*
G37*
G36*
X13263Y67370D02*
X13356Y67352D01*
X13430Y67315D01*
X13495Y67287D01*
X13550Y67250D01*
X13587Y67213D01*
X13606Y67195D01*
X13615Y67185D01*
X13670Y67111D01*
X13707Y67019D01*
X13735Y66926D01*
X13753Y66834D01*
X13763Y66751D01*
X13772Y66686D01*
Y66640D01*
Y66621D01*
Y61758D01*
X13763Y61629D01*
X13744Y61508D01*
X13716Y61407D01*
X13689Y61333D01*
X13661Y61268D01*
X13633Y61222D01*
X13615Y61194D01*
X13606Y61185D01*
X13541Y61120D01*
X13467Y61074D01*
X13393Y61046D01*
X13319Y61028D01*
X13254Y61009D01*
X13208Y61000D01*
X13162D01*
X13060Y61009D01*
X12977Y61028D01*
X12894Y61055D01*
X12829Y61093D01*
X12783Y61129D01*
X12737Y61157D01*
X12718Y61176D01*
X12709Y61185D01*
X12644Y61268D01*
X12598Y61361D01*
X12570Y61453D01*
X12542Y61546D01*
X12533Y61629D01*
X12524Y61693D01*
Y61740D01*
Y61758D01*
Y63838D01*
X9824D01*
Y61758D01*
X9815Y61629D01*
X9796Y61508D01*
X9769Y61407D01*
X9741Y61333D01*
X9713Y61268D01*
X9686Y61222D01*
X9667Y61194D01*
X9658Y61185D01*
X9593Y61120D01*
X9519Y61074D01*
X9445Y61046D01*
X9371Y61028D01*
X9306Y61009D01*
X9260Y61000D01*
X9214D01*
X9112Y61009D01*
X9029Y61028D01*
X8946Y61055D01*
X8881Y61093D01*
X8835Y61129D01*
X8789Y61157D01*
X8770Y61176D01*
X8761Y61185D01*
X8696Y61259D01*
X8650Y61351D01*
X8622Y61444D01*
X8594Y61546D01*
X8585Y61629D01*
X8576Y61693D01*
Y61740D01*
Y61758D01*
Y66621D01*
X8585Y66751D01*
X8604Y66871D01*
X8632Y66963D01*
X8659Y67047D01*
X8696Y67111D01*
X8724Y67148D01*
X8742Y67176D01*
X8752Y67185D01*
X8826Y67250D01*
X8900Y67296D01*
X8974Y67333D01*
X9047Y67352D01*
X9112Y67370D01*
X9168Y67379D01*
X9214D01*
X9316Y67370D01*
X9399Y67352D01*
X9473Y67315D01*
X9538Y67287D01*
X9593Y67250D01*
X9630Y67213D01*
X9649Y67195D01*
X9658Y67185D01*
X9713Y67111D01*
X9750Y67019D01*
X9787Y66926D01*
X9806Y66834D01*
X9815Y66751D01*
X9824Y66686D01*
Y66640D01*
Y66621D01*
Y64855D01*
X12524D01*
Y66621D01*
X12533Y66751D01*
X12552Y66871D01*
X12579Y66963D01*
X12607Y67047D01*
X12644Y67111D01*
X12672Y67148D01*
X12690Y67176D01*
X12700Y67185D01*
X12773Y67250D01*
X12847Y67296D01*
X12921Y67333D01*
X12995Y67352D01*
X13060Y67370D01*
X13116Y67379D01*
X13162D01*
X13263Y67370D01*
D02*
G37*
G36*
X32060Y67269D02*
X32143Y67250D01*
X32217Y67213D01*
X32281Y67185D01*
X32337Y67148D01*
X32374Y67111D01*
X32392Y67093D01*
X32402Y67084D01*
X32457Y67010D01*
X32494Y66917D01*
X32531Y66825D01*
X32550Y66732D01*
X32559Y66649D01*
X32568Y66584D01*
Y66538D01*
Y66520D01*
Y61758D01*
X32559Y61620D01*
X32540Y61499D01*
X32513Y61398D01*
X32476Y61314D01*
X32448Y61259D01*
X32420Y61213D01*
X32402Y61185D01*
X32392Y61176D01*
X32318Y61120D01*
X32226Y61074D01*
X32134Y61046D01*
X32032Y61019D01*
X31949Y61009D01*
X31875Y61000D01*
X28787D01*
X28676Y61009D01*
X28583Y61019D01*
X28509Y61046D01*
X28444Y61074D01*
X28389Y61093D01*
X28352Y61120D01*
X28333Y61129D01*
X28324Y61139D01*
X28269Y61194D01*
X28232Y61259D01*
X28195Y61314D01*
X28176Y61379D01*
X28167Y61425D01*
X28158Y61472D01*
Y61499D01*
Y61508D01*
X28167Y61592D01*
X28186Y61656D01*
X28213Y61721D01*
X28241Y61777D01*
X28269Y61823D01*
X28296Y61851D01*
X28315Y61869D01*
X28324Y61878D01*
X28389Y61925D01*
X28463Y61961D01*
X28537Y61989D01*
X28611Y62008D01*
X28685Y62017D01*
X28740Y62026D01*
X31320D01*
Y66520D01*
X31329Y66649D01*
X31348Y66769D01*
X31375Y66862D01*
X31403Y66945D01*
X31440Y67010D01*
X31468Y67047D01*
X31486Y67074D01*
X31495Y67084D01*
X31569Y67148D01*
X31643Y67195D01*
X31717Y67231D01*
X31791Y67250D01*
X31856Y67269D01*
X31912Y67278D01*
X31958D01*
X32060Y67269D01*
D02*
G37*
G36*
X174757Y367314D02*
X171943D01*
X169387Y376887D01*
X166869Y367314D01*
X164073D01*
X160981Y380127D01*
X163592D01*
X165555Y371166D01*
X167777Y380127D01*
X170887D01*
X173220Y371314D01*
X175146Y380127D01*
X177794D01*
X174757Y367314D01*
D02*
G37*
G36*
X100408D02*
X97612D01*
X93057Y380127D01*
X95816D01*
X98945Y370647D01*
X102204Y380127D01*
X105000D01*
X100408Y367314D01*
D02*
G37*
G36*
X34000Y373276D02*
Y372887D01*
X33981Y372517D01*
Y372165D01*
X33963Y371851D01*
X33944Y371554D01*
X33926Y371295D01*
X33907Y371054D01*
X33870Y370832D01*
X33852Y370647D01*
X33833Y370480D01*
X33815Y370332D01*
X33796Y370221D01*
X33778Y370129D01*
Y370073D01*
X33759Y370036D01*
Y370017D01*
X33667Y369740D01*
X33574Y369480D01*
X33444Y369240D01*
X33333Y369036D01*
X33222Y368851D01*
X33130Y368703D01*
X33056Y368629D01*
X33037Y368592D01*
X32815Y368351D01*
X32574Y368129D01*
X32315Y367944D01*
X32074Y367777D01*
X31871Y367647D01*
X31685Y367555D01*
X31574Y367499D01*
X31556Y367481D01*
X31537D01*
X31352Y367407D01*
X31149Y367351D01*
X30686Y367240D01*
X30223Y367166D01*
X29778Y367129D01*
X29574Y367110D01*
X29371Y367092D01*
X29204D01*
X29038Y367073D01*
X28741D01*
X28204Y367092D01*
X27723Y367129D01*
X27297Y367203D01*
X26945Y367277D01*
X26797Y367295D01*
X26649Y367332D01*
X26538Y367369D01*
X26445Y367407D01*
X26371Y367425D01*
X26316Y367444D01*
X26297Y367462D01*
X26279D01*
X25945Y367610D01*
X25649Y367795D01*
X25390Y367962D01*
X25168Y368129D01*
X25001Y368277D01*
X24871Y368388D01*
X24797Y368462D01*
X24779Y368499D01*
X24575Y368758D01*
X24408Y369036D01*
X24279Y369295D01*
X24168Y369554D01*
X24094Y369777D01*
X24038Y369962D01*
X24020Y370017D01*
Y370073D01*
X24001Y370092D01*
Y370110D01*
X23964Y370314D01*
X23927Y370536D01*
X23890Y370777D01*
X23871Y371017D01*
X23834Y371573D01*
X23797Y372110D01*
Y372351D01*
Y372591D01*
X23779Y372813D01*
Y372999D01*
Y373147D01*
Y373276D01*
Y373350D01*
Y373369D01*
Y380127D01*
X26371D01*
Y373017D01*
Y372739D01*
Y372480D01*
X26390Y372239D01*
Y372017D01*
X26408Y371832D01*
Y371647D01*
X26427Y371480D01*
Y371332D01*
X26464Y371110D01*
X26482Y370943D01*
X26501Y370851D01*
Y370814D01*
X26556Y370573D01*
X26649Y370369D01*
X26760Y370184D01*
X26871Y370017D01*
X26982Y369888D01*
X27075Y369795D01*
X27149Y369740D01*
X27167Y369721D01*
X27390Y369573D01*
X27667Y369462D01*
X27927Y369388D01*
X28204Y369332D01*
X28445Y369295D01*
X28630Y369277D01*
X28815D01*
X29204Y369295D01*
X29537Y369351D01*
X29834Y369425D01*
X30093Y369518D01*
X30278Y369591D01*
X30426Y369666D01*
X30500Y369721D01*
X30537Y369740D01*
X30741Y369925D01*
X30908Y370147D01*
X31056Y370351D01*
X31149Y370554D01*
X31223Y370740D01*
X31278Y370888D01*
X31315Y370980D01*
Y371017D01*
X31334Y371128D01*
X31352Y371240D01*
Y371388D01*
X31371Y371554D01*
X31389Y371906D01*
Y372276D01*
X31408Y372610D01*
Y372758D01*
Y372906D01*
Y373017D01*
Y373091D01*
Y373147D01*
Y373165D01*
Y380127D01*
X34000D01*
Y373276D01*
D02*
G37*
G36*
X133805Y67370D02*
X133860D01*
X134008Y67333D01*
X134082Y67315D01*
X134147Y67278D01*
X134156D01*
X134175Y67259D01*
X134212Y67241D01*
X134249Y67204D01*
X134341Y67130D01*
X134424Y67019D01*
X134433Y67010D01*
X134443Y66991D01*
X134461Y66963D01*
X134489Y66917D01*
X134554Y66816D01*
X134609Y66686D01*
Y66677D01*
X134618Y66658D01*
X134637Y66612D01*
X134665Y66557D01*
X134683Y66492D01*
X134720Y66409D01*
X134757Y66316D01*
X134794Y66205D01*
X136412Y62230D01*
Y62220D01*
X136421Y62211D01*
X136440Y62156D01*
X136477Y62073D01*
X136514Y61980D01*
X136541Y61869D01*
X136578Y61758D01*
X136597Y61656D01*
X136606Y61564D01*
Y61555D01*
Y61527D01*
X136597Y61490D01*
X136588Y61434D01*
X136560Y61379D01*
X136532Y61314D01*
X136486Y61240D01*
X136421Y61176D01*
X136412Y61166D01*
X136393Y61148D01*
X136356Y61120D01*
X136301Y61093D01*
X136236Y61055D01*
X136162Y61028D01*
X136079Y61009D01*
X135987Y61000D01*
X135931D01*
X135904Y61009D01*
X135820Y61028D01*
X135737Y61055D01*
X135719Y61065D01*
X135682Y61093D01*
X135617Y61129D01*
X135561Y61194D01*
X135552Y61213D01*
X135515Y61268D01*
X135460Y61351D01*
X135404Y61472D01*
Y61481D01*
X135395Y61499D01*
X135377Y61536D01*
X135358Y61582D01*
X135312Y61693D01*
X135266Y61804D01*
X134970Y62581D01*
X132455D01*
X132159Y61786D01*
Y61777D01*
X132150Y61767D01*
X132131Y61712D01*
X132104Y61629D01*
X132057Y61536D01*
X132011Y61425D01*
X131965Y61324D01*
X131909Y61231D01*
X131863Y61157D01*
X131854Y61148D01*
X131845Y61129D01*
X131808Y61111D01*
X131771Y61083D01*
X131715Y61046D01*
X131641Y61028D01*
X131558Y61009D01*
X131466Y61000D01*
X131429D01*
X131382Y61009D01*
X131327Y61019D01*
X131262Y61037D01*
X131198Y61074D01*
X131124Y61111D01*
X131049Y61166D01*
X131040Y61176D01*
X131022Y61194D01*
X130994Y61231D01*
X130966Y61277D01*
X130929Y61342D01*
X130902Y61407D01*
X130883Y61481D01*
X130874Y61555D01*
Y61564D01*
Y61573D01*
X130883Y61638D01*
X130892Y61721D01*
X130911Y61814D01*
Y61823D01*
X130920Y61841D01*
X130929Y61869D01*
X130948Y61915D01*
X130966Y61971D01*
X130985Y62035D01*
X131022Y62109D01*
X131049Y62193D01*
X132631Y66205D01*
Y66214D01*
X132640Y66233D01*
X132658Y66270D01*
X132677Y66316D01*
X132695Y66381D01*
X132723Y66446D01*
X132788Y66612D01*
X132797Y66621D01*
X132806Y66658D01*
X132825Y66695D01*
X132852Y66760D01*
X132917Y66890D01*
X132991Y67019D01*
X133000Y67028D01*
X133010Y67047D01*
X133037Y67074D01*
X133065Y67111D01*
X133158Y67195D01*
X133278Y67278D01*
X133287Y67287D01*
X133306Y67296D01*
X133352Y67315D01*
X133398Y67333D01*
X133463Y67352D01*
X133537Y67361D01*
X133620Y67379D01*
X133758D01*
X133805Y67370D01*
D02*
G37*
G36*
X78362Y67269D02*
X78482Y67250D01*
X78584Y67222D01*
X78667Y67185D01*
X78732Y67148D01*
X78778Y67121D01*
X78806Y67102D01*
X78815Y67093D01*
X78880Y67019D01*
X78926Y66926D01*
X78954Y66834D01*
X78972Y66732D01*
X78991Y66649D01*
X79000Y66575D01*
Y66529D01*
Y66520D01*
Y66510D01*
Y61749D01*
X78991Y61620D01*
X78972Y61508D01*
X78945Y61407D01*
X78917Y61333D01*
X78889Y61268D01*
X78861Y61222D01*
X78843Y61194D01*
X78834Y61185D01*
X78760Y61120D01*
X78686Y61074D01*
X78612Y61046D01*
X78538Y61028D01*
X78473Y61009D01*
X78427Y61000D01*
X78380D01*
X78288Y61009D01*
X78196Y61028D01*
X78122Y61055D01*
X78057Y61093D01*
X78011Y61129D01*
X77965Y61157D01*
X77946Y61176D01*
X77937Y61185D01*
X77872Y61268D01*
X77826Y61361D01*
X77798Y61453D01*
X77770Y61546D01*
X77761Y61629D01*
X77752Y61693D01*
Y61740D01*
Y61758D01*
Y63506D01*
X76615D01*
X76402Y63515D01*
X76208Y63524D01*
X76023Y63552D01*
X75856Y63580D01*
X75699Y63616D01*
X75561Y63653D01*
X75431Y63700D01*
X75311Y63746D01*
X75209Y63792D01*
X75117Y63838D01*
X75043Y63875D01*
X74987Y63912D01*
X74941Y63940D01*
X74904Y63968D01*
X74886Y63977D01*
X74876Y63986D01*
X74775Y64088D01*
X74682Y64190D01*
X74608Y64301D01*
X74544Y64421D01*
X74479Y64532D01*
X74433Y64652D01*
X74368Y64883D01*
X74340Y64994D01*
X74322Y65096D01*
X74313Y65188D01*
X74303Y65262D01*
X74294Y65327D01*
Y65382D01*
Y65410D01*
Y65419D01*
X74303Y65586D01*
X74313Y65734D01*
X74340Y65863D01*
X74368Y65983D01*
X74396Y66076D01*
X74414Y66150D01*
X74433Y66196D01*
X74442Y66214D01*
X74497Y66344D01*
X74562Y66455D01*
X74636Y66557D01*
X74701Y66640D01*
X74766Y66714D01*
X74812Y66760D01*
X74849Y66797D01*
X74858Y66806D01*
X74969Y66890D01*
X75080Y66973D01*
X75191Y67028D01*
X75293Y67084D01*
X75376Y67121D01*
X75450Y67148D01*
X75496Y67158D01*
X75514Y67167D01*
X75672Y67204D01*
X75847Y67231D01*
X76023Y67250D01*
X76199Y67269D01*
X76356D01*
X76430Y67278D01*
X78214D01*
X78362Y67269D01*
D02*
G37*
G36*
X57069Y67370D02*
X57328Y67343D01*
X57559Y67305D01*
X57753Y67269D01*
X57846Y67250D01*
X57920Y67231D01*
X57984Y67213D01*
X58049Y67195D01*
X58086Y67176D01*
X58123Y67167D01*
X58142Y67158D01*
X58151D01*
X58363Y67065D01*
X58558Y66963D01*
X58733Y66862D01*
X58872Y66760D01*
X58992Y66668D01*
X59085Y66584D01*
X59140Y66538D01*
X59149Y66529D01*
X59159Y66520D01*
X59307Y66353D01*
X59436Y66187D01*
X59538Y66011D01*
X59630Y65854D01*
X59695Y65715D01*
X59723Y65651D01*
X59750Y65604D01*
X59769Y65558D01*
X59778Y65530D01*
X59787Y65512D01*
Y65503D01*
X59861Y65272D01*
X59908Y65040D01*
X59945Y64828D01*
X59972Y64624D01*
X59981Y64532D01*
X59991Y64449D01*
Y64375D01*
X60000Y64310D01*
Y64264D01*
Y64218D01*
Y64199D01*
Y64190D01*
X59991Y63922D01*
X59963Y63672D01*
X59935Y63441D01*
X59889Y63247D01*
X59871Y63163D01*
X59852Y63089D01*
X59834Y63015D01*
X59824Y62960D01*
X59806Y62914D01*
X59797Y62886D01*
X59787Y62868D01*
Y62858D01*
X59695Y62646D01*
X59593Y62452D01*
X59492Y62276D01*
X59381Y62137D01*
X59288Y62017D01*
X59214Y61925D01*
X59168Y61869D01*
X59149Y61860D01*
Y61851D01*
X58983Y61703D01*
X58817Y61573D01*
X58650Y61462D01*
X58493Y61379D01*
X58354Y61305D01*
X58299Y61277D01*
X58253Y61250D01*
X58206Y61240D01*
X58179Y61222D01*
X58160Y61213D01*
X58151D01*
X57929Y61139D01*
X57707Y61093D01*
X57485Y61055D01*
X57282Y61028D01*
X57199Y61019D01*
X57115Y61009D01*
X57041D01*
X56977Y61000D01*
X56856D01*
X56635Y61009D01*
X56422Y61019D01*
X56228Y61046D01*
X56061Y61074D01*
X55923Y61093D01*
X55867Y61111D01*
X55821Y61120D01*
X55784Y61129D01*
X55756D01*
X55738Y61139D01*
X55729D01*
X55534Y61194D01*
X55340Y61268D01*
X55155Y61342D01*
X54989Y61416D01*
X54850Y61481D01*
X54795Y61508D01*
X54739Y61536D01*
X54702Y61555D01*
X54675Y61573D01*
X54656Y61582D01*
X54647D01*
X54517Y61656D01*
X54416Y61730D01*
X54379Y61758D01*
X54351Y61777D01*
X54342Y61786D01*
X54332Y61795D01*
X54258Y61878D01*
X54203Y61961D01*
X54175Y62026D01*
X54166Y62035D01*
Y62045D01*
X54129Y62165D01*
X54120Y62294D01*
X54111Y62341D01*
Y62387D01*
Y62415D01*
Y62424D01*
Y63607D01*
X54120Y63718D01*
X54129Y63811D01*
X54148Y63894D01*
X54166Y63959D01*
X54194Y64014D01*
X54212Y64051D01*
X54222Y64069D01*
X54231Y64079D01*
X54277Y64134D01*
X54323Y64180D01*
X54369Y64218D01*
X54416Y64245D01*
X54462Y64273D01*
X54499Y64282D01*
X54517Y64291D01*
X54527D01*
X54665Y64319D01*
X54813Y64328D01*
X54869Y64338D01*
X56385D01*
X56477Y64328D01*
X56551Y64319D01*
X56625Y64291D01*
X56681Y64273D01*
X56727Y64245D01*
X56764Y64218D01*
X56782Y64208D01*
X56792Y64199D01*
X56838Y64144D01*
X56875Y64088D01*
X56903Y64033D01*
X56921Y63977D01*
X56930Y63931D01*
X56940Y63894D01*
Y63866D01*
Y63857D01*
X56930Y63774D01*
X56912Y63700D01*
X56884Y63635D01*
X56847Y63589D01*
X56820Y63552D01*
X56792Y63524D01*
X56773Y63515D01*
X56764Y63506D01*
X56690Y63469D01*
X56598Y63450D01*
X56422Y63413D01*
X56348D01*
X56283Y63404D01*
X55257D01*
Y62405D01*
X55405Y62331D01*
X55544Y62267D01*
X55673Y62211D01*
X55793Y62165D01*
X55895Y62128D01*
X55969Y62100D01*
X56015Y62091D01*
X56034Y62082D01*
X56182Y62045D01*
X56320Y62017D01*
X56459Y61999D01*
X56579Y61989D01*
X56690Y61980D01*
X56773Y61971D01*
X56847D01*
X57014Y61980D01*
X57162Y61999D01*
X57309Y62026D01*
X57439Y62063D01*
X57568Y62109D01*
X57679Y62156D01*
X57790Y62211D01*
X57883Y62267D01*
X57966Y62313D01*
X58040Y62368D01*
X58095Y62415D01*
X58151Y62461D01*
X58188Y62498D01*
X58216Y62526D01*
X58234Y62544D01*
X58243Y62553D01*
X58327Y62664D01*
X58401Y62794D01*
X58474Y62923D01*
X58530Y63062D01*
X58613Y63339D01*
X58669Y63607D01*
X58696Y63727D01*
X58706Y63848D01*
X58715Y63949D01*
X58724Y64042D01*
X58733Y64116D01*
Y64171D01*
Y64208D01*
Y64218D01*
X58724Y64402D01*
X58715Y64578D01*
X58696Y64735D01*
X58669Y64865D01*
X58650Y64976D01*
X58632Y65059D01*
X58622Y65114D01*
X58613Y65133D01*
X58558Y65281D01*
X58502Y65419D01*
X58438Y65540D01*
X58382Y65632D01*
X58327Y65715D01*
X58280Y65780D01*
X58253Y65817D01*
X58243Y65826D01*
X58151Y65928D01*
X58049Y66011D01*
X57948Y66094D01*
X57855Y66150D01*
X57781Y66196D01*
X57716Y66233D01*
X57679Y66252D01*
X57661Y66261D01*
X57531Y66316D01*
X57393Y66353D01*
X57263Y66381D01*
X57143Y66399D01*
X57041Y66409D01*
X56958Y66418D01*
X56884D01*
X56736Y66409D01*
X56598Y66399D01*
X56477Y66381D01*
X56376Y66353D01*
X56302Y66325D01*
X56237Y66307D01*
X56200Y66298D01*
X56191Y66288D01*
X56089Y66242D01*
X56006Y66187D01*
X55932Y66131D01*
X55867Y66085D01*
X55821Y66039D01*
X55784Y66002D01*
X55766Y65983D01*
X55756Y65974D01*
X55692Y65900D01*
X55627Y65808D01*
X55507Y65632D01*
X55451Y65549D01*
X55405Y65484D01*
X55377Y65438D01*
X55368Y65419D01*
X55303Y65345D01*
X55238Y65290D01*
X55183Y65253D01*
X55174Y65244D01*
X55165D01*
X55072Y65207D01*
X54980Y65188D01*
X54943Y65179D01*
X54896D01*
X54813Y65188D01*
X54730Y65207D01*
X54656Y65234D01*
X54601Y65262D01*
X54545Y65290D01*
X54508Y65318D01*
X54490Y65336D01*
X54480Y65345D01*
X54425Y65410D01*
X54379Y65484D01*
X54351Y65549D01*
X54323Y65614D01*
X54314Y65669D01*
X54305Y65715D01*
Y65743D01*
Y65752D01*
X54314Y65835D01*
X54332Y65919D01*
X54351Y66002D01*
X54379Y66085D01*
X54416Y66150D01*
X54434Y66205D01*
X54453Y66242D01*
X54462Y66252D01*
X54527Y66353D01*
X54591Y66455D01*
X54665Y66547D01*
X54739Y66631D01*
X54804Y66695D01*
X54859Y66741D01*
X54896Y66778D01*
X54906Y66788D01*
X55026Y66880D01*
X55155Y66954D01*
X55285Y67028D01*
X55405Y67093D01*
X55516Y67139D01*
X55599Y67176D01*
X55636Y67185D01*
X55664Y67195D01*
X55673Y67204D01*
X55682D01*
X55867Y67259D01*
X56061Y67305D01*
X56246Y67333D01*
X56413Y67361D01*
X56570Y67370D01*
X56635D01*
X56690Y67379D01*
X56792D01*
X57069Y67370D01*
D02*
G37*
G36*
X97205Y67167D02*
X97288Y67158D01*
X97362Y67130D01*
X97427Y67111D01*
X97473Y67084D01*
X97510Y67056D01*
X97528Y67047D01*
X97538Y67037D01*
X97584Y66982D01*
X97621Y66926D01*
X97639Y66871D01*
X97658Y66816D01*
X97667Y66769D01*
X97676Y66732D01*
Y66705D01*
Y66695D01*
X97667Y66621D01*
X97658Y66557D01*
X97630Y66501D01*
X97602Y66455D01*
X97584Y66418D01*
X97556Y66390D01*
X97547Y66372D01*
X97538Y66363D01*
X97473Y66325D01*
X97408Y66298D01*
X97260Y66261D01*
X97205Y66252D01*
X97149Y66242D01*
X94376D01*
X97547Y62433D01*
X97602Y62359D01*
X97658Y62294D01*
X97704Y62239D01*
X97713Y62230D01*
X97723Y62220D01*
X97787Y62137D01*
X97843Y62082D01*
X97871Y62035D01*
X97880Y62026D01*
X97917Y61971D01*
X97944Y61915D01*
X97963Y61878D01*
X97972Y61860D01*
X97991Y61795D01*
X98000Y61730D01*
Y61684D01*
Y61675D01*
Y61666D01*
X97991Y61555D01*
X97972Y61462D01*
X97935Y61379D01*
X97898Y61305D01*
X97861Y61250D01*
X97824Y61213D01*
X97806Y61185D01*
X97797Y61176D01*
X97713Y61120D01*
X97612Y61074D01*
X97510Y61046D01*
X97417Y61019D01*
X97325Y61009D01*
X97251Y61000D01*
X93174D01*
X93072Y61009D01*
X92980Y61019D01*
X92906Y61037D01*
X92841Y61065D01*
X92795Y61093D01*
X92767Y61111D01*
X92748Y61120D01*
X92739Y61129D01*
X92693Y61185D01*
X92656Y61240D01*
X92628Y61296D01*
X92610Y61351D01*
X92601Y61407D01*
X92591Y61444D01*
Y61472D01*
Y61481D01*
X92601Y61555D01*
X92610Y61620D01*
X92638Y61684D01*
X92665Y61730D01*
X92693Y61767D01*
X92711Y61795D01*
X92730Y61804D01*
X92739Y61814D01*
X92795Y61851D01*
X92869Y61888D01*
X93007Y61915D01*
X93072Y61925D01*
X93128Y61934D01*
X96438D01*
X93479Y65466D01*
X93359Y65604D01*
X93257Y65725D01*
X93174Y65826D01*
X93118Y65909D01*
X93072Y65965D01*
X93035Y66011D01*
X93026Y66039D01*
X93017Y66048D01*
X92980Y66122D01*
X92952Y66205D01*
X92915Y66363D01*
Y66436D01*
X92906Y66492D01*
Y66529D01*
Y66538D01*
X92915Y66649D01*
X92933Y66751D01*
X92970Y66834D01*
X93017Y66908D01*
X93063Y66973D01*
X93118Y67019D01*
X93183Y67065D01*
X93248Y67093D01*
X93377Y67139D01*
X93479Y67167D01*
X93525Y67176D01*
X97103D01*
X97205Y67167D01*
D02*
G37*
G36*
X117381D02*
X117501Y67148D01*
X117602Y67121D01*
X117686Y67084D01*
X117750Y67047D01*
X117787Y67019D01*
X117815Y67000D01*
X117824Y66991D01*
X117880Y66917D01*
X117926Y66825D01*
X117954Y66732D01*
X117982Y66631D01*
X117991Y66547D01*
X118000Y66473D01*
Y66427D01*
Y66418D01*
Y66409D01*
Y61758D01*
X117991Y61620D01*
X117972Y61499D01*
X117944Y61398D01*
X117917Y61314D01*
X117889Y61259D01*
X117861Y61213D01*
X117843Y61185D01*
X117834Y61176D01*
X117760Y61120D01*
X117667Y61074D01*
X117565Y61046D01*
X117473Y61019D01*
X117381Y61009D01*
X117307Y61000D01*
X115180D01*
X115014Y61009D01*
X114875Y61019D01*
X114746Y61028D01*
X114644D01*
X114570Y61037D01*
X114524Y61046D01*
X114505D01*
X114367Y61065D01*
X114246Y61093D01*
X114135Y61120D01*
X114043Y61148D01*
X113969Y61176D01*
X113904Y61194D01*
X113867Y61203D01*
X113858Y61213D01*
X113701Y61296D01*
X113553Y61388D01*
X113433Y61490D01*
X113331Y61592D01*
X113248Y61684D01*
X113183Y61758D01*
X113146Y61804D01*
X113137Y61823D01*
X113044Y61980D01*
X112980Y62147D01*
X112933Y62304D01*
X112906Y62442D01*
X112878Y62572D01*
X112869Y62674D01*
Y62710D01*
Y62738D01*
Y62747D01*
Y62757D01*
X112878Y62960D01*
X112924Y63145D01*
X112980Y63311D01*
X113063Y63469D01*
X113155Y63598D01*
X113257Y63727D01*
X113368Y63838D01*
X113479Y63931D01*
X113590Y64014D01*
X113701Y64079D01*
X113802Y64144D01*
X113895Y64190D01*
X113978Y64218D01*
X114034Y64245D01*
X114071Y64264D01*
X114089D01*
X113923Y64347D01*
X113784Y64449D01*
X113664Y64550D01*
X113553Y64661D01*
X113460Y64772D01*
X113386Y64883D01*
X113331Y64994D01*
X113275Y65105D01*
X113238Y65207D01*
X113211Y65308D01*
X113192Y65392D01*
X113183Y65475D01*
X113174Y65530D01*
X113165Y65586D01*
Y65614D01*
Y65623D01*
X113183Y65817D01*
X113192Y65900D01*
X113211Y65974D01*
X113229Y66039D01*
X113238Y66094D01*
X113257Y66122D01*
Y66131D01*
X113331Y66307D01*
X113368Y66381D01*
X113414Y66446D01*
X113451Y66501D01*
X113479Y66538D01*
X113497Y66566D01*
X113507Y66575D01*
X113636Y66714D01*
X113701Y66769D01*
X113765Y66816D01*
X113812Y66852D01*
X113858Y66890D01*
X113886Y66899D01*
X113895Y66908D01*
X113997Y66963D01*
X114098Y67010D01*
X114191Y67047D01*
X114283Y67074D01*
X114357Y67093D01*
X114422Y67111D01*
X114459Y67121D01*
X114477D01*
X114607Y67139D01*
X114736Y67158D01*
X114866Y67167D01*
X114986D01*
X115088Y67176D01*
X117242D01*
X117381Y67167D01*
D02*
G37*
G36*
X172648Y150066D02*
X172826Y150033D01*
X172992Y149977D01*
X173137Y149922D01*
X173259Y149866D01*
X173358Y149811D01*
X173425Y149777D01*
X173436Y149766D01*
X173447D01*
X173625Y149633D01*
X173780Y149500D01*
X173913Y149367D01*
X174025Y149233D01*
X174113Y149122D01*
X174180Y149023D01*
X174224Y148967D01*
X174235Y148945D01*
X174369Y148667D01*
X174468Y148357D01*
X174546Y148057D01*
X174591Y147768D01*
X174613Y147646D01*
X174624Y147524D01*
X174635Y147413D01*
Y147313D01*
X174646Y147247D01*
Y147135D01*
X174635Y146803D01*
X174602Y146503D01*
X174546Y146236D01*
X174491Y146003D01*
X174468Y145903D01*
X174446Y145815D01*
X174413Y145737D01*
X174391Y145681D01*
X174369Y145626D01*
X174357Y145593D01*
X174346Y145570D01*
Y145559D01*
X174224Y145326D01*
X174091Y145115D01*
X173947Y144949D01*
X173814Y144805D01*
X173703Y144694D01*
X173603Y144616D01*
X173536Y144560D01*
X173525Y144549D01*
X173514D01*
X173303Y144427D01*
X173092Y144338D01*
X172892Y144283D01*
X172704Y144239D01*
X172548Y144216D01*
X172415Y144194D01*
X172371D01*
X172337D01*
X172315D01*
X172304D01*
X172104Y144205D01*
X171915Y144227D01*
X171760Y144261D01*
X171616Y144294D01*
X171505Y144327D01*
X171427Y144361D01*
X171383Y144383D01*
X171360Y144394D01*
X171216Y144472D01*
X171094Y144560D01*
X170983Y144660D01*
X170894Y144749D01*
X170817Y144827D01*
X170761Y144893D01*
X170728Y144938D01*
X170717Y144949D01*
X170628Y145093D01*
X170539Y145238D01*
X170473Y145382D01*
X170406Y145515D01*
X170350Y145637D01*
X170317Y145726D01*
X170295Y145792D01*
X170284Y145803D01*
Y145815D01*
X170162Y146203D01*
X170106Y146392D01*
X170051Y146569D01*
X170018Y146725D01*
X169984Y146836D01*
X169973Y146880D01*
Y146913D01*
X169962Y146936D01*
Y146947D01*
X169918Y147124D01*
X169884Y147269D01*
X169851Y147391D01*
X169818Y147491D01*
X169795Y147568D01*
X169784Y147624D01*
X169773Y147657D01*
Y147668D01*
X169718Y147824D01*
X169662Y147968D01*
X169629Y148024D01*
X169618Y148068D01*
X169596Y148090D01*
Y148101D01*
X169496Y148245D01*
X169407Y148345D01*
X169340Y148412D01*
X169329Y148423D01*
X169318Y148434D01*
X169185Y148501D01*
X169063Y148534D01*
X169007D01*
X168963Y148545D01*
X168941D01*
X168930D01*
X168797Y148534D01*
X168674Y148490D01*
X168575Y148434D01*
X168486Y148368D01*
X168408Y148301D01*
X168353Y148245D01*
X168319Y148201D01*
X168308Y148190D01*
X168219Y148046D01*
X168164Y147890D01*
X168119Y147735D01*
X168086Y147591D01*
X168064Y147457D01*
X168053Y147358D01*
Y147258D01*
X168064Y147036D01*
X168086Y146858D01*
X168130Y146703D01*
X168175Y146569D01*
X168219Y146481D01*
X168264Y146414D01*
X168286Y146370D01*
X168297Y146358D01*
X168386Y146259D01*
X168497Y146159D01*
X168608Y146070D01*
X168708Y146003D01*
X168797Y145937D01*
X168874Y145892D01*
X168919Y145870D01*
X168941Y145859D01*
X169041Y145803D01*
X169130Y145748D01*
X169207Y145704D01*
X169274Y145659D01*
X169318Y145626D01*
X169352Y145593D01*
X169363Y145582D01*
X169374Y145570D01*
X169418Y145515D01*
X169440Y145448D01*
X169485Y145326D01*
Y145271D01*
X169496Y145226D01*
Y145182D01*
X169485Y145082D01*
X169463Y144993D01*
X169429Y144916D01*
X169385Y144849D01*
X169352Y144794D01*
X169318Y144749D01*
X169296Y144727D01*
X169285Y144716D01*
X169207Y144649D01*
X169118Y144605D01*
X169041Y144572D01*
X168963Y144549D01*
X168896Y144538D01*
X168841Y144527D01*
X168808D01*
X168797D01*
X168685Y144538D01*
X168586Y144549D01*
X168486Y144572D01*
X168397Y144605D01*
X168319Y144638D01*
X168264Y144660D01*
X168219Y144671D01*
X168208Y144683D01*
X168097Y144749D01*
X167986Y144816D01*
X167886Y144893D01*
X167798Y144971D01*
X167720Y145049D01*
X167664Y145104D01*
X167631Y145149D01*
X167620Y145160D01*
X167520Y145282D01*
X167431Y145426D01*
X167353Y145559D01*
X167287Y145693D01*
X167231Y145803D01*
X167198Y145892D01*
X167176Y145959D01*
X167165Y145970D01*
Y145981D01*
X167109Y146170D01*
X167065Y146381D01*
X167032Y146569D01*
X167009Y146758D01*
X166998Y146913D01*
X166987Y147047D01*
Y147158D01*
X166998Y147469D01*
X167032Y147746D01*
X167065Y148001D01*
X167109Y148223D01*
X167143Y148312D01*
X167165Y148401D01*
X167187Y148468D01*
X167198Y148534D01*
X167220Y148579D01*
X167231Y148612D01*
X167243Y148634D01*
Y148645D01*
X167342Y148867D01*
X167465Y149056D01*
X167587Y149222D01*
X167709Y149355D01*
X167809Y149466D01*
X167897Y149533D01*
X167953Y149589D01*
X167964Y149600D01*
X167975D01*
X168164Y149711D01*
X168341Y149788D01*
X168530Y149855D01*
X168697Y149888D01*
X168841Y149910D01*
X168963Y149922D01*
X169007Y149933D01*
X169041D01*
X169052D01*
X169063D01*
X169296Y149922D01*
X169507Y149888D01*
X169685Y149833D01*
X169840Y149777D01*
X169973Y149722D01*
X170062Y149666D01*
X170117Y149633D01*
X170140Y149622D01*
X170295Y149500D01*
X170428Y149355D01*
X170550Y149222D01*
X170650Y149078D01*
X170728Y148967D01*
X170783Y148867D01*
X170817Y148800D01*
X170828Y148789D01*
Y148778D01*
X170917Y148567D01*
X170994Y148334D01*
X171072Y148112D01*
X171138Y147901D01*
X171183Y147713D01*
X171205Y147635D01*
X171227Y147568D01*
X171238Y147513D01*
X171250Y147469D01*
X171261Y147446D01*
Y147435D01*
X171305Y147224D01*
X171360Y147036D01*
X171405Y146869D01*
X171438Y146736D01*
X171472Y146625D01*
X171494Y146547D01*
X171505Y146492D01*
X171516Y146481D01*
X171571Y146358D01*
X171627Y146236D01*
X171682Y146137D01*
X171738Y146059D01*
X171793Y145992D01*
X171838Y145948D01*
X171860Y145914D01*
X171871Y145903D01*
X171960Y145826D01*
X172060Y145770D01*
X172160Y145726D01*
X172248Y145704D01*
X172337Y145681D01*
X172404Y145670D01*
X172448D01*
X172470D01*
X172637Y145693D01*
X172781Y145737D01*
X172915Y145803D01*
X173025Y145881D01*
X173114Y145959D01*
X173181Y146025D01*
X173225Y146070D01*
X173236Y146092D01*
X173336Y146259D01*
X173414Y146436D01*
X173470Y146625D01*
X173503Y146791D01*
X173525Y146947D01*
X173547Y147069D01*
Y147180D01*
X173536Y147346D01*
X173525Y147502D01*
X173503Y147635D01*
X173470Y147746D01*
X173447Y147835D01*
X173425Y147901D01*
X173414Y147946D01*
X173403Y147957D01*
X173336Y148068D01*
X173281Y148157D01*
X173214Y148234D01*
X173148Y148301D01*
X173092Y148357D01*
X173048Y148390D01*
X173025Y148412D01*
X173014Y148423D01*
X172815Y148545D01*
X172715Y148590D01*
X172626Y148634D01*
X172537Y148667D01*
X172470Y148701D01*
X172426Y148712D01*
X172415Y148723D01*
X172304Y148767D01*
X172215Y148823D01*
X172138Y148867D01*
X172082Y148912D01*
X172038Y148956D01*
X171993Y148978D01*
X171982Y149000D01*
X171971Y149011D01*
X171915Y149078D01*
X171882Y149134D01*
X171838Y149267D01*
X171827Y149322D01*
X171816Y149367D01*
Y149411D01*
X171827Y149511D01*
X171849Y149611D01*
X171882Y149689D01*
X171915Y149755D01*
X171949Y149811D01*
X171982Y149855D01*
X172004Y149877D01*
X172015Y149888D01*
X172093Y149955D01*
X172171Y149999D01*
X172237Y150033D01*
X172315Y150055D01*
X172371Y150066D01*
X172426Y150077D01*
X172459D01*
X172470D01*
X172648Y150066D01*
D02*
G37*
G36*
X167875Y143528D02*
X168086Y143495D01*
X168186Y143473D01*
X168264Y143462D01*
X168319Y143439D01*
X168341D01*
X173325Y142207D01*
X173492Y142163D01*
X173647Y142129D01*
X173714Y142107D01*
X173769Y142096D01*
X173803Y142085D01*
X173814D01*
X173991Y142030D01*
X174069Y141996D01*
X174135Y141974D01*
X174180Y141941D01*
X174224Y141930D01*
X174247Y141908D01*
X174258D01*
X174380Y141819D01*
X174468Y141719D01*
X174524Y141652D01*
X174546Y141630D01*
Y141619D01*
X174602Y141463D01*
X174635Y141319D01*
Y141253D01*
X174646Y141197D01*
Y141153D01*
X174635Y141031D01*
X174624Y140920D01*
X174591Y140831D01*
X174557Y140753D01*
X174535Y140687D01*
X174502Y140642D01*
X174491Y140620D01*
X174480Y140609D01*
X174413Y140531D01*
X174346Y140476D01*
X174280Y140420D01*
X174213Y140387D01*
X174158Y140353D01*
X174113Y140331D01*
X174091Y140320D01*
X174080D01*
X173980Y140287D01*
X173869Y140243D01*
X173636Y140165D01*
X173525Y140143D01*
X173436Y140109D01*
X173381Y140098D01*
X173358Y140087D01*
X168908Y138877D01*
X173358Y137678D01*
X173536Y137623D01*
X173692Y137579D01*
X173825Y137545D01*
X173925Y137512D01*
X174002Y137490D01*
X174058Y137468D01*
X174091Y137457D01*
X174102D01*
X174247Y137379D01*
X174369Y137279D01*
X174413Y137234D01*
X174446Y137201D01*
X174468Y137179D01*
X174480Y137168D01*
X174535Y137079D01*
X174580Y136990D01*
X174602Y136902D01*
X174624Y136813D01*
X174635Y136735D01*
X174646Y136668D01*
Y136613D01*
X174635Y136480D01*
X174624Y136369D01*
X174591Y136269D01*
X174557Y136191D01*
X174535Y136124D01*
X174502Y136080D01*
X174491Y136058D01*
X174480Y136047D01*
X174413Y135980D01*
X174335Y135914D01*
X174202Y135836D01*
X174147Y135803D01*
X174102Y135780D01*
X174080Y135769D01*
X174069D01*
X173969Y135736D01*
X173847Y135703D01*
X173725Y135658D01*
X173603Y135625D01*
X173492Y135603D01*
X173403Y135581D01*
X173347Y135558D01*
X173325D01*
X168341Y134326D01*
X168186Y134282D01*
X168042Y134260D01*
X167931Y134238D01*
X167842Y134215D01*
X167764D01*
X167720Y134204D01*
X167687D01*
X167675D01*
X167575Y134215D01*
X167476Y134238D01*
X167398Y134271D01*
X167320Y134304D01*
X167265Y134349D01*
X167220Y134382D01*
X167198Y134404D01*
X167187Y134415D01*
X167120Y134493D01*
X167076Y134582D01*
X167032Y134659D01*
X167009Y134737D01*
X166998Y134804D01*
X166987Y134859D01*
Y134915D01*
X166998Y135014D01*
X167009Y135103D01*
X167032Y135181D01*
X167065Y135248D01*
X167098Y135292D01*
X167120Y135325D01*
X167132Y135347D01*
X167143Y135359D01*
X167265Y135458D01*
X167376Y135525D01*
X167420Y135547D01*
X167453Y135569D01*
X167476Y135581D01*
X167487D01*
X167564Y135603D01*
X167653Y135625D01*
X167820Y135669D01*
X167897Y135681D01*
X167964Y135703D01*
X168008Y135714D01*
X168020D01*
X172337Y136679D01*
X168297Y137778D01*
X168119Y137823D01*
X167975Y137867D01*
X167853Y137912D01*
X167753Y137934D01*
X167675Y137967D01*
X167631Y137989D01*
X167598Y138000D01*
X167587D01*
X167509Y138034D01*
X167431Y138078D01*
X167298Y138178D01*
X167243Y138222D01*
X167209Y138256D01*
X167187Y138278D01*
X167176Y138289D01*
X167109Y138378D01*
X167065Y138467D01*
X167032Y138567D01*
X167009Y138666D01*
X166998Y138744D01*
X166987Y138811D01*
Y138877D01*
X166998Y139010D01*
X167009Y139133D01*
X167043Y139233D01*
X167076Y139321D01*
X167109Y139388D01*
X167132Y139432D01*
X167154Y139466D01*
X167165Y139477D01*
X167309Y139610D01*
X167442Y139710D01*
X167498Y139743D01*
X167542Y139765D01*
X167575Y139788D01*
X167587D01*
X167687Y139821D01*
X167798Y139854D01*
X167920Y139887D01*
X168031Y139921D01*
X168142Y139954D01*
X168219Y139976D01*
X168275Y139987D01*
X168297Y139998D01*
X172337Y141086D01*
X168020Y142052D01*
X167842Y142096D01*
X167687Y142141D01*
X167553Y142185D01*
X167453Y142218D01*
X167365Y142252D01*
X167298Y142285D01*
X167265Y142296D01*
X167254Y142307D01*
X167165Y142374D01*
X167098Y142451D01*
X167054Y142540D01*
X167020Y142629D01*
X166998Y142718D01*
X166987Y142784D01*
Y142851D01*
X166998Y142962D01*
X167020Y143051D01*
X167054Y143140D01*
X167087Y143217D01*
X167120Y143273D01*
X167154Y143317D01*
X167176Y143339D01*
X167187Y143350D01*
X167265Y143417D01*
X167342Y143462D01*
X167431Y143506D01*
X167509Y143528D01*
X167575Y143539D01*
X167631Y143550D01*
X167664D01*
X167675D01*
X167764D01*
X167875Y143528D01*
D02*
G37*
G36*
X173714Y133183D02*
X173814Y133172D01*
X173902Y133161D01*
X173969D01*
X174013Y133150D01*
X174047Y133139D01*
X174058D01*
X174135Y133105D01*
X174202Y133072D01*
X174313Y132983D01*
X174380Y132906D01*
X174391Y132883D01*
X174402Y132872D01*
X174446Y132783D01*
X174468Y132684D01*
X174513Y132484D01*
Y132395D01*
X174524Y132317D01*
Y130097D01*
X174513Y129931D01*
X174502Y129775D01*
X174491Y129642D01*
Y129531D01*
X174480Y129442D01*
X174468Y129398D01*
Y129376D01*
X174435Y129220D01*
X174402Y129087D01*
X174369Y128954D01*
X174335Y128843D01*
X174302Y128743D01*
X174269Y128677D01*
X174258Y128621D01*
X174247Y128610D01*
X174113Y128355D01*
X174036Y128244D01*
X173969Y128144D01*
X173902Y128066D01*
X173858Y128011D01*
X173825Y127966D01*
X173814Y127955D01*
X173680Y127822D01*
X173536Y127700D01*
X173403Y127589D01*
X173281Y127500D01*
X173170Y127433D01*
X173092Y127378D01*
X173037Y127345D01*
X173014Y127333D01*
X172848Y127245D01*
X172670Y127178D01*
X172504Y127112D01*
X172348Y127067D01*
X172226Y127023D01*
X172115Y127001D01*
X172049Y126978D01*
X172038D01*
X172027D01*
X171816Y126934D01*
X171605Y126912D01*
X171394Y126889D01*
X171205Y126867D01*
X171050D01*
X170917Y126856D01*
X170872D01*
X170839D01*
X170817D01*
X170806D01*
X170439Y126867D01*
X170095Y126901D01*
X169773Y126967D01*
X169474Y127034D01*
X169207Y127123D01*
X168952Y127222D01*
X168730Y127333D01*
X168530Y127433D01*
X168353Y127544D01*
X168208Y127655D01*
X168075Y127755D01*
X167975Y127844D01*
X167886Y127911D01*
X167831Y127966D01*
X167798Y128011D01*
X167786Y128022D01*
X167653Y128188D01*
X167542Y128366D01*
X167442Y128532D01*
X167376Y128677D01*
X167320Y128810D01*
X167287Y128921D01*
X167265Y128987D01*
X167254Y128998D01*
Y129010D01*
X167209Y129220D01*
X167165Y129442D01*
X167143Y129664D01*
X167132Y129864D01*
X167120Y130053D01*
X167109Y130119D01*
Y132284D01*
X167120Y132451D01*
X167143Y132595D01*
X167176Y132717D01*
X167220Y132817D01*
X167265Y132883D01*
X167298Y132939D01*
X167320Y132972D01*
X167331Y132983D01*
X167420Y133050D01*
X167531Y133105D01*
X167653Y133139D01*
X167764Y133172D01*
X167864Y133183D01*
X167953Y133194D01*
X168008D01*
X168020D01*
X168031D01*
X173470D01*
X173603D01*
X173714Y133183D01*
D02*
G37*
%LPC*%
G36*
X179767Y60326D02*
X179569D01*
Y60317D01*
X179457D01*
Y60309D01*
X179423D01*
Y60300D01*
X179371D01*
Y60291D01*
X179328D01*
Y60283D01*
X179302D01*
Y60274D01*
X179268D01*
Y60266D01*
X179251D01*
Y60257D01*
X179216D01*
Y60248D01*
X179190D01*
Y60240D01*
X179173D01*
Y60231D01*
X179147D01*
Y60223D01*
X179130D01*
Y60214D01*
X179104D01*
Y60205D01*
X179087D01*
Y60197D01*
X179070D01*
Y60188D01*
X179053D01*
Y60180D01*
X179044D01*
Y60171D01*
X179018D01*
Y60162D01*
X179010D01*
Y60154D01*
X178992D01*
Y60145D01*
X178975D01*
Y60136D01*
X178967D01*
Y60128D01*
X178949D01*
Y60119D01*
X178932D01*
Y60111D01*
X178923D01*
Y60102D01*
X178906D01*
Y60093D01*
X178898D01*
Y60085D01*
X178880D01*
Y60076D01*
X178872D01*
Y60068D01*
X178863D01*
Y60059D01*
X178855D01*
Y60050D01*
X178837D01*
Y60042D01*
X178829D01*
Y60033D01*
X178820D01*
Y60024D01*
X178803D01*
Y60007D01*
X178786D01*
Y59999D01*
X178777D01*
Y59990D01*
X178768D01*
Y59981D01*
X178760D01*
Y59973D01*
X178751D01*
Y59964D01*
X178743D01*
Y59956D01*
X178734D01*
Y59947D01*
X178725D01*
Y59938D01*
X178717D01*
Y59930D01*
X178708D01*
Y59921D01*
X178699D01*
Y59913D01*
X178691D01*
Y59904D01*
X178682D01*
Y59895D01*
X178674D01*
Y59887D01*
X178665D01*
Y59878D01*
X178657D01*
Y59869D01*
X178648D01*
Y59861D01*
X178639D01*
Y59844D01*
X178631D01*
Y59835D01*
X178622D01*
Y59826D01*
X178613D01*
Y59818D01*
X178605D01*
Y59809D01*
X178596D01*
Y59792D01*
X178588D01*
Y59783D01*
X178579D01*
Y59775D01*
X178570D01*
Y59757D01*
X178562D01*
Y59749D01*
X178553D01*
Y59732D01*
X178545D01*
Y59723D01*
X178536D01*
Y59706D01*
X178527D01*
Y59689D01*
X178519D01*
Y59680D01*
X178510D01*
Y59663D01*
X178501D01*
Y59646D01*
X178493D01*
Y59628D01*
X178484D01*
Y59620D01*
X178476D01*
Y59602D01*
X178467D01*
Y59585D01*
X178458D01*
Y59568D01*
X178450D01*
Y59542D01*
X178441D01*
Y59525D01*
X178433D01*
Y59508D01*
X178424D01*
Y59482D01*
X178415D01*
Y59465D01*
X178407D01*
Y59439D01*
X178398D01*
Y59422D01*
X178389D01*
Y59378D01*
X178381D01*
Y59353D01*
X178372D01*
Y59327D01*
X178364D01*
Y59284D01*
X178355D01*
Y59258D01*
X178346D01*
Y59180D01*
X178338D01*
Y59129D01*
X178329D01*
Y55382D01*
X178321D01*
Y55374D01*
X174583D01*
Y55365D01*
X174522D01*
Y55356D01*
X174454D01*
Y55348D01*
X174419D01*
Y55339D01*
X174376D01*
Y55331D01*
X174342D01*
Y55322D01*
X174316D01*
Y55314D01*
X174281D01*
Y55305D01*
X174264D01*
Y55296D01*
X174238D01*
Y55288D01*
X174221D01*
Y55279D01*
X174195D01*
Y55270D01*
X174169D01*
Y55262D01*
X174161D01*
Y55253D01*
X174135D01*
Y55245D01*
X174126D01*
Y55236D01*
X174100D01*
Y55227D01*
X174083D01*
Y55219D01*
X174075D01*
Y55210D01*
X174049D01*
Y55202D01*
X174040D01*
Y55193D01*
X174023D01*
Y55184D01*
X174006D01*
Y55176D01*
X173997D01*
Y55167D01*
X173980D01*
Y55158D01*
X173971D01*
Y55150D01*
X173954D01*
Y55141D01*
X173945D01*
Y55133D01*
X173928D01*
Y55124D01*
X173920D01*
Y55115D01*
X173911D01*
Y55107D01*
X173894D01*
Y55098D01*
X173885D01*
Y55090D01*
X173876D01*
Y55081D01*
X173868D01*
Y55072D01*
X173859D01*
Y55064D01*
X173842D01*
Y55055D01*
X173834D01*
Y55047D01*
X173825D01*
Y55038D01*
X173816D01*
Y55029D01*
X173808D01*
Y55021D01*
X173799D01*
Y55012D01*
X173790D01*
Y55003D01*
X173782D01*
Y54995D01*
X173773D01*
Y54986D01*
X173765D01*
Y54978D01*
X173756D01*
Y54969D01*
X173747D01*
Y54960D01*
X173739D01*
Y54952D01*
X173730D01*
Y54943D01*
X173722D01*
Y54935D01*
X173713D01*
Y54926D01*
X173704D01*
Y54917D01*
X173696D01*
Y54909D01*
X173687D01*
Y54900D01*
X173678D01*
Y54883D01*
X173670D01*
Y54874D01*
X173661D01*
Y54866D01*
X173653D01*
Y54848D01*
X173644D01*
Y54840D01*
X173635D01*
Y54831D01*
X173627D01*
Y54814D01*
X173618D01*
Y54805D01*
X173610D01*
Y54788D01*
X173601D01*
Y54780D01*
X173592D01*
Y54762D01*
X173584D01*
Y54754D01*
X173575D01*
Y54736D01*
X173566D01*
Y54728D01*
X173558D01*
Y54711D01*
X173549D01*
Y54693D01*
X173541D01*
Y54685D01*
X173532D01*
Y54659D01*
X173523D01*
Y54650D01*
X173515D01*
Y54633D01*
X173506D01*
Y54607D01*
X173498D01*
Y54590D01*
X173489D01*
Y54573D01*
X173480D01*
Y54556D01*
X173472D01*
Y54530D01*
X173463D01*
Y54504D01*
X173454D01*
Y54487D01*
X173446D01*
Y54452D01*
X173437D01*
Y54435D01*
X173429D01*
Y54392D01*
X173420D01*
Y54375D01*
X173412D01*
Y54332D01*
X173403D01*
Y54289D01*
X173394D01*
Y54246D01*
X173386D01*
Y54134D01*
X173377D01*
Y53935D01*
X173386D01*
Y53823D01*
X173394D01*
Y53780D01*
X173403D01*
Y53729D01*
X173412D01*
Y53694D01*
X173420D01*
Y53668D01*
X173429D01*
Y53634D01*
X173437D01*
Y53608D01*
X173446D01*
Y53582D01*
X173454D01*
Y53556D01*
X173463D01*
Y53539D01*
X173472D01*
Y53513D01*
X173480D01*
Y53496D01*
X173489D01*
Y53470D01*
X173498D01*
Y53453D01*
X173506D01*
Y53436D01*
X173515D01*
Y53419D01*
X173523D01*
Y53401D01*
X173532D01*
Y53384D01*
X173541D01*
Y53367D01*
X173549D01*
Y53350D01*
X173558D01*
Y53341D01*
X173566D01*
Y53324D01*
X173575D01*
Y53307D01*
X173584D01*
Y53298D01*
X173592D01*
Y53281D01*
X173601D01*
Y53272D01*
X173610D01*
Y53255D01*
X173618D01*
Y53246D01*
X173627D01*
Y53238D01*
X173635D01*
Y53221D01*
X173644D01*
Y53212D01*
X173653D01*
Y53203D01*
X173661D01*
Y53195D01*
X173670D01*
Y53186D01*
X173678D01*
Y53169D01*
X173687D01*
Y53160D01*
X173696D01*
Y53152D01*
X173704D01*
Y53143D01*
X173713D01*
Y53134D01*
X173722D01*
Y53126D01*
X173730D01*
Y53117D01*
X173739D01*
Y53100D01*
X173756D01*
Y53083D01*
X173765D01*
Y53074D01*
X173773D01*
Y53066D01*
X173782D01*
Y53057D01*
X173799D01*
Y53040D01*
X173816D01*
Y53031D01*
X173825D01*
Y53023D01*
X173834D01*
Y53014D01*
X173842D01*
Y53005D01*
X173851D01*
Y52997D01*
X173859D01*
Y52988D01*
X173868D01*
Y52979D01*
X173885D01*
Y52971D01*
X173894D01*
Y52962D01*
X173902D01*
Y52954D01*
X173920D01*
Y52945D01*
X173928D01*
Y52936D01*
X173945D01*
Y52928D01*
X173954D01*
Y52919D01*
X173971D01*
Y52911D01*
X173980D01*
Y52902D01*
X173988D01*
Y52893D01*
X174006D01*
Y52885D01*
X174014D01*
Y52876D01*
X174040D01*
Y52867D01*
X174049D01*
Y52859D01*
X174066D01*
Y52850D01*
X174083D01*
Y52842D01*
X174092D01*
Y52833D01*
X174118D01*
Y52825D01*
X174126D01*
Y52816D01*
X174152D01*
Y52807D01*
X174169D01*
Y52799D01*
X174187D01*
Y52790D01*
X174212D01*
Y52781D01*
X174230D01*
Y52773D01*
X174264D01*
Y52764D01*
X174281D01*
Y52756D01*
X174307D01*
Y52747D01*
X174342D01*
Y52738D01*
X174368D01*
Y52730D01*
X174410D01*
Y52721D01*
X174436D01*
Y52712D01*
X174505D01*
Y52704D01*
X174566D01*
Y52695D01*
X178321D01*
Y52687D01*
X178329D01*
Y48949D01*
X178338D01*
Y48889D01*
X178346D01*
Y48811D01*
X178355D01*
Y48785D01*
X178364D01*
Y48742D01*
X178372D01*
Y48708D01*
X178381D01*
Y48682D01*
X178389D01*
Y48647D01*
X178398D01*
Y48630D01*
X178407D01*
Y48596D01*
X178415D01*
Y48587D01*
X178424D01*
Y48561D01*
X178433D01*
Y48535D01*
X178441D01*
Y48527D01*
X178450D01*
Y48501D01*
X178458D01*
Y48484D01*
X178467D01*
Y48467D01*
X178476D01*
Y48449D01*
X178484D01*
Y48432D01*
X178493D01*
Y48415D01*
X178501D01*
Y48406D01*
X178510D01*
Y48389D01*
X178519D01*
Y48372D01*
X178527D01*
Y48363D01*
X178536D01*
Y48346D01*
X178545D01*
Y48337D01*
X178553D01*
Y48320D01*
X178562D01*
Y48312D01*
X178570D01*
Y48294D01*
X178579D01*
Y48286D01*
X178588D01*
Y48277D01*
X178596D01*
Y48260D01*
X178605D01*
Y48251D01*
X178613D01*
Y48243D01*
X178622D01*
Y48225D01*
X178631D01*
Y48217D01*
X178639D01*
Y48208D01*
X178648D01*
Y48200D01*
X178657D01*
Y48191D01*
X178665D01*
Y48182D01*
X178674D01*
Y48174D01*
X178682D01*
Y48165D01*
X178691D01*
Y48156D01*
X178699D01*
Y48139D01*
X178708D01*
Y48131D01*
X178717D01*
Y48122D01*
X178734D01*
Y48105D01*
X178751D01*
Y48096D01*
X178760D01*
Y48088D01*
X178768D01*
Y48079D01*
X178777D01*
Y48070D01*
X178786D01*
Y48062D01*
X178794D01*
Y48053D01*
X178803D01*
Y48045D01*
X178811D01*
Y48036D01*
X178829D01*
Y48027D01*
X178837D01*
Y48019D01*
X178846D01*
Y48010D01*
X178855D01*
Y48001D01*
X178872D01*
Y47993D01*
X178880D01*
Y47984D01*
X178898D01*
Y47976D01*
X178906D01*
Y47967D01*
X178915D01*
Y47958D01*
X178932D01*
Y47950D01*
X178949D01*
Y47941D01*
X178958D01*
Y47933D01*
X178975D01*
Y47924D01*
X178984D01*
Y47915D01*
X179010D01*
Y47907D01*
X179018D01*
Y47898D01*
X179035D01*
Y47889D01*
X179053D01*
Y47881D01*
X179070D01*
Y47872D01*
X179087D01*
Y47864D01*
X179104D01*
Y47855D01*
X179130D01*
Y47846D01*
X179147D01*
Y47838D01*
X179165D01*
Y47829D01*
X179190D01*
Y47821D01*
X179208D01*
Y47812D01*
X179242D01*
Y47803D01*
X179259D01*
Y47795D01*
X179302D01*
Y47786D01*
X179328D01*
Y47778D01*
X179354D01*
Y47769D01*
X179406D01*
Y47760D01*
X179449D01*
Y47752D01*
X179543D01*
Y47743D01*
X179793D01*
Y47752D01*
X179888D01*
Y47760D01*
X179931D01*
Y47769D01*
X179991D01*
Y47778D01*
X180009D01*
Y47786D01*
X180043D01*
Y47795D01*
X180077D01*
Y47803D01*
X180095D01*
Y47812D01*
X180129D01*
Y47821D01*
X180146D01*
Y47829D01*
X180172D01*
Y47838D01*
X180198D01*
Y47846D01*
X180215D01*
Y47855D01*
X180241D01*
Y47864D01*
X180250D01*
Y47872D01*
X180276D01*
Y47881D01*
X180293D01*
Y47889D01*
X180301D01*
Y47898D01*
X180327D01*
Y47907D01*
X180336D01*
Y47915D01*
X180353D01*
Y47924D01*
X180362D01*
Y47933D01*
X180379D01*
Y47941D01*
X180396D01*
Y47950D01*
X180405D01*
Y47958D01*
X180422D01*
Y47967D01*
X180431D01*
Y47976D01*
X180448D01*
Y47984D01*
X180457D01*
Y47993D01*
X180465D01*
Y48001D01*
X180482D01*
Y48010D01*
X180491D01*
Y48019D01*
X180508D01*
Y48027D01*
X180517D01*
Y48036D01*
X180525D01*
Y48045D01*
X180534D01*
Y48053D01*
X180543D01*
Y48062D01*
X180560D01*
Y48079D01*
X180577D01*
Y48088D01*
X180586D01*
Y48096D01*
X180594D01*
Y48105D01*
X180603D01*
Y48113D01*
X180611D01*
Y48122D01*
X180620D01*
Y48131D01*
X180629D01*
Y48139D01*
X180637D01*
Y48148D01*
X180646D01*
Y48156D01*
X180655D01*
Y48165D01*
X180663D01*
Y48182D01*
X180680D01*
Y48200D01*
X180689D01*
Y48208D01*
X180698D01*
Y48217D01*
X180706D01*
Y48225D01*
X180715D01*
Y48234D01*
X180723D01*
Y48251D01*
X180732D01*
Y48260D01*
X180741D01*
Y48268D01*
X180749D01*
Y48277D01*
X180758D01*
Y48294D01*
X180767D01*
Y48303D01*
X180775D01*
Y48312D01*
X180784D01*
Y48329D01*
X180792D01*
Y48346D01*
X180801D01*
Y48355D01*
X180810D01*
Y48372D01*
X180818D01*
Y48380D01*
X180827D01*
Y48398D01*
X180835D01*
Y48415D01*
X180844D01*
Y48432D01*
X180853D01*
Y48449D01*
X180861D01*
Y48458D01*
X180870D01*
Y48484D01*
X180879D01*
Y48492D01*
X180887D01*
Y48518D01*
X180896D01*
Y48535D01*
X180904D01*
Y48553D01*
X180913D01*
Y48579D01*
X180921D01*
Y48596D01*
X180930D01*
Y48630D01*
X180939D01*
Y48647D01*
X180947D01*
Y48673D01*
X180956D01*
Y48708D01*
X180965D01*
Y48725D01*
X180973D01*
Y48777D01*
X180982D01*
Y48802D01*
X180990D01*
Y48854D01*
X180999D01*
Y48923D01*
X181008D01*
Y50335D01*
X181016D01*
Y50396D01*
X181008D01*
Y52644D01*
X181016D01*
Y52661D01*
X181008D01*
Y52687D01*
X181016D01*
Y52695D01*
X184780D01*
Y52704D01*
X184832D01*
Y52712D01*
X184900D01*
Y52721D01*
X184926D01*
Y52730D01*
X184978D01*
Y52738D01*
X184995D01*
Y52747D01*
X185030D01*
Y52756D01*
X185056D01*
Y52764D01*
X185081D01*
Y52773D01*
X185107D01*
Y52781D01*
X185124D01*
Y52790D01*
X185150D01*
Y52799D01*
X185168D01*
Y52807D01*
X185185D01*
Y52816D01*
X185210D01*
Y52825D01*
X185219D01*
Y52833D01*
X185245D01*
Y52842D01*
X185254D01*
Y52850D01*
X185271D01*
Y52859D01*
X185288D01*
Y52867D01*
X185305D01*
Y52876D01*
X185322D01*
Y52885D01*
X185331D01*
Y52893D01*
X185348D01*
Y52902D01*
X185357D01*
Y52911D01*
X185374D01*
Y52919D01*
X185383D01*
Y52928D01*
X185391D01*
Y52936D01*
X185409D01*
Y52945D01*
X185417D01*
Y52954D01*
X185434D01*
Y52962D01*
X185443D01*
Y52971D01*
X185452D01*
Y52979D01*
X185469D01*
Y52988D01*
X185478D01*
Y52997D01*
X185486D01*
Y53005D01*
X185495D01*
Y53014D01*
X185503D01*
Y53023D01*
X185521D01*
Y53031D01*
X185529D01*
Y53040D01*
X185538D01*
Y53048D01*
X185546D01*
Y53057D01*
X185555D01*
Y53066D01*
X185564D01*
Y53074D01*
X185572D01*
Y53083D01*
X185581D01*
Y53092D01*
X185590D01*
Y53100D01*
X185598D01*
Y53109D01*
X185607D01*
Y53117D01*
X185615D01*
Y53126D01*
X185624D01*
Y53143D01*
X185641D01*
Y53160D01*
X185650D01*
Y53169D01*
X185658D01*
Y53178D01*
X185667D01*
Y53186D01*
X185676D01*
Y53195D01*
X185684D01*
Y53212D01*
X185693D01*
Y53221D01*
X185701D01*
Y53238D01*
X185710D01*
Y53246D01*
X185719D01*
Y53255D01*
X185727D01*
Y53272D01*
X185736D01*
Y53281D01*
X185744D01*
Y53298D01*
X185753D01*
Y53307D01*
X185762D01*
Y53324D01*
X185770D01*
Y53341D01*
X185779D01*
Y53350D01*
X185788D01*
Y53367D01*
X185796D01*
Y53384D01*
X185805D01*
Y53401D01*
X185813D01*
Y53419D01*
X185822D01*
Y53427D01*
X185831D01*
Y53453D01*
X185839D01*
Y53470D01*
X185848D01*
Y53488D01*
X185856D01*
Y53505D01*
X185865D01*
Y53531D01*
X185874D01*
Y53556D01*
X185882D01*
Y53574D01*
X185891D01*
Y53608D01*
X185900D01*
Y53625D01*
X185908D01*
Y53660D01*
X185917D01*
Y53686D01*
X185925D01*
Y53720D01*
X185934D01*
Y53772D01*
X185943D01*
Y53806D01*
X185951D01*
Y53901D01*
X185960D01*
Y54159D01*
X185951D01*
Y54254D01*
X185943D01*
Y54297D01*
X185934D01*
Y54349D01*
X185925D01*
Y54375D01*
X185917D01*
Y54409D01*
X185908D01*
Y54444D01*
X185900D01*
Y54461D01*
X185891D01*
Y54495D01*
X185882D01*
Y54513D01*
X185874D01*
Y54538D01*
X185865D01*
Y54564D01*
X185856D01*
Y54573D01*
X185848D01*
Y54599D01*
X185839D01*
Y54616D01*
X185831D01*
Y54642D01*
X185822D01*
Y54650D01*
X185813D01*
Y54668D01*
X185805D01*
Y54685D01*
X185796D01*
Y54702D01*
X185788D01*
Y54719D01*
X185779D01*
Y54728D01*
X185770D01*
Y54745D01*
X185762D01*
Y54754D01*
X185753D01*
Y54771D01*
X185744D01*
Y54788D01*
X185736D01*
Y54797D01*
X185727D01*
Y54814D01*
X185719D01*
Y54823D01*
X185710D01*
Y54831D01*
X185701D01*
Y54848D01*
X185693D01*
Y54857D01*
X185684D01*
Y54866D01*
X185676D01*
Y54874D01*
X185667D01*
Y54883D01*
X185658D01*
Y54900D01*
X185650D01*
Y54909D01*
X185641D01*
Y54917D01*
X185632D01*
Y54926D01*
X185624D01*
Y54943D01*
X185615D01*
Y54952D01*
X185607D01*
Y54960D01*
X185598D01*
Y54969D01*
X185590D01*
Y54978D01*
X185581D01*
Y54986D01*
X185572D01*
Y54995D01*
X185564D01*
Y55003D01*
X185555D01*
Y55012D01*
X185546D01*
Y55021D01*
X185538D01*
Y55029D01*
X185521D01*
Y55038D01*
X185512D01*
Y55047D01*
X185503D01*
Y55055D01*
X185495D01*
Y55064D01*
X185486D01*
Y55072D01*
X185478D01*
Y55081D01*
X185469D01*
Y55090D01*
X185452D01*
Y55098D01*
X185443D01*
Y55107D01*
X185434D01*
Y55115D01*
X185417D01*
Y55124D01*
X185409D01*
Y55133D01*
X185391D01*
Y55141D01*
X185383D01*
Y55150D01*
X185366D01*
Y55158D01*
X185357D01*
Y55167D01*
X185340D01*
Y55176D01*
X185331D01*
Y55184D01*
X185322D01*
Y55193D01*
X185297D01*
Y55202D01*
X185288D01*
Y55210D01*
X185271D01*
Y55219D01*
X185254D01*
Y55227D01*
X185236D01*
Y55236D01*
X185219D01*
Y55245D01*
X185202D01*
Y55253D01*
X185176D01*
Y55262D01*
X185168D01*
Y55270D01*
X185142D01*
Y55279D01*
X185124D01*
Y55288D01*
X185107D01*
Y55296D01*
X185073D01*
Y55305D01*
X185056D01*
Y55314D01*
X185021D01*
Y55322D01*
X184995D01*
Y55331D01*
X184961D01*
Y55339D01*
X184918D01*
Y55348D01*
X184892D01*
Y55356D01*
X184814D01*
Y55365D01*
X184763D01*
Y55374D01*
X181016D01*
Y55382D01*
X181008D01*
Y55443D01*
X181016D01*
Y55460D01*
X181008D01*
Y56881D01*
X181016D01*
Y56976D01*
X181008D01*
Y57027D01*
X181016D01*
Y57122D01*
X181008D01*
Y57139D01*
X181016D01*
Y57234D01*
X181008D01*
Y59146D01*
X180999D01*
Y59206D01*
X180990D01*
Y59267D01*
X180982D01*
Y59292D01*
X180973D01*
Y59335D01*
X180965D01*
Y59361D01*
X180956D01*
Y59396D01*
X180947D01*
Y59422D01*
X180939D01*
Y59439D01*
X180930D01*
Y59473D01*
X180921D01*
Y59490D01*
X180913D01*
Y59516D01*
X180904D01*
Y59534D01*
X180896D01*
Y59551D01*
X180887D01*
Y59577D01*
X180879D01*
Y59585D01*
X180870D01*
Y59611D01*
X180861D01*
Y59620D01*
X180853D01*
Y59637D01*
X180844D01*
Y59654D01*
X180835D01*
Y59671D01*
X180827D01*
Y59680D01*
X180818D01*
Y59697D01*
X180810D01*
Y59714D01*
X180801D01*
Y59723D01*
X180792D01*
Y59740D01*
X180784D01*
Y59749D01*
X180775D01*
Y59757D01*
X180767D01*
Y59775D01*
X180758D01*
Y59783D01*
X180749D01*
Y59801D01*
X180741D01*
Y59809D01*
X180732D01*
Y59818D01*
X180723D01*
Y59835D01*
X180715D01*
Y59844D01*
X180706D01*
Y59852D01*
X180698D01*
Y59861D01*
X180689D01*
Y59869D01*
X180680D01*
Y59878D01*
X180672D01*
Y59887D01*
X180663D01*
Y59904D01*
X180655D01*
Y59913D01*
X180646D01*
Y59921D01*
X180637D01*
Y59930D01*
X180629D01*
Y59938D01*
X180620D01*
Y59947D01*
X180611D01*
Y59956D01*
X180603D01*
Y59964D01*
X180586D01*
Y59973D01*
X180577D01*
Y59981D01*
X180568D01*
Y59990D01*
X180560D01*
Y59999D01*
X180551D01*
Y60007D01*
X180543D01*
Y60016D01*
X180534D01*
Y60024D01*
X180525D01*
Y60033D01*
X180508D01*
Y60042D01*
X180499D01*
Y60050D01*
X180491D01*
Y60059D01*
X180482D01*
Y60068D01*
X180465D01*
Y60076D01*
X180457D01*
Y60085D01*
X180439D01*
Y60093D01*
X180431D01*
Y60102D01*
X180422D01*
Y60111D01*
X180405D01*
Y60119D01*
X180396D01*
Y60128D01*
X180379D01*
Y60136D01*
X180362D01*
Y60145D01*
X180353D01*
Y60154D01*
X180336D01*
Y60162D01*
X180319D01*
Y60171D01*
X180301D01*
Y60180D01*
X180284D01*
Y60188D01*
X180267D01*
Y60197D01*
X180250D01*
Y60205D01*
X180233D01*
Y60214D01*
X180207D01*
Y60223D01*
X180189D01*
Y60231D01*
X180164D01*
Y60240D01*
X180146D01*
Y60248D01*
X180121D01*
Y60257D01*
X180095D01*
Y60266D01*
X180077D01*
Y60274D01*
X180034D01*
Y60283D01*
X180009D01*
Y60291D01*
X179974D01*
Y60300D01*
X179923D01*
Y60309D01*
X179879D01*
Y60317D01*
X179767D01*
Y60326D01*
D02*
G37*
G36*
X24437Y54976D02*
X14820D01*
Y54953D01*
X14730D01*
Y54931D01*
X14640D01*
Y54908D01*
X14595D01*
Y54886D01*
X14550D01*
Y54863D01*
X14504D01*
Y54841D01*
X14482D01*
Y54818D01*
X14437D01*
Y54795D01*
X14414D01*
Y54773D01*
X14392D01*
Y54750D01*
X14347D01*
Y54728D01*
X14324D01*
Y54706D01*
X14302D01*
Y54660D01*
X14279D01*
Y54638D01*
X14257D01*
Y54615D01*
X14234D01*
Y54570D01*
X14212D01*
Y54548D01*
X14189D01*
Y54525D01*
X14167D01*
Y54458D01*
X14144D01*
Y54435D01*
X14122D01*
Y54368D01*
X14099D01*
Y54323D01*
X14077D01*
Y54210D01*
X14054D01*
Y53895D01*
X14077D01*
Y53782D01*
X14099D01*
Y53737D01*
X14122D01*
Y53647D01*
X14144D01*
Y53624D01*
X14167D01*
Y53579D01*
X14189D01*
Y53534D01*
X14212D01*
Y53512D01*
X14234D01*
Y53467D01*
X14257D01*
Y53444D01*
X14279D01*
Y53422D01*
X14302D01*
Y53399D01*
X14324D01*
Y53377D01*
X14347D01*
Y53354D01*
X14369D01*
Y53332D01*
X14392D01*
Y53309D01*
X14414D01*
Y53287D01*
X14460D01*
Y53264D01*
X14482D01*
Y53242D01*
X14527D01*
Y53219D01*
X14572D01*
Y53197D01*
X14617D01*
Y53174D01*
X14662D01*
Y53151D01*
X14752D01*
Y53129D01*
X14842D01*
Y53106D01*
X24392D01*
Y53129D01*
X24482D01*
Y53151D01*
X24572D01*
Y53174D01*
X24595D01*
Y53197D01*
X24662D01*
Y53219D01*
X24707D01*
Y53242D01*
X24730D01*
Y53264D01*
X24775D01*
Y53287D01*
X24797D01*
Y53309D01*
X24842D01*
Y53332D01*
X24865D01*
Y53354D01*
X24887D01*
Y53377D01*
X24910D01*
Y53399D01*
X24932D01*
Y53422D01*
X24955D01*
Y53444D01*
X24978D01*
Y53489D01*
X25000D01*
Y53512D01*
X25023D01*
Y53557D01*
X25045D01*
Y53579D01*
X25068D01*
Y53624D01*
X25090D01*
Y53692D01*
X25113D01*
Y53737D01*
X25135D01*
Y53805D01*
X25158D01*
Y53940D01*
X25180D01*
Y54165D01*
X25158D01*
Y54278D01*
X25135D01*
Y54345D01*
X25113D01*
Y54413D01*
X25090D01*
Y54458D01*
X25068D01*
Y54503D01*
X25045D01*
Y54548D01*
X25023D01*
Y54570D01*
X25000D01*
Y54593D01*
X24978D01*
Y54638D01*
X24955D01*
Y54660D01*
X24932D01*
Y54683D01*
X24910D01*
Y54706D01*
X24887D01*
Y54728D01*
X24865D01*
Y54750D01*
X24842D01*
Y54773D01*
X24820D01*
Y54795D01*
X24797D01*
Y54818D01*
X24752D01*
Y54841D01*
X24707D01*
Y54863D01*
X24685D01*
Y54886D01*
X24617D01*
Y54908D01*
X24572D01*
Y54931D01*
X24504D01*
Y54953D01*
X24437D01*
Y54976D01*
D02*
G37*
G36*
X133703Y66067D02*
X132788Y63515D01*
X134637D01*
X133703Y66067D01*
D02*
G37*
G36*
X77752Y66344D02*
X76763D01*
X76624Y66335D01*
X76494Y66316D01*
X76384Y66298D01*
X76282Y66279D01*
X76189Y66261D01*
X76115Y66233D01*
X76041Y66205D01*
X75986Y66178D01*
X75931Y66159D01*
X75856Y66113D01*
X75810Y66076D01*
X75801Y66067D01*
X75718Y65965D01*
X75662Y65854D01*
X75616Y65743D01*
X75588Y65632D01*
X75570Y65540D01*
X75561Y65466D01*
Y65410D01*
Y65401D01*
Y65392D01*
X75570Y65272D01*
X75588Y65160D01*
X75607Y65068D01*
X75635Y64985D01*
X75672Y64920D01*
X75690Y64874D01*
X75709Y64846D01*
X75718Y64837D01*
X75782Y64763D01*
X75856Y64707D01*
X75931Y64652D01*
X76004Y64615D01*
X76069Y64578D01*
X76125Y64560D01*
X76162Y64550D01*
X76171Y64541D01*
X76291Y64513D01*
X76411Y64486D01*
X76531Y64467D01*
X76652Y64458D01*
X76753D01*
X76837Y64449D01*
X77752D01*
Y66344D01*
D02*
G37*
G36*
X116752Y66242D02*
X115735D01*
X115494Y66233D01*
X115291Y66214D01*
X115115Y66196D01*
X114977Y66168D01*
X114866Y66131D01*
X114792Y66113D01*
X114746Y66094D01*
X114727Y66085D01*
X114616Y66011D01*
X114533Y65919D01*
X114468Y65817D01*
X114431Y65715D01*
X114403Y65623D01*
X114394Y65540D01*
X114385Y65484D01*
Y65475D01*
Y65466D01*
Y65382D01*
X114403Y65308D01*
X114422Y65244D01*
X114440Y65188D01*
X114459Y65133D01*
X114477Y65096D01*
X114487Y65077D01*
X114496Y65068D01*
X114551Y64985D01*
X114607Y64911D01*
X114672Y64846D01*
X114736Y64800D01*
X114792Y64772D01*
X114838Y64745D01*
X114875Y64735D01*
X114884Y64726D01*
X114986Y64698D01*
X115106Y64680D01*
X115226Y64661D01*
X115337Y64652D01*
X115448D01*
X115531Y64643D01*
X116752D01*
Y66242D01*
D02*
G37*
G36*
Y63746D02*
X115448D01*
X115217Y63737D01*
X115023Y63709D01*
X114857Y63681D01*
X114718Y63644D01*
X114607Y63598D01*
X114533Y63570D01*
X114487Y63542D01*
X114468Y63533D01*
X114357Y63441D01*
X114274Y63339D01*
X114219Y63228D01*
X114172Y63108D01*
X114154Y63006D01*
X114145Y62923D01*
X114135Y62868D01*
Y62858D01*
Y62849D01*
X114154Y62692D01*
X114191Y62544D01*
X114256Y62424D01*
X114339Y62322D01*
X114431Y62230D01*
X114542Y62156D01*
X114653Y62100D01*
X114773Y62045D01*
X114894Y62008D01*
X115004Y61980D01*
X115115Y61961D01*
X115208Y61952D01*
X115291Y61943D01*
X115356Y61934D01*
X116752D01*
Y63746D01*
D02*
G37*
G36*
X173336Y131696D02*
X168297D01*
Y130708D01*
X168308Y130464D01*
X168319Y130231D01*
X168341Y130031D01*
X168375Y129864D01*
X168408Y129720D01*
X168430Y129620D01*
X168441Y129553D01*
X168452Y129531D01*
X168519Y129354D01*
X168619Y129198D01*
X168741Y129054D01*
X168852Y128932D01*
X168963Y128843D01*
X169063Y128765D01*
X169130Y128721D01*
X169141Y128710D01*
X169152D01*
X169263Y128654D01*
X169374Y128599D01*
X169640Y128521D01*
X169907Y128455D01*
X170173Y128421D01*
X170306Y128399D01*
X170417D01*
X170528Y128388D01*
X170617Y128377D01*
X170695D01*
X170750D01*
X170783D01*
X170795D01*
X171072Y128388D01*
X171338Y128410D01*
X171583Y128443D01*
X171793Y128499D01*
X171993Y128554D01*
X172182Y128621D01*
X172337Y128688D01*
X172482Y128754D01*
X172604Y128832D01*
X172704Y128898D01*
X172792Y128965D01*
X172870Y129021D01*
X172926Y129076D01*
X172959Y129109D01*
X172981Y129132D01*
X172992Y129143D01*
X173092Y129276D01*
X173159Y129409D01*
X173192Y129465D01*
X173214Y129498D01*
X173225Y129531D01*
Y129542D01*
X173270Y129698D01*
X173303Y129842D01*
X173314Y129897D01*
X173325Y129942D01*
Y130064D01*
X173336Y130153D01*
Y131696D01*
D02*
G37*
%LPD*%
D10*
X186110Y99171D02*
X194430D01*
D12*
X27800Y143000D02*
G03*
X27800Y143000I-1000J0D01*
G01*
X190100Y316000D02*
X195100D01*
X183000Y291550D02*
Y308450D01*
X151000Y291550D02*
Y308450D01*
X125900Y316000D02*
X130900D01*
X84000Y291550D02*
Y308450D01*
X116000Y291550D02*
Y308450D01*
X73106Y251917D02*
X78106D01*
X81206Y236578D02*
Y241578D01*
X81206Y227355D02*
Y232355D01*
X62206Y227355D02*
Y232355D01*
X62206Y236578D02*
Y241578D01*
X34995Y235001D02*
X39995D01*
X38238Y198833D02*
Y203833D01*
X64306Y251917D02*
X69306D01*
X44706Y234984D02*
X49706D01*
X56900Y316000D02*
X61900D01*
X132500Y135500D02*
Y140300D01*
X127700Y135500D02*
X132500D01*
Y201700D02*
Y206500D01*
X127700D02*
X132500D01*
X61500Y201700D02*
Y206500D01*
X66300D01*
X61500Y135500D02*
Y140300D01*
Y135500D02*
X66300D01*
X59550Y140300D02*
X61500D01*
X92729Y234600D02*
X97729D01*
X114662D02*
X119662D01*
X124142D02*
X129142D01*
X102358Y234600D02*
X107358D01*
X133622Y234600D02*
X138622D01*
X19296Y190167D02*
Y195167D01*
X19296Y207500D02*
Y212500D01*
X38238Y190167D02*
Y195167D01*
X19296Y198833D02*
Y203833D01*
X38238Y181500D02*
Y186500D01*
X66500Y121400D02*
X71500D01*
X101818Y120222D02*
X106818D01*
X46550Y127500D02*
X49450D01*
X46550Y136500D02*
X49450D01*
X91818Y120222D02*
X96818D01*
X110818D02*
X115818D01*
X141500Y143484D02*
X146500D01*
X88389Y101384D02*
X93389D01*
X116055D02*
X121055D01*
X60722D02*
X65722D01*
X149492Y227397D02*
Y232397D01*
X150000Y210500D02*
Y215500D01*
X149492Y218918D02*
Y223918D01*
X162624Y225472D02*
X167624D01*
X38238Y207500D02*
Y212500D01*
X33300Y154800D02*
Y159200D01*
Y166800D02*
Y171200D01*
X20300Y154800D02*
Y159200D01*
Y166800D02*
Y171200D01*
Y147000D02*
X33300D01*
X20300Y179000D02*
X33300D01*
X69944Y101384D02*
X74944D01*
X79166D02*
X84167D01*
X97611Y101384D02*
X102611D01*
X106833D02*
X111833D01*
X125278D02*
X130278D01*
X4081Y104676D02*
Y122276D01*
X34081Y104676D02*
Y122276D01*
X5231Y126176D02*
Y130476D01*
X17687Y134390D02*
Y139390D01*
X90633Y43150D02*
Y48450D01*
X76033Y43150D02*
Y48450D01*
X109367Y43150D02*
Y48450D01*
X123967Y43150D02*
Y48450D01*
X107300Y43150D02*
Y48450D01*
X92700Y43150D02*
Y48450D01*
X181772Y103724D02*
Y108724D01*
X134500Y101384D02*
X139500D01*
X92700Y13650D02*
Y18950D01*
X107300Y13650D02*
Y18950D01*
X76033Y13650D02*
Y18950D01*
X90633Y13650D02*
Y18950D01*
X109367Y13650D02*
Y18950D01*
X123967Y13650D02*
Y18950D01*
X126033Y13650D02*
Y18950D01*
X140633Y13650D02*
Y18950D01*
X140633Y43150D02*
Y48450D01*
X126033Y43150D02*
Y48450D01*
X73967Y43150D02*
Y48450D01*
X59367Y43150D02*
Y48450D01*
X42700Y43150D02*
Y48450D01*
X57300Y43150D02*
Y48450D01*
X155546Y84284D02*
X160546D01*
X180196Y66566D02*
Y71566D01*
X59367Y13650D02*
Y18950D01*
X73967Y13650D02*
Y18950D01*
X16000Y291550D02*
Y308450D01*
X48000Y291550D02*
Y308450D01*
X57300Y13650D02*
Y18950D01*
X42700Y13650D02*
Y18950D01*
X142700Y13650D02*
Y18950D01*
X157300Y13650D02*
Y18950D01*
X19366Y88162D02*
Y93162D01*
X157300Y43150D02*
Y48450D01*
X142700Y43150D02*
Y48450D01*
X51500Y101384D02*
X56500D01*
X142500Y193000D02*
X147500D01*
X152500D02*
X157500D01*
D14*
X191816Y175809D02*
X192054Y176285D01*
X192530Y176761D01*
X193006Y176999D01*
X193958D01*
X194434Y176761D01*
X194910Y176285D01*
X195148Y175809D01*
X195387Y175095D01*
Y173904D01*
X195148Y173190D01*
X194910Y172714D01*
X194434Y172238D01*
X193958Y172000D01*
X193006D01*
X192530Y172238D01*
X192054Y172714D01*
X191816Y173190D01*
Y173904D01*
X193006D02*
X191816D01*
X190673Y176999D02*
Y172000D01*
Y176999D02*
X187341Y172000D01*
Y176999D02*
Y172000D01*
X185960Y176999D02*
Y172000D01*
Y176999D02*
X184294D01*
X183580Y176761D01*
X183103Y176285D01*
X182865Y175809D01*
X182627Y175095D01*
Y173904D01*
X182865Y173190D01*
X183103Y172714D01*
X183580Y172238D01*
X184294Y172000D01*
X185960D01*
X194910Y187693D02*
X192292D01*
X193720Y185789D01*
X193006D01*
X192530Y185551D01*
X192292Y185313D01*
X192054Y184599D01*
Y184123D01*
X192292Y183409D01*
X192768Y182932D01*
X193482Y182694D01*
X194196D01*
X194910Y182932D01*
X195148Y183171D01*
X195387Y183647D01*
X190697Y183171D02*
X190935Y182932D01*
X190697Y182694D01*
X190459Y182932D01*
X190697Y183171D01*
X188888Y187693D02*
X186269D01*
X187698Y185789D01*
X186984D01*
X186507Y185551D01*
X186269Y185313D01*
X186031Y184599D01*
Y184123D01*
X186269Y183409D01*
X186745Y182932D01*
X187460Y182694D01*
X188174D01*
X188888Y182932D01*
X189126Y183171D01*
X189364Y183647D01*
X184912Y187693D02*
X183008Y182694D01*
X181104Y187693D02*
X183008Y182694D01*
X191816Y197114D02*
X192054Y197590D01*
X192530Y198067D01*
X193006Y198305D01*
X193958D01*
X194434Y198067D01*
X194910Y197590D01*
X195148Y197114D01*
X195387Y196400D01*
Y195210D01*
X195148Y194496D01*
X194910Y194020D01*
X194434Y193544D01*
X193958Y193306D01*
X193006D01*
X192530Y193544D01*
X192054Y194020D01*
X191816Y194496D01*
X190411Y198305D02*
Y193306D01*
X187555D01*
X187007Y198305D02*
Y193306D01*
X183675Y198305D02*
X187007Y194972D01*
X185817Y196162D02*
X183675Y193306D01*
X195387Y208999D02*
Y204000D01*
Y208999D02*
X193720D01*
X193006Y208761D01*
X192530Y208285D01*
X192292Y207809D01*
X192054Y207095D01*
Y205904D01*
X192292Y205190D01*
X192530Y204714D01*
X193006Y204238D01*
X193720Y204000D01*
X195387D01*
X190935Y208999D02*
Y204000D01*
X188459Y208999D02*
X188936Y208761D01*
X189412Y208285D01*
X189650Y207809D01*
X189888Y207095D01*
Y205904D01*
X189650Y205190D01*
X189412Y204714D01*
X188936Y204238D01*
X188459Y204000D01*
X187507D01*
X187031Y204238D01*
X186555Y204714D01*
X186317Y205190D01*
X186079Y205904D01*
Y207095D01*
X186317Y207809D01*
X186555Y208285D01*
X187031Y208761D01*
X187507Y208999D01*
X188459D01*
D15*
X49000Y68500D02*
Y87000D01*
Y68500D02*
X103632D01*
X49000Y87000D02*
X144000D01*
X164500Y118077D02*
Y155577D01*
X174000D01*
Y169077D01*
X196500D01*
X174500Y115077D02*
Y118077D01*
Y115077D02*
X196500D01*
X188000Y113577D02*
X196500D01*
X188000Y114577D02*
X196500D01*
X188000Y113077D02*
X196500D01*
X164500Y118077D02*
X174500D01*
X103500Y68500D02*
X144000D01*
Y87000D01*
X125000Y68500D02*
Y87000D01*
X106000Y68500D02*
Y87000D01*
X87000Y68500D02*
Y87000D01*
X68000Y68500D02*
Y87000D01*
X142000D02*
X144000Y85000D01*
X140500Y87000D02*
X142000D01*
X140500D02*
X144000Y83500D01*
Y82000D02*
Y83500D01*
X139000Y87000D02*
X144000Y82000D01*
X142000Y68500D02*
X144000Y70500D01*
X139500Y68500D02*
X142000D01*
X139500D02*
X141000Y69000D01*
X144000Y72000D01*
Y73000D01*
X139500Y68500D02*
X144000Y73000D01*
M02*
