M48
;Layer_Color=9474304
;FILE_FORMAT=4:4
METRIC,LZ
;TYPE=PLATED
T1F00S00C0.3000
%
T01
X00098Y00016004
X00117
X00169314Y00015
X00176314
X00183314
X00190314
Y00007
X00183314
X00176314
X00169814
X00169314Y00023
X00176314
X00183314
X00190314
X00190314Y00031
X00183314
X00176314
X00169314
Y00039
X00176314
X00183314
X00190314
X00190562Y000778
X00180276Y00081784
Y00088392
X00157763Y0006882
Y00062042
X00149216
X00143256Y00062484
X00123375Y00090951
X00128071Y00112154
X00117864Y00115659
X00122854Y00129706
X00129032Y00130302
X00144Y00134071
X00140317Y00122835
X00163574Y00127508
X0015864Y00136
X0015875Y00158242
X00147705Y00156809
X00148793Y00165208
X00141675Y00170201
X00146852Y00177135
X00139118Y00184745
X00159484Y00181083
Y00174228
X00138501Y00160625
X00121504Y00164442
X00115459Y00164194
X00101961Y00171944
Y00177326
Y00182709
Y00188105
Y00193487
X00095257
Y00188105
Y00182723
Y0017734
Y00171958
X00088554Y00171944
Y00177326
Y00182709
Y00188105
Y00193487
X0008185
Y00188105
Y00182709
Y00177326
Y00171944
X00094488Y00213614
X00114554Y00212344
X0012912Y0020312
X00146189Y00206735
X0014478Y00239014
X00161544Y00239268
X001785Y002395
X00181356Y00208534
X00104858Y002392
X0009493Y002395
X00109728Y00253238
X00112966Y00322584
Y00328171
Y00333757
Y00339344
Y00344931
X00106426
Y00339344
Y00333757
Y00328171
Y00322584
X00099886Y00322517
Y0032812
Y00333724
Y00339327
Y00344931
X00093345
Y00339327
Y00333724
Y0032812
Y00322517
X00086805
Y0032812
Y00333724
Y00339327
Y00344931
X00087884Y00350517
Y00356104
X00094425
X00094425Y00350517
X001085Y003555
X00136652Y00348742
X00155639Y00344677
Y00339073
Y0033347
Y00327866
Y00322263
X00162179
Y00327866
Y0033347
Y00339073
Y00344677
X0016872
Y00339073
Y0033347
Y00327866
Y00322263
X0017526Y0032233
Y00327917
Y00333503
Y0033909
Y00344677
X001818
Y0033909
Y00333503
Y00327917
Y0032233
X00178562Y00355562
X00164573Y00356242
X00164573Y00350656
X00158033
Y00356242
X00153266Y00107192
X00101092Y00112154
X00094169Y00112225
X00099486Y00130643
X00106377Y00130945
X00096279Y00066293
X00073152Y0006477
X00068485Y00067705
X00036001Y00050001
X00026001
X00016001
X00006001
X00009294Y00039
X00016294
X00023294
X00030294
Y00031
X00023294
X00016294
X00009294
Y00023
X00016294
X00023294
X00030294
Y00015
X00023294
X00016294
X00009294
Y00007
X00016294
X00023294
X00030294
X0006Y00016254
X00079Y00016004
X000184Y000624
X00011001Y00060001
X00004672Y00088314
X00034798Y0008777
X00038862Y00099568
X00039Y00106
X00037084Y00120396
X00028956Y00132334
X00022352Y00143002
X00006001Y00150001
X00008446Y00163983
X00006001Y00170001
X00005864Y00180271
X00005842Y00187706
X00008238Y00201326
X00033528Y00216662
X00049005Y00214359
X00061976Y00209517
X0006025Y00203466
X00049249Y00194362
X00040402Y00177945
X00042571Y00173142
X0004085Y00149904
X00049105Y00152009
X00046275Y0014393
X00054102Y00143256
X00017587Y00109702
X000215Y002395
X000385
X00050104Y00268704
X00066806Y00257517
X00044196Y0032258
Y00328167
Y00333753
Y0033934
Y00344927
X00037655
Y0033934
Y00333753
Y00328167
Y0032258
X00031115Y00322513
Y00328116
Y0033372
Y00339323
Y00344927
X00024574
Y00339323
Y0033372
Y00328116
Y00322513
X00018034
Y00328116
Y0033372
Y00339323
Y00344927
X00018097Y00350513
Y003561
X00024638
X00024638Y00350513
X000385Y003555
X00008051Y00354282
X00070486Y00348503
X00080283Y00369496
Y00374496
Y00379496
X0005023
Y00374496
X0004523
X0004023
Y00379496
X0004523
X0003523
Y00374496
X0003023
X0002523
Y00379496
X0003023
X0003Y00388
Y00395
Y004025
X00021
Y00395
Y00388
X00012
Y00395
Y004025
X0001023Y00379496
Y00374496
Y00369496
X0001523
X0002023
X0002523
X0003023
X0003523
X0004023
X0004523
X0005023
X00048Y00388
Y00395
Y004025
X00039
Y00395
Y00388
X0002023Y00379496
Y00374496
X0001523
Y00379496
X00085283
Y00374496
X00090283
Y00379496
X00095283
Y00374496
X00100283
X00105283
Y00379496
X00100283
X001Y00388
X001Y00395
X001Y004025
X00091
Y00395
Y00388
X00082
Y00395
Y004025
X00109
Y00395
Y00388
X00118
Y00395
Y004025
X00120283Y00379496
Y00374496
Y00369496
X00115283
X00110283
X00105283
X00100283
X00095283
X00090283
X00085283
X00110283Y00374496
X00115283
Y00379496
X00110283
X0015023
Y00374496
Y00369496
X0015523
X0016023
X0016523
X0017023
X0017523
X0018023
X0018523
X0019023
Y00374496
Y00379496
X0018523
Y00374496
X0018023
Y00379496
X0017523
Y00374496
X0017023
X0016523
Y00379496
X0017023
X0017Y00388
Y00395
Y004025
X00161
Y00395
Y00388
X00152
Y00395
Y004025
X0015523Y00379496
Y00374496
X0016023
Y00379496
X00179Y00388
Y00395
Y004025
X00188
Y00395
Y00388
M30
