M48
;Layer_Color=9474304
;FILE_FORMAT=4:4
METRIC,LZ
;TYPE=PLATED
T1F00S00C0.3000
%
T01
X00098Y00016004
X00117
X00169314Y00015
X00176314
X00183314
X00190314
Y00007
X00183314
X00176314
X00169814
X00169314Y00023
X00176314
X00183314
X00190314
X00190314Y00031
X00183314
X00176314
X00169314
Y00039
X00176314
X00183314
X00190314
X00190562Y000778
X00180276Y00081784
Y00088392
X00157Y000968
X00157763Y0006882
Y00062642
X00150216
X00143256Y00062484
X00123375Y00090951
X00128071Y00112154
X00116809Y00115958
X00101092Y00112154
X00094169Y00112225
X00099486Y00130643
X00105735Y00130992
X00124191Y00129457
X001326Y001292
X00147008Y001256
X00144915Y00135696
X0015864Y00135472
X00158635Y00158357
X00147705Y00156809
X00148793Y00165208
X00141675Y00170201
X00146852Y00177135
X00139118Y00184745
X00159484Y00181083
Y00174228
X00138501Y00160625
X00121504Y00164442
X00115459Y00164194
X00101961Y00171944
Y00177326
Y00182709
Y00188105
Y00193487
X00095257
Y00188105
Y00182723
Y0017734
Y00171958
X00088554Y00171944
Y00177326
Y00182709
Y00188105
Y00193487
X0008185
Y00188105
Y00182709
Y00177326
Y00171944
X00094488Y00213614
X0012912Y0020312
X00146189Y00206735
X00168Y00213647
X001792Y002084
X00136Y00239
X0014738Y0027879
X00147Y00304
X00152
X00157
X00162
X00167
X00172
X00177
Y0031
X00172
X00167
X00162
X00157
X00152
X00147
X00147Y00316
X00152
X00157
X00162
X00167
X00172
X00177
X00186326Y00310894
X00187Y00279
X0011962
X00119393Y00311113
X0011Y0031
X00105
X001
X00095
X0009
X00085
Y00304
X0009
X00095
X001
X00105
X0011
X0011Y00316
X00105
X001
X00095
X0009
X00085
X00085283Y00353496
X00090283
Y00358496
X00085283
X00095283
X00100283
X00105283
X00110283
X00115283
X00120283
Y00353496
X00115283
X00110283
X00105283
X00100283
X00095283
X0014723
Y00358496
X0015223
X0015723
X0016223
X0016723
X0017223
X0017723
X0018223
X0018723
Y00353496
X0018223
X0017723
X0017223
X0016723
X0016223
X0015723
X0015223
X00096279Y00066293
X00073152Y0006477
X00068485Y00067705
X00036001Y00050001
X00026001
X00016001
X00006001
X00009294Y00039
X00016294
X00023294
X00030294
Y00031
X00023294
X00016294
X00009294
Y00023
X00016294
X00023294
X00030294
Y00015
X00023294
X00016294
X00009294
Y00007
X00016294
X00023294
X00030294
X0006Y00016254
X00079Y00016004
X000184Y000624
X00011001Y00060001
X00004672Y00088314
X00034798Y0008777
X00038862Y00099568
X00039Y00106
X00037084Y00120396
X00028956Y00132334
X00022352Y00143002
X00006001Y00150001
X00008446Y00163983
X00006001Y00170001
X00005864Y00180271
X00005842Y00187706
X0000811Y00201326
X00033583Y00215809
X00049252Y00211639
X00061976Y00209517
X0006025Y00203466
X00049249Y00194362
X000452Y001748
X00040402Y00177945
X0004085Y00149904
X00049105Y00151876
X00046275Y0014393
X00054102Y00143256
X00017587Y00109702
X0001238Y00279
X00013Y00304
X00018
X00023
X00028
X00033
X00038
X00043
Y0031
X00038
X00033
X00028
X00023
X00018
X00013
X00013Y00316
X00018
X00023
X00028
X00033
X00038
X00043
X0005205Y0031121
X0008Y0031
Y00304
X0008Y00316
X0008Y00279
X00052033Y00278807
X00066806Y00256517
X00080283Y00353496
Y00358496
X0005323
Y00353496
X0004823
X0004323
Y00358496
X0004823
X0003823
X0003323
X0002823
X0002323
X0001823
Y00353496
X0002323
X0002823
X0003323
X0003823
X0001323
Y00358496
Y00363496
X0001823
X0002323
X0002823
X0003323
X0003823
X0004323
X0004823
X0005323
Y00369496
Y00374496
Y00379496
X0004823
Y00374496
X0004323
Y00379496
X0003823
Y00374496
X0003323
X0002823
Y00379496
X0003323
Y00369496
X0003823
X0004323
X0004823
X00048Y00388
Y00395
Y004025
X00039
Y00395
Y00388
X0003
Y00395
Y004025
X00021
Y00395
Y00388
X00012
Y00395
Y004025
X0001323Y00379496
Y00374496
Y00369496
X0001823
X0002323
X0002823
X0002323Y00374496
X0001823
Y00379496
X0002323
X00080283
Y00374496
Y00369496
Y00363496
X00085283
X00090283
X00095283
X00100283
X00105283
X00110283
X00115283
X00120283
Y00369496
X00115283
X00110283
X00105283
X00100283
X00095283
X00090283
X00085283
Y00374496
X00090283
Y00379496
X00085283
X00095283
Y00374496
X00100283
X00105283
Y00379496
X00100283
X001Y00388
X001Y00395
X001Y004025
X00091
Y00395
Y00388
X00082
Y00395
Y004025
X00109
Y00395
Y00388
X00118
Y00395
Y004025
X00120283Y00379496
Y00374496
X00115283
X00110283
Y00379496
X00115283
X0014723
Y00374496
Y00369496
X0015223
X0015723
X0016223
X0016723
X0017223
X0017723
X0018223
X0018723
Y00374496
Y00379496
X0018223
Y00374496
X0017723
Y00379496
X0017223
Y00374496
X0016723
X0016223
Y00379496
X0016723
X0015723
Y00374496
X0015223
Y00379496
X00152Y00388
Y00395
Y004025
X00161
Y00395
Y00388
X0017
Y00395
Y004025
X00179
Y00395
Y00388
X00188
Y00395
Y004025
X0018723Y00363496
X0018223
X0017723
X0017223
X0016723
X0016223
X0015723
X0015223
X0014723
M30
