G04*
G04 #@! TF.GenerationSoftware,Altium Limited,Altium Designer,22.8.2 (66)*
G04*
G04 Layer_Physical_Order=2*
G04 Layer_Color=6736896*
%FSLAX44Y44*%
%MOMM*%
G71*
G04*
G04 #@! TF.SameCoordinates,6741D891-8A7F-4893-A487-0B18702EF547*
G04*
G04*
G04 #@! TF.FilePolarity,Positive*
G04*
G01*
G75*
%ADD11C,0.2540*%
%ADD14C,0.2000*%
%ADD73C,0.1270*%
G04:AMPARAMS|DCode=76|XSize=4.5mm|YSize=2.5mm|CornerRadius=0.625mm|HoleSize=0mm|Usage=FLASHONLY|Rotation=0.000|XOffset=0mm|YOffset=0mm|HoleType=Round|Shape=RoundedRectangle|*
%AMROUNDEDRECTD76*
21,1,4.5000,1.2500,0,0,0.0*
21,1,3.2500,2.5000,0,0,0.0*
1,1,1.2500,1.6250,-0.6250*
1,1,1.2500,-1.6250,-0.6250*
1,1,1.2500,-1.6250,0.6250*
1,1,1.2500,1.6250,0.6250*
%
%ADD76ROUNDEDRECTD76*%
%ADD77C,0.4500*%
%ADD78C,0.4000*%
G36*
X194316Y408203D02*
X195462Y407437D01*
X196437Y406462D01*
X197203Y405316D01*
X197731Y404042D01*
X198000Y402690D01*
Y402000D01*
X198000Y366000D01*
X198000Y365005D01*
X197239Y363168D01*
X195832Y361761D01*
X193995Y361000D01*
X193000Y361000D01*
X176420D01*
X173572Y363848D01*
X172816Y364354D01*
X171924Y364531D01*
X140200D01*
X139308Y364354D01*
X138552Y363848D01*
X136378Y361674D01*
X136168Y361761D01*
X134761Y363168D01*
X134000Y365005D01*
X134000Y366000D01*
Y366000D01*
Y402000D01*
X134000Y402690D01*
X134269Y404042D01*
X134797Y405316D01*
X135563Y406462D01*
X136538Y407437D01*
X137684Y408203D01*
X138060Y408359D01*
X193940D01*
X194316Y408203D01*
D02*
G37*
G36*
X128562D02*
X129708Y407437D01*
X130683Y406462D01*
X131449Y405316D01*
X131977Y404042D01*
X132246Y402690D01*
Y402000D01*
X132246Y366000D01*
X132246Y365005D01*
X131485Y363168D01*
X130078Y361761D01*
X128241Y361000D01*
X127246Y361000D01*
X106296D01*
X103190Y364106D01*
X102434Y364611D01*
X101542Y364789D01*
X77724D01*
X76832Y364611D01*
X76076Y364106D01*
X72970Y361000D01*
X72746D01*
X71751Y361000D01*
X69914Y361761D01*
X68507Y363168D01*
X67746Y365005D01*
X67746Y366000D01*
Y366000D01*
Y402000D01*
Y402690D01*
X68015Y404042D01*
X68543Y405316D01*
X69309Y406462D01*
X70284Y407437D01*
X71430Y408203D01*
X71806Y408359D01*
X128186D01*
X128562Y408203D01*
D02*
G37*
G36*
X63399Y408087D02*
X65087Y406399D01*
X66000Y404193D01*
X66000Y403000D01*
X66000D01*
X66000Y403000D01*
X66000Y366000D01*
X66000Y365005D01*
X65239Y363167D01*
X63833Y361761D01*
X61995Y361000D01*
X61000Y361000D01*
X36296D01*
X33325Y363971D01*
X32569Y364477D01*
X31677Y364654D01*
X12379D01*
X11487Y364477D01*
X10731Y363971D01*
X7760Y361000D01*
X6500D01*
X5505Y361000D01*
X3668Y361761D01*
X2261Y363168D01*
X1641Y364665D01*
Y403398D01*
X1769Y404042D01*
X2297Y405316D01*
X3063Y406462D01*
X4038Y407437D01*
X5184Y408203D01*
X5560Y408359D01*
X62741D01*
X63399Y408087D01*
D02*
G37*
G36*
X198359Y360936D02*
Y45226D01*
X198029Y44887D01*
X197750Y44709D01*
X197120Y44559D01*
X196018Y45016D01*
X195799D01*
X195597Y45100D01*
X166204D01*
X166002Y45016D01*
X165784D01*
X164313Y44407D01*
X164159Y44252D01*
X163957Y44169D01*
X162831Y43043D01*
X162748Y42841D01*
X162593Y42687D01*
X161984Y41217D01*
Y40998D01*
X161900Y40796D01*
Y18000D01*
Y3403D01*
X161984Y3201D01*
Y2982D01*
X162014Y2911D01*
X161165Y1641D01*
X5000D01*
X4896Y1598D01*
X3690Y1838D01*
X2580Y2580D01*
X1838Y3690D01*
X1598Y4896D01*
X1641Y5000D01*
X1641Y5000D01*
X1641Y5000D01*
Y52500D01*
X1622Y52546D01*
Y232954D01*
X1641Y233000D01*
Y360573D01*
X2814Y361059D01*
X2890Y360984D01*
X3092Y360900D01*
X3247Y360745D01*
X5085Y359984D01*
X5103D01*
X5638Y359365D01*
X5660Y359326D01*
X5846Y358630D01*
X5720Y357995D01*
Y357604D01*
X5681Y357517D01*
X5670Y357073D01*
X5640Y356746D01*
X5624Y356646D01*
X5607Y356569D01*
X5596Y356534D01*
X5581Y356508D01*
X5579Y356492D01*
X5570Y356471D01*
X5570Y356424D01*
X5569Y356419D01*
X5282Y356132D01*
X4785Y354931D01*
Y353632D01*
X5282Y352432D01*
X6200Y351513D01*
X7401Y351016D01*
X8700D01*
X9901Y351513D01*
X10819Y352432D01*
X11316Y353632D01*
X12528Y353492D01*
X12529Y322343D01*
X12528Y321821D01*
X12611Y321618D01*
X12611Y321399D01*
X13010Y320434D01*
X13165Y320279D01*
X13249Y320077D01*
X13987Y319338D01*
X14190Y319254D01*
X14345Y319100D01*
X15310Y318701D01*
X15529Y318701D01*
X15732Y318617D01*
X16254Y318618D01*
X43714Y318618D01*
X44237Y318583D01*
X44444Y318653D01*
X44663Y318638D01*
X45725Y318997D01*
X45890Y319141D01*
X46097Y319211D01*
X46941Y319949D01*
X47038Y320145D01*
X47203Y320289D01*
X47700Y321294D01*
X47715Y321512D01*
X47812Y321708D01*
X47849Y322268D01*
X47837Y322305D01*
X47852Y322341D01*
X47852Y348875D01*
X47768Y349077D01*
Y349296D01*
X47402Y350179D01*
X47247Y350334D01*
X47164Y350536D01*
X46488Y351212D01*
X46286Y351296D01*
X46131Y351450D01*
X45248Y351816D01*
X45218Y351899D01*
X46116Y353169D01*
X56835D01*
X61423Y348581D01*
Y314648D01*
X45156Y298382D01*
X44651Y297625D01*
X44474Y296733D01*
Y283482D01*
X40612Y279620D01*
X30559D01*
X29667Y279443D01*
X28911Y278937D01*
X4512Y254538D01*
X4006Y253782D01*
X3829Y252890D01*
Y211462D01*
X4006Y210570D01*
X4512Y209813D01*
X8713Y205612D01*
X8187Y204342D01*
X7638D01*
X6529Y203883D01*
X5681Y203034D01*
X5222Y201926D01*
Y200726D01*
X5681Y199617D01*
X6529Y198769D01*
X7638Y198310D01*
X7832D01*
X8370Y197840D01*
X8508Y197705D01*
X8601Y197667D01*
X23831Y182436D01*
Y168052D01*
X23814Y168026D01*
X23830Y167943D01*
X23794Y167868D01*
X23772Y167452D01*
X23721Y167167D01*
X23650Y166952D01*
X23568Y166799D01*
X23475Y166686D01*
X23363Y166595D01*
X23210Y166512D01*
X22996Y166441D01*
X22710Y166390D01*
X22294Y166368D01*
X22216Y166331D01*
X11275D01*
X11183Y166370D01*
X10971Y166371D01*
X10466Y166388D01*
X10289Y166405D01*
X10155Y166539D01*
X9046Y166999D01*
X7846D01*
X6738Y166539D01*
X5889Y165691D01*
X5430Y164583D01*
Y163383D01*
X5889Y162274D01*
X6738Y161426D01*
X7846Y160967D01*
X9046D01*
X10155Y161426D01*
X10308Y161579D01*
X11020Y161629D01*
X11212Y161630D01*
X11215Y161632D01*
X11218Y161630D01*
X11309Y161669D01*
X22216D01*
X22294Y161632D01*
X22710Y161610D01*
X22996Y161560D01*
X23210Y161488D01*
X23363Y161406D01*
X23475Y161313D01*
X23568Y161201D01*
X23650Y161048D01*
X23721Y160833D01*
X23772Y160548D01*
X23794Y160132D01*
X23830Y160057D01*
X23814Y159974D01*
X23831Y159948D01*
Y156569D01*
X20704Y153442D01*
X20199Y152685D01*
X20021Y151793D01*
Y145851D01*
X19982Y145760D01*
X19977Y145345D01*
X19964Y145044D01*
X19946Y144861D01*
X19795Y144710D01*
X19336Y143602D01*
Y142402D01*
X19795Y141294D01*
X19933Y141156D01*
X19981Y140444D01*
X19982Y140251D01*
X20021Y140158D01*
Y122648D01*
X20199Y121756D01*
X20704Y121000D01*
X35337Y106366D01*
X35374Y106275D01*
X35665Y105977D01*
X35867Y105755D01*
X35984Y105613D01*
Y105400D01*
X36443Y104292D01*
X37211Y103523D01*
X37241Y102954D01*
X37155Y102125D01*
X37154Y102125D01*
X36305Y101276D01*
X35846Y100168D01*
Y98968D01*
X36305Y97860D01*
X37154Y97011D01*
X38262Y96552D01*
X39462D01*
X40570Y97011D01*
X40858Y97299D01*
X41051Y97374D01*
X41177Y97494D01*
X41274Y97576D01*
X41367Y97643D01*
X41456Y97698D01*
X41541Y97741D01*
X41623Y97775D01*
X41704Y97800D01*
X41785Y97818D01*
X41870Y97829D01*
X42005Y97834D01*
X42113Y97885D01*
X51366D01*
X53689Y95562D01*
Y12428D01*
X53817Y11784D01*
X54182Y11238D01*
X58228Y7192D01*
X58774Y6827D01*
X59418Y6699D01*
X122381D01*
X123025Y6827D01*
X123571Y7192D01*
X126626Y10247D01*
X126991Y10793D01*
X127119Y11437D01*
Y81051D01*
X137225Y91157D01*
X160404D01*
X161048Y91285D01*
X161594Y91650D01*
X164764Y94820D01*
X165129Y95366D01*
X165257Y96010D01*
Y123840D01*
X165308Y123947D01*
X165314Y124089D01*
X165327Y124180D01*
X165350Y124273D01*
X165384Y124372D01*
X165431Y124478D01*
X165493Y124591D01*
X165571Y124712D01*
X165668Y124840D01*
X165784Y124975D01*
X165940Y125137D01*
X166017Y125332D01*
X166343Y125658D01*
X166840Y126858D01*
Y128158D01*
X166343Y129358D01*
X166320Y129381D01*
X166846Y130651D01*
X180659D01*
X184569Y126740D01*
Y74277D01*
X184698Y73633D01*
X185063Y73087D01*
X186791Y71359D01*
X187337Y70994D01*
X187981Y70866D01*
X192864D01*
X193508Y70994D01*
X194055Y71359D01*
X196008Y73313D01*
X196373Y73859D01*
X196501Y74503D01*
Y132842D01*
X196373Y133486D01*
X196008Y134032D01*
X183039Y147001D01*
Y204866D01*
X183089Y204973D01*
X183096Y205115D01*
X183109Y205206D01*
X183132Y205299D01*
X183166Y205398D01*
X183213Y205504D01*
X183275Y205617D01*
X183353Y205738D01*
X183450Y205867D01*
X183566Y206001D01*
X183722Y206163D01*
X183799Y206358D01*
X184125Y206684D01*
X184622Y207884D01*
Y209184D01*
X184125Y210384D01*
X183206Y211303D01*
X182006Y211800D01*
X180706D01*
X179506Y211303D01*
X179229Y211026D01*
X177959Y211552D01*
Y231056D01*
X183595Y236692D01*
X183960Y237238D01*
X184088Y237882D01*
Y241117D01*
X183960Y241762D01*
X183595Y242308D01*
X179424Y246479D01*
X178877Y246844D01*
X178233Y246973D01*
X170698D01*
X159940Y257730D01*
X159394Y258095D01*
X158750Y258223D01*
X115505D01*
X110664Y263064D01*
X110118Y263429D01*
X109474Y263557D01*
X63824D01*
X63180Y263429D01*
X62634Y263064D01*
X60795Y261226D01*
X60430Y260679D01*
X60302Y260035D01*
Y254547D01*
X60430Y253903D01*
X60795Y253357D01*
X62358Y251794D01*
X62904Y251429D01*
X63548Y251301D01*
X73217D01*
X110243Y214275D01*
X110241Y214247D01*
X108947Y213746D01*
X98482Y224212D01*
X97815Y224657D01*
X97028Y224813D01*
X97028Y224813D01*
X32601D01*
X23556Y233860D01*
Y236431D01*
X23599Y236526D01*
X23613Y236904D01*
X23626Y237023D01*
X23644Y237131D01*
X23663Y237215D01*
X23681Y237275D01*
X23695Y237309D01*
X23698Y237314D01*
X23722Y237342D01*
X23729Y237362D01*
X23733Y237368D01*
X23736Y237382D01*
X23784Y237518D01*
X24057Y237792D01*
X24516Y238900D01*
Y240100D01*
X24057Y241208D01*
X23208Y242057D01*
X22100Y242516D01*
X20900D01*
X20561Y242376D01*
X19291Y243215D01*
Y245036D01*
X35830Y261575D01*
X53340D01*
X54232Y261753D01*
X54988Y262258D01*
X60322Y267592D01*
X60827Y268348D01*
X61005Y269240D01*
Y288693D01*
X84175Y311863D01*
X117852D01*
X118744Y312040D01*
X119500Y312546D01*
X127886Y320932D01*
X128391Y321688D01*
X128569Y322580D01*
Y337363D01*
X135951Y344745D01*
X136040Y344779D01*
X136362Y345085D01*
X136614Y345295D01*
X136696Y345354D01*
X136763Y345397D01*
X136795Y345414D01*
X136824Y345422D01*
X136837Y345432D01*
X136858Y345440D01*
X136890Y345472D01*
X136895Y345476D01*
X137302D01*
X138502Y345973D01*
X139421Y346892D01*
X139918Y348092D01*
Y349392D01*
X139421Y350592D01*
X139133Y350880D01*
X139133Y350885D01*
X139132Y350931D01*
X139124Y350952D01*
X139122Y350968D01*
X139107Y350994D01*
X139096Y351029D01*
X139079Y351106D01*
X139064Y351196D01*
X139024Y351746D01*
X139022Y351963D01*
X138983Y352053D01*
Y357687D01*
X141166Y359870D01*
X151902D01*
X151944Y359848D01*
X152009Y359798D01*
X152597Y359012D01*
X152691Y358634D01*
X152683Y358600D01*
X152427Y357473D01*
X152449Y357347D01*
X152400Y357229D01*
Y357229D01*
X152400Y357229D01*
Y345392D01*
X152373Y345326D01*
Y344027D01*
X152400Y343962D01*
X152400Y339788D01*
X152373Y339723D01*
Y338424D01*
X152400Y338358D01*
Y334185D01*
X152373Y334119D01*
Y332820D01*
X152400Y332755D01*
Y328582D01*
X152373Y328516D01*
Y327217D01*
X152400Y327151D01*
Y322978D01*
X152373Y322913D01*
Y321613D01*
X152870Y320413D01*
X153096Y320187D01*
X153120Y320129D01*
X153858Y319391D01*
X154061Y319307D01*
X154216Y319152D01*
X155181Y318753D01*
X155400Y318754D01*
X155603Y318670D01*
X156125Y318671D01*
X183586Y318671D01*
X184108Y318636D01*
X184316Y318706D01*
X184534Y318691D01*
X185596Y319050D01*
X185761Y319194D01*
X185968Y319264D01*
X186812Y320002D01*
X186909Y320198D01*
X187074Y320342D01*
X187571Y321347D01*
X187586Y321565D01*
X187683Y321761D01*
X187720Y322321D01*
X187708Y322358D01*
X187723Y322394D01*
X187723Y348927D01*
X187639Y349130D01*
Y349348D01*
X187273Y350232D01*
X187119Y350386D01*
X187035Y350588D01*
X186359Y351264D01*
X186157Y351348D01*
X186002Y351503D01*
X185119Y351869D01*
X184900D01*
X184698Y351952D01*
X184220D01*
X184220Y351953D01*
X181367D01*
X180841Y353223D01*
X181331Y353712D01*
X181828Y354912D01*
Y356212D01*
X181331Y357412D01*
X180412Y358331D01*
X179689Y358630D01*
X179942Y359900D01*
X193000D01*
X193995Y359900D01*
X194197Y359984D01*
X194415Y359984D01*
X196253Y360745D01*
X196408Y360900D01*
X196610Y360983D01*
X197089Y361462D01*
X198359Y360936D01*
D02*
G37*
G36*
X9323Y357239D02*
X9369Y356608D01*
X9397Y356438D01*
X9430Y356288D01*
X9470Y356158D01*
X9516Y356048D01*
X9567Y355958D01*
X9625Y355889D01*
X6475D01*
X6533Y355958D01*
X6585Y356048D01*
X6631Y356158D01*
X6671Y356288D01*
X6704Y356438D01*
X6732Y356608D01*
X6768Y357009D01*
X6780Y357489D01*
X9320D01*
X9323Y357239D01*
D02*
G37*
G36*
X177371Y358553D02*
X177850Y358140D01*
X177989Y358039D01*
X178119Y357956D01*
X178239Y357892D01*
X178349Y357847D01*
X178449Y357820D01*
X178540Y357812D01*
X176312Y355584D01*
X176304Y355675D01*
X176277Y355775D01*
X176231Y355885D01*
X176168Y356005D01*
X176085Y356135D01*
X175984Y356274D01*
X175727Y356584D01*
X175396Y356932D01*
X177192Y358728D01*
X177371Y358553D01*
D02*
G37*
G36*
X107309Y358491D02*
X107788Y358078D01*
X107927Y357977D01*
X108057Y357894D01*
X108177Y357831D01*
X108287Y357785D01*
X108387Y357758D01*
X108477Y357750D01*
X106250Y355522D01*
X106242Y355613D01*
X106215Y355713D01*
X106170Y355823D01*
X106106Y355943D01*
X106023Y356073D01*
X105922Y356213D01*
X105665Y356521D01*
X105334Y356870D01*
X107130Y358666D01*
X107309Y358491D01*
D02*
G37*
G36*
X37309D02*
X37787Y358078D01*
X37927Y357977D01*
X38057Y357894D01*
X38177Y357831D01*
X38287Y357785D01*
X38387Y357758D01*
X38477Y357750D01*
X36250Y355522D01*
X36242Y355613D01*
X36215Y355713D01*
X36170Y355823D01*
X36106Y355943D01*
X36023Y356073D01*
X35922Y356213D01*
X35665Y356521D01*
X35334Y356870D01*
X37130Y358666D01*
X37309Y358491D01*
D02*
G37*
G36*
X40177Y357017D02*
X40266Y356965D01*
X40376Y356920D01*
X40506Y356880D01*
X40656Y356846D01*
X40827Y356819D01*
X41227Y356782D01*
X41707Y356770D01*
Y354230D01*
X41457Y354227D01*
X40827Y354181D01*
X40656Y354154D01*
X40506Y354120D01*
X40376Y354081D01*
X40266Y354035D01*
X40177Y353983D01*
X40107Y353925D01*
Y357075D01*
X40177Y357017D01*
D02*
G37*
G36*
X137925Y351699D02*
X137971Y351068D01*
X137998Y350898D01*
X138032Y350748D01*
X138071Y350618D01*
X138117Y350508D01*
X138169Y350419D01*
X138227Y350349D01*
X135077D01*
X135135Y350419D01*
X135187Y350508D01*
X135232Y350618D01*
X135272Y350748D01*
X135306Y350898D01*
X135333Y351068D01*
X135370Y351469D01*
X135382Y351949D01*
X137922D01*
X137925Y351699D01*
D02*
G37*
G36*
X71759Y351460D02*
X71804Y350830D01*
X71832Y350660D01*
X71866Y350510D01*
X71905Y350380D01*
X71951Y350270D01*
X72003Y350180D01*
X72061Y350110D01*
X68911D01*
X68969Y350180D01*
X69021Y350270D01*
X69066Y350380D01*
X69106Y350510D01*
X69139Y350660D01*
X69167Y350830D01*
X69204Y351230D01*
X69216Y351711D01*
X71756D01*
X71759Y351460D01*
D02*
G37*
G36*
X136629Y346492D02*
X136539Y346484D01*
X136439Y346457D01*
X136329Y346412D01*
X136209Y346348D01*
X136079Y346265D01*
X135940Y346164D01*
X135631Y345907D01*
X135282Y345576D01*
X133486Y347372D01*
X133661Y347551D01*
X134074Y348030D01*
X134175Y348169D01*
X134258Y348299D01*
X134321Y348419D01*
X134367Y348529D01*
X134394Y348629D01*
X134402Y348719D01*
X136629Y346492D01*
D02*
G37*
G36*
X72003Y346827D02*
X71951Y346737D01*
X71905Y346627D01*
X71866Y346497D01*
X71832Y346347D01*
X71804Y346177D01*
X71768Y345777D01*
X71756Y345296D01*
X69216D01*
X69213Y345546D01*
X69167Y346177D01*
X69139Y346347D01*
X69106Y346497D01*
X69066Y346627D01*
X69021Y346737D01*
X68969Y346827D01*
X68911Y346897D01*
X72061D01*
X72003Y346827D01*
D02*
G37*
G36*
X156123Y359853D02*
X168123Y359853D01*
X168123Y359852D01*
X168621Y359853D01*
X169540Y359472D01*
X170243Y358769D01*
X170623Y357850D01*
X170623Y357353D01*
X170623Y351853D01*
X170623Y351853D01*
X170696Y351614D01*
X170973Y351200D01*
X171387Y350925D01*
X171875Y350828D01*
X172123Y350853D01*
X184220Y350853D01*
X184220Y350853D01*
X184698D01*
X185581Y350487D01*
X186257Y349811D01*
X186623Y348927D01*
X186623Y322394D01*
X186586Y321834D01*
X186089Y320830D01*
X185244Y320092D01*
X184182Y319733D01*
X183623Y319770D01*
X156123Y319770D01*
X155601Y319770D01*
X154636Y320168D01*
X153898Y320907D01*
X153499Y321872D01*
X153499Y322394D01*
X153499Y357229D01*
X153499Y357229D01*
X153499Y357229D01*
Y357229D01*
X153763Y358390D01*
X153898Y358716D01*
X154636Y359454D01*
X155601Y359853D01*
X156123Y359853D01*
D02*
G37*
G36*
X86460Y359800D02*
X98460Y359800D01*
X98460Y359800D01*
X98957Y359800D01*
X99876Y359420D01*
X100580Y358716D01*
X100960Y357797D01*
X100960Y357300D01*
X100960Y351800D01*
X100960Y351800D01*
X101033Y351561D01*
X101309Y351148D01*
X101723Y350872D01*
X102211Y350775D01*
X102460Y350800D01*
X114557Y350800D01*
X114557Y350800D01*
X115035D01*
X115918Y350434D01*
X116594Y349758D01*
X116960Y348875D01*
X116960Y322341D01*
X116922Y321782D01*
X116425Y320777D01*
X115581Y320039D01*
X114519Y319680D01*
X113960Y319718D01*
X86460Y319718D01*
X85938Y319717D01*
X84973Y320116D01*
X84234Y320854D01*
X83835Y321819D01*
X83836Y322341D01*
X83836Y357176D01*
X83836Y357176D01*
X83836Y357176D01*
Y357176D01*
X84100Y358337D01*
X84235Y358663D01*
X84973Y359401D01*
X85938Y359800D01*
X86460Y359800D01*
D02*
G37*
G36*
X16252D02*
X28252Y359800D01*
X28252Y359800D01*
X28749Y359800D01*
X29668Y359420D01*
X30371Y358716D01*
X30752Y357797D01*
X30752Y357300D01*
X30752Y351800D01*
X30752Y351800D01*
X30825Y351561D01*
X31102Y351148D01*
X31515Y350872D01*
X32003Y350775D01*
X32252Y350800D01*
X44349Y350800D01*
X44349Y350800D01*
X44827D01*
X45710Y350434D01*
X46386Y349758D01*
X46752Y348875D01*
X46752Y322341D01*
X46714Y321782D01*
X46217Y320777D01*
X45373Y320039D01*
X44311Y319680D01*
X43752Y319718D01*
X16252Y319718D01*
X15730Y319717D01*
X14765Y320116D01*
X14026Y320854D01*
X13628Y321819D01*
X13628Y322341D01*
X13628Y357176D01*
X13628Y357176D01*
X13628Y357176D01*
Y357176D01*
X13892Y358337D01*
X14027Y358663D01*
X14765Y359401D01*
X15730Y359800D01*
X16252Y359800D01*
D02*
G37*
G36*
X48676Y267304D02*
X48524Y267450D01*
X48369Y267580D01*
X48211Y267694D01*
X48049Y267794D01*
X47884Y267878D01*
X47716Y267947D01*
X47544Y268001D01*
X47368Y268039D01*
X47190Y268062D01*
X47008Y268069D01*
Y269339D01*
X47190Y269347D01*
X47368Y269370D01*
X47544Y269408D01*
X47716Y269462D01*
X47884Y269531D01*
X48049Y269615D01*
X48211Y269714D01*
X48369Y269829D01*
X48524Y269959D01*
X48676Y270104D01*
Y267304D01*
D02*
G37*
G36*
X68483Y259035D02*
X68573Y258983D01*
X68682Y258937D01*
X68812Y258897D01*
X68962Y258864D01*
X69132Y258836D01*
X69533Y258800D01*
X70013Y258787D01*
Y256247D01*
X69763Y256244D01*
X69132Y256199D01*
X68962Y256171D01*
X68812Y256138D01*
X68682Y256098D01*
X68573Y256052D01*
X68483Y256000D01*
X68413Y255942D01*
Y259092D01*
X68483Y259035D01*
D02*
G37*
G36*
X111308Y254493D02*
X111463Y254363D01*
X111621Y254248D01*
X111783Y254148D01*
X111948Y254064D01*
X112117Y253995D01*
X112289Y253942D01*
X112464Y253904D01*
X112642Y253881D01*
X112824Y253873D01*
Y252603D01*
X112642Y252595D01*
X112464Y252572D01*
X112289Y252534D01*
X112117Y252481D01*
X111948Y252412D01*
X111783Y252328D01*
X111621Y252228D01*
X111463Y252113D01*
X111308Y251983D01*
X111156Y251838D01*
Y254638D01*
X111308Y254493D01*
D02*
G37*
G36*
X144047Y241550D02*
X144304Y241315D01*
X144509Y241147D01*
X144592Y241089D01*
X144661Y241047D01*
X144717Y241022D01*
X144760Y241014D01*
X142780Y239034D01*
X142772Y239077D01*
X142747Y239133D01*
X142705Y239202D01*
X142101Y239895D01*
X141941Y240057D01*
X143737Y241853D01*
X144047Y241550D01*
D02*
G37*
G36*
X178480Y237500D02*
X178270Y237496D01*
X178068Y237478D01*
X177875Y237447D01*
X177691Y237403D01*
X177514Y237346D01*
X177346Y237275D01*
X177187Y237192D01*
X177036Y237095D01*
X176894Y236985D01*
X176759Y236861D01*
X175861Y237759D01*
X175985Y237894D01*
X176095Y238036D01*
X176192Y238187D01*
X176275Y238346D01*
X176346Y238514D01*
X176403Y238691D01*
X176447Y238875D01*
X176478Y239068D01*
X176496Y239270D01*
X176500Y239480D01*
X178480Y237500D01*
D02*
G37*
G36*
X22824Y237986D02*
X22756Y237886D01*
X22696Y237772D01*
X22644Y237643D01*
X22600Y237500D01*
X22564Y237342D01*
X22536Y237170D01*
X22516Y236984D01*
X22500Y236568D01*
X20500D01*
X20496Y236783D01*
X20464Y237170D01*
X20436Y237342D01*
X20400Y237500D01*
X20356Y237643D01*
X20304Y237772D01*
X20244Y237886D01*
X20176Y237986D01*
X20100Y238072D01*
X22900D01*
X22824Y237986D01*
D02*
G37*
G36*
X163552Y239205D02*
X163577Y239149D01*
X163619Y239079D01*
X163677Y238997D01*
X163845Y238792D01*
X164080Y238535D01*
X164383Y238225D01*
X162587Y236429D01*
X162425Y236589D01*
X161733Y237193D01*
X161663Y237235D01*
X161607Y237260D01*
X161564Y237268D01*
X163544Y239248D01*
X163552Y239205D01*
D02*
G37*
G36*
X97141Y239021D02*
X97155Y238914D01*
X97188Y238798D01*
X97242Y238673D01*
X97316Y238539D01*
X97409Y238396D01*
X97523Y238244D01*
X97810Y237913D01*
X97983Y237735D01*
X95829Y236296D01*
X95649Y236474D01*
X94936Y237097D01*
X94831Y237168D01*
X94739Y237222D01*
X94660Y237257D01*
X94593Y237275D01*
X97147Y239119D01*
X97141Y239021D01*
D02*
G37*
G36*
X146788Y238951D02*
X146813Y238895D01*
X146855Y238825D01*
X146913Y238743D01*
X147081Y238538D01*
X147316Y238281D01*
X147619Y237971D01*
X145823Y236175D01*
X145661Y236335D01*
X144969Y236939D01*
X144899Y236981D01*
X144843Y237006D01*
X144800Y237014D01*
X146780Y238994D01*
X146788Y238951D01*
D02*
G37*
G36*
X30296Y221305D02*
X30296Y221304D01*
X30963Y220859D01*
X31750Y220702D01*
X32083D01*
X32335Y219433D01*
X31820Y219219D01*
X30971Y218370D01*
X30512Y217262D01*
Y216062D01*
X30971Y214954D01*
X31820Y214105D01*
X32928Y213646D01*
X34128D01*
X35236Y214105D01*
X36085Y214954D01*
X36544Y216062D01*
Y217262D01*
X36085Y218370D01*
X35236Y219219D01*
X34721Y219433D01*
X34973Y220702D01*
X95208D01*
X95459Y220472D01*
X95176Y219600D01*
X94775Y219202D01*
X74572D01*
X73928Y219074D01*
X73382Y218709D01*
X70715Y216042D01*
X52673D01*
X52566Y216092D01*
X52424Y216099D01*
X52333Y216112D01*
X52240Y216135D01*
X52141Y216169D01*
X52035Y216216D01*
X51922Y216278D01*
X51801Y216356D01*
X51672Y216453D01*
X51538Y216569D01*
X51376Y216725D01*
X51181Y216802D01*
X50855Y217128D01*
X49655Y217625D01*
X48355D01*
X47155Y217128D01*
X46236Y216209D01*
X45739Y215009D01*
Y213709D01*
X46236Y212509D01*
X47155Y211590D01*
X48355Y211093D01*
X49655D01*
X50855Y211590D01*
X51181Y211916D01*
X51376Y211993D01*
X51538Y212149D01*
X51673Y212265D01*
X51801Y212362D01*
X51922Y212440D01*
X52035Y212502D01*
X52141Y212549D01*
X52239Y212583D01*
X52333Y212605D01*
X52424Y212619D01*
X52566Y212626D01*
X52673Y212676D01*
X59074D01*
X59600Y211406D01*
X59419Y211225D01*
X58960Y210117D01*
Y208917D01*
X59419Y207808D01*
X60268Y206960D01*
X61376Y206501D01*
X61762D01*
X61893Y206438D01*
X61905Y206430D01*
X61911Y206429D01*
X61931Y206419D01*
X61968Y206417D01*
X61973Y206415D01*
X62007Y206401D01*
X62062Y206372D01*
X62135Y206326D01*
X62213Y206270D01*
X62450Y206069D01*
X62579Y205944D01*
X62682Y205904D01*
X65255Y203331D01*
Y168999D01*
X62427Y166172D01*
X46672D01*
X46146Y167442D01*
X49710Y171006D01*
X50074Y171552D01*
X50202Y172196D01*
Y179539D01*
X50074Y180183D01*
X49710Y180729D01*
X39677Y190762D01*
X40203Y192031D01*
X45927D01*
X46014Y191993D01*
X46458Y191982D01*
X46784Y191952D01*
X46885Y191936D01*
X46962Y191918D01*
X46997Y191908D01*
X47023Y191893D01*
X47039Y191891D01*
X47060Y191882D01*
X47106Y191882D01*
X47111Y191881D01*
X47399Y191593D01*
X48599Y191096D01*
X49899D01*
X51099Y191593D01*
X52018Y192512D01*
X52515Y193713D01*
Y195012D01*
X52018Y196212D01*
X51099Y197131D01*
X49899Y197628D01*
X48599D01*
X47399Y197131D01*
X47111Y196843D01*
X47106Y196843D01*
X47060Y196843D01*
X47039Y196834D01*
X47023Y196832D01*
X46997Y196817D01*
X46961Y196806D01*
X46885Y196789D01*
X46794Y196774D01*
X46245Y196735D01*
X46028Y196732D01*
X45937Y196693D01*
X39775D01*
X19291Y217177D01*
Y230514D01*
X20561Y231040D01*
X30296Y221305D01*
D02*
G37*
G36*
X50797Y215755D02*
X50983Y215596D01*
X51170Y215455D01*
X51358Y215332D01*
X51548Y215229D01*
X51739Y215144D01*
X51931Y215079D01*
X52124Y215032D01*
X52318Y215003D01*
X52513Y214994D01*
Y213724D01*
X52318Y213715D01*
X52124Y213686D01*
X51931Y213639D01*
X51739Y213574D01*
X51548Y213489D01*
X51358Y213386D01*
X51170Y213263D01*
X50983Y213122D01*
X50797Y212963D01*
X50612Y212784D01*
Y215934D01*
X50797Y215755D01*
D02*
G37*
G36*
X112948Y214859D02*
X113090Y214749D01*
X113241Y214652D01*
X113400Y214569D01*
X113568Y214498D01*
X113745Y214441D01*
X113929Y214397D01*
X114122Y214366D01*
X114324Y214348D01*
X114534Y214344D01*
X112554Y212364D01*
X112550Y212574D01*
X112532Y212776D01*
X112501Y212969D01*
X112457Y213153D01*
X112400Y213330D01*
X112329Y213498D01*
X112246Y213657D01*
X112149Y213808D01*
X112039Y213950D01*
X111915Y214085D01*
X112813Y214983D01*
X112948Y214859D01*
D02*
G37*
G36*
X93010Y212266D02*
X92926Y212346D01*
X92828Y212418D01*
X92715Y212480D01*
X92587Y212535D01*
X92445Y212581D01*
X92289Y212619D01*
X92117Y212648D01*
X91932Y212669D01*
X91516Y212686D01*
X91600Y214686D01*
X91815Y214690D01*
X92203Y214720D01*
X92376Y214747D01*
X92534Y214781D01*
X92678Y214822D01*
X92808Y214872D01*
X92923Y214928D01*
X93024Y214993D01*
X93111Y215065D01*
X93010Y212266D01*
D02*
G37*
G36*
X109996Y201248D02*
X110542Y200883D01*
X111187Y200755D01*
X119377D01*
X120021Y200883D01*
X120568Y201248D01*
X124293Y204973D01*
X125405Y204886D01*
X126117Y203752D01*
X126104Y203720D01*
Y202520D01*
X126563Y201412D01*
X126774Y201201D01*
X126833Y201028D01*
X126951Y200894D01*
X127033Y200788D01*
X127102Y200686D01*
X127158Y200590D01*
X127203Y200496D01*
X127238Y200407D01*
X127264Y200320D01*
X127282Y200233D01*
X127293Y200145D01*
X127298Y200010D01*
X127349Y199901D01*
Y162448D01*
X125034Y160133D01*
X71093D01*
X70607Y161306D01*
X72957Y163656D01*
X73402Y164323D01*
X73559Y165110D01*
X73559Y165110D01*
Y207304D01*
X77885Y211631D01*
X91377D01*
X91470Y211587D01*
X91471Y211588D01*
X91472Y211587D01*
X91848Y211572D01*
X91963Y211559D01*
X92066Y211541D01*
X92146Y211522D01*
X92201Y211504D01*
X92228Y211493D01*
X92252Y211470D01*
X92273Y211462D01*
X92281Y211456D01*
X92300Y211451D01*
X92439Y211398D01*
X92780Y211057D01*
X93888Y210598D01*
X95088D01*
X96196Y211057D01*
X97045Y211906D01*
X97191Y212257D01*
X98677Y212567D01*
X109996Y201248D01*
D02*
G37*
G36*
X63983Y209382D02*
X64005Y209264D01*
X64044Y209140D01*
X64098Y209013D01*
X64168Y208880D01*
X64254Y208743D01*
X64356Y208602D01*
X64474Y208456D01*
X64756Y208151D01*
X63342Y206736D01*
X63187Y206886D01*
X62891Y207137D01*
X62750Y207239D01*
X62613Y207325D01*
X62480Y207395D01*
X62352Y207449D01*
X62229Y207488D01*
X62110Y207510D01*
X61996Y207517D01*
X63976Y209497D01*
X63983Y209382D01*
D02*
G37*
G36*
X147769Y207989D02*
X147924Y207859D01*
X148083Y207745D01*
X148245Y207645D01*
X148410Y207561D01*
X148578Y207492D01*
X148750Y207439D01*
X148925Y207400D01*
X149104Y207377D01*
X149286Y207370D01*
Y206100D01*
X149104Y206092D01*
X148925Y206069D01*
X148750Y206031D01*
X148578Y205977D01*
X148410Y205909D01*
X148245Y205824D01*
X148083Y205725D01*
X147924Y205610D01*
X147769Y205480D01*
X147618Y205335D01*
Y208135D01*
X147769Y207989D01*
D02*
G37*
G36*
X182752Y206742D02*
X182593Y206556D01*
X182452Y206369D01*
X182329Y206181D01*
X182226Y205991D01*
X182141Y205800D01*
X182076Y205608D01*
X182029Y205415D01*
X182000Y205221D01*
X181991Y205026D01*
X180721D01*
X180712Y205221D01*
X180683Y205415D01*
X180636Y205608D01*
X180571Y205800D01*
X180486Y205991D01*
X180383Y206181D01*
X180260Y206369D01*
X180119Y206556D01*
X179960Y206742D01*
X179781Y206927D01*
X182931D01*
X182752Y206742D01*
D02*
G37*
G36*
X130456Y201632D02*
X130306Y201488D01*
X130172Y201340D01*
X130054Y201187D01*
X129951Y201030D01*
X129864Y200869D01*
X129793Y200703D01*
X129738Y200533D01*
X129698Y200359D01*
X129675Y200180D01*
X129667Y199996D01*
X128397Y200055D01*
X128390Y200236D01*
X128368Y200414D01*
X128330Y200590D01*
X128279Y200763D01*
X128212Y200935D01*
X128131Y201103D01*
X128035Y201270D01*
X127924Y201434D01*
X127799Y201595D01*
X127659Y201755D01*
X130456Y201632D01*
D02*
G37*
G36*
X10246Y201263D02*
X10271Y201207D01*
X10312Y201137D01*
X10371Y201055D01*
X10539Y200850D01*
X10774Y200593D01*
X11077Y200283D01*
X9281Y198487D01*
X9119Y198647D01*
X8426Y199251D01*
X8357Y199293D01*
X8301Y199318D01*
X8258Y199326D01*
X10238Y201306D01*
X10246Y201263D01*
D02*
G37*
G36*
X47642Y192787D02*
X47572Y192845D01*
X47482Y192897D01*
X47372Y192943D01*
X47242Y192983D01*
X47092Y193016D01*
X46922Y193043D01*
X46522Y193080D01*
X46041Y193092D01*
Y195632D01*
X46292Y195635D01*
X46922Y195681D01*
X47092Y195709D01*
X47242Y195742D01*
X47372Y195782D01*
X47482Y195828D01*
X47572Y195879D01*
X47642Y195937D01*
Y192787D01*
D02*
G37*
G36*
X140391Y187702D02*
X140437Y187071D01*
X140464Y186901D01*
X140498Y186751D01*
X140538Y186621D01*
X140583Y186511D01*
X140635Y186421D01*
X140693Y186352D01*
X137543D01*
X137601Y186421D01*
X137653Y186511D01*
X137699Y186621D01*
X137738Y186751D01*
X137772Y186901D01*
X137799Y187071D01*
X137836Y187472D01*
X137848Y187952D01*
X140388D01*
X140391Y187702D01*
D02*
G37*
G36*
X41674Y180463D02*
X41736Y179546D01*
X41756Y179467D01*
X41778Y179410D01*
X41802Y179374D01*
X39002D01*
X39027Y179410D01*
X39049Y179467D01*
X39069Y179546D01*
X39086Y179646D01*
X39112Y179909D01*
X39127Y180257D01*
X39132Y180690D01*
X41672D01*
X41674Y180463D01*
D02*
G37*
G36*
X157878Y176744D02*
X158020Y176633D01*
X158171Y176537D01*
X158331Y176453D01*
X158499Y176382D01*
X158675Y176325D01*
X158860Y176281D01*
X159053Y176250D01*
X159254Y176232D01*
X159464Y176228D01*
X157485Y174248D01*
X157480Y174458D01*
X157462Y174660D01*
X157431Y174853D01*
X157387Y175038D01*
X157330Y175214D01*
X157260Y175382D01*
X157176Y175541D01*
X157079Y175692D01*
X156969Y175835D01*
X156846Y175969D01*
X157744Y176867D01*
X157878Y176744D01*
D02*
G37*
G36*
X41143Y171742D02*
X41107Y171767D01*
X41050Y171789D01*
X40971Y171809D01*
X40871Y171826D01*
X40608Y171852D01*
X40260Y171867D01*
X39826Y171872D01*
Y174412D01*
X40054Y174414D01*
X40971Y174476D01*
X41050Y174496D01*
X41107Y174518D01*
X41143Y174542D01*
Y171742D01*
D02*
G37*
G36*
X140068Y168626D02*
X139949Y168735D01*
X139817Y168833D01*
X139673Y168919D01*
X139516Y168994D01*
X139346Y169057D01*
X139164Y169109D01*
X138969Y169149D01*
X138762Y169178D01*
X138542Y169195D01*
X138309Y169201D01*
Y171201D01*
X138542Y171207D01*
X138762Y171224D01*
X138969Y171253D01*
X139164Y171293D01*
X139346Y171345D01*
X139516Y171408D01*
X139673Y171483D01*
X139817Y171569D01*
X139949Y171667D01*
X140068Y171776D01*
Y168626D01*
D02*
G37*
G36*
X9898Y165371D02*
X9955Y165350D01*
X10033Y165331D01*
X10132Y165315D01*
X10395Y165290D01*
X10949Y165271D01*
X11177Y165270D01*
X11205Y162730D01*
X10978Y162729D01*
X10060Y162664D01*
X9981Y162644D01*
X9923Y162621D01*
X9887Y162595D01*
X9862Y165395D01*
X9898Y165371D01*
D02*
G37*
G36*
X27432Y164000D02*
X24892Y160190D01*
X24867Y160673D01*
X24790Y161104D01*
X24663Y161485D01*
X24486Y161816D01*
X24257Y162095D01*
X23978Y162324D01*
X23647Y162501D01*
X23266Y162628D01*
X22835Y162705D01*
X22352Y162730D01*
Y165270D01*
X22835Y165295D01*
X23266Y165372D01*
X23647Y165499D01*
X23978Y165676D01*
X24257Y165905D01*
X24486Y166184D01*
X24663Y166515D01*
X24790Y166896D01*
X24867Y167327D01*
X24892Y167810D01*
X27432Y164000D01*
D02*
G37*
G36*
X161589Y159285D02*
X161429Y159123D01*
X160825Y158431D01*
X160783Y158361D01*
X160758Y158305D01*
X160750Y158262D01*
X158770Y160242D01*
X158813Y160250D01*
X158869Y160275D01*
X158939Y160317D01*
X159021Y160375D01*
X159226Y160543D01*
X159483Y160778D01*
X159793Y161081D01*
X161589Y159285D01*
D02*
G37*
G36*
X41493Y152818D02*
X41515Y152640D01*
X41554Y152464D01*
X41607Y152292D01*
X41676Y152124D01*
X41760Y151959D01*
X41860Y151797D01*
X41975Y151639D01*
X42105Y151484D01*
X42250Y151332D01*
X39450D01*
X39595Y151484D01*
X39725Y151639D01*
X39840Y151797D01*
X39939Y151959D01*
X40024Y152124D01*
X40093Y152292D01*
X40146Y152464D01*
X40184Y152640D01*
X40207Y152818D01*
X40215Y153000D01*
X41485D01*
X41493Y152818D01*
D02*
G37*
G36*
X51363Y151896D02*
X51390Y151796D01*
X51435Y151686D01*
X51499Y151566D01*
X51582Y151436D01*
X51682Y151296D01*
X51940Y150987D01*
X52271Y150639D01*
X50475Y148843D01*
X50296Y149018D01*
X49817Y149431D01*
X49678Y149532D01*
X49548Y149614D01*
X49428Y149678D01*
X49318Y149724D01*
X49218Y149750D01*
X49127Y149759D01*
X51355Y151986D01*
X51363Y151896D01*
D02*
G37*
G36*
X23623Y145520D02*
X23686Y144602D01*
X23705Y144524D01*
X23727Y144466D01*
X23752Y144430D01*
X20952D01*
X20977Y144466D01*
X20999Y144524D01*
X21018Y144602D01*
X21035Y144702D01*
X21061Y144965D01*
X21077Y145314D01*
X21082Y145747D01*
X23622D01*
X23623Y145520D01*
D02*
G37*
G36*
X55894Y144652D02*
X56080Y144493D01*
X56267Y144352D01*
X56455Y144229D01*
X56645Y144126D01*
X56836Y144041D01*
X57028Y143976D01*
X57221Y143929D01*
X57415Y143900D01*
X57611Y143891D01*
Y142621D01*
X57415Y142612D01*
X57221Y142583D01*
X57028Y142536D01*
X56836Y142471D01*
X56645Y142386D01*
X56455Y142283D01*
X56267Y142160D01*
X56080Y142019D01*
X55894Y141860D01*
X55709Y141681D01*
Y144831D01*
X55894Y144652D01*
D02*
G37*
G36*
X48449Y143273D02*
X48432Y143044D01*
X48434Y142824D01*
X48454Y142614D01*
X48494Y142414D01*
X48553Y142224D01*
X48632Y142044D01*
X48729Y141874D01*
X48846Y141714D01*
X48981Y141564D01*
X47916Y140833D01*
X47779Y140959D01*
X47627Y141076D01*
X47462Y141185D01*
X47282Y141285D01*
X47088Y141377D01*
X46879Y141461D01*
X46656Y141536D01*
X46168Y141662D01*
X45902Y141712D01*
X48486Y143513D01*
X48449Y143273D01*
D02*
G37*
G36*
X23727Y141538D02*
X23705Y141480D01*
X23686Y141402D01*
X23669Y141302D01*
X23643Y141039D01*
X23627Y140690D01*
X23622Y140257D01*
X21082D01*
X21081Y140484D01*
X21018Y141402D01*
X20999Y141480D01*
X20977Y141538D01*
X20952Y141574D01*
X23752D01*
X23727Y141538D01*
D02*
G37*
G36*
X159994Y137483D02*
X160046Y137469D01*
X160121Y137456D01*
X160217Y137445D01*
X160637Y137422D01*
X161254Y137414D01*
X161493Y134874D01*
X161266Y134872D01*
X160446Y134814D01*
X160345Y134792D01*
X160264Y134767D01*
X160204Y134738D01*
X160165Y134706D01*
X159964Y137499D01*
X159994Y137483D01*
D02*
G37*
G36*
X158620Y134000D02*
X158577Y133992D01*
X158521Y133967D01*
X158451Y133925D01*
X158369Y133867D01*
X158164Y133699D01*
X157907Y133464D01*
X157597Y133161D01*
X155801Y134957D01*
X155961Y135119D01*
X156565Y135812D01*
X156607Y135881D01*
X156632Y135937D01*
X156640Y135980D01*
X158620Y134000D01*
D02*
G37*
G36*
X100131Y133956D02*
X100159Y133762D01*
X100206Y133569D01*
X100272Y133377D01*
X100356Y133186D01*
X100460Y132997D01*
X100582Y132808D01*
X100723Y132621D01*
X100883Y132435D01*
X101061Y132250D01*
X97911D01*
X98090Y132435D01*
X98250Y132621D01*
X98391Y132808D01*
X98513Y132997D01*
X98616Y133186D01*
X98701Y133377D01*
X98767Y133569D01*
X98814Y133762D01*
X98842Y133956D01*
X98851Y134152D01*
X100121D01*
X100131Y133956D01*
D02*
G37*
G36*
X129539Y133324D02*
X129554Y133156D01*
X129579Y133003D01*
X129613Y132864D01*
X129658Y132738D01*
X129713Y132626D01*
X129777Y132528D01*
X129852Y132444D01*
X129936Y132374D01*
X130031Y132318D01*
X127802Y132186D01*
X127890Y132254D01*
X127968Y132335D01*
X128038Y132431D01*
X128098Y132542D01*
X128148Y132667D01*
X128190Y132806D01*
X128222Y132959D01*
X128245Y133126D01*
X128259Y133308D01*
X128264Y133505D01*
X129534D01*
X129539Y133324D01*
D02*
G37*
G36*
X30486Y130684D02*
X30304Y130506D01*
X30141Y130325D01*
X29998Y130142D01*
X29873Y129958D01*
X29768Y129771D01*
X29682Y129583D01*
X29615Y129392D01*
X29567Y129199D01*
X29538Y129005D01*
X29529Y128808D01*
X28259Y128845D01*
X28249Y129039D01*
X28222Y129233D01*
X28176Y129426D01*
X28111Y129620D01*
X28028Y129812D01*
X27927Y130005D01*
X27807Y130197D01*
X27669Y130389D01*
X27512Y130580D01*
X27337Y130772D01*
X30486Y130684D01*
D02*
G37*
G36*
X107632Y129365D02*
X107502Y129210D01*
X107387Y129052D01*
X107288Y128890D01*
X107203Y128725D01*
X107135Y128556D01*
X107081Y128385D01*
X107043Y128209D01*
X107020Y128031D01*
X107012Y127849D01*
X105742D01*
X105735Y128031D01*
X105711Y128209D01*
X105673Y128385D01*
X105620Y128556D01*
X105551Y128725D01*
X105467Y128890D01*
X105367Y129052D01*
X105253Y129210D01*
X105122Y129365D01*
X104977Y129517D01*
X107777D01*
X107632Y129365D01*
D02*
G37*
G36*
X154552Y140676D02*
X152076Y138200D01*
X151711Y137654D01*
X151583Y137010D01*
Y110443D01*
X151532Y110335D01*
X151527Y110200D01*
X151516Y110116D01*
X151498Y110034D01*
X151473Y109953D01*
X151439Y109871D01*
X151396Y109786D01*
X151341Y109697D01*
X151274Y109604D01*
X151192Y109507D01*
X151072Y109381D01*
X150997Y109188D01*
X150709Y108901D01*
X150250Y107792D01*
Y106592D01*
X150709Y105484D01*
X151558Y104635D01*
X152666Y104176D01*
X153476D01*
X154098Y103002D01*
X152487Y101391D01*
X132966D01*
X130402Y103955D01*
Y109305D01*
X130441Y109396D01*
X130446Y109811D01*
X130459Y110112D01*
X130478Y110295D01*
X130628Y110445D01*
X131087Y111554D01*
Y112754D01*
X130628Y113862D01*
X129780Y114711D01*
X128671Y115170D01*
X127471D01*
X127009Y114978D01*
X125739Y115746D01*
Y127180D01*
X126940Y127753D01*
X126960Y127755D01*
X127182Y127533D01*
X128382Y127036D01*
X129682D01*
X130882Y127533D01*
X131801Y128452D01*
X132298Y129652D01*
Y130952D01*
X131801Y132152D01*
X130882Y133071D01*
X130773Y133116D01*
X130761Y133140D01*
X130676Y133170D01*
X130674Y133174D01*
X130667Y133182D01*
X130657Y133224D01*
X130646Y133293D01*
X130637Y133388D01*
X130633Y133535D01*
X130530Y133765D01*
X130454Y134149D01*
X130089Y134695D01*
X127958Y136826D01*
X127412Y137191D01*
X126768Y137319D01*
X122513D01*
X121869Y137191D01*
X121323Y136826D01*
X119125Y134629D01*
X117952Y135115D01*
Y136461D01*
X117824Y137105D01*
X117459Y137652D01*
X114434Y140676D01*
X114920Y141850D01*
X154066D01*
X154552Y140676D01*
D02*
G37*
G36*
X164970Y125716D02*
X164811Y125530D01*
X164670Y125343D01*
X164547Y125155D01*
X164444Y124965D01*
X164359Y124774D01*
X164294Y124582D01*
X164247Y124389D01*
X164218Y124195D01*
X164209Y124000D01*
X162939D01*
X162930Y124195D01*
X162901Y124389D01*
X162854Y124582D01*
X162789Y124774D01*
X162704Y124965D01*
X162601Y125155D01*
X162478Y125343D01*
X162337Y125530D01*
X162178Y125716D01*
X161999Y125901D01*
X165149D01*
X164970Y125716D01*
D02*
G37*
G36*
X118507Y118573D02*
X118530Y118394D01*
X118568Y118219D01*
X118622Y118047D01*
X118691Y117879D01*
X118775Y117714D01*
X118874Y117552D01*
X118989Y117394D01*
X119119Y117239D01*
X119264Y117087D01*
X116464D01*
X116610Y117239D01*
X116740Y117394D01*
X116855Y117552D01*
X116954Y117714D01*
X117038Y117879D01*
X117107Y118047D01*
X117161Y118219D01*
X117199Y118394D01*
X117222Y118573D01*
X117229Y118755D01*
X118499D01*
X118507Y118573D01*
D02*
G37*
G36*
X95173Y114942D02*
X95205Y114555D01*
X95233Y114383D01*
X95269Y114225D01*
X95313Y114082D01*
X95365Y113953D01*
X95425Y113839D01*
X95493Y113739D01*
X95569Y113653D01*
X92769D01*
X92845Y113739D01*
X92913Y113839D01*
X92973Y113953D01*
X93025Y114082D01*
X93069Y114225D01*
X93105Y114383D01*
X93133Y114555D01*
X93153Y114741D01*
X93169Y115157D01*
X95169D01*
X95173Y114942D01*
D02*
G37*
G36*
X102096Y114871D02*
X102128Y114484D01*
X102156Y114312D01*
X102192Y114154D01*
X102236Y114011D01*
X102288Y113882D01*
X102348Y113768D01*
X102416Y113668D01*
X102492Y113582D01*
X99692D01*
X99768Y113668D01*
X99836Y113768D01*
X99896Y113882D01*
X99948Y114011D01*
X99992Y114154D01*
X100028Y114312D01*
X100056Y114484D01*
X100076Y114670D01*
X100092Y115086D01*
X102092D01*
X102096Y114871D01*
D02*
G37*
G36*
X129447Y110690D02*
X129425Y110632D01*
X129405Y110554D01*
X129388Y110454D01*
X129362Y110190D01*
X129347Y109842D01*
X129341Y109409D01*
X126801D01*
X126800Y109636D01*
X126738Y110554D01*
X126718Y110632D01*
X126696Y110690D01*
X126671Y110726D01*
X129471D01*
X129447Y110690D01*
D02*
G37*
G36*
X153909Y110107D02*
X153932Y109928D01*
X153970Y109753D01*
X154024Y109581D01*
X154092Y109412D01*
X154177Y109247D01*
X154276Y109086D01*
X154391Y108927D01*
X154521Y108772D01*
X154666Y108621D01*
X151866D01*
X152011Y108772D01*
X152142Y108927D01*
X152256Y109086D01*
X152356Y109247D01*
X152440Y109412D01*
X152509Y109581D01*
X152562Y109753D01*
X152600Y109928D01*
X152624Y110107D01*
X152631Y110289D01*
X153901D01*
X153909Y110107D01*
D02*
G37*
G36*
X38119Y108679D02*
X38812Y108075D01*
X38881Y108033D01*
X38937Y108008D01*
X38980Y108000D01*
X37000Y106020D01*
X36992Y106063D01*
X36967Y106119D01*
X36925Y106188D01*
X36867Y106271D01*
X36699Y106476D01*
X36464Y106733D01*
X36161Y107043D01*
X37957Y108839D01*
X38119Y108679D01*
D02*
G37*
G36*
X40464Y107375D02*
X40522Y107353D01*
X40600Y107334D01*
X40700Y107317D01*
X40964Y107291D01*
X41312Y107275D01*
X41745Y107270D01*
Y104730D01*
X41518Y104729D01*
X40600Y104666D01*
X40522Y104647D01*
X40464Y104625D01*
X40428Y104600D01*
Y107400D01*
X40464Y107375D01*
D02*
G37*
G36*
X40442Y100823D02*
X40597Y100693D01*
X40755Y100578D01*
X40917Y100478D01*
X41082Y100394D01*
X41251Y100325D01*
X41423Y100272D01*
X41598Y100234D01*
X41776Y100211D01*
X41958Y100203D01*
Y98933D01*
X41776Y98925D01*
X41598Y98902D01*
X41423Y98864D01*
X41251Y98811D01*
X41082Y98742D01*
X40917Y98658D01*
X40755Y98558D01*
X40597Y98443D01*
X40442Y98313D01*
X40290Y98168D01*
Y100968D01*
X40442Y100823D01*
D02*
G37*
G36*
X191833Y80318D02*
X191896Y79400D01*
X191915Y79322D01*
X191937Y79264D01*
X191962Y79228D01*
X189162D01*
X189187Y79264D01*
X189209Y79322D01*
X189228Y79400D01*
X189245Y79500D01*
X189271Y79764D01*
X189287Y80112D01*
X189292Y80545D01*
X191832D01*
X191833Y80318D01*
D02*
G37*
G36*
X61336Y19415D02*
X61338Y19164D01*
X61381Y18533D01*
X61407Y18363D01*
X61438Y18213D01*
X61476Y18083D01*
X61518Y17973D01*
X61567Y17884D01*
X61621Y17814D01*
X58472Y17906D01*
X58534Y17976D01*
X58589Y18066D01*
X58637Y18175D01*
X58679Y18305D01*
X58715Y18455D01*
X58744Y18625D01*
X58783Y19025D01*
X58792Y19255D01*
X58796Y19504D01*
X61336Y19415D01*
D02*
G37*
G36*
X45083Y121955D02*
X45629Y121590D01*
X46273Y121462D01*
X76310D01*
X92436Y105336D01*
X92982Y104971D01*
X93626Y104843D01*
X102948D01*
X103593Y104971D01*
X104139Y105336D01*
X104948Y106145D01*
X106122Y105659D01*
Y35096D01*
X88713Y17687D01*
X82668D01*
X82561Y17737D01*
X82419Y17744D01*
X82328Y17757D01*
X82235Y17780D01*
X82136Y17814D01*
X82030Y17861D01*
X81917Y17923D01*
X81796Y18001D01*
X81667Y18098D01*
X81533Y18213D01*
X81371Y18370D01*
X81176Y18447D01*
X80850Y18773D01*
X79650Y19270D01*
X78350D01*
X77150Y18773D01*
X76231Y17854D01*
X75734Y16654D01*
Y15354D01*
X76231Y14154D01*
X76764Y13621D01*
X76238Y12351D01*
X68497D01*
X67215Y13633D01*
Y24384D01*
X67087Y25028D01*
X66722Y25574D01*
X65437Y26859D01*
Y100992D01*
X65309Y101636D01*
X64944Y102183D01*
X54685Y112442D01*
X54138Y112807D01*
X53494Y112935D01*
X39305D01*
X30577Y121664D01*
Y128649D01*
X30627Y128755D01*
X30634Y128898D01*
X30647Y128986D01*
X30669Y129076D01*
X30703Y129171D01*
X30749Y129272D01*
X30809Y129379D01*
X30887Y129494D01*
X30983Y129616D01*
X31098Y129744D01*
X31256Y129899D01*
X31342Y130101D01*
X31725Y130484D01*
X32222Y131684D01*
Y132984D01*
X32197Y133045D01*
X33273Y133764D01*
X45083Y121955D01*
D02*
G37*
G36*
X117638Y19512D02*
X117647Y19316D01*
X117676Y19122D01*
X117723Y18929D01*
X117788Y18737D01*
X117873Y18546D01*
X117976Y18356D01*
X118098Y18168D01*
X118239Y17980D01*
X118399Y17794D01*
X118577Y17609D01*
X115427Y17613D01*
X115606Y17797D01*
X115766Y17983D01*
X115907Y18170D01*
X116029Y18359D01*
X116133Y18548D01*
X116217Y18739D01*
X116283Y18930D01*
X116330Y19124D01*
X116359Y19318D01*
X116368Y19513D01*
X117638Y19512D01*
D02*
G37*
G36*
X100930Y18036D02*
X100798Y17891D01*
X100681Y17734D01*
X100577Y17564D01*
X100488Y17382D01*
X100413Y17187D01*
X100352Y16980D01*
X100306Y16760D01*
X100273Y16528D01*
X100254Y16284D01*
X100250Y16027D01*
X98022Y18254D01*
X98279Y18258D01*
X98524Y18277D01*
X98756Y18310D01*
X98976Y18356D01*
X99183Y18417D01*
X99378Y18492D01*
X99560Y18582D01*
X99730Y18685D01*
X99887Y18802D01*
X100032Y18934D01*
X100930Y18036D01*
D02*
G37*
G36*
X80792Y17400D02*
X80978Y17241D01*
X81165Y17100D01*
X81353Y16977D01*
X81543Y16874D01*
X81734Y16789D01*
X81926Y16724D01*
X82119Y16677D01*
X82313Y16648D01*
X82508Y16639D01*
Y15369D01*
X82313Y15360D01*
X82119Y15331D01*
X81926Y15284D01*
X81734Y15219D01*
X81543Y15134D01*
X81353Y15031D01*
X81165Y14908D01*
X80978Y14767D01*
X80792Y14608D01*
X80607Y14429D01*
Y17579D01*
X80792Y17400D01*
D02*
G37*
G36*
X196699Y43543D02*
X197543Y42699D01*
X198000Y41597D01*
Y3447D01*
X197420Y2580D01*
X196310Y1838D01*
X196198Y1815D01*
X195000Y1641D01*
Y1641D01*
X164116D01*
X163457Y2301D01*
X163000Y3403D01*
Y18000D01*
Y40796D01*
X163609Y42266D01*
X164734Y43391D01*
X166204Y44000D01*
X195597D01*
X196699Y43543D01*
D02*
G37*
%LPC*%
G36*
X39150Y242766D02*
X37850D01*
X36650Y242269D01*
X35731Y241350D01*
X35234Y240150D01*
Y238850D01*
X35731Y237650D01*
X36650Y236731D01*
X37850Y236234D01*
X39150D01*
X40350Y236731D01*
X41269Y237650D01*
X41766Y238850D01*
Y240150D01*
X41269Y241350D01*
X40350Y242269D01*
X39150Y242766D01*
D02*
G37*
G36*
X180876Y91408D02*
X179676D01*
X178568Y90949D01*
X177719Y90100D01*
X177260Y88992D01*
Y87792D01*
X177719Y86684D01*
X178568Y85835D01*
X178712Y85775D01*
Y84401D01*
X178568Y84341D01*
X177719Y83492D01*
X177260Y82384D01*
Y81184D01*
X177719Y80076D01*
X178568Y79227D01*
X179676Y78768D01*
X180876D01*
X181984Y79227D01*
X182833Y80076D01*
X183292Y81184D01*
Y82384D01*
X182833Y83492D01*
X181984Y84341D01*
X181840Y84401D01*
Y85775D01*
X181984Y85835D01*
X182833Y86684D01*
X183292Y87792D01*
Y88992D01*
X182833Y90100D01*
X181984Y90949D01*
X180876Y91408D01*
D02*
G37*
%LPD*%
D11*
X22352Y122648D02*
Y143002D01*
Y122648D02*
X39000Y106000D01*
X22352Y143002D02*
Y151793D01*
X26162Y155604D01*
Y164000D01*
X38500Y355500D02*
X57800D01*
X63754Y313683D02*
Y349546D01*
X57800Y355500D02*
X63754Y349546D01*
X83210Y314194D02*
X117852D01*
X58674Y269240D02*
Y289658D01*
X83210Y314194D01*
X46805Y296733D02*
X63754Y313683D01*
X31677Y362323D02*
X38500Y355500D01*
X8051Y357995D02*
X12379Y362323D01*
X31677D01*
X8051Y354282D02*
Y357995D01*
X46805Y282517D02*
Y296733D01*
X41577Y277289D02*
X46805Y282517D01*
X6160Y252890D02*
X30559Y277289D01*
X41577D01*
X52425Y292507D02*
X70486Y310567D01*
X10922Y251003D02*
X32232Y272313D01*
X43713D01*
X52425Y281025D01*
Y292507D01*
X53340Y263906D02*
X58674Y269240D01*
X117852Y314194D02*
X126238Y322580D01*
Y338328D01*
X136652Y348742D01*
X70486Y310567D02*
Y348503D01*
X10922Y212547D02*
Y251003D01*
X137922Y245872D02*
X164024Y219770D01*
Y163516D02*
Y219770D01*
X157534Y149098D02*
X167968Y159532D01*
X161544Y239268D02*
X167968Y232844D01*
Y159532D02*
Y232844D01*
X153452Y99060D02*
X157806Y103414D01*
Y118620D01*
X156187Y120239D02*
X157806Y118620D01*
X156187Y120239D02*
Y133547D01*
X158640Y136000D01*
X132001Y99060D02*
X153452D01*
X130936Y227838D02*
X139118Y219655D01*
Y184745D02*
Y219655D01*
X6160Y211462D02*
X31750Y185871D01*
Y176784D02*
Y185871D01*
X6160Y211462D02*
Y252890D01*
X66806Y257517D02*
X96559D01*
X108204Y245872D02*
X137922D01*
X96559Y257517D02*
X108204Y245872D01*
X106083Y227838D02*
X130936D01*
X94930Y238992D02*
X106083Y227838D01*
X34865Y263906D02*
X53340D01*
X16960Y246001D02*
X34865Y263906D01*
X158750Y158242D02*
X164024Y163516D01*
X77724Y362458D02*
X101542D01*
X70486Y355220D02*
X77724Y362458D01*
X101542D02*
X108500Y355500D01*
X70486Y348503D02*
Y355220D01*
X136652Y358652D02*
X140200Y362200D01*
X171924D02*
X178562Y355562D01*
X140200Y362200D02*
X171924D01*
X136652Y348742D02*
Y358652D01*
X94930Y238992D02*
Y239500D01*
X16960Y216212D02*
X38810Y194362D01*
X49249D01*
X26162Y164000D02*
Y183402D01*
X8238Y201326D02*
X26162Y183402D01*
X31750Y176784D02*
X35392Y173142D01*
X42571D01*
X40402Y177945D02*
Y183067D01*
X10922Y212547D02*
X40402Y183067D01*
X16960Y216212D02*
Y246001D01*
X128071Y102990D02*
Y112154D01*
X8464Y164000D02*
X26162D01*
X52016Y149098D02*
X157534D01*
X8446Y163983D02*
X8464Y164000D01*
X128071Y102990D02*
X132001Y99060D01*
X49105Y152009D02*
X52016Y149098D01*
X158784Y136144D02*
X185674D01*
X60000Y16254D02*
X60066Y16320D01*
Y98934D01*
X53000Y106000D02*
X60066Y98934D01*
X185674Y136144D02*
X190562Y131256D01*
Y77800D02*
Y131256D01*
X39000Y106000D02*
X53000D01*
D14*
X47347Y125881D02*
X85814D01*
X32738Y140490D02*
Y161096D01*
Y140490D02*
X47347Y125881D01*
X36521Y141279D02*
X47679Y130121D01*
X87772D01*
X36521Y141279D02*
Y158441D01*
X97028Y222758D02*
X113284Y206502D01*
X21500Y233008D02*
X31750Y222758D01*
X21500Y233008D02*
Y239500D01*
X31750Y222758D02*
X97028D01*
X67310Y168148D02*
Y204183D01*
X35758Y164117D02*
X63279D01*
X67310Y168148D01*
X61976Y209517D02*
X67310Y204183D01*
X122936Y211836D02*
X131220D01*
X117602Y206502D02*
X122936Y211836D01*
X131220D02*
X135832Y207224D01*
Y193430D02*
Y207224D01*
X113284Y206502D02*
X117602D01*
X77034Y213686D02*
X94416D01*
X94488Y213614D01*
X71503Y208155D02*
X77034Y213686D01*
X32738Y161096D02*
X35758Y164117D01*
X39181Y161101D02*
X67494D01*
X71503Y165110D01*
Y208155D01*
X101092Y112154D02*
Y116802D01*
X87772Y130121D02*
X101092Y116802D01*
X94169Y112225D02*
Y117526D01*
X85814Y125881D02*
X94169Y117526D01*
X134598Y172761D02*
Y192196D01*
Y172761D02*
X137158Y170201D01*
X141675D01*
X134598Y192196D02*
X135832Y193430D01*
X36521Y158441D02*
X39181Y161101D01*
D73*
X110903Y28907D02*
Y133539D01*
X98000Y16004D02*
X110903Y28907D01*
X28893Y120967D02*
Y132271D01*
X28956Y132334D01*
X28893Y120967D02*
X38608Y111252D01*
X30078Y139340D02*
Y164043D01*
X46273Y123145D02*
X77007D01*
X30078Y139340D02*
X46273Y123145D01*
X86995Y146177D02*
X161499D01*
X171450Y156128D02*
Y237490D01*
X161499Y146177D02*
X171450Y156128D01*
X173736Y152147D02*
Y234736D01*
X91948Y143533D02*
X165122D01*
X173736Y152147D01*
X176276Y148253D02*
Y231754D01*
X156972Y140716D02*
X168739D01*
X176276Y148253D01*
X194818Y74503D02*
Y132842D01*
X187981Y72549D02*
X192864D01*
X194818Y74503D01*
X186253Y74277D02*
X187981Y72549D01*
X186253Y74277D02*
Y127437D01*
X181356Y132334D02*
X186253Y127437D01*
X181356Y146304D02*
Y208534D01*
X63824Y261874D02*
X109474D01*
X178233Y245289D02*
X182405Y241117D01*
X109474Y261874D02*
X114808Y256540D01*
X158750D01*
X170001Y245289D01*
X178233D01*
X125436Y81748D02*
X136528Y92840D01*
X122381Y8382D02*
X125436Y11437D01*
Y81748D01*
X122609Y83239D02*
X135353Y95983D01*
X120313Y10668D02*
X122609Y12964D01*
Y83239D01*
X79000Y16004D02*
X89410D01*
X107805Y34399D02*
Y119126D01*
X89410Y16004D02*
X107805Y34399D01*
X38862Y99568D02*
X52064D01*
X55372Y12428D02*
Y96260D01*
X52064Y99568D02*
X55372Y96260D01*
Y12428D02*
X59418Y8382D01*
X122381D01*
X142697Y178856D02*
X144526Y180684D01*
Y202876D01*
X142284Y205117D02*
X144526Y202876D01*
X142697Y175234D02*
Y178856D01*
X145261Y211328D02*
X153416D01*
X155579Y178133D02*
Y209165D01*
X153416Y211328D02*
X155579Y209165D01*
X181356Y146304D02*
X194818Y132842D01*
X155702Y253238D02*
X171450Y237490D01*
X176276Y231754D02*
X182405Y237882D01*
Y241117D01*
X173736Y234736D02*
X178500Y239500D01*
X136528Y92840D02*
X160404D01*
X163574Y96010D01*
X157204Y95983D02*
X160727Y99506D01*
X135353Y95983D02*
X157204D01*
X160727Y99506D02*
Y119830D01*
X38608Y111252D02*
X53494D01*
X63754Y26162D02*
Y100992D01*
X53494Y111252D02*
X63754Y100992D01*
X65532Y12936D02*
X67800Y10668D01*
X120313D01*
X162524Y132334D02*
X181356D01*
X159258Y129068D02*
X162524Y132334D01*
X159258Y121299D02*
Y129068D01*
Y121299D02*
X160727Y119830D01*
X163574Y96010D02*
Y127508D01*
X65532Y12936D02*
Y24384D01*
X63754Y26162D02*
X65532Y24384D01*
X149321Y152549D02*
X153095Y156324D01*
Y203965D01*
X123964Y207025D02*
X131303D01*
X133096Y205232D01*
Y198120D02*
Y205232D01*
X129032Y161751D02*
Y203032D01*
X125731Y158450D02*
X129032Y161751D01*
Y203032D02*
X129120Y203120D01*
X142284Y205117D02*
Y208352D01*
X145261Y211328D01*
X150325Y206735D02*
X153095Y203965D01*
X146189Y206735D02*
X150325D01*
X111187Y202438D02*
X119377D01*
X123964Y207025D01*
X131318Y196342D02*
X133096Y198120D01*
X131318Y167894D02*
Y196342D01*
X134366Y164846D02*
X142196D01*
X131318Y167894D02*
X134366Y164846D01*
X43941Y158450D02*
X125731D01*
X142196Y164846D02*
X145830Y168480D01*
X142697Y175234D02*
X145830Y172102D01*
Y168480D02*
Y172102D01*
X96105Y217519D02*
X111187Y202438D01*
X155579Y178133D02*
X159484Y174228D01*
X74572Y217519D02*
X96105D01*
X71412Y214359D02*
X74572Y217519D01*
X49005Y214359D02*
X71412D01*
X14039Y214019D02*
Y248462D01*
Y214019D02*
X48519Y179539D01*
Y172196D02*
Y179539D01*
X61985Y260035D02*
X63824Y261874D01*
X61985Y254547D02*
Y260035D01*
X63548Y252984D02*
X73914D01*
X61985Y254547D02*
X63548Y252984D01*
X109728Y253238D02*
X155702D01*
X73914Y252984D02*
X114554Y212344D01*
X153266Y107192D02*
Y137010D01*
X156972Y140716D01*
X43839Y167516D02*
X48519Y172196D01*
X33551Y167516D02*
X43839D01*
X14039Y248462D02*
X34281Y268704D01*
X50104D01*
X80890Y156164D02*
X84505Y152549D01*
X149321D01*
X47384Y156164D02*
X80890D01*
X30078Y164043D02*
X33551Y167516D01*
X46275Y143371D02*
Y143930D01*
X44755Y148286D02*
Y153535D01*
X42120Y140506D02*
X49276Y133350D01*
X42120Y145652D02*
X44755Y148286D01*
X40850Y149904D02*
Y155358D01*
X46275Y143371D02*
X52233Y137414D01*
X42120Y140506D02*
Y145652D01*
X118699Y131821D02*
X122513Y135636D01*
X118699Y127232D02*
Y131821D01*
X124055Y106587D02*
Y127631D01*
X122854Y128832D02*
Y129706D01*
Y128832D02*
X124055Y127631D01*
X118699Y127232D02*
X121769Y124161D01*
X40850Y155358D02*
X43941Y158450D01*
X117003Y99535D02*
X124055Y106587D01*
X119903Y111196D02*
X121769Y113062D01*
Y124161D01*
X115005Y111196D02*
X119903D01*
X113189Y113013D02*
X115005Y111196D01*
X113189Y113013D02*
Y135350D01*
X117864Y115659D02*
Y124833D01*
X116269Y126429D02*
X117864Y124833D01*
X122513Y135636D02*
X126768D01*
X106377Y120554D02*
X107805Y119126D01*
X106377Y120554D02*
Y130945D01*
X117003Y16007D02*
Y99535D01*
X77007Y123145D02*
X93626Y106526D01*
X102948D01*
X105001Y108579D01*
Y118697D01*
X94996Y128702D02*
X105001Y118697D01*
X99486Y130643D02*
Y135094D01*
X101067Y136675D01*
X126768Y135636D02*
X128899Y133505D01*
Y130435D02*
X129032Y130302D01*
X128899Y130435D02*
Y133505D01*
X111483Y141247D02*
X116269Y136461D01*
Y126429D02*
Y136461D01*
X109578Y138961D02*
X113189Y135350D01*
X107767Y136675D02*
X110903Y133539D01*
X101067Y136675D02*
X107767D01*
X98161Y138961D02*
X109578D01*
X94996Y128702D02*
Y135796D01*
X98161Y138961D01*
X84074Y143256D02*
X86995Y146177D01*
X85829Y137414D02*
X91948Y143533D01*
X52233Y137414D02*
X85829D01*
X86868Y133350D02*
X94765Y141247D01*
X111483D01*
X54102Y143256D02*
X84074D01*
X49276Y133350D02*
X86868D01*
X44755Y153535D02*
X47384Y156164D01*
X117000Y16004D02*
X117003Y16007D01*
D76*
X30000Y395000D02*
D03*
X100000D02*
D03*
X170000D02*
D03*
D77*
X117000Y16004D02*
D03*
X28956Y132334D02*
D03*
X181356Y208534D02*
D03*
X36001Y50001D02*
D03*
X26001D02*
D03*
X16001D02*
D03*
X6001Y170001D02*
D03*
Y150001D02*
D03*
X11001Y60001D02*
D03*
X6001Y50001D02*
D03*
X163574Y127508D02*
D03*
X49005Y214359D02*
D03*
X66806Y257517D02*
D03*
X38500Y355500D02*
D03*
X136652Y348742D02*
D03*
X158033Y350656D02*
D03*
X164573D02*
D03*
X164573Y356242D02*
D03*
X158033D02*
D03*
X139118Y184745D02*
D03*
X94930Y239500D02*
D03*
X8051Y354282D02*
D03*
X70486Y348503D02*
D03*
X108500Y355500D02*
D03*
X178562Y355562D02*
D03*
X175230Y369496D02*
D03*
X87884Y356104D02*
D03*
X18097Y356100D02*
D03*
X24638D02*
D03*
X49249Y194362D02*
D03*
X46275Y143930D02*
D03*
X122854Y129706D02*
D03*
X99486Y130643D02*
D03*
X141675Y170201D02*
D03*
X129032Y130302D02*
D03*
X54102Y143256D02*
D03*
X49105Y152009D02*
D03*
X60000Y16254D02*
D03*
X79000Y16004D02*
D03*
X98000D02*
D03*
X181800Y322330D02*
D03*
X175260D02*
D03*
X181800Y344677D02*
D03*
Y339090D02*
D03*
Y333503D02*
D03*
Y327917D02*
D03*
X175260Y344677D02*
D03*
Y339090D02*
D03*
Y333503D02*
D03*
Y327917D02*
D03*
X162179Y322263D02*
D03*
X168720D02*
D03*
X155639D02*
D03*
X162179Y344677D02*
D03*
X155639D02*
D03*
X168720D02*
D03*
X155639Y339073D02*
D03*
X168720D02*
D03*
X162179D02*
D03*
X168720Y333470D02*
D03*
X162179D02*
D03*
X155639D02*
D03*
X162179Y327866D02*
D03*
X155639D02*
D03*
X168720D02*
D03*
X112966Y322584D02*
D03*
X106426D02*
D03*
X94425Y356104D02*
D03*
X94425Y350517D02*
D03*
X112966Y344931D02*
D03*
Y339344D02*
D03*
Y333757D02*
D03*
Y328171D02*
D03*
X87884Y350517D02*
D03*
X106426Y344931D02*
D03*
Y339344D02*
D03*
Y333757D02*
D03*
Y328171D02*
D03*
X93345Y322517D02*
D03*
X99886D02*
D03*
X86805D02*
D03*
X93345Y344931D02*
D03*
X86805D02*
D03*
X99886D02*
D03*
X86805Y339327D02*
D03*
X99886D02*
D03*
X93345D02*
D03*
X99886Y333724D02*
D03*
X93345D02*
D03*
X86805D02*
D03*
X93345Y328120D02*
D03*
X86805D02*
D03*
X99886D02*
D03*
X31115Y328116D02*
D03*
X18034D02*
D03*
X24574D02*
D03*
X18034Y333720D02*
D03*
X24574D02*
D03*
X31115D02*
D03*
X24574Y339323D02*
D03*
X31115D02*
D03*
X18034D02*
D03*
X31115Y344927D02*
D03*
X18034D02*
D03*
X24574D02*
D03*
X18034Y322513D02*
D03*
X31115D02*
D03*
X24574D02*
D03*
X37655Y328167D02*
D03*
Y333753D02*
D03*
Y339340D02*
D03*
Y344927D02*
D03*
X18097Y350513D02*
D03*
X44196Y328167D02*
D03*
Y333753D02*
D03*
Y339340D02*
D03*
Y344927D02*
D03*
X24638Y350513D02*
D03*
X37655Y322580D02*
D03*
X44196D02*
D03*
X169314Y39000D02*
D03*
Y31000D02*
D03*
X176314D02*
D03*
X183314Y23000D02*
D03*
Y15000D02*
D03*
X176314D02*
D03*
Y23000D02*
D03*
X190314Y15000D02*
D03*
X190314Y39000D02*
D03*
X176314Y7000D02*
D03*
X190314Y31000D02*
D03*
X169814Y7000D02*
D03*
X190314D02*
D03*
X183314Y31000D02*
D03*
X183314Y7000D02*
D03*
X183314Y39000D02*
D03*
X169314Y15000D02*
D03*
X190314Y23000D02*
D03*
X169314D02*
D03*
X176314Y39000D02*
D03*
X179000Y388000D02*
D03*
Y402500D02*
D03*
X170000D02*
D03*
X152000D02*
D03*
X188000D02*
D03*
X179000Y395000D02*
D03*
X161000Y402500D02*
D03*
X152000Y395000D02*
D03*
X188000D02*
D03*
X170000Y388000D02*
D03*
X161000Y395000D02*
D03*
X188000Y388000D02*
D03*
X161000D02*
D03*
X152000D02*
D03*
X100000D02*
D03*
X82000Y402500D02*
D03*
X118000D02*
D03*
X109000Y395000D02*
D03*
X91000Y402500D02*
D03*
X82000Y395000D02*
D03*
X118000D02*
D03*
X109000Y388000D02*
D03*
X91000Y395000D02*
D03*
X82000Y388000D02*
D03*
X118000D02*
D03*
X91000D02*
D03*
X109000Y402500D02*
D03*
X100000D02*
D03*
X150230Y369496D02*
D03*
X155230D02*
D03*
X160230D02*
D03*
X190230D02*
D03*
X185230D02*
D03*
X180230D02*
D03*
X170230D02*
D03*
X165230D02*
D03*
X150230Y374496D02*
D03*
X155230D02*
D03*
X160230D02*
D03*
X165230D02*
D03*
X170230D02*
D03*
X175230D02*
D03*
X180230D02*
D03*
X185230D02*
D03*
X190230D02*
D03*
X155230Y379496D02*
D03*
X165230D02*
D03*
X175230D02*
D03*
X180230D02*
D03*
X185230D02*
D03*
X190230D02*
D03*
X160230D02*
D03*
X170230D02*
D03*
X150230D02*
D03*
X85283Y369496D02*
D03*
X110283D02*
D03*
X105283D02*
D03*
X80283D02*
D03*
X90283D02*
D03*
X95283D02*
D03*
X100283D02*
D03*
X115283D02*
D03*
X120283D02*
D03*
X80283Y374496D02*
D03*
X85283D02*
D03*
X90283D02*
D03*
X95283D02*
D03*
X100283D02*
D03*
X105283D02*
D03*
X110283D02*
D03*
X115283D02*
D03*
X120283D02*
D03*
X80283Y379496D02*
D03*
X90283D02*
D03*
X100283D02*
D03*
X85283D02*
D03*
X95283D02*
D03*
X105283D02*
D03*
X110283D02*
D03*
X115283D02*
D03*
X120283D02*
D03*
X35230Y369496D02*
D03*
Y374496D02*
D03*
X25230Y369496D02*
D03*
Y374496D02*
D03*
X20230D02*
D03*
Y369496D02*
D03*
X30230D02*
D03*
Y374496D02*
D03*
X10230Y369496D02*
D03*
Y374496D02*
D03*
X15230Y369496D02*
D03*
Y374496D02*
D03*
X10230Y379496D02*
D03*
X20230D02*
D03*
X40230Y369496D02*
D03*
X45230Y374496D02*
D03*
X40230D02*
D03*
X50230D02*
D03*
X30230Y379496D02*
D03*
X35230D02*
D03*
X45230D02*
D03*
X50230D02*
D03*
X15230D02*
D03*
X25230D02*
D03*
X45230Y369496D02*
D03*
X9294Y39000D02*
D03*
Y23000D02*
D03*
Y31000D02*
D03*
Y7000D02*
D03*
Y15000D02*
D03*
X16294Y7000D02*
D03*
Y15000D02*
D03*
Y23000D02*
D03*
Y31000D02*
D03*
Y39000D02*
D03*
X23294Y7000D02*
D03*
Y15000D02*
D03*
Y23000D02*
D03*
Y31000D02*
D03*
Y39000D02*
D03*
X30294Y7000D02*
D03*
Y15000D02*
D03*
Y23000D02*
D03*
Y31000D02*
D03*
Y39000D02*
D03*
X50230Y369496D02*
D03*
X40230Y379496D02*
D03*
X30000Y388000D02*
D03*
Y402500D02*
D03*
X48000D02*
D03*
Y395000D02*
D03*
Y388000D02*
D03*
X39000Y402500D02*
D03*
Y395000D02*
D03*
Y388000D02*
D03*
X21000Y402500D02*
D03*
Y395000D02*
D03*
Y388000D02*
D03*
X12000Y402500D02*
D03*
Y388000D02*
D03*
Y395000D02*
D03*
D78*
X157763Y68820D02*
D03*
X22352Y143002D02*
D03*
X143256Y62484D02*
D03*
X21500Y239500D02*
D03*
X38862Y99568D02*
D03*
X34798Y87770D02*
D03*
X129120Y203120D02*
D03*
X146189Y206735D02*
D03*
X158750Y158242D02*
D03*
X94488Y213614D02*
D03*
X114554Y212344D02*
D03*
X144780Y239014D02*
D03*
X178500Y239500D02*
D03*
X109728Y253238D02*
D03*
X50104Y268704D02*
D03*
X61976Y209517D02*
D03*
X161544Y239268D02*
D03*
X18400Y62400D02*
D03*
X68485Y67705D02*
D03*
X73152Y64770D02*
D03*
X4672Y88314D02*
D03*
X5842Y187706D02*
D03*
X5864Y180271D02*
D03*
X8446Y163983D02*
D03*
X17587Y109702D02*
D03*
X37084Y120396D02*
D03*
X39000Y106000D02*
D03*
X40402Y177945D02*
D03*
X40850Y149904D02*
D03*
X42571Y173142D02*
D03*
X81850Y177326D02*
D03*
Y171944D02*
D03*
Y182709D02*
D03*
Y188105D02*
D03*
X88554Y171944D02*
D03*
Y182709D02*
D03*
X96279Y66293D02*
D03*
X149216Y62042D02*
D03*
X157763D02*
D03*
X190562Y77800D02*
D03*
X88554Y177326D02*
D03*
X94169Y112225D02*
D03*
X95257Y182723D02*
D03*
Y171958D02*
D03*
Y177340D02*
D03*
X101092Y112154D02*
D03*
X101961Y182709D02*
D03*
Y171944D02*
D03*
Y177326D02*
D03*
X106377Y130945D02*
D03*
X115459Y164194D02*
D03*
X117864Y115659D02*
D03*
X121504Y164442D02*
D03*
X128071Y112154D02*
D03*
X140317Y122835D02*
D03*
X144000Y134071D02*
D03*
X153266Y107192D02*
D03*
X158640Y136000D02*
D03*
X159484Y174228D02*
D03*
X8238Y201326D02*
D03*
X60250Y203466D02*
D03*
X81850Y193487D02*
D03*
X88554D02*
D03*
Y188105D02*
D03*
X95257Y193487D02*
D03*
Y188105D02*
D03*
X101961Y193487D02*
D03*
Y188105D02*
D03*
M02*
