G04*
G04 #@! TF.GenerationSoftware,Altium Limited,Altium Designer,22.8.2 (66)*
G04*
G04 Layer_Color=8388736*
%FSLAX44Y44*%
%MOMM*%
G71*
G04*
G04 #@! TF.SameCoordinates,6741D891-8A7F-4893-A487-0B18702EF547*
G04*
G04*
G04 #@! TF.FilePolarity,Negative*
G04*
G01*
G75*
%ADD41C,0.6000*%
G04:AMPARAMS|DCode=42|XSize=1.25mm|YSize=0.75mm|CornerRadius=0.2125mm|HoleSize=0mm|Usage=FLASHONLY|Rotation=0.000|XOffset=0mm|YOffset=0mm|HoleType=Round|Shape=RoundedRectangle|*
%AMROUNDEDRECTD42*
21,1,1.2500,0.3250,0,0,0.0*
21,1,0.8250,0.7500,0,0,0.0*
1,1,0.4250,0.4125,-0.1625*
1,1,0.4250,-0.4125,-0.1625*
1,1,0.4250,-0.4125,0.1625*
1,1,0.4250,0.4125,0.1625*
%
%ADD42ROUNDEDRECTD42*%
G04:AMPARAMS|DCode=43|XSize=1.45mm|YSize=1.1mm|CornerRadius=0.3mm|HoleSize=0mm|Usage=FLASHONLY|Rotation=0.000|XOffset=0mm|YOffset=0mm|HoleType=Round|Shape=RoundedRectangle|*
%AMROUNDEDRECTD43*
21,1,1.4500,0.5000,0,0,0.0*
21,1,0.8500,1.1000,0,0,0.0*
1,1,0.6000,0.4250,-0.2500*
1,1,0.6000,-0.4250,-0.2500*
1,1,0.6000,-0.4250,0.2500*
1,1,0.6000,0.4250,0.2500*
%
%ADD43ROUNDEDRECTD43*%
G04:AMPARAMS|DCode=44|XSize=1.95mm|YSize=1mm|CornerRadius=0.275mm|HoleSize=0mm|Usage=FLASHONLY|Rotation=0.000|XOffset=0mm|YOffset=0mm|HoleType=Round|Shape=RoundedRectangle|*
%AMROUNDEDRECTD44*
21,1,1.9500,0.4500,0,0,0.0*
21,1,1.4000,1.0000,0,0,0.0*
1,1,0.5500,0.7000,-0.2250*
1,1,0.5500,-0.7000,-0.2250*
1,1,0.5500,-0.7000,0.2250*
1,1,0.5500,0.7000,0.2250*
%
%ADD44ROUNDEDRECTD44*%
G04:AMPARAMS|DCode=45|XSize=3.1mm|YSize=4.1mm|CornerRadius=0.8mm|HoleSize=0mm|Usage=FLASHONLY|Rotation=0.000|XOffset=0mm|YOffset=0mm|HoleType=Round|Shape=RoundedRectangle|*
%AMROUNDEDRECTD45*
21,1,3.1000,2.5000,0,0,0.0*
21,1,1.5000,4.1000,0,0,0.0*
1,1,1.6000,0.7500,-1.2500*
1,1,1.6000,-0.7500,-1.2500*
1,1,1.6000,-0.7500,1.2500*
1,1,1.6000,0.7500,1.2500*
%
%ADD45ROUNDEDRECTD45*%
G04:AMPARAMS|DCode=46|XSize=0.68mm|YSize=0.68mm|CornerRadius=0.2008mm|HoleSize=0mm|Usage=FLASHONLY|Rotation=180.000|XOffset=0mm|YOffset=0mm|HoleType=Round|Shape=RoundedRectangle|*
%AMROUNDEDRECTD46*
21,1,0.6800,0.2784,0,0,180.0*
21,1,0.2784,0.6800,0,0,180.0*
1,1,0.4016,-0.1392,0.1392*
1,1,0.4016,0.1392,0.1392*
1,1,0.4016,0.1392,-0.1392*
1,1,0.4016,-0.1392,-0.1392*
%
%ADD46ROUNDEDRECTD46*%
G04:AMPARAMS|DCode=47|XSize=0.68mm|YSize=0.68mm|CornerRadius=0.2008mm|HoleSize=0mm|Usage=FLASHONLY|Rotation=90.000|XOffset=0mm|YOffset=0mm|HoleType=Round|Shape=RoundedRectangle|*
%AMROUNDEDRECTD47*
21,1,0.6800,0.2784,0,0,90.0*
21,1,0.2784,0.6800,0,0,90.0*
1,1,0.4016,0.1392,0.1392*
1,1,0.4016,0.1392,-0.1392*
1,1,0.4016,-0.1392,-0.1392*
1,1,0.4016,-0.1392,0.1392*
%
%ADD47ROUNDEDRECTD47*%
G04:AMPARAMS|DCode=48|XSize=1.3mm|YSize=0.7mm|CornerRadius=0.2mm|HoleSize=0mm|Usage=FLASHONLY|Rotation=90.000|XOffset=0mm|YOffset=0mm|HoleType=Round|Shape=RoundedRectangle|*
%AMROUNDEDRECTD48*
21,1,1.3000,0.3000,0,0,90.0*
21,1,0.9000,0.7000,0,0,90.0*
1,1,0.4000,0.1500,0.4500*
1,1,0.4000,0.1500,-0.4500*
1,1,0.4000,-0.1500,-0.4500*
1,1,0.4000,-0.1500,0.4500*
%
%ADD48ROUNDEDRECTD48*%
G04:AMPARAMS|DCode=49|XSize=0.9mm|YSize=0.4mm|CornerRadius=0.125mm|HoleSize=0mm|Usage=FLASHONLY|Rotation=270.000|XOffset=0mm|YOffset=0mm|HoleType=Round|Shape=RoundedRectangle|*
%AMROUNDEDRECTD49*
21,1,0.9000,0.1500,0,0,270.0*
21,1,0.6500,0.4000,0,0,270.0*
1,1,0.2500,-0.0750,-0.3250*
1,1,0.2500,-0.0750,0.3250*
1,1,0.2500,0.0750,0.3250*
1,1,0.2500,0.0750,-0.3250*
%
%ADD49ROUNDEDRECTD49*%
G04:AMPARAMS|DCode=50|XSize=0.9mm|YSize=0.4mm|CornerRadius=0.125mm|HoleSize=0mm|Usage=FLASHONLY|Rotation=0.000|XOffset=0mm|YOffset=0mm|HoleType=Round|Shape=RoundedRectangle|*
%AMROUNDEDRECTD50*
21,1,0.9000,0.1500,0,0,0.0*
21,1,0.6500,0.4000,0,0,0.0*
1,1,0.2500,0.3250,-0.0750*
1,1,0.2500,-0.3250,-0.0750*
1,1,0.2500,-0.3250,0.0750*
1,1,0.2500,0.3250,0.0750*
%
%ADD50ROUNDEDRECTD50*%
%ADD51R,2.9000X2.9000*%
G04:AMPARAMS|DCode=52|XSize=1.1mm|YSize=1.87mm|CornerRadius=0.3mm|HoleSize=0mm|Usage=FLASHONLY|Rotation=270.000|XOffset=0mm|YOffset=0mm|HoleType=Round|Shape=RoundedRectangle|*
%AMROUNDEDRECTD52*
21,1,1.1000,1.2700,0,0,270.0*
21,1,0.5000,1.8700,0,0,270.0*
1,1,0.6000,-0.6350,-0.2500*
1,1,0.6000,-0.6350,0.2500*
1,1,0.6000,0.6350,0.2500*
1,1,0.6000,0.6350,-0.2500*
%
%ADD52ROUNDEDRECTD52*%
G04:AMPARAMS|DCode=53|XSize=1.1mm|YSize=1.87mm|CornerRadius=0.3mm|HoleSize=0mm|Usage=FLASHONLY|Rotation=270.000|XOffset=0mm|YOffset=0mm|HoleType=Round|Shape=RoundedRectangle|*
%AMROUNDEDRECTD53*
21,1,1.1000,1.2700,0,0,270.0*
21,1,0.5000,1.8700,0,0,270.0*
1,1,0.6000,-0.6350,-0.2500*
1,1,0.6000,-0.6350,0.2500*
1,1,0.6000,0.6350,0.2500*
1,1,0.6000,0.6350,-0.2500*
%
%ADD53ROUNDEDRECTD53*%
G04:AMPARAMS|DCode=54|XSize=1.32mm|YSize=1.3mm|CornerRadius=0.35mm|HoleSize=0mm|Usage=FLASHONLY|Rotation=0.000|XOffset=0mm|YOffset=0mm|HoleType=Round|Shape=RoundedRectangle|*
%AMROUNDEDRECTD54*
21,1,1.3200,0.6000,0,0,0.0*
21,1,0.6200,1.3000,0,0,0.0*
1,1,0.7000,0.3100,-0.3000*
1,1,0.7000,-0.3100,-0.3000*
1,1,0.7000,-0.3100,0.3000*
1,1,0.7000,0.3100,0.3000*
%
%ADD54ROUNDEDRECTD54*%
G04:AMPARAMS|DCode=55|XSize=1.9mm|YSize=0.9mm|CornerRadius=0.25mm|HoleSize=0mm|Usage=FLASHONLY|Rotation=90.000|XOffset=0mm|YOffset=0mm|HoleType=Round|Shape=RoundedRectangle|*
%AMROUNDEDRECTD55*
21,1,1.9000,0.4000,0,0,90.0*
21,1,1.4000,0.9000,0,0,90.0*
1,1,0.5000,0.2000,0.7000*
1,1,0.5000,0.2000,-0.7000*
1,1,0.5000,-0.2000,-0.7000*
1,1,0.5000,-0.2000,0.7000*
%
%ADD55ROUNDEDRECTD55*%
G04:AMPARAMS|DCode=56|XSize=2.3mm|YSize=2.25mm|CornerRadius=0.5875mm|HoleSize=0mm|Usage=FLASHONLY|Rotation=180.000|XOffset=0mm|YOffset=0mm|HoleType=Round|Shape=RoundedRectangle|*
%AMROUNDEDRECTD56*
21,1,2.3000,1.0750,0,0,180.0*
21,1,1.1250,2.2500,0,0,180.0*
1,1,1.1750,-0.5625,0.5375*
1,1,1.1750,0.5625,0.5375*
1,1,1.1750,0.5625,-0.5375*
1,1,1.1750,-0.5625,-0.5375*
%
%ADD56ROUNDEDRECTD56*%
G04:AMPARAMS|DCode=57|XSize=2.88mm|YSize=3.32mm|CornerRadius=0.3002mm|HoleSize=0mm|Usage=FLASHONLY|Rotation=270.000|XOffset=0mm|YOffset=0mm|HoleType=Round|Shape=RoundedRectangle|*
%AMROUNDEDRECTD57*
21,1,2.8800,2.7196,0,0,270.0*
21,1,2.2796,3.3200,0,0,270.0*
1,1,0.6004,-1.3598,-1.1398*
1,1,0.6004,-1.3598,1.1398*
1,1,0.6004,1.3598,1.1398*
1,1,0.6004,1.3598,-1.1398*
%
%ADD57ROUNDEDRECTD57*%
G04:AMPARAMS|DCode=58|XSize=2.88mm|YSize=3.32mm|CornerRadius=0.3002mm|HoleSize=0mm|Usage=FLASHONLY|Rotation=270.000|XOffset=0mm|YOffset=0mm|HoleType=Round|Shape=RoundedRectangle|*
%AMROUNDEDRECTD58*
21,1,2.8800,2.7196,0,0,270.0*
21,1,2.2796,3.3200,0,0,270.0*
1,1,0.6004,-1.3598,-1.1398*
1,1,0.6004,-1.3598,1.1398*
1,1,0.6004,1.3598,1.1398*
1,1,0.6004,1.3598,-1.1398*
%
%ADD58ROUNDEDRECTD58*%
%ADD59C,1.5000*%
G04:AMPARAMS|DCode=60|XSize=0.84mm|YSize=0.93mm|CornerRadius=0.2387mm|HoleSize=0mm|Usage=FLASHONLY|Rotation=0.000|XOffset=0mm|YOffset=0mm|HoleType=Round|Shape=RoundedRectangle|*
%AMROUNDEDRECTD60*
21,1,0.8400,0.4526,0,0,0.0*
21,1,0.3626,0.9300,0,0,0.0*
1,1,0.4774,0.1813,-0.2263*
1,1,0.4774,-0.1813,-0.2263*
1,1,0.4774,-0.1813,0.2263*
1,1,0.4774,0.1813,0.2263*
%
%ADD60ROUNDEDRECTD60*%
G04:AMPARAMS|DCode=61|XSize=0.74mm|YSize=0.52mm|CornerRadius=0.155mm|HoleSize=0mm|Usage=FLASHONLY|Rotation=0.000|XOffset=0mm|YOffset=0mm|HoleType=Round|Shape=RoundedRectangle|*
%AMROUNDEDRECTD61*
21,1,0.7400,0.2100,0,0,0.0*
21,1,0.4300,0.5200,0,0,0.0*
1,1,0.3100,0.2150,-0.1050*
1,1,0.3100,-0.2150,-0.1050*
1,1,0.3100,-0.2150,0.1050*
1,1,0.3100,0.2150,0.1050*
%
%ADD61ROUNDEDRECTD61*%
G04:AMPARAMS|DCode=62|XSize=1.202mm|YSize=0.702mm|CornerRadius=0.201mm|HoleSize=0mm|Usage=FLASHONLY|Rotation=180.000|XOffset=0mm|YOffset=0mm|HoleType=Round|Shape=RoundedRectangle|*
%AMROUNDEDRECTD62*
21,1,1.2020,0.3000,0,0,180.0*
21,1,0.8000,0.7020,0,0,180.0*
1,1,0.4020,-0.4000,0.1500*
1,1,0.4020,0.4000,0.1500*
1,1,0.4020,0.4000,-0.1500*
1,1,0.4020,-0.4000,-0.1500*
%
%ADD62ROUNDEDRECTD62*%
G04:AMPARAMS|DCode=63|XSize=1.1mm|YSize=1.87mm|CornerRadius=0.3mm|HoleSize=0mm|Usage=FLASHONLY|Rotation=0.000|XOffset=0mm|YOffset=0mm|HoleType=Round|Shape=RoundedRectangle|*
%AMROUNDEDRECTD63*
21,1,1.1000,1.2700,0,0,0.0*
21,1,0.5000,1.8700,0,0,0.0*
1,1,0.6000,0.2500,-0.6350*
1,1,0.6000,-0.2500,-0.6350*
1,1,0.6000,-0.2500,0.6350*
1,1,0.6000,0.2500,0.6350*
%
%ADD63ROUNDEDRECTD63*%
G04:AMPARAMS|DCode=64|XSize=1.1mm|YSize=1.87mm|CornerRadius=0.3mm|HoleSize=0mm|Usage=FLASHONLY|Rotation=0.000|XOffset=0mm|YOffset=0mm|HoleType=Round|Shape=RoundedRectangle|*
%AMROUNDEDRECTD64*
21,1,1.1000,1.2700,0,0,0.0*
21,1,0.5000,1.8700,0,0,0.0*
1,1,0.6000,0.2500,-0.6350*
1,1,0.6000,-0.2500,-0.6350*
1,1,0.6000,-0.2500,0.6350*
1,1,0.6000,0.2500,0.6350*
%
%ADD64ROUNDEDRECTD64*%
G04:AMPARAMS|DCode=65|XSize=0.8mm|YSize=0.8mm|CornerRadius=0.2285mm|HoleSize=0mm|Usage=FLASHONLY|Rotation=0.000|XOffset=0mm|YOffset=0mm|HoleType=Round|Shape=RoundedRectangle|*
%AMROUNDEDRECTD65*
21,1,0.8000,0.3430,0,0,0.0*
21,1,0.3430,0.8000,0,0,0.0*
1,1,0.4570,0.1715,-0.1715*
1,1,0.4570,-0.1715,-0.1715*
1,1,0.4570,-0.1715,0.1715*
1,1,0.4570,0.1715,0.1715*
%
%ADD65ROUNDEDRECTD65*%
G04:AMPARAMS|DCode=66|XSize=0.8mm|YSize=0.8mm|CornerRadius=0.2285mm|HoleSize=0mm|Usage=FLASHONLY|Rotation=90.000|XOffset=0mm|YOffset=0mm|HoleType=Round|Shape=RoundedRectangle|*
%AMROUNDEDRECTD66*
21,1,0.8000,0.3430,0,0,90.0*
21,1,0.3430,0.8000,0,0,90.0*
1,1,0.4570,0.1715,0.1715*
1,1,0.4570,0.1715,-0.1715*
1,1,0.4570,-0.1715,-0.1715*
1,1,0.4570,-0.1715,0.1715*
%
%ADD66ROUNDEDRECTD66*%
G04:AMPARAMS|DCode=67|XSize=0.8mm|YSize=0.8mm|CornerRadius=0.2285mm|HoleSize=0mm|Usage=FLASHONLY|Rotation=0.000|XOffset=0mm|YOffset=0mm|HoleType=Round|Shape=RoundedRectangle|*
%AMROUNDEDRECTD67*
21,1,0.8000,0.3430,0,0,0.0*
21,1,0.3430,0.8000,0,0,0.0*
1,1,0.4570,0.1715,-0.1715*
1,1,0.4570,-0.1715,-0.1715*
1,1,0.4570,-0.1715,0.1715*
1,1,0.4570,0.1715,0.1715*
%
%ADD67ROUNDEDRECTD67*%
G04:AMPARAMS|DCode=68|XSize=0.8mm|YSize=0.8mm|CornerRadius=0.2285mm|HoleSize=0mm|Usage=FLASHONLY|Rotation=0.000|XOffset=0mm|YOffset=0mm|HoleType=Round|Shape=RoundedRectangle|*
%AMROUNDEDRECTD68*
21,1,0.8000,0.3430,0,0,0.0*
21,1,0.3430,0.8000,0,0,0.0*
1,1,0.4570,0.1715,-0.1715*
1,1,0.4570,-0.1715,-0.1715*
1,1,0.4570,-0.1715,0.1715*
1,1,0.4570,0.1715,0.1715*
%
%ADD68ROUNDEDRECTD68*%
G04:AMPARAMS|DCode=69|XSize=4.6mm|YSize=2.6mm|CornerRadius=0.675mm|HoleSize=0mm|Usage=FLASHONLY|Rotation=0.000|XOffset=0mm|YOffset=0mm|HoleType=Round|Shape=RoundedRectangle|*
%AMROUNDEDRECTD69*
21,1,4.6000,1.2500,0,0,0.0*
21,1,3.2500,2.6000,0,0,0.0*
1,1,1.3500,1.6250,-0.6250*
1,1,1.3500,-1.6250,-0.6250*
1,1,1.3500,-1.6250,0.6250*
1,1,1.3500,1.6250,0.6250*
%
%ADD69ROUNDEDRECTD69*%
G36*
X60610Y15973D02*
X61216Y15894D01*
X61812Y15761D01*
X62394Y15578D01*
X62958Y15344D01*
X63500Y15062D01*
X64015Y14734D01*
X64500Y14362D01*
X64950Y13950D01*
X65362Y13499D01*
X65734Y13015D01*
X66062Y12500D01*
X66344Y11958D01*
X66578Y11394D01*
X66761Y10812D01*
X66894Y10216D01*
X66973Y9610D01*
X67000Y9000D01*
Y1000D01*
X53000D01*
Y9000D01*
X53027Y9610D01*
X53106Y10216D01*
X53239Y10812D01*
X53422Y11394D01*
X53656Y11958D01*
X53938Y12500D01*
X54266Y13015D01*
X54638Y13499D01*
X55050Y13950D01*
X55500Y14362D01*
X55985Y14734D01*
X56500Y15062D01*
X57042Y15344D01*
X57606Y15578D01*
X58188Y15761D01*
X58784Y15894D01*
X59390Y15973D01*
X60000Y16000D01*
X60610Y15973D01*
D02*
G37*
G36*
X79610Y15723D02*
X80216Y15644D01*
X80812Y15511D01*
X81394Y15328D01*
X81958Y15094D01*
X82500Y14812D01*
X83015Y14484D01*
X83499Y14112D01*
X83950Y13700D01*
X84362Y13249D01*
X84734Y12765D01*
X85062Y12250D01*
X85344Y11708D01*
X85578Y11144D01*
X85761Y10562D01*
X85894Y9966D01*
X85973Y9360D01*
X86000Y8750D01*
Y1000D01*
X72000D01*
Y8750D01*
X72027Y9360D01*
X72106Y9966D01*
X72238Y10562D01*
X72422Y11144D01*
X72656Y11708D01*
X72938Y12250D01*
X73266Y12765D01*
X73638Y13249D01*
X74050Y13700D01*
X74500Y14112D01*
X74985Y14484D01*
X75500Y14812D01*
X76042Y15094D01*
X76606Y15328D01*
X77188Y15511D01*
X77784Y15644D01*
X78390Y15723D01*
X79000Y15750D01*
X79610Y15723D01*
D02*
G37*
G36*
X98610D02*
X99215Y15644D01*
X99812Y15511D01*
X100394Y15328D01*
X100958Y15094D01*
X101500Y14812D01*
X102015Y14484D01*
X102500Y14112D01*
X102950Y13700D01*
X103362Y13249D01*
X103734Y12765D01*
X104062Y12250D01*
X104344Y11708D01*
X104578Y11144D01*
X104761Y10562D01*
X104894Y9966D01*
X104973Y9360D01*
X105000Y8750D01*
Y1000D01*
X91000D01*
Y8750D01*
X91027Y9360D01*
X91106Y9966D01*
X91238Y10562D01*
X91422Y11144D01*
X91656Y11708D01*
X91938Y12250D01*
X92266Y12765D01*
X92638Y13249D01*
X93050Y13700D01*
X93500Y14112D01*
X93985Y14484D01*
X94500Y14812D01*
X95042Y15094D01*
X95606Y15328D01*
X96188Y15511D01*
X96784Y15644D01*
X97390Y15723D01*
X98000Y15750D01*
X98610Y15723D01*
D02*
G37*
G36*
X117610D02*
X118216Y15644D01*
X118812Y15511D01*
X119394Y15328D01*
X119958Y15094D01*
X120500Y14812D01*
X121015Y14484D01*
X121500Y14112D01*
X121950Y13700D01*
X122362Y13249D01*
X122734Y12765D01*
X123062Y12250D01*
X123344Y11708D01*
X123578Y11144D01*
X123761Y10562D01*
X123894Y9966D01*
X123973Y9360D01*
X124000Y8750D01*
Y1000D01*
X110000D01*
Y8750D01*
X110027Y9360D01*
X110106Y9966D01*
X110239Y10562D01*
X110422Y11144D01*
X110656Y11708D01*
X110938Y12250D01*
X111266Y12765D01*
X111638Y13249D01*
X112050Y13700D01*
X112500Y14112D01*
X112985Y14484D01*
X113500Y14812D01*
X114042Y15094D01*
X114606Y15328D01*
X115188Y15511D01*
X115784Y15644D01*
X116390Y15723D01*
X117000Y15750D01*
X117610Y15723D01*
D02*
G37*
G36*
X136610D02*
X137215Y15644D01*
X137812Y15511D01*
X138394Y15328D01*
X138958Y15094D01*
X139500Y14812D01*
X140015Y14484D01*
X140499Y14112D01*
X140950Y13700D01*
X141362Y13249D01*
X141734Y12765D01*
X142062Y12250D01*
X142344Y11708D01*
X142578Y11144D01*
X142761Y10562D01*
X142894Y9966D01*
X142973Y9360D01*
X143000Y8750D01*
Y1000D01*
X129000D01*
Y8750D01*
X129027Y9360D01*
X129106Y9966D01*
X129239Y10562D01*
X129422Y11144D01*
X129656Y11708D01*
X129938Y12250D01*
X130266Y12765D01*
X130638Y13249D01*
X131050Y13700D01*
X131501Y14112D01*
X131985Y14484D01*
X132500Y14812D01*
X133042Y15094D01*
X133606Y15328D01*
X134188Y15511D01*
X134784Y15644D01*
X135390Y15723D01*
X136000Y15750D01*
X136610Y15723D01*
D02*
G37*
G36*
X175654Y135063D02*
X172397D01*
X171960Y133555D01*
X171975D01*
X172003Y133583D01*
X172059Y133597D01*
X172129Y133626D01*
X172313Y133682D01*
X172510Y133738D01*
X172524D01*
X172552Y133752D01*
X172609Y133767D01*
X172693Y133781D01*
X172863Y133795D01*
X173074Y133809D01*
X173187D01*
X173257Y133795D01*
X173356Y133781D01*
X173469Y133767D01*
X173722Y133710D01*
X174004Y133626D01*
X174315Y133485D01*
X174470Y133400D01*
X174625Y133301D01*
X174766Y133189D01*
X174907Y133048D01*
X174921Y133034D01*
X174935Y133019D01*
X174977Y132977D01*
X175019Y132907D01*
X175076Y132836D01*
X175132Y132752D01*
X175203Y132639D01*
X175273Y132512D01*
X175344Y132385D01*
X175414Y132230D01*
X175471Y132061D01*
X175527Y131878D01*
X175611Y131483D01*
X175626Y131257D01*
X175640Y131032D01*
Y131018D01*
Y130990D01*
Y130933D01*
X175626Y130863D01*
Y130764D01*
X175611Y130665D01*
X175597Y130538D01*
X175583Y130397D01*
X175513Y130101D01*
X175428Y129763D01*
X175301Y129396D01*
X175132Y129030D01*
Y129016D01*
X175104Y128988D01*
X175076Y128931D01*
X175033Y128875D01*
X174991Y128790D01*
X174921Y128692D01*
X174766Y128466D01*
X174568Y128226D01*
X174329Y127973D01*
X174047Y127733D01*
X173722Y127522D01*
X173708D01*
X173680Y127493D01*
X173638Y127479D01*
X173567Y127437D01*
X173483Y127395D01*
X173384Y127352D01*
X173159Y127268D01*
X172877Y127169D01*
X172567Y127085D01*
X172228Y127028D01*
X171862Y127000D01*
X171735D01*
X171650Y127014D01*
X171551Y127028D01*
X171425Y127042D01*
X171284Y127071D01*
X171129Y127099D01*
X170804Y127197D01*
X170466Y127338D01*
X170297Y127423D01*
X170128Y127536D01*
X169959Y127648D01*
X169804Y127789D01*
X169789Y127803D01*
X169775Y127832D01*
X169733Y127874D01*
X169677Y127930D01*
X169620Y128015D01*
X169550Y128114D01*
X169479Y128226D01*
X169409Y128367D01*
X169324Y128508D01*
X169254Y128663D01*
X169183Y128847D01*
X169127Y129044D01*
X169070Y129241D01*
X169028Y129467D01*
X169014Y129692D01*
X169000Y129946D01*
X170861Y130115D01*
Y130087D01*
Y130031D01*
X170847Y129960D01*
Y129904D01*
Y129890D01*
Y129876D01*
Y129791D01*
X170861Y129678D01*
X170889Y129523D01*
X170917Y129354D01*
X170974Y129185D01*
X171044Y129030D01*
X171143Y128889D01*
X171157Y128875D01*
X171199Y128833D01*
X171270Y128790D01*
X171354Y128734D01*
X171467Y128663D01*
X171608Y128621D01*
X171763Y128579D01*
X171932Y128565D01*
X171960D01*
X172045Y128579D01*
X172186Y128593D01*
X172341Y128649D01*
X172538Y128720D01*
X172750Y128833D01*
X172961Y129002D01*
X173074Y129101D01*
X173173Y129213D01*
Y129227D01*
X173201Y129241D01*
X173229Y129284D01*
X173257Y129340D01*
X173300Y129396D01*
X173356Y129481D01*
X173455Y129678D01*
X173553Y129932D01*
X173652Y130242D01*
X173708Y130609D01*
X173737Y131018D01*
Y131032D01*
Y131046D01*
Y131130D01*
X173722Y131257D01*
X173694Y131398D01*
X173652Y131567D01*
X173596Y131737D01*
X173525Y131906D01*
X173412Y132047D01*
X173398Y132061D01*
X173356Y132103D01*
X173286Y132160D01*
X173187Y132230D01*
X173074Y132286D01*
X172933Y132343D01*
X172764Y132385D01*
X172581Y132399D01*
X172510D01*
X172440Y132385D01*
X172341Y132371D01*
X172228Y132357D01*
X172115Y132329D01*
X171975Y132272D01*
X171848Y132216D01*
X171833Y132202D01*
X171791Y132188D01*
X171721Y132145D01*
X171636Y132089D01*
X171537Y132018D01*
X171425Y131920D01*
X171312Y131821D01*
X171185Y131694D01*
X169620Y131807D01*
X171100Y136812D01*
X176020D01*
X175654Y135063D01*
D02*
G37*
G36*
X192486Y127183D02*
X190583D01*
X190258Y129340D01*
X186396D01*
X185226Y127183D01*
X183167D01*
X188651Y136938D01*
X190921D01*
X192486Y127183D01*
D02*
G37*
G36*
X180996Y136981D02*
X181095Y136967D01*
X181208Y136952D01*
X181490Y136882D01*
X181800Y136783D01*
X181955Y136713D01*
X182124Y136628D01*
X182279Y136530D01*
X182449Y136403D01*
X182604Y136276D01*
X182745Y136121D01*
X182759Y136107D01*
X182773Y136079D01*
X182815Y136036D01*
X182871Y135966D01*
X182928Y135867D01*
X182984Y135768D01*
X183055Y135641D01*
X183139Y135486D01*
X183210Y135317D01*
X183280Y135134D01*
X183337Y134923D01*
X183393Y134711D01*
X183449Y134457D01*
X183492Y134204D01*
X183506Y133922D01*
X183520Y133626D01*
Y133611D01*
Y133555D01*
Y133470D01*
X183506Y133358D01*
Y133231D01*
X183492Y133062D01*
X183478Y132878D01*
X183449Y132667D01*
X183421Y132427D01*
X183379Y132188D01*
X183337Y131920D01*
X183280Y131652D01*
X183139Y131060D01*
X182956Y130440D01*
Y130426D01*
X182928Y130369D01*
X182900Y130285D01*
X182857Y130172D01*
X182801Y130031D01*
X182731Y129862D01*
X182646Y129692D01*
X182561Y129495D01*
X182336Y129086D01*
X182082Y128663D01*
X181786Y128255D01*
X181617Y128057D01*
X181448Y127888D01*
X181434Y127874D01*
X181405Y127846D01*
X181349Y127803D01*
X181278Y127747D01*
X181194Y127677D01*
X181081Y127606D01*
X180968Y127522D01*
X180827Y127451D01*
X180503Y127282D01*
X180151Y127141D01*
X179953Y127085D01*
X179742Y127042D01*
X179531Y127014D01*
X179305Y127000D01*
X179192D01*
X179107Y127014D01*
X179009Y127028D01*
X178896Y127042D01*
X178614Y127113D01*
X178304Y127212D01*
X178149Y127282D01*
X177980Y127367D01*
X177811Y127465D01*
X177656Y127578D01*
X177500Y127705D01*
X177345Y127860D01*
X177331Y127874D01*
X177317Y127902D01*
X177275Y127944D01*
X177233Y128015D01*
X177176Y128114D01*
X177106Y128212D01*
X177035Y128339D01*
X176965Y128494D01*
X176894Y128663D01*
X176824Y128847D01*
X176767Y129044D01*
X176697Y129270D01*
X176655Y129509D01*
X176612Y129763D01*
X176598Y130045D01*
X176584Y130341D01*
Y130355D01*
Y130412D01*
Y130482D01*
X176598Y130595D01*
Y130736D01*
X176612Y130891D01*
X176626Y131074D01*
X176641Y131271D01*
X176669Y131483D01*
X176711Y131722D01*
X176796Y132230D01*
X176908Y132766D01*
X177078Y133330D01*
X177092Y133358D01*
X177106Y133414D01*
X177148Y133513D01*
X177190Y133640D01*
X177247Y133795D01*
X177331Y133964D01*
X177416Y134161D01*
X177515Y134373D01*
X177740Y134824D01*
X178008Y135275D01*
X178149Y135500D01*
X178318Y135712D01*
X178487Y135909D01*
X178656Y136093D01*
X178671Y136107D01*
X178699Y136135D01*
X178755Y136177D01*
X178826Y136234D01*
X178910Y136304D01*
X179023Y136375D01*
X179150Y136459D01*
X179291Y136544D01*
X179601Y136713D01*
X179967Y136854D01*
X180165Y136910D01*
X180362Y136952D01*
X180574Y136981D01*
X180799Y136995D01*
X180912D01*
X180996Y136981D01*
D02*
G37*
%LPC*%
G36*
X189441Y134894D02*
X187298Y130975D01*
X190019D01*
X189441Y134894D01*
D02*
G37*
G36*
X180729Y135472D02*
X180700D01*
X180644Y135458D01*
X180545Y135444D01*
X180419Y135416D01*
X180278Y135345D01*
X180123Y135261D01*
X179967Y135148D01*
X179812Y134979D01*
Y134965D01*
X179784Y134951D01*
X179756Y134894D01*
X179714Y134838D01*
X179671Y134753D01*
X179601Y134655D01*
X179545Y134542D01*
X179474Y134401D01*
X179389Y134232D01*
X179305Y134049D01*
X179220Y133851D01*
X179136Y133611D01*
X179051Y133372D01*
X178967Y133090D01*
X178882Y132794D01*
X178797Y132470D01*
Y132456D01*
X178783Y132399D01*
X178769Y132329D01*
X178741Y132216D01*
X178713Y132089D01*
X178685Y131934D01*
X178656Y131765D01*
X178628Y131581D01*
X178558Y131173D01*
X178501Y130764D01*
X178459Y130341D01*
X178445Y129946D01*
Y129932D01*
Y129918D01*
Y129876D01*
Y129819D01*
X178459Y129678D01*
X178473Y129509D01*
X178501Y129326D01*
X178558Y129143D01*
X178614Y128974D01*
X178699Y128833D01*
X178713Y128819D01*
X178741Y128790D01*
X178797Y128734D01*
X178882Y128678D01*
X178967Y128621D01*
X179079Y128565D01*
X179220Y128537D01*
X179361Y128523D01*
X179389D01*
X179446Y128537D01*
X179559Y128551D01*
X179685Y128579D01*
X179827Y128649D01*
X179996Y128734D01*
X180151Y128847D01*
X180320Y129016D01*
Y129030D01*
X180348Y129044D01*
X180376Y129086D01*
X180419Y129157D01*
X180461Y129227D01*
X180517Y129326D01*
X180574Y129453D01*
X180644Y129594D01*
X180729Y129749D01*
X180799Y129946D01*
X180884Y130158D01*
X180968Y130397D01*
X181053Y130665D01*
X181138Y130947D01*
X181222Y131271D01*
X181307Y131624D01*
Y131638D01*
X181321Y131694D01*
X181335Y131779D01*
X181363Y131878D01*
X181391Y132004D01*
X181419Y132160D01*
X181448Y132329D01*
X181490Y132512D01*
X181546Y132907D01*
X181603Y133315D01*
X181645Y133710D01*
X181659Y133907D01*
Y134077D01*
Y134091D01*
Y134105D01*
Y134204D01*
X181645Y134330D01*
X181631Y134486D01*
X181589Y134655D01*
X181546Y134838D01*
X181476Y134993D01*
X181391Y135134D01*
X181377Y135148D01*
X181349Y135190D01*
X181293Y135247D01*
X181208Y135303D01*
X181123Y135359D01*
X181011Y135416D01*
X180870Y135458D01*
X180729Y135472D01*
D02*
G37*
%LPD*%
D41*
X180610Y200250D02*
X193850Y187010D01*
X170350Y185250D02*
X191305Y164695D01*
X191310Y200980D02*
X193850Y198440D01*
X169180Y199250D02*
X192850Y175580D01*
X166640Y175930D02*
X192850Y149720D01*
X167910Y162230D02*
X184420Y145720D01*
X166640Y150070D02*
X172990Y143720D01*
D42*
X161500Y355500D02*
D03*
X178500D02*
D03*
X161500Y239500D02*
D03*
X178500D02*
D03*
X91500Y355500D02*
D03*
X108500D02*
D03*
X91500Y239500D02*
D03*
X108500D02*
D03*
X21500Y355500D02*
D03*
X38500D02*
D03*
X21500Y239500D02*
D03*
X38500D02*
D03*
D43*
X161500Y341700D02*
D03*
Y326200D02*
D03*
X178500D02*
D03*
Y341700D02*
D03*
X161500Y253300D02*
D03*
Y268800D02*
D03*
X178500D02*
D03*
Y253300D02*
D03*
X91500Y341700D02*
D03*
Y326200D02*
D03*
X108500D02*
D03*
Y341700D02*
D03*
X91500Y253300D02*
D03*
Y268800D02*
D03*
X108500D02*
D03*
Y253300D02*
D03*
X21500Y341700D02*
D03*
Y326200D02*
D03*
X38500D02*
D03*
Y341700D02*
D03*
X21500Y253300D02*
D03*
Y268800D02*
D03*
X38500D02*
D03*
Y253300D02*
D03*
D44*
X158250Y372000D02*
D03*
X181750D02*
D03*
X158250Y307900D02*
D03*
X181474D02*
D03*
X158526Y287100D02*
D03*
X181750D02*
D03*
X158250Y223000D02*
D03*
X181750D02*
D03*
X88250Y372000D02*
D03*
X111750D02*
D03*
X88250Y307900D02*
D03*
X111474D02*
D03*
X88526Y287100D02*
D03*
X111750D02*
D03*
X88250Y223000D02*
D03*
X111750D02*
D03*
X18250Y372000D02*
D03*
X41750D02*
D03*
X18250Y307900D02*
D03*
X41474D02*
D03*
X18526Y287100D02*
D03*
X41750D02*
D03*
X18250Y223000D02*
D03*
X41750D02*
D03*
D45*
X180000Y23000D02*
D03*
X20000D02*
D03*
D46*
X137600Y62508D02*
D03*
X128400D02*
D03*
X127908Y116500D02*
D03*
X137108D02*
D03*
X126759Y179769D02*
D03*
X135959D02*
D03*
X58500Y188853D02*
D03*
X49300D02*
D03*
X58500Y181222D02*
D03*
X49300D02*
D03*
X58500Y173591D02*
D03*
X49300D02*
D03*
X58500Y157959D02*
D03*
X49300D02*
D03*
X92400Y151000D02*
D03*
X101600D02*
D03*
X67047D02*
D03*
X76247D02*
D03*
X114042D02*
D03*
X123242D02*
D03*
X127250Y169636D02*
D03*
X136450D02*
D03*
X37030Y128399D02*
D03*
X46230D02*
D03*
X15400Y198000D02*
D03*
X24600D02*
D03*
X15400Y164000D02*
D03*
X24600D02*
D03*
D47*
X68635Y94712D02*
D03*
Y103912D02*
D03*
X147008Y116400D02*
D03*
Y125600D02*
D03*
X17500Y104350D02*
D03*
Y95150D02*
D03*
X8750D02*
D03*
Y104350D02*
D03*
D48*
X128000Y102500D02*
D03*
X147000D02*
D03*
Y77500D02*
D03*
X137500D02*
D03*
X128000D02*
D03*
D49*
X104496Y202505D02*
D03*
X99496D02*
D03*
X94496D02*
D03*
X89496D02*
D03*
X84496D02*
D03*
X79496D02*
D03*
Y162505D02*
D03*
X84496D02*
D03*
X89496D02*
D03*
X94496D02*
D03*
X99496D02*
D03*
X104496D02*
D03*
D50*
X71996Y195005D02*
D03*
Y190005D02*
D03*
Y185005D02*
D03*
Y180005D02*
D03*
Y175005D02*
D03*
Y170005D02*
D03*
X111996D02*
D03*
Y175005D02*
D03*
Y180005D02*
D03*
Y185005D02*
D03*
Y190005D02*
D03*
Y195005D02*
D03*
D51*
X91996Y182505D02*
D03*
D52*
X83750Y101350D02*
D03*
D53*
Y70650D02*
D03*
D54*
X106496Y70505D02*
D03*
Y101505D02*
D03*
D55*
X69008Y121036D02*
D03*
X85008D02*
D03*
D56*
X78000Y38496D02*
D03*
X122000D02*
D03*
D57*
X179996Y60346D02*
D03*
D58*
Y108646D02*
D03*
D59*
X136000Y9008D02*
D03*
X98000D02*
D03*
X117000D02*
D03*
X79000D02*
D03*
X60000D02*
D03*
D60*
X46550Y202000D02*
D03*
X60450D02*
D03*
X48450Y79492D02*
D03*
X34550D02*
D03*
D61*
X76996Y140996D02*
D03*
X61996D02*
D03*
X88504Y141004D02*
D03*
X103505D02*
D03*
X132495Y140496D02*
D03*
X117495D02*
D03*
D62*
X56005Y94505D02*
D03*
Y104004D02*
D03*
Y113504D02*
D03*
X29005D02*
D03*
Y104004D02*
D03*
Y94505D02*
D03*
D63*
X27150Y62472D02*
D03*
D64*
X57850D02*
D03*
D65*
X25250Y187500D02*
D03*
D66*
X14750D02*
D03*
D67*
X14750Y175000D02*
D03*
D68*
X25250D02*
D03*
D69*
X30000Y395000D02*
D03*
X100000D02*
D03*
X170000D02*
D03*
M02*
