G04*
G04 #@! TF.GenerationSoftware,Altium Limited,Altium Designer,22.8.2 (66)*
G04*
G04 Layer_Physical_Order=3*
G04 Layer_Color=16737945*
%FSLAX44Y44*%
%MOMM*%
G71*
G04*
G04 #@! TF.SameCoordinates,D88EF3AF-AA8D-4CAB-B9DB-13285413298B*
G04*
G04*
G04 #@! TF.FilePolarity,Positive*
G04*
G01*
G75*
G04:AMPARAMS|DCode=81|XSize=4.5mm|YSize=2.5mm|CornerRadius=0.625mm|HoleSize=0mm|Usage=FLASHONLY|Rotation=0.000|XOffset=0mm|YOffset=0mm|HoleType=Round|Shape=RoundedRectangle|*
%AMROUNDEDRECTD81*
21,1,4.5000,1.2500,0,0,0.0*
21,1,3.2500,2.5000,0,0,0.0*
1,1,1.2500,1.6250,-0.6250*
1,1,1.2500,-1.6250,-0.6250*
1,1,1.2500,-1.6250,0.6250*
1,1,1.2500,1.6250,0.6250*
%
%ADD81ROUNDEDRECTD81*%
%ADD82C,0.4500*%
%ADD83C,0.4000*%
G36*
X196131Y408198D02*
X196399Y408087D01*
X198087Y406399D01*
X198198Y406131D01*
X198402Y405104D01*
X198359Y405000D01*
Y353258D01*
X198087Y352601D01*
X196399Y350913D01*
X194193Y350000D01*
X193000Y350000D01*
Y350000D01*
X193000Y350000D01*
Y350000D01*
X140000Y350000D01*
X138906Y349900D01*
X136808Y350554D01*
X135120Y351960D01*
X134099Y353906D01*
X134000Y355000D01*
Y402690D01*
X134269Y404042D01*
X134797Y405316D01*
X135563Y406462D01*
X136538Y407437D01*
X137684Y408203D01*
X138060Y408359D01*
X195000D01*
X195104Y408402D01*
X196131Y408198D01*
D02*
G37*
G36*
X129899Y408087D02*
X131587Y406399D01*
X132500Y404193D01*
X132500Y403000D01*
X132500Y403000D01*
X132500Y403000D01*
X132500Y356000D01*
X132500Y354806D01*
X131587Y352601D01*
X129899Y350913D01*
X127693Y350000D01*
X126500Y350000D01*
Y350000D01*
X126500Y350000D01*
Y350000D01*
X73500Y350000D01*
X72406Y349900D01*
X70308Y350554D01*
X68620Y351960D01*
X67599Y353906D01*
X67500Y355000D01*
Y402690D01*
X67769Y404042D01*
X68297Y405316D01*
X69063Y406462D01*
X70038Y407437D01*
X71184Y408203D01*
X71560Y408359D01*
X129242D01*
X129899Y408087D01*
D02*
G37*
G36*
X63399D02*
X65087Y406399D01*
X66000Y404193D01*
X66000Y403000D01*
X66000Y403000D01*
X66000Y403000D01*
X66000Y356000D01*
X66000Y354806D01*
X65087Y352601D01*
X63399Y350913D01*
X61193Y350000D01*
X60000Y350000D01*
Y350000D01*
X60000Y350000D01*
Y350000D01*
X7000Y350000D01*
X5906Y349900D01*
X3808Y350554D01*
X2120Y351960D01*
X1641Y352874D01*
Y404940D01*
X1797Y405316D01*
X2563Y406462D01*
X3538Y407437D01*
X4684Y408203D01*
X5060Y408359D01*
X62742D01*
X63399Y408087D01*
D02*
G37*
G36*
X67383Y351951D02*
X67647Y351449D01*
X67815Y351309D01*
X67916Y351116D01*
X69604Y349709D01*
X69813Y349644D01*
X69981Y349504D01*
X72079Y348850D01*
X72297Y348870D01*
X72506Y348805D01*
X73550Y348900D01*
X126500Y348900D01*
X127693Y348900D01*
X127895Y348984D01*
X128114Y348984D01*
X130320Y349897D01*
X130475Y350051D01*
X130677Y350135D01*
X132365Y351823D01*
X132431Y351984D01*
X132543Y352028D01*
X133334Y352050D01*
X133883Y351951D01*
X134146Y351449D01*
X134315Y351309D01*
X134416Y351116D01*
X136104Y349709D01*
X136313Y349644D01*
X136481Y349504D01*
X138579Y348850D01*
X138797Y348870D01*
X139006Y348805D01*
X140050Y348900D01*
X193000Y348900D01*
X194193Y348900D01*
X194395Y348984D01*
X194614Y348984D01*
X196820Y349897D01*
X196975Y350051D01*
X197177Y350135D01*
X197186Y350144D01*
X198359Y349658D01*
Y45226D01*
X198029Y44887D01*
X197750Y44709D01*
X197120Y44559D01*
X196018Y45016D01*
X195799D01*
X195597Y45100D01*
X166204D01*
X166002Y45016D01*
X165784D01*
X164313Y44407D01*
X164159Y44252D01*
X163957Y44169D01*
X162831Y43043D01*
X162748Y42841D01*
X162593Y42687D01*
X161984Y41217D01*
Y40998D01*
X161900Y40796D01*
Y18000D01*
Y3403D01*
X161984Y3201D01*
Y2982D01*
X162014Y2911D01*
X161165Y1641D01*
X5000D01*
X4896Y1598D01*
X3690Y1838D01*
X2580Y2580D01*
X1838Y3690D01*
X1598Y4896D01*
X1641Y5000D01*
X1641Y5000D01*
X1641Y5000D01*
Y52500D01*
X1622Y52546D01*
Y232954D01*
X1641Y233000D01*
Y349431D01*
X2791Y349970D01*
X3104Y349709D01*
X3313Y349644D01*
X3481Y349504D01*
X5579Y348850D01*
X5797Y348870D01*
X6006Y348805D01*
X7050Y348900D01*
X60000Y348900D01*
X61193Y348900D01*
X61395Y348984D01*
X61614Y348984D01*
X63820Y349897D01*
X63974Y350051D01*
X64177Y350135D01*
X65865Y351823D01*
X65931Y351984D01*
X66043Y352028D01*
X66834Y352050D01*
X67383Y351951D01*
D02*
G37*
G36*
X196699Y43543D02*
X197543Y42699D01*
X198000Y41597D01*
Y3447D01*
X197420Y2580D01*
X196310Y1838D01*
X196198Y1815D01*
X195000Y1641D01*
Y1641D01*
X164116D01*
X163457Y2301D01*
X163000Y3403D01*
Y18000D01*
Y40796D01*
X163609Y42266D01*
X164734Y43391D01*
X166204Y44000D01*
X195597D01*
X196699Y43543D01*
D02*
G37*
%LPC*%
G36*
X145461Y323026D02*
X145256Y322943D01*
X145035Y322944D01*
X143927Y322491D01*
X143770Y322335D01*
X143566Y322251D01*
X142720Y321405D01*
X142635Y321200D01*
X142480Y321044D01*
X142262Y320512D01*
X142263Y320401D01*
X142201Y320308D01*
X141970Y319133D01*
X141992Y319024D01*
X141950Y318921D01*
Y300065D01*
X141888Y299511D01*
X141957Y299272D01*
X141943Y299025D01*
X142352Y297856D01*
X142518Y297671D01*
X142612Y297442D01*
X143488Y296567D01*
X143717Y296472D01*
X143902Y296307D01*
X145070Y295897D01*
X145318Y295911D01*
X145556Y295842D01*
X146111Y295904D01*
X177996Y295904D01*
X178043Y295923D01*
X178091Y295908D01*
X178671Y295959D01*
X178845Y296049D01*
X179040Y296057D01*
X180095Y296549D01*
X180227Y296693D01*
X180408Y296768D01*
X181231Y297591D01*
X181306Y297772D01*
X181450Y297904D01*
X181942Y298959D01*
X181950Y299155D01*
X182041Y299328D01*
X182092Y299908D01*
X182076Y299957D01*
X182096Y300004D01*
X182096Y309254D01*
X183366Y309507D01*
X183557Y309044D01*
X184476Y308125D01*
X185677Y307628D01*
X186976D01*
X188176Y308125D01*
X189095Y309044D01*
X189592Y310245D01*
Y311544D01*
X189095Y312744D01*
X188176Y313663D01*
X186976Y314160D01*
X185677D01*
X184476Y313663D01*
X183557Y312744D01*
X183366Y312281D01*
X182096Y312534D01*
X182096Y318920D01*
X182096Y319517D01*
X182013Y319720D01*
X182013Y319939D01*
X181556Y321042D01*
X181402Y321197D01*
X181318Y321399D01*
X180473Y322243D01*
X180271Y322327D01*
X180116Y322482D01*
X179569Y322709D01*
X179456Y322708D01*
X179363Y322771D01*
X178211Y323000D01*
X178101Y322978D01*
X177997Y323021D01*
X177996D01*
X177995Y323021D01*
X146053Y323021D01*
X145461Y323026D01*
D02*
G37*
G36*
X78461D02*
X78256Y322943D01*
X78035Y322944D01*
X76927Y322491D01*
X76770Y322335D01*
X76566Y322251D01*
X75720Y321405D01*
X75635Y321200D01*
X75480Y321044D01*
X75262Y320512D01*
X75263Y320401D01*
X75201Y320308D01*
X74970Y319133D01*
X74992Y319024D01*
X74949Y318921D01*
Y300065D01*
X74888Y299511D01*
X74956Y299272D01*
X74943Y299025D01*
X75352Y297856D01*
X75518Y297671D01*
X75613Y297442D01*
X76488Y296567D01*
X76717Y296472D01*
X76902Y296307D01*
X78070Y295897D01*
X78318Y295911D01*
X78556Y295842D01*
X79111Y295904D01*
X110996Y295904D01*
X111043Y295923D01*
X111091Y295908D01*
X111671Y295959D01*
X111845Y296049D01*
X112040Y296057D01*
X113095Y296549D01*
X113227Y296693D01*
X113408Y296768D01*
X114231Y297591D01*
X114306Y297772D01*
X114450Y297904D01*
X114942Y298959D01*
X114951Y299155D01*
X115041Y299328D01*
X115091Y299908D01*
X115076Y299957D01*
X115096Y300004D01*
X115096Y309634D01*
X116366Y309886D01*
X116624Y309263D01*
X117543Y308344D01*
X118743Y307847D01*
X120042D01*
X121243Y308344D01*
X122161Y309263D01*
X122659Y310463D01*
Y311763D01*
X122161Y312963D01*
X121243Y313882D01*
X120042Y314379D01*
X118743D01*
X117543Y313882D01*
X116624Y312963D01*
X116366Y312340D01*
X115096Y312593D01*
X115096Y318920D01*
X115096Y319517D01*
X115013Y319720D01*
X115013Y319939D01*
X114556Y321042D01*
X114402Y321197D01*
X114318Y321399D01*
X113474Y322243D01*
X113271Y322327D01*
X113116Y322482D01*
X112569Y322709D01*
X112456Y322708D01*
X112363Y322771D01*
X111211Y323000D01*
X111101Y322978D01*
X110997Y323021D01*
X110996D01*
X110995Y323021D01*
X79053Y323021D01*
X78461Y323026D01*
D02*
G37*
G36*
X11461D02*
X11256Y322943D01*
X11035Y322944D01*
X9927Y322491D01*
X9770Y322335D01*
X9566Y322251D01*
X8720Y321405D01*
X8635Y321200D01*
X8480Y321044D01*
X8262Y320512D01*
X8263Y320401D01*
X8201Y320308D01*
X7970Y319133D01*
X7992Y319024D01*
X7950Y318921D01*
Y300065D01*
X7888Y299511D01*
X7957Y299272D01*
X7943Y299025D01*
X8352Y297856D01*
X8518Y297671D01*
X8612Y297442D01*
X9488Y296567D01*
X9717Y296472D01*
X9902Y296307D01*
X11070Y295897D01*
X11318Y295911D01*
X11556Y295842D01*
X12111Y295904D01*
X43996Y295904D01*
X44043Y295923D01*
X44091Y295908D01*
X44671Y295959D01*
X44845Y296049D01*
X45040Y296057D01*
X46095Y296549D01*
X46227Y296693D01*
X46408Y296768D01*
X47231Y297591D01*
X47306Y297772D01*
X47450Y297904D01*
X47942Y298959D01*
X47951Y299155D01*
X48041Y299328D01*
X48091Y299908D01*
X48076Y299957D01*
X48096Y300004D01*
X48096Y308903D01*
X48964Y309238D01*
X49366Y309275D01*
X50200Y308441D01*
X51400Y307944D01*
X52700D01*
X53900Y308441D01*
X54819Y309360D01*
X55316Y310560D01*
Y311860D01*
X54819Y313060D01*
X53900Y313979D01*
X52700Y314476D01*
X51400D01*
X50200Y313979D01*
X49366Y313145D01*
X48964Y313182D01*
X48096Y313517D01*
X48096Y318920D01*
X48096Y319517D01*
X48013Y319720D01*
X48013Y319939D01*
X47556Y321042D01*
X47402Y321197D01*
X47318Y321399D01*
X46473Y322243D01*
X46271Y322327D01*
X46116Y322482D01*
X45568Y322709D01*
X45456Y322708D01*
X45363Y322771D01*
X44211Y323000D01*
X44101Y322978D01*
X43997Y323021D01*
X43996D01*
X43995Y323021D01*
X12053Y323021D01*
X11461Y323026D01*
D02*
G37*
G36*
X187650Y282266D02*
X186350D01*
X185150Y281769D01*
X184231Y280850D01*
X183734Y279650D01*
Y278350D01*
X184231Y277150D01*
X185150Y276231D01*
X186350Y275734D01*
X187650D01*
X188850Y276231D01*
X189769Y277150D01*
X190266Y278350D01*
Y279650D01*
X189769Y280850D01*
X188850Y281769D01*
X187650Y282266D01*
D02*
G37*
G36*
X120270D02*
X118970D01*
X117770Y281769D01*
X116851Y280850D01*
X116354Y279650D01*
Y278350D01*
X116851Y277150D01*
X117770Y276231D01*
X118970Y275734D01*
X120270D01*
X121470Y276231D01*
X122389Y277150D01*
X122886Y278350D01*
Y279650D01*
X122389Y280850D01*
X121470Y281769D01*
X120270Y282266D01*
D02*
G37*
G36*
X80650D02*
X79350D01*
X78150Y281769D01*
X77231Y280850D01*
X76734Y279650D01*
Y278350D01*
X77231Y277150D01*
X78150Y276231D01*
X79350Y275734D01*
X80650D01*
X81850Y276231D01*
X82769Y277150D01*
X83266Y278350D01*
Y279650D01*
X82769Y280850D01*
X81850Y281769D01*
X80650Y282266D01*
D02*
G37*
G36*
X13030D02*
X11730D01*
X10530Y281769D01*
X9611Y280850D01*
X9114Y279650D01*
Y278350D01*
X9611Y277150D01*
X10530Y276231D01*
X11730Y275734D01*
X13030D01*
X14230Y276231D01*
X15149Y277150D01*
X15646Y278350D01*
Y279650D01*
X15149Y280850D01*
X14230Y281769D01*
X13030Y282266D01*
D02*
G37*
G36*
X52683Y282073D02*
X51383D01*
X50183Y281576D01*
X49264Y280657D01*
X48767Y279457D01*
Y278157D01*
X49264Y276957D01*
X50183Y276038D01*
X51383Y275541D01*
X52683D01*
X53883Y276038D01*
X54802Y276957D01*
X55299Y278157D01*
Y279457D01*
X54802Y280657D01*
X53883Y281576D01*
X52683Y282073D01*
D02*
G37*
G36*
X148030Y282056D02*
X146730D01*
X145530Y281559D01*
X144611Y280640D01*
X144114Y279440D01*
Y278140D01*
X144611Y276940D01*
X145530Y276021D01*
X146730Y275524D01*
X148030D01*
X149230Y276021D01*
X150149Y276940D01*
X150646Y278140D01*
Y279440D01*
X150149Y280640D01*
X149230Y281559D01*
X148030Y282056D01*
D02*
G37*
G36*
X67456Y259783D02*
X66156D01*
X64956Y259286D01*
X64037Y258368D01*
X63540Y257167D01*
Y255868D01*
X64037Y254667D01*
X64956Y253749D01*
X66156Y253251D01*
X67456D01*
X68656Y253749D01*
X69575Y254667D01*
X70072Y255868D01*
Y257167D01*
X69575Y258368D01*
X68656Y259286D01*
X67456Y259783D01*
D02*
G37*
G36*
X136600Y242016D02*
X135400D01*
X134292Y241557D01*
X133443Y240708D01*
X132984Y239600D01*
Y238400D01*
X133443Y237292D01*
X134292Y236443D01*
X135400Y235984D01*
X136600D01*
X137708Y236443D01*
X138557Y237292D01*
X139016Y238400D01*
Y239600D01*
X138557Y240708D01*
X137708Y241557D01*
X136600Y242016D01*
D02*
G37*
G36*
X34183Y218825D02*
X32983D01*
X31875Y218366D01*
X31026Y217517D01*
X30567Y216409D01*
Y215209D01*
X31026Y214101D01*
X31875Y213252D01*
X32983Y212793D01*
X34183D01*
X35291Y213252D01*
X36140Y214101D01*
X36599Y215209D01*
Y216409D01*
X36140Y217517D01*
X35291Y218366D01*
X34183Y218825D01*
D02*
G37*
G36*
X95088Y216630D02*
X93888D01*
X92780Y216171D01*
X91931Y215322D01*
X91472Y214214D01*
Y213014D01*
X91931Y211906D01*
X92780Y211057D01*
X93888Y210598D01*
X95088D01*
X96196Y211057D01*
X97045Y211906D01*
X97504Y213014D01*
Y214214D01*
X97045Y215322D01*
X96196Y216171D01*
X95088Y216630D01*
D02*
G37*
G36*
X168650Y216913D02*
X167350D01*
X166150Y216416D01*
X165231Y215497D01*
X164734Y214297D01*
Y212998D01*
X165231Y211797D01*
X166150Y210879D01*
X167350Y210382D01*
X168650D01*
X169850Y210879D01*
X170769Y211797D01*
X171266Y212998D01*
Y214297D01*
X170769Y215497D01*
X169850Y216416D01*
X168650Y216913D01*
D02*
G37*
G36*
X49902Y214905D02*
X48602D01*
X47402Y214408D01*
X46483Y213489D01*
X45986Y212289D01*
Y210989D01*
X46483Y209789D01*
X47402Y208870D01*
X48602Y208373D01*
X49902D01*
X51102Y208870D01*
X52021Y209789D01*
X52518Y210989D01*
Y212289D01*
X52021Y213489D01*
X51102Y214408D01*
X49902Y214905D01*
D02*
G37*
G36*
X62576Y212533D02*
X61376D01*
X60268Y212074D01*
X59419Y211225D01*
X58960Y210117D01*
Y208917D01*
X59419Y207808D01*
X60268Y206960D01*
X61376Y206501D01*
X62576D01*
X63684Y206960D01*
X64533Y207808D01*
X64992Y208917D01*
Y210117D01*
X64533Y211225D01*
X63684Y212074D01*
X62576Y212533D01*
D02*
G37*
G36*
X179850Y211666D02*
X178550D01*
X177350Y211169D01*
X176431Y210250D01*
X175934Y209050D01*
Y207750D01*
X176431Y206550D01*
X177350Y205631D01*
X178550Y205134D01*
X179850D01*
X181050Y205631D01*
X181969Y206550D01*
X182466Y207750D01*
Y209050D01*
X181969Y210250D01*
X181050Y211169D01*
X179850Y211666D01*
D02*
G37*
G36*
X146789Y209751D02*
X145590D01*
X144481Y209292D01*
X143633Y208443D01*
X143174Y207335D01*
Y206135D01*
X143633Y205026D01*
X144481Y204178D01*
X145590Y203719D01*
X146789D01*
X147898Y204178D01*
X148746Y205026D01*
X149206Y206135D01*
Y207335D01*
X148746Y208443D01*
X147898Y209292D01*
X146789Y209751D01*
D02*
G37*
G36*
X129720Y206136D02*
X128520D01*
X127412Y205677D01*
X126563Y204828D01*
X126104Y203720D01*
Y202520D01*
X126563Y201412D01*
X127412Y200563D01*
X128520Y200104D01*
X129720D01*
X130828Y200563D01*
X131677Y201412D01*
X132136Y202520D01*
Y203720D01*
X131677Y204828D01*
X130828Y205677D01*
X129720Y206136D01*
D02*
G37*
G36*
X8710Y204342D02*
X7510D01*
X6402Y203883D01*
X5553Y203034D01*
X5094Y201926D01*
Y200726D01*
X5553Y199617D01*
X6402Y198769D01*
X7510Y198310D01*
X8710D01*
X9818Y198769D01*
X10667Y199617D01*
X11126Y200726D01*
Y201926D01*
X10667Y203034D01*
X9818Y203883D01*
X8710Y204342D01*
D02*
G37*
G36*
X49899Y197628D02*
X48599D01*
X47399Y197131D01*
X46480Y196212D01*
X45983Y195012D01*
Y193713D01*
X46480Y192512D01*
X47399Y191593D01*
X48599Y191096D01*
X49899D01*
X51099Y191593D01*
X52018Y192512D01*
X52515Y193713D01*
Y195012D01*
X52018Y196212D01*
X51099Y197131D01*
X49899Y197628D01*
D02*
G37*
G36*
X139768Y188011D02*
X138469D01*
X137268Y187513D01*
X136349Y186595D01*
X135852Y185394D01*
Y184095D01*
X136349Y182895D01*
X137268Y181976D01*
X138469Y181479D01*
X139768D01*
X140968Y181976D01*
X141887Y182895D01*
X142384Y184095D01*
Y185394D01*
X141887Y186595D01*
X140968Y187513D01*
X139768Y188011D01*
D02*
G37*
G36*
X147502Y180401D02*
X146203D01*
X145002Y179903D01*
X144084Y178985D01*
X143586Y177784D01*
Y176485D01*
X144084Y175285D01*
X145002Y174366D01*
X146203Y173869D01*
X147502D01*
X148702Y174366D01*
X149621Y175285D01*
X150118Y176485D01*
Y177784D01*
X149621Y178985D01*
X148702Y179903D01*
X147502Y180401D01*
D02*
G37*
G36*
X41002Y180961D02*
X39802D01*
X38694Y180502D01*
X37846Y179654D01*
X37386Y178545D01*
Y177345D01*
X37846Y176237D01*
X38694Y175389D01*
X39802Y174929D01*
X41002D01*
X42184Y174200D01*
X42643Y173092D01*
X43492Y172243D01*
X44600Y171784D01*
X45800D01*
X46908Y172243D01*
X47757Y173092D01*
X48216Y174200D01*
Y175400D01*
X47757Y176508D01*
X46908Y177357D01*
X45800Y177816D01*
X44600D01*
X43418Y178545D01*
X42959Y179654D01*
X42111Y180502D01*
X41002Y180961D01*
D02*
G37*
G36*
X160084Y184099D02*
X158884D01*
X157776Y183640D01*
X156927Y182792D01*
X156468Y181683D01*
Y180483D01*
X156927Y179375D01*
X157776Y178526D01*
X158219Y178343D01*
Y176968D01*
X157776Y176785D01*
X156927Y175937D01*
X156468Y174828D01*
Y173628D01*
X156927Y172520D01*
X157776Y171671D01*
X158884Y171212D01*
X160084D01*
X161193Y171671D01*
X162041Y172520D01*
X162500Y173628D01*
Y174828D01*
X162041Y175937D01*
X161193Y176785D01*
X160750Y176968D01*
Y178343D01*
X161193Y178526D01*
X162041Y179375D01*
X162500Y180483D01*
Y181683D01*
X162041Y182792D01*
X161193Y183640D01*
X160084Y184099D01*
D02*
G37*
G36*
X142324Y173467D02*
X141025D01*
X139825Y172970D01*
X138906Y172051D01*
X138409Y170851D01*
Y169551D01*
X138906Y168351D01*
X139825Y167432D01*
X141025Y166935D01*
X142324D01*
X143525Y167432D01*
X144443Y168351D01*
X144941Y169551D01*
Y170851D01*
X144443Y172051D01*
X143525Y172970D01*
X142324Y173467D01*
D02*
G37*
G36*
X149442Y168474D02*
X148143D01*
X146943Y167976D01*
X146024Y167058D01*
X145527Y165857D01*
Y164558D01*
X146024Y163358D01*
X146943Y162439D01*
X148143Y161942D01*
X149442D01*
X150643Y162439D01*
X151561Y163358D01*
X152059Y164558D01*
Y165857D01*
X151561Y167058D01*
X150643Y167976D01*
X149442Y168474D01*
D02*
G37*
G36*
X9046Y166999D02*
X7846D01*
X6738Y166539D01*
X5889Y165691D01*
X5430Y164583D01*
Y163383D01*
X5889Y162274D01*
X6738Y161426D01*
X7846Y160967D01*
X9046D01*
X10155Y161426D01*
X11003Y162274D01*
X11462Y163383D01*
Y164583D01*
X11003Y165691D01*
X10155Y166539D01*
X9046Y166999D01*
D02*
G37*
G36*
X139151Y163891D02*
X137852D01*
X136651Y163393D01*
X135733Y162475D01*
X135235Y161274D01*
Y159975D01*
X135733Y158775D01*
X136651Y157856D01*
X137852Y157359D01*
X139151D01*
X140351Y157856D01*
X141270Y158775D01*
X141767Y159975D01*
Y161274D01*
X141270Y162475D01*
X140351Y163393D01*
X139151Y163891D01*
D02*
G37*
G36*
X159235Y161373D02*
X158035D01*
X156927Y160914D01*
X156079Y160065D01*
X155619Y158957D01*
Y157757D01*
X156079Y156648D01*
X156927Y155800D01*
X158035Y155341D01*
X159235D01*
X160344Y155800D01*
X161192Y156648D01*
X161651Y157757D01*
Y158957D01*
X161192Y160065D01*
X160344Y160914D01*
X159235Y161373D01*
D02*
G37*
G36*
X148354Y160075D02*
X147055D01*
X145855Y159578D01*
X144936Y158659D01*
X144439Y157459D01*
Y156159D01*
X144936Y154959D01*
X145855Y154040D01*
X147055Y153543D01*
X148354D01*
X149555Y154040D01*
X150473Y154959D01*
X150970Y156159D01*
Y157459D01*
X150473Y158659D01*
X149555Y159578D01*
X148354Y160075D01*
D02*
G37*
G36*
X49754Y155142D02*
X48455D01*
X47255Y154645D01*
X46336Y153726D01*
X45839Y152526D01*
Y151226D01*
X46336Y150026D01*
X47255Y149107D01*
X48455Y148610D01*
X49754D01*
X50955Y149107D01*
X51873Y150026D01*
X52371Y151226D01*
Y152526D01*
X51873Y153726D01*
X50955Y154645D01*
X49754Y155142D01*
D02*
G37*
G36*
X41450Y152920D02*
X40250D01*
X39141Y152461D01*
X38293Y151612D01*
X37834Y150504D01*
Y149304D01*
X38293Y148195D01*
X39141Y147347D01*
X40250Y146888D01*
X41450D01*
X42558Y147347D01*
X43407Y148195D01*
X43866Y149304D01*
Y150504D01*
X43407Y151612D01*
X42558Y152461D01*
X41450Y152920D01*
D02*
G37*
G36*
X46925Y147196D02*
X45625D01*
X44425Y146699D01*
X43506Y145780D01*
X43009Y144580D01*
Y143281D01*
X43506Y142080D01*
X44425Y141162D01*
X45625Y140664D01*
X46925D01*
X48125Y141162D01*
X49044Y142080D01*
X49541Y143281D01*
Y144580D01*
X49044Y145780D01*
X48125Y146699D01*
X46925Y147196D01*
D02*
G37*
G36*
X54752Y146522D02*
X53452D01*
X52252Y146025D01*
X51333Y145106D01*
X50836Y143906D01*
Y142606D01*
X51333Y141406D01*
X52252Y140487D01*
X53452Y139990D01*
X54752D01*
X55952Y140487D01*
X56871Y141406D01*
X57368Y142606D01*
Y143906D01*
X56871Y145106D01*
X55952Y146025D01*
X54752Y146522D01*
D02*
G37*
G36*
X22952Y146018D02*
X21752D01*
X20644Y145559D01*
X19795Y144710D01*
X19336Y143602D01*
Y142402D01*
X19795Y141294D01*
X20644Y140445D01*
X21752Y139986D01*
X22952D01*
X24060Y140445D01*
X24909Y141294D01*
X25368Y142402D01*
Y143602D01*
X24909Y144710D01*
X24060Y145559D01*
X22952Y146018D01*
D02*
G37*
G36*
X106335Y134008D02*
X105135D01*
X104026Y133549D01*
X103437Y132959D01*
X102880Y132740D01*
X101875Y132873D01*
X101336Y133412D01*
X100136Y133909D01*
X98836D01*
X97636Y133412D01*
X96717Y132493D01*
X96220Y131293D01*
Y129994D01*
X96717Y128793D01*
X97636Y127874D01*
X98836Y127377D01*
X100136D01*
X101336Y127874D01*
X102132Y128670D01*
X102345Y128795D01*
X103641Y128820D01*
X104026Y128435D01*
X105135Y127976D01*
X106335D01*
X107443Y128435D01*
X108292Y129284D01*
X108751Y130392D01*
Y131592D01*
X108292Y132700D01*
X107443Y133549D01*
X106335Y134008D01*
D02*
G37*
G36*
X159240Y138488D02*
X158040D01*
X156932Y138029D01*
X156083Y137181D01*
X155624Y136072D01*
Y134872D01*
X156083Y133764D01*
X156932Y132915D01*
X158040Y132456D01*
X159240D01*
X160348Y132915D01*
X161197Y133764D01*
X161656Y134872D01*
Y136072D01*
X161197Y137181D01*
X160348Y138029D01*
X159240Y138488D01*
D02*
G37*
G36*
X29606Y135600D02*
X28306D01*
X27106Y135103D01*
X26187Y134184D01*
X25690Y132984D01*
Y131684D01*
X26187Y130484D01*
X27106Y129565D01*
X28306Y129068D01*
X29606D01*
X30806Y129565D01*
X31725Y130484D01*
X32222Y131684D01*
Y132984D01*
X31725Y134184D01*
X30806Y135103D01*
X29606Y135600D01*
D02*
G37*
G36*
X124841Y132723D02*
X123541D01*
X122341Y132225D01*
X121422Y131306D01*
X120925Y130106D01*
Y128807D01*
X121422Y127606D01*
X122341Y126688D01*
X123541Y126191D01*
X124841D01*
X126041Y126688D01*
X126960Y127606D01*
X127457Y128807D01*
Y130106D01*
X126960Y131306D01*
X126041Y132225D01*
X124841Y132723D01*
D02*
G37*
G36*
X133250Y132466D02*
X131950D01*
X130750Y131969D01*
X129831Y131050D01*
X129334Y129850D01*
Y128550D01*
X129831Y127350D01*
X130750Y126431D01*
X131950Y125934D01*
X133250D01*
X134450Y126431D01*
X135369Y127350D01*
X135866Y128550D01*
Y129850D01*
X135369Y131050D01*
X134450Y131969D01*
X133250Y132466D01*
D02*
G37*
G36*
X117409Y118974D02*
X116209D01*
X115101Y118514D01*
X114252Y117666D01*
X113793Y116558D01*
Y115358D01*
X114252Y114249D01*
X115101Y113401D01*
X116209Y112942D01*
X117409D01*
X118517Y113401D01*
X119366Y114249D01*
X119825Y115358D01*
Y116558D01*
X119366Y117666D01*
X118517Y118514D01*
X117409Y118974D01*
D02*
G37*
G36*
X128671Y115170D02*
X127471D01*
X126363Y114711D01*
X125514Y113862D01*
X125055Y112754D01*
Y111554D01*
X125514Y110445D01*
X126363Y109597D01*
X127471Y109138D01*
X128671D01*
X129780Y109597D01*
X130628Y110445D01*
X131087Y111554D01*
Y112754D01*
X130628Y113862D01*
X129780Y114711D01*
X128671Y115170D01*
D02*
G37*
G36*
X94769Y115241D02*
X93569D01*
X92460Y114782D01*
X91612Y113933D01*
X91153Y112825D01*
Y111625D01*
X91612Y110516D01*
X92460Y109668D01*
X93569Y109209D01*
X94769D01*
X95877Y109668D01*
X96726Y110516D01*
X96928Y111006D01*
X98303D01*
X98535Y110445D01*
X99384Y109597D01*
X100492Y109138D01*
X101692D01*
X102800Y109597D01*
X103649Y110445D01*
X104108Y111554D01*
Y112754D01*
X103649Y113862D01*
X102800Y114711D01*
X101692Y115170D01*
X100492D01*
X99384Y114711D01*
X98535Y113862D01*
X98332Y113373D01*
X96958D01*
X96726Y113933D01*
X95877Y114782D01*
X94769Y115241D01*
D02*
G37*
G36*
X39600Y109016D02*
X38400D01*
X37292Y108557D01*
X36443Y107708D01*
X35984Y106600D01*
Y105400D01*
X36443Y104292D01*
X37211Y103523D01*
X37241Y102954D01*
X37155Y102125D01*
X37154Y102125D01*
X36305Y101276D01*
X35846Y100168D01*
Y98968D01*
X36305Y97860D01*
X37154Y97011D01*
X38262Y96552D01*
X39462D01*
X40570Y97011D01*
X41419Y97860D01*
X41878Y98968D01*
Y100168D01*
X41419Y101276D01*
X40651Y102045D01*
X40621Y102614D01*
X40707Y103443D01*
X40708Y103443D01*
X41557Y104292D01*
X42016Y105400D01*
Y106600D01*
X41557Y107708D01*
X40708Y108557D01*
X39600Y109016D01*
D02*
G37*
G36*
X157650Y100066D02*
X156350D01*
X155150Y99569D01*
X154231Y98650D01*
X153734Y97450D01*
Y96150D01*
X154231Y94950D01*
X155150Y94031D01*
X156350Y93534D01*
X157650D01*
X158850Y94031D01*
X159769Y94950D01*
X160266Y96150D01*
Y97450D01*
X159769Y98650D01*
X158850Y99569D01*
X157650Y100066D01*
D02*
G37*
G36*
X123975Y93968D02*
X122775D01*
X121666Y93508D01*
X120818Y92660D01*
X120359Y91552D01*
Y90352D01*
X120818Y89243D01*
X121666Y88395D01*
X122775Y87935D01*
X123975D01*
X125083Y88395D01*
X125932Y89243D01*
X126391Y90352D01*
Y91552D01*
X125932Y92660D01*
X125083Y93508D01*
X123975Y93968D01*
D02*
G37*
G36*
X180876Y91408D02*
X179676D01*
X178568Y90949D01*
X177719Y90100D01*
X177260Y88992D01*
Y87792D01*
X177719Y86684D01*
X178568Y85835D01*
X178712Y85775D01*
Y84401D01*
X178568Y84341D01*
X177719Y83492D01*
X177260Y82384D01*
Y81184D01*
X177719Y80076D01*
X178568Y79227D01*
X179676Y78768D01*
X180876D01*
X181984Y79227D01*
X182833Y80076D01*
X183292Y81184D01*
Y82384D01*
X182833Y83492D01*
X181984Y84341D01*
X181840Y84401D01*
Y85775D01*
X181984Y85835D01*
X182833Y86684D01*
X183292Y87792D01*
Y88992D01*
X182833Y90100D01*
X181984Y90949D01*
X180876Y91408D01*
D02*
G37*
G36*
X191162Y80816D02*
X189962D01*
X188854Y80357D01*
X188005Y79509D01*
X187546Y78400D01*
Y77200D01*
X188005Y76092D01*
X188854Y75243D01*
X189962Y74784D01*
X191162D01*
X192270Y75243D01*
X193119Y76092D01*
X193578Y77200D01*
Y78400D01*
X193119Y79509D01*
X192270Y80357D01*
X191162Y80816D01*
D02*
G37*
G36*
X60650Y19520D02*
X59350D01*
X58150Y19023D01*
X57231Y18104D01*
X56734Y16904D01*
Y15604D01*
X57231Y14404D01*
X58150Y13485D01*
X59350Y12988D01*
X60650D01*
X61850Y13485D01*
X62769Y14404D01*
X63266Y15604D01*
Y16904D01*
X62769Y18104D01*
X61850Y19023D01*
X60650Y19520D01*
D02*
G37*
G36*
X117650Y19270D02*
X116350D01*
X115150Y18773D01*
X114231Y17854D01*
X113734Y16654D01*
Y15354D01*
X114231Y14154D01*
X115150Y13235D01*
X116350Y12738D01*
X117650D01*
X118850Y13235D01*
X119769Y14154D01*
X120266Y15354D01*
Y16654D01*
X119769Y17854D01*
X118850Y18773D01*
X117650Y19270D01*
D02*
G37*
G36*
X98650D02*
X97350D01*
X96150Y18773D01*
X95231Y17854D01*
X94734Y16654D01*
Y15354D01*
X95231Y14154D01*
X96150Y13235D01*
X97350Y12738D01*
X98650D01*
X99850Y13235D01*
X100769Y14154D01*
X101266Y15354D01*
Y16654D01*
X100769Y17854D01*
X99850Y18773D01*
X98650Y19270D01*
D02*
G37*
G36*
X79650D02*
X78350D01*
X77150Y18773D01*
X76231Y17854D01*
X75734Y16654D01*
Y15354D01*
X76231Y14154D01*
X77150Y13235D01*
X78350Y12738D01*
X79650D01*
X80850Y13235D01*
X81769Y14154D01*
X82266Y15354D01*
Y16654D01*
X81769Y17854D01*
X80850Y18773D01*
X79650Y19270D01*
D02*
G37*
%LPD*%
G36*
X146050Y321922D02*
X177995Y321922D01*
X177996Y321921D01*
X177996Y321921D01*
X177997D01*
X179148Y321692D01*
X179696Y321466D01*
X180540Y320621D01*
X180997Y319518D01*
X180996Y318921D01*
X180996Y300004D01*
X180996Y300004D01*
X180945Y299424D01*
X180453Y298369D01*
X179630Y297546D01*
X178575Y297054D01*
X177996Y297003D01*
X146050Y297003D01*
X146049Y297003D01*
X145434Y296935D01*
X144266Y297344D01*
X143390Y298220D01*
X142980Y299389D01*
X143049Y300004D01*
Y318921D01*
X143280Y320096D01*
X143497Y320627D01*
X144344Y321473D01*
X145451Y321927D01*
X146050Y321922D01*
D02*
G37*
G36*
X79050D02*
X110995Y321922D01*
X110996Y321921D01*
X110996Y321921D01*
X110997D01*
X112148Y321692D01*
X112696Y321466D01*
X113540Y320621D01*
X113997Y319518D01*
X113996Y318921D01*
X113996Y300004D01*
X113996Y300004D01*
X113945Y299424D01*
X113453Y298369D01*
X112630Y297546D01*
X111575Y297054D01*
X110996Y297003D01*
X79050Y297003D01*
X79050Y297003D01*
X78434Y296935D01*
X77266Y297344D01*
X76390Y298220D01*
X75981Y299389D01*
X76049Y300004D01*
Y318921D01*
X76280Y320096D01*
X76498Y320627D01*
X77344Y321473D01*
X78451Y321927D01*
X79050Y321922D01*
D02*
G37*
G36*
X12050D02*
X43995Y321922D01*
X43995Y321921D01*
X43996Y321921D01*
X43997D01*
X45148Y321692D01*
X45696Y321466D01*
X46540Y320621D01*
X46997Y319518D01*
X46996Y318921D01*
X46996Y300004D01*
X46996Y300004D01*
X46945Y299424D01*
X46453Y298369D01*
X45630Y297546D01*
X44575Y297054D01*
X43996Y297003D01*
X12050Y297003D01*
X12049Y297003D01*
X11434Y296935D01*
X10266Y297344D01*
X9390Y298220D01*
X8981Y299389D01*
X9049Y300004D01*
Y318921D01*
X9280Y320096D01*
X9498Y320627D01*
X10344Y321473D01*
X11451Y321927D01*
X12050Y321922D01*
D02*
G37*
D81*
X170000Y395000D02*
D03*
X100000D02*
D03*
X30000D02*
D03*
D82*
X85000Y316000D02*
D03*
X90000D02*
D03*
X95000D02*
D03*
X100000D02*
D03*
X105000D02*
D03*
X110000D02*
D03*
X43230Y363496D02*
D03*
X53230Y353496D02*
D03*
X48230D02*
D03*
X28230Y363496D02*
D03*
X18230D02*
D03*
X53230D02*
D03*
X48230D02*
D03*
X38230D02*
D03*
X33230D02*
D03*
X53230Y358496D02*
D03*
X43230D02*
D03*
X48230D02*
D03*
X43230Y353496D02*
D03*
X23230Y363496D02*
D03*
X13230D02*
D03*
X18230Y358496D02*
D03*
Y353496D02*
D03*
X13230Y358496D02*
D03*
Y353496D02*
D03*
X33230Y358496D02*
D03*
Y353496D02*
D03*
X23230D02*
D03*
Y358496D02*
D03*
X28230D02*
D03*
Y353496D02*
D03*
X38230Y358496D02*
D03*
Y353496D02*
D03*
X120283Y363496D02*
D03*
X115283D02*
D03*
X110283D02*
D03*
X105283D02*
D03*
X95283D02*
D03*
X85283D02*
D03*
X100283D02*
D03*
X90283D02*
D03*
X80283D02*
D03*
X120283Y358496D02*
D03*
X115283D02*
D03*
X110283D02*
D03*
X105283D02*
D03*
X100283D02*
D03*
X95283D02*
D03*
X90283D02*
D03*
X85283D02*
D03*
X80283D02*
D03*
X120283Y353496D02*
D03*
X115283D02*
D03*
X100283D02*
D03*
X95283D02*
D03*
X90283D02*
D03*
X80283D02*
D03*
X105283D02*
D03*
X110283D02*
D03*
X85283D02*
D03*
X147230Y363496D02*
D03*
X167230D02*
D03*
X157230D02*
D03*
X187230D02*
D03*
X182230D02*
D03*
X177230D02*
D03*
X172230D02*
D03*
X162230D02*
D03*
X152230D02*
D03*
X187230Y358496D02*
D03*
X182230D02*
D03*
X177230D02*
D03*
X172230D02*
D03*
X167230D02*
D03*
X162230D02*
D03*
X157230D02*
D03*
X152230D02*
D03*
X147230D02*
D03*
X162230Y353496D02*
D03*
X167230D02*
D03*
X177230D02*
D03*
X182230D02*
D03*
X187230D02*
D03*
X157230D02*
D03*
X152230D02*
D03*
X147230D02*
D03*
X172230D02*
D03*
X167000Y304000D02*
D03*
X152000Y316000D02*
D03*
X162000D02*
D03*
X147000D02*
D03*
X162000Y304000D02*
D03*
X172000Y310000D02*
D03*
X177000Y316000D02*
D03*
X152000Y310000D02*
D03*
X172000Y304000D02*
D03*
X157000Y310000D02*
D03*
X177000Y304000D02*
D03*
X162000Y310000D02*
D03*
X157000Y304000D02*
D03*
X167000Y310000D02*
D03*
X157000Y316000D02*
D03*
X152000Y304000D02*
D03*
X177000Y310000D02*
D03*
X147000Y304000D02*
D03*
Y310000D02*
D03*
X172000Y316000D02*
D03*
X167000D02*
D03*
X38000D02*
D03*
X13000D02*
D03*
X18000D02*
D03*
X23000D02*
D03*
X43000D02*
D03*
X33000D02*
D03*
X28000D02*
D03*
X28000Y310000D02*
D03*
X33000D02*
D03*
X43000D02*
D03*
X23000D02*
D03*
X18000D02*
D03*
X13000D02*
D03*
X38000D02*
D03*
X28000Y304000D02*
D03*
X33000D02*
D03*
X43000D02*
D03*
X23000D02*
D03*
X18000D02*
D03*
X13000D02*
D03*
X38000D02*
D03*
X80000Y316000D02*
D03*
X95000Y310000D02*
D03*
X100000D02*
D03*
X110000D02*
D03*
X90000D02*
D03*
X85000D02*
D03*
X80000D02*
D03*
X105000D02*
D03*
X95000Y304000D02*
D03*
X100000D02*
D03*
X110000D02*
D03*
X90000D02*
D03*
X85000D02*
D03*
X80000D02*
D03*
X105000D02*
D03*
X36001Y50001D02*
D03*
X26001D02*
D03*
X16001D02*
D03*
X6001Y170001D02*
D03*
Y150001D02*
D03*
X11001Y60001D02*
D03*
X6001Y50001D02*
D03*
X172230Y369496D02*
D03*
X169314Y39000D02*
D03*
Y31000D02*
D03*
X176314D02*
D03*
X183314Y23000D02*
D03*
Y15000D02*
D03*
X176314D02*
D03*
Y23000D02*
D03*
X190314Y15000D02*
D03*
X190314Y39000D02*
D03*
X176314Y7000D02*
D03*
X190314Y31000D02*
D03*
X169814Y7000D02*
D03*
X190314D02*
D03*
X183314Y31000D02*
D03*
X183314Y7000D02*
D03*
X183314Y39000D02*
D03*
X169314Y15000D02*
D03*
X190314Y23000D02*
D03*
X169314D02*
D03*
X176314Y39000D02*
D03*
X179000Y388000D02*
D03*
Y402500D02*
D03*
X170000D02*
D03*
X152000D02*
D03*
X188000D02*
D03*
X179000Y395000D02*
D03*
X161000Y402500D02*
D03*
X152000Y395000D02*
D03*
X188000D02*
D03*
X170000Y388000D02*
D03*
X161000Y395000D02*
D03*
X188000Y388000D02*
D03*
X161000D02*
D03*
X152000D02*
D03*
X100000D02*
D03*
X82000Y402500D02*
D03*
X118000D02*
D03*
X109000Y395000D02*
D03*
X91000Y402500D02*
D03*
X82000Y395000D02*
D03*
X118000D02*
D03*
X109000Y388000D02*
D03*
X91000Y395000D02*
D03*
X82000Y388000D02*
D03*
X118000D02*
D03*
X91000D02*
D03*
X109000Y402500D02*
D03*
X100000D02*
D03*
X147230Y369496D02*
D03*
X152230D02*
D03*
X157230D02*
D03*
X187230D02*
D03*
X182230D02*
D03*
X177230D02*
D03*
X167230D02*
D03*
X162230D02*
D03*
X147230Y374496D02*
D03*
X152230D02*
D03*
X157230D02*
D03*
X162230D02*
D03*
X167230D02*
D03*
X172230D02*
D03*
X177230D02*
D03*
X182230D02*
D03*
X187230D02*
D03*
X152230Y379496D02*
D03*
X162230D02*
D03*
X172230D02*
D03*
X177230D02*
D03*
X182230D02*
D03*
X187230D02*
D03*
X157230D02*
D03*
X167230D02*
D03*
X147230D02*
D03*
X85283Y369496D02*
D03*
X110283D02*
D03*
X105283D02*
D03*
X80283D02*
D03*
X90283D02*
D03*
X95283D02*
D03*
X100283D02*
D03*
X115283D02*
D03*
X120283D02*
D03*
X80283Y374496D02*
D03*
X85283D02*
D03*
X90283D02*
D03*
X95283D02*
D03*
X100283D02*
D03*
X105283D02*
D03*
X110283D02*
D03*
X115283D02*
D03*
X120283D02*
D03*
X80283Y379496D02*
D03*
X90283D02*
D03*
X100283D02*
D03*
X85283D02*
D03*
X95283D02*
D03*
X105283D02*
D03*
X110283D02*
D03*
X115283D02*
D03*
X120283D02*
D03*
X38230Y369496D02*
D03*
Y374496D02*
D03*
X28230Y369496D02*
D03*
Y374496D02*
D03*
X23230D02*
D03*
Y369496D02*
D03*
X33230D02*
D03*
Y374496D02*
D03*
X13230Y369496D02*
D03*
Y374496D02*
D03*
X18230Y369496D02*
D03*
Y374496D02*
D03*
X13230Y379496D02*
D03*
X23230D02*
D03*
X43230Y369496D02*
D03*
X48230Y374496D02*
D03*
X43230D02*
D03*
X53230D02*
D03*
X33230Y379496D02*
D03*
X38230D02*
D03*
X48230D02*
D03*
X53230D02*
D03*
X18230D02*
D03*
X28230D02*
D03*
X48230Y369496D02*
D03*
X9294Y39000D02*
D03*
Y23000D02*
D03*
Y31000D02*
D03*
Y7000D02*
D03*
Y15000D02*
D03*
X16294Y7000D02*
D03*
Y15000D02*
D03*
Y23000D02*
D03*
Y31000D02*
D03*
Y39000D02*
D03*
X23294Y7000D02*
D03*
Y15000D02*
D03*
Y23000D02*
D03*
Y31000D02*
D03*
Y39000D02*
D03*
X30294Y7000D02*
D03*
Y15000D02*
D03*
Y23000D02*
D03*
Y31000D02*
D03*
Y39000D02*
D03*
X53230Y369496D02*
D03*
X43230Y379496D02*
D03*
X30000Y388000D02*
D03*
Y402500D02*
D03*
X48000D02*
D03*
Y395000D02*
D03*
Y388000D02*
D03*
X39000Y402500D02*
D03*
Y395000D02*
D03*
Y388000D02*
D03*
X21000Y402500D02*
D03*
Y395000D02*
D03*
Y388000D02*
D03*
X12000Y402500D02*
D03*
Y388000D02*
D03*
Y395000D02*
D03*
D83*
X144915Y135696D02*
D03*
X147008Y125600D02*
D03*
X60250Y203466D02*
D03*
X5842Y187706D02*
D03*
X157763Y68820D02*
D03*
X143256Y62484D02*
D03*
X34798Y87770D02*
D03*
X18400Y62400D02*
D03*
X68485Y67705D02*
D03*
X73152Y64770D02*
D03*
X4672Y88314D02*
D03*
X5864Y180271D02*
D03*
X17587Y109702D02*
D03*
X37084Y120396D02*
D03*
X81850Y177326D02*
D03*
Y171944D02*
D03*
Y182709D02*
D03*
Y188105D02*
D03*
X88554Y171944D02*
D03*
Y182709D02*
D03*
X96279Y66293D02*
D03*
X150216Y62642D02*
D03*
X157763D02*
D03*
X88554Y177326D02*
D03*
X95257Y182723D02*
D03*
Y171958D02*
D03*
Y177340D02*
D03*
X101961Y182709D02*
D03*
Y171944D02*
D03*
Y177326D02*
D03*
X115459Y164194D02*
D03*
X121504Y164442D02*
D03*
X81850Y193487D02*
D03*
X88554D02*
D03*
Y188105D02*
D03*
X95257Y193487D02*
D03*
Y188105D02*
D03*
X101961Y193487D02*
D03*
Y188105D02*
D03*
M02*
