G04*
G04 #@! TF.GenerationSoftware,Altium Limited,Altium Designer,22.8.2 (66)*
G04*
G04 Layer_Color=16711935*
%FSLAX44Y44*%
%MOMM*%
G71*
G04*
G04 #@! TF.SameCoordinates,D88EF3AF-AA8D-4CAB-B9DB-13285413298B*
G04*
G04*
G04 #@! TF.FilePolarity,Negative*
G04*
G01*
G75*
G04:AMPARAMS|DCode=49|XSize=0.68mm|YSize=0.68mm|CornerRadius=0.2008mm|HoleSize=0mm|Usage=FLASHONLY|Rotation=270.000|XOffset=0mm|YOffset=0mm|HoleType=Round|Shape=RoundedRectangle|*
%AMROUNDEDRECTD49*
21,1,0.6800,0.2784,0,0,270.0*
21,1,0.2784,0.6800,0,0,270.0*
1,1,0.4016,-0.1392,-0.1392*
1,1,0.4016,-0.1392,0.1392*
1,1,0.4016,0.1392,0.1392*
1,1,0.4016,0.1392,-0.1392*
%
%ADD49ROUNDEDRECTD49*%
G04:AMPARAMS|DCode=51|XSize=0.68mm|YSize=0.68mm|CornerRadius=0.2008mm|HoleSize=0mm|Usage=FLASHONLY|Rotation=0.000|XOffset=0mm|YOffset=0mm|HoleType=Round|Shape=RoundedRectangle|*
%AMROUNDEDRECTD51*
21,1,0.6800,0.2784,0,0,0.0*
21,1,0.2784,0.6800,0,0,0.0*
1,1,0.4016,0.1392,-0.1392*
1,1,0.4016,-0.1392,-0.1392*
1,1,0.4016,-0.1392,0.1392*
1,1,0.4016,0.1392,0.1392*
%
%ADD51ROUNDEDRECTD51*%
G04:AMPARAMS|DCode=71|XSize=2.88mm|YSize=3.32mm|CornerRadius=0.3002mm|HoleSize=0mm|Usage=FLASHONLY|Rotation=270.000|XOffset=0mm|YOffset=0mm|HoleType=Round|Shape=RoundedRectangle|*
%AMROUNDEDRECTD71*
21,1,2.8800,2.7196,0,0,270.0*
21,1,2.2796,3.3200,0,0,270.0*
1,1,0.6004,-1.3598,-1.1398*
1,1,0.6004,-1.3598,1.1398*
1,1,0.6004,1.3598,1.1398*
1,1,0.6004,1.3598,-1.1398*
%
%ADD71ROUNDEDRECTD71*%
G04:AMPARAMS|DCode=72|XSize=2.88mm|YSize=3.32mm|CornerRadius=0.3002mm|HoleSize=0mm|Usage=FLASHONLY|Rotation=270.000|XOffset=0mm|YOffset=0mm|HoleType=Round|Shape=RoundedRectangle|*
%AMROUNDEDRECTD72*
21,1,2.8800,2.7196,0,0,270.0*
21,1,2.2796,3.3200,0,0,270.0*
1,1,0.6004,-1.3598,-1.1398*
1,1,0.6004,-1.3598,1.1398*
1,1,0.6004,1.3598,1.1398*
1,1,0.6004,1.3598,-1.1398*
%
%ADD72ROUNDEDRECTD72*%
G04:AMPARAMS|DCode=73|XSize=4.6mm|YSize=2.6mm|CornerRadius=0.675mm|HoleSize=0mm|Usage=FLASHONLY|Rotation=0.000|XOffset=0mm|YOffset=0mm|HoleType=Round|Shape=RoundedRectangle|*
%AMROUNDEDRECTD73*
21,1,4.6000,1.2500,0,0,0.0*
21,1,3.2500,2.6000,0,0,0.0*
1,1,1.3500,1.6250,-0.6250*
1,1,1.3500,-1.6250,-0.6250*
1,1,1.3500,-1.6250,0.6250*
1,1,1.3500,1.6250,0.6250*
%
%ADD73ROUNDEDRECTD73*%
G04:AMPARAMS|DCode=106|XSize=0.37mm|YSize=0.86mm|CornerRadius=0.1202mm|HoleSize=0mm|Usage=FLASHONLY|Rotation=0.000|XOffset=0mm|YOffset=0mm|HoleType=Round|Shape=RoundedRectangle|*
%AMROUNDEDRECTD106*
21,1,0.3700,0.6196,0,0,0.0*
21,1,0.1296,0.8600,0,0,0.0*
1,1,0.2404,0.0648,-0.3098*
1,1,0.2404,-0.0648,-0.3098*
1,1,0.2404,-0.0648,0.3098*
1,1,0.2404,0.0648,0.3098*
%
%ADD106ROUNDEDRECTD106*%
G04:AMPARAMS|DCode=107|XSize=0.37mm|YSize=0.86mm|CornerRadius=0.1202mm|HoleSize=0mm|Usage=FLASHONLY|Rotation=90.000|XOffset=0mm|YOffset=0mm|HoleType=Round|Shape=RoundedRectangle|*
%AMROUNDEDRECTD107*
21,1,0.3700,0.6196,0,0,90.0*
21,1,0.1296,0.8600,0,0,90.0*
1,1,0.2404,0.3098,0.0648*
1,1,0.2404,0.3098,-0.0648*
1,1,0.2404,-0.3098,-0.0648*
1,1,0.2404,-0.3098,0.0648*
%
%ADD107ROUNDEDRECTD107*%
G04:AMPARAMS|DCode=108|XSize=0.37mm|YSize=0.86mm|CornerRadius=0.1202mm|HoleSize=0mm|Usage=FLASHONLY|Rotation=90.000|XOffset=0mm|YOffset=0mm|HoleType=Round|Shape=RoundedRectangle|*
%AMROUNDEDRECTD108*
21,1,0.3700,0.6196,0,0,90.0*
21,1,0.1296,0.8600,0,0,90.0*
1,1,0.2404,0.3098,0.0648*
1,1,0.2404,0.3098,-0.0648*
1,1,0.2404,-0.3098,-0.0648*
1,1,0.2404,-0.3098,0.0648*
%
%ADD108ROUNDEDRECTD108*%
G04:AMPARAMS|DCode=109|XSize=0.37mm|YSize=0.86mm|CornerRadius=0.1202mm|HoleSize=0mm|Usage=FLASHONLY|Rotation=0.000|XOffset=0mm|YOffset=0mm|HoleType=Round|Shape=RoundedRectangle|*
%AMROUNDEDRECTD109*
21,1,0.3700,0.6196,0,0,0.0*
21,1,0.1296,0.8600,0,0,0.0*
1,1,0.2404,0.0648,-0.3098*
1,1,0.2404,-0.0648,-0.3098*
1,1,0.2404,-0.0648,0.3098*
1,1,0.2404,0.0648,0.3098*
%
%ADD109ROUNDEDRECTD109*%
G04:AMPARAMS|DCode=110|XSize=0.37mm|YSize=0.86mm|CornerRadius=0.1202mm|HoleSize=0mm|Usage=FLASHONLY|Rotation=90.000|XOffset=0mm|YOffset=0mm|HoleType=Round|Shape=RoundedRectangle|*
%AMROUNDEDRECTD110*
21,1,0.3700,0.6196,0,0,90.0*
21,1,0.1296,0.8600,0,0,90.0*
1,1,0.2404,0.3098,0.0648*
1,1,0.2404,0.3098,-0.0648*
1,1,0.2404,-0.3098,-0.0648*
1,1,0.2404,-0.3098,0.0648*
%
%ADD110ROUNDEDRECTD110*%
G04:AMPARAMS|DCode=111|XSize=0.37mm|YSize=0.86mm|CornerRadius=0.1202mm|HoleSize=0mm|Usage=FLASHONLY|Rotation=90.000|XOffset=0mm|YOffset=0mm|HoleType=Round|Shape=RoundedRectangle|*
%AMROUNDEDRECTD111*
21,1,0.3700,0.6196,0,0,90.0*
21,1,0.1296,0.8600,0,0,90.0*
1,1,0.2404,0.3098,0.0648*
1,1,0.2404,0.3098,-0.0648*
1,1,0.2404,-0.3098,-0.0648*
1,1,0.2404,-0.3098,0.0648*
%
%ADD111ROUNDEDRECTD111*%
G04:AMPARAMS|DCode=112|XSize=0.94mm|YSize=1.03mm|CornerRadius=0.26mm|HoleSize=0mm|Usage=FLASHONLY|Rotation=180.000|XOffset=0mm|YOffset=0mm|HoleType=Round|Shape=RoundedRectangle|*
%AMROUNDEDRECTD112*
21,1,0.9400,0.5100,0,0,180.0*
21,1,0.4200,1.0300,0,0,180.0*
1,1,0.5200,-0.2100,0.2550*
1,1,0.5200,0.2100,0.2550*
1,1,0.5200,0.2100,-0.2550*
1,1,0.5200,-0.2100,-0.2550*
%
%ADD112ROUNDEDRECTD112*%
G04:AMPARAMS|DCode=113|XSize=2.1mm|YSize=0.5mm|CornerRadius=0.15mm|HoleSize=0mm|Usage=FLASHONLY|Rotation=0.000|XOffset=0mm|YOffset=0mm|HoleType=Round|Shape=RoundedRectangle|*
%AMROUNDEDRECTD113*
21,1,2.1000,0.2000,0,0,0.0*
21,1,1.8000,0.5000,0,0,0.0*
1,1,0.3000,0.9000,-0.1000*
1,1,0.3000,-0.9000,-0.1000*
1,1,0.3000,-0.9000,0.1000*
1,1,0.3000,0.9000,0.1000*
%
%ADD113ROUNDEDRECTD113*%
G04:AMPARAMS|DCode=114|XSize=1.5mm|YSize=1.5mm|CornerRadius=0.4mm|HoleSize=0mm|Usage=FLASHONLY|Rotation=180.000|XOffset=0mm|YOffset=0mm|HoleType=Round|Shape=RoundedRectangle|*
%AMROUNDEDRECTD114*
21,1,1.5000,0.7000,0,0,180.0*
21,1,0.7000,1.5000,0,0,180.0*
1,1,0.8000,-0.3500,0.3500*
1,1,0.8000,0.3500,0.3500*
1,1,0.8000,0.3500,-0.3500*
1,1,0.8000,-0.3500,-0.3500*
%
%ADD114ROUNDEDRECTD114*%
G04:AMPARAMS|DCode=115|XSize=0.38mm|YSize=0.725mm|CornerRadius=0.12mm|HoleSize=0mm|Usage=FLASHONLY|Rotation=0.000|XOffset=0mm|YOffset=0mm|HoleType=Round|Shape=RoundedRectangle|*
%AMROUNDEDRECTD115*
21,1,0.3800,0.4850,0,0,0.0*
21,1,0.1400,0.7250,0,0,0.0*
1,1,0.2400,0.0700,-0.2425*
1,1,0.2400,-0.0700,-0.2425*
1,1,0.2400,-0.0700,0.2425*
1,1,0.2400,0.0700,0.2425*
%
%ADD115ROUNDEDRECTD115*%
%ADD116R,2.3500X1.6000*%
G04:AMPARAMS|DCode=117|XSize=1.05mm|YSize=1.48mm|CornerRadius=0.2923mm|HoleSize=0mm|Usage=FLASHONLY|Rotation=270.000|XOffset=0mm|YOffset=0mm|HoleType=Round|Shape=RoundedRectangle|*
%AMROUNDEDRECTD117*
21,1,1.0500,0.8955,0,0,270.0*
21,1,0.4655,1.4800,0,0,270.0*
1,1,0.5845,-0.4478,-0.2328*
1,1,0.5845,-0.4478,0.2328*
1,1,0.5845,0.4478,0.2328*
1,1,0.5845,0.4478,-0.2328*
%
%ADD117ROUNDEDRECTD117*%
G04:AMPARAMS|DCode=118|XSize=1.05mm|YSize=1.48mm|CornerRadius=0.2923mm|HoleSize=0mm|Usage=FLASHONLY|Rotation=270.000|XOffset=0mm|YOffset=0mm|HoleType=Round|Shape=RoundedRectangle|*
%AMROUNDEDRECTD118*
21,1,1.0500,0.8955,0,0,270.0*
21,1,0.4655,1.4800,0,0,270.0*
1,1,0.5845,-0.4478,-0.2328*
1,1,0.5845,-0.4478,0.2328*
1,1,0.5845,0.4478,0.2328*
1,1,0.5845,0.4478,-0.2328*
%
%ADD118ROUNDEDRECTD118*%
G04:AMPARAMS|DCode=119|XSize=1.6mm|YSize=0.95mm|CornerRadius=0.2625mm|HoleSize=0mm|Usage=FLASHONLY|Rotation=180.000|XOffset=0mm|YOffset=0mm|HoleType=Round|Shape=RoundedRectangle|*
%AMROUNDEDRECTD119*
21,1,1.6000,0.4250,0,0,180.0*
21,1,1.0750,0.9500,0,0,180.0*
1,1,0.5250,-0.5375,0.2125*
1,1,0.5250,0.5375,0.2125*
1,1,0.5250,0.5375,-0.2125*
1,1,0.5250,-0.5375,-0.2125*
%
%ADD119ROUNDEDRECTD119*%
G04:AMPARAMS|DCode=120|XSize=1.3mm|YSize=0.5mm|CornerRadius=0.15mm|HoleSize=0mm|Usage=FLASHONLY|Rotation=180.000|XOffset=0mm|YOffset=0mm|HoleType=Round|Shape=RoundedRectangle|*
%AMROUNDEDRECTD120*
21,1,1.3000,0.2000,0,0,180.0*
21,1,1.0000,0.5000,0,0,180.0*
1,1,0.3000,-0.5000,0.1000*
1,1,0.3000,0.5000,0.1000*
1,1,0.3000,0.5000,-0.1000*
1,1,0.3000,-0.5000,-0.1000*
%
%ADD120ROUNDEDRECTD120*%
G04:AMPARAMS|DCode=121|XSize=1.5mm|YSize=1.5mm|CornerRadius=0.4mm|HoleSize=0mm|Usage=FLASHONLY|Rotation=270.000|XOffset=0mm|YOffset=0mm|HoleType=Round|Shape=RoundedRectangle|*
%AMROUNDEDRECTD121*
21,1,1.5000,0.7000,0,0,270.0*
21,1,0.7000,1.5000,0,0,270.0*
1,1,0.8000,-0.3500,-0.3500*
1,1,0.8000,-0.3500,0.3500*
1,1,0.8000,0.3500,0.3500*
1,1,0.8000,0.3500,-0.3500*
%
%ADD121ROUNDEDRECTD121*%
G36*
X125098Y199493D02*
X125192Y199464D01*
X125279Y199418D01*
X125355Y199355D01*
X125418Y199279D01*
X125464Y199192D01*
X125493Y199098D01*
X125502Y199000D01*
Y143000D01*
X125493Y142902D01*
X125464Y142808D01*
X125418Y142721D01*
X125355Y142645D01*
X125279Y142582D01*
X125192Y142536D01*
X125098Y142507D01*
X125000Y142498D01*
X74000D01*
X74000Y142498D01*
X73951Y142502D01*
X73902Y142507D01*
X73830Y142529D01*
X73808Y142536D01*
X73721Y142582D01*
X73645Y142645D01*
X68645Y147645D01*
X68645Y147645D01*
X68617Y147679D01*
X68582Y147721D01*
X68536Y147808D01*
X68507Y147902D01*
X68506Y147911D01*
X68498Y148000D01*
X68498Y148000D01*
Y199000D01*
X68507Y199098D01*
X68536Y199192D01*
X68582Y199279D01*
X68645Y199355D01*
X68721Y199418D01*
X68808Y199464D01*
X68902Y199493D01*
X69000Y199502D01*
X125000D01*
X125098Y199493D01*
D02*
G37*
G36*
X189933Y43093D02*
X191389Y42490D01*
X192700Y41614D01*
X193814Y40500D01*
X194690Y39190D01*
X195292Y37734D01*
X195523Y36575D01*
X195600Y35402D01*
Y35400D01*
X195600Y35400D01*
X195600Y35400D01*
X195600Y10400D01*
X195600Y9612D01*
X195293Y8066D01*
X194690Y6611D01*
X193814Y5300D01*
X192700Y4186D01*
X191389Y3311D01*
X189933Y2707D01*
X188388Y2400D01*
X187600Y2400D01*
X171612D01*
X170067Y2707D01*
X168611Y3311D01*
X167300Y4186D01*
X166186Y5300D01*
X165310Y6611D01*
X164707Y8067D01*
X164400Y9612D01*
Y26000D01*
Y36188D01*
X164707Y37733D01*
X165310Y39189D01*
X166186Y40500D01*
X167300Y41614D01*
X168611Y42489D01*
X170067Y43092D01*
X171612Y43400D01*
X172400D01*
X172400Y43400D01*
X187600Y43400D01*
X188388Y43400D01*
X189933Y43093D01*
D02*
G37*
G36*
X29734D02*
X31189Y42490D01*
X32500Y41614D01*
X33614Y40500D01*
X34490Y39190D01*
X35092Y37734D01*
X35323Y36575D01*
X35400Y35402D01*
Y35400D01*
X35400Y35400D01*
X35400Y35400D01*
X35400Y10400D01*
X35400Y9612D01*
X35093Y8066D01*
X34490Y6611D01*
X33614Y5300D01*
X32500Y4186D01*
X31189Y3311D01*
X29734Y2707D01*
X28188Y2400D01*
X27400Y2400D01*
X11412D01*
X9866Y2707D01*
X8411Y3311D01*
X7100Y4186D01*
X5986Y5300D01*
X5110Y6611D01*
X4507Y8067D01*
X4200Y9612D01*
Y26000D01*
Y36188D01*
X4507Y37733D01*
X5110Y39189D01*
X5986Y40500D01*
X7100Y41614D01*
X8411Y42489D01*
X9866Y43092D01*
X11412Y43400D01*
X12200D01*
X12200Y43400D01*
X27400Y43400D01*
X28188Y43400D01*
X29734Y43093D01*
D02*
G37*
D49*
X192600Y320600D02*
D03*
Y311400D02*
D03*
X128400Y320600D02*
D03*
Y311400D02*
D03*
X75606Y256517D02*
D03*
Y247317D02*
D03*
X37495Y230401D02*
D03*
Y239601D02*
D03*
X66806Y247317D02*
D03*
Y256517D02*
D03*
X47206Y230384D02*
D03*
Y239584D02*
D03*
X59400Y320600D02*
D03*
Y311400D02*
D03*
X95230Y230000D02*
D03*
Y239200D02*
D03*
X117162Y230000D02*
D03*
Y239200D02*
D03*
X126642Y230000D02*
D03*
Y239200D02*
D03*
X104858D02*
D03*
Y230000D02*
D03*
X136122Y239200D02*
D03*
Y230000D02*
D03*
X69000Y116800D02*
D03*
Y126000D02*
D03*
X104318Y124822D02*
D03*
Y115622D02*
D03*
X94318Y124822D02*
D03*
Y115622D02*
D03*
X113318Y124822D02*
D03*
Y115622D02*
D03*
X144000Y138884D02*
D03*
Y148084D02*
D03*
X90889Y96784D02*
D03*
Y105984D02*
D03*
X118555Y96784D02*
D03*
Y105984D02*
D03*
X63222Y96784D02*
D03*
Y105984D02*
D03*
X165124Y230072D02*
D03*
Y220872D02*
D03*
X72444Y96784D02*
D03*
Y105984D02*
D03*
X81667Y96784D02*
D03*
Y105984D02*
D03*
X100111D02*
D03*
Y96784D02*
D03*
X109333Y105984D02*
D03*
Y96784D02*
D03*
X127778Y105984D02*
D03*
Y96784D02*
D03*
X137000D02*
D03*
Y105984D02*
D03*
X158046Y79684D02*
D03*
Y88884D02*
D03*
X54000Y105984D02*
D03*
Y96784D02*
D03*
X145000Y197600D02*
D03*
Y188400D02*
D03*
X155000Y197600D02*
D03*
Y188400D02*
D03*
D51*
X76606Y239078D02*
D03*
X85806D02*
D03*
X76606Y229855D02*
D03*
X85806D02*
D03*
X57606D02*
D03*
X66806D02*
D03*
Y239078D02*
D03*
X57606D02*
D03*
X33638Y201333D02*
D03*
X42838D02*
D03*
X23896Y192667D02*
D03*
X14696D02*
D03*
Y210000D02*
D03*
X23896D02*
D03*
X33638Y192667D02*
D03*
X42838D02*
D03*
X14696Y201333D02*
D03*
X23896D02*
D03*
X33638Y184000D02*
D03*
X42838D02*
D03*
X144892Y229897D02*
D03*
X154092D02*
D03*
X154600Y213000D02*
D03*
X145400D02*
D03*
X144892Y221418D02*
D03*
X154092D02*
D03*
X33638Y210000D02*
D03*
X42838D02*
D03*
X22287Y136890D02*
D03*
X13087D02*
D03*
X186372Y106224D02*
D03*
X177172D02*
D03*
X175596Y69066D02*
D03*
X184796D02*
D03*
X23966Y90662D02*
D03*
X14766D02*
D03*
D71*
X167000Y324150D02*
D03*
X100000D02*
D03*
X32000D02*
D03*
D72*
X167000Y275850D02*
D03*
X100000D02*
D03*
X32000D02*
D03*
D73*
X170000Y395000D02*
D03*
X100000D02*
D03*
X30000D02*
D03*
D106*
X74500Y204850D02*
D03*
X99500Y137150D02*
D03*
X104500D02*
D03*
X114500Y204850D02*
D03*
X109500D02*
D03*
X104500D02*
D03*
X99500D02*
D03*
X114500Y137150D02*
D03*
X79500Y204850D02*
D03*
X109500Y137150D02*
D03*
X84500Y204850D02*
D03*
X124500D02*
D03*
X89500D02*
D03*
X79500Y137150D02*
D03*
X84500D02*
D03*
X124500D02*
D03*
X89500D02*
D03*
X74500D02*
D03*
D107*
X63150Y188500D02*
D03*
Y158500D02*
D03*
Y143500D02*
D03*
Y153500D02*
D03*
Y168500D02*
D03*
Y198500D02*
D03*
Y193500D02*
D03*
Y183500D02*
D03*
Y173500D02*
D03*
Y148500D02*
D03*
Y178500D02*
D03*
D108*
X130850Y193500D02*
D03*
Y148500D02*
D03*
Y198500D02*
D03*
Y183500D02*
D03*
Y153500D02*
D03*
Y168500D02*
D03*
Y173500D02*
D03*
Y188500D02*
D03*
Y143500D02*
D03*
Y178500D02*
D03*
Y158500D02*
D03*
D109*
X119500Y204850D02*
D03*
X69500Y137150D02*
D03*
X94500Y204850D02*
D03*
X69500D02*
D03*
X94500Y137150D02*
D03*
X119500D02*
D03*
D110*
X63150Y163500D02*
D03*
D111*
X130850D02*
D03*
D112*
X55450Y132000D02*
D03*
X40550D02*
D03*
D113*
X26800Y163000D02*
D03*
Y175000D02*
D03*
Y151000D02*
D03*
D114*
X133500Y77500D02*
D03*
X76500D02*
D03*
X57500D02*
D03*
X114500D02*
D03*
X95500D02*
D03*
D115*
X9332Y127601D02*
D03*
X15829D02*
D03*
X22332D02*
D03*
X28829D02*
D03*
Y99351D02*
D03*
X22332D02*
D03*
X15829D02*
D03*
X9332D02*
D03*
D116*
X19081Y113476D02*
D03*
D117*
X83333Y36900D02*
D03*
X116667D02*
D03*
X100000D02*
D03*
Y25200D02*
D03*
X83333D02*
D03*
X116667D02*
D03*
X133333D02*
D03*
Y36900D02*
D03*
X66667D02*
D03*
X50000D02*
D03*
X66667Y25200D02*
D03*
X50000D02*
D03*
X150000D02*
D03*
Y36900D02*
D03*
D118*
X83333Y54700D02*
D03*
X116667D02*
D03*
X100000D02*
D03*
Y7400D02*
D03*
X83333D02*
D03*
X116667D02*
D03*
X133333D02*
D03*
Y54700D02*
D03*
X66667D02*
D03*
X50000D02*
D03*
X66667Y7400D02*
D03*
X50000D02*
D03*
X150000D02*
D03*
Y54700D02*
D03*
D119*
X185968Y149500D02*
D03*
Y136000D02*
D03*
Y122500D02*
D03*
Y163000D02*
D03*
D120*
X189546Y94784D02*
D03*
Y88284D02*
D03*
Y81784D02*
D03*
X170546D02*
D03*
Y88284D02*
D03*
Y94784D02*
D03*
D121*
X31430Y77500D02*
D03*
X12430D02*
D03*
M02*
