G04*
G04 #@! TF.GenerationSoftware,Altium Limited,Altium Designer,22.8.2 (66)*
G04*
G04 Layer_Physical_Order=4*
G04 Layer_Color=16711680*
%FSLAX44Y44*%
%MOMM*%
G71*
G04*
G04 #@! TF.SameCoordinates,D88EF3AF-AA8D-4CAB-B9DB-13285413298B*
G04*
G04*
G04 #@! TF.FilePolarity,Positive*
G04*
G01*
G75*
%ADD10C,0.2000*%
%ADD13C,0.2540*%
G04:AMPARAMS|DCode=21|XSize=0.58mm|YSize=0.58mm|CornerRadius=0.1508mm|HoleSize=0mm|Usage=FLASHONLY|Rotation=270.000|XOffset=0mm|YOffset=0mm|HoleType=Round|Shape=RoundedRectangle|*
%AMROUNDEDRECTD21*
21,1,0.5800,0.2784,0,0,270.0*
21,1,0.2784,0.5800,0,0,270.0*
1,1,0.3016,-0.1392,-0.1392*
1,1,0.3016,-0.1392,0.1392*
1,1,0.3016,0.1392,0.1392*
1,1,0.3016,0.1392,-0.1392*
%
%ADD21ROUNDEDRECTD21*%
G04:AMPARAMS|DCode=23|XSize=0.58mm|YSize=0.58mm|CornerRadius=0.1508mm|HoleSize=0mm|Usage=FLASHONLY|Rotation=0.000|XOffset=0mm|YOffset=0mm|HoleType=Round|Shape=RoundedRectangle|*
%AMROUNDEDRECTD23*
21,1,0.5800,0.2784,0,0,0.0*
21,1,0.2784,0.5800,0,0,0.0*
1,1,0.3016,0.1392,-0.1392*
1,1,0.3016,-0.1392,-0.1392*
1,1,0.3016,-0.1392,0.1392*
1,1,0.3016,0.1392,0.1392*
%
%ADD23ROUNDEDRECTD23*%
G04:AMPARAMS|DCode=41|XSize=2.78mm|YSize=3.22mm|CornerRadius=0.2502mm|HoleSize=0mm|Usage=FLASHONLY|Rotation=270.000|XOffset=0mm|YOffset=0mm|HoleType=Round|Shape=RoundedRectangle|*
%AMROUNDEDRECTD41*
21,1,2.7800,2.7196,0,0,270.0*
21,1,2.2796,3.2200,0,0,270.0*
1,1,0.5004,-1.3598,-1.1398*
1,1,0.5004,-1.3598,1.1398*
1,1,0.5004,1.3598,1.1398*
1,1,0.5004,1.3598,-1.1398*
%
%ADD41ROUNDEDRECTD41*%
G04:AMPARAMS|DCode=42|XSize=2.78mm|YSize=3.22mm|CornerRadius=0.2502mm|HoleSize=0mm|Usage=FLASHONLY|Rotation=270.000|XOffset=0mm|YOffset=0mm|HoleType=Round|Shape=RoundedRectangle|*
%AMROUNDEDRECTD42*
21,1,2.7800,2.7196,0,0,270.0*
21,1,2.2796,3.2200,0,0,270.0*
1,1,0.5004,-1.3598,-1.1398*
1,1,0.5004,-1.3598,1.1398*
1,1,0.5004,1.3598,1.1398*
1,1,0.5004,1.3598,-1.1398*
%
%ADD42ROUNDEDRECTD42*%
%ADD76C,0.1270*%
%ADD77C,0.1524*%
%ADD79C,0.3810*%
G04:AMPARAMS|DCode=81|XSize=4.5mm|YSize=2.5mm|CornerRadius=0.625mm|HoleSize=0mm|Usage=FLASHONLY|Rotation=0.000|XOffset=0mm|YOffset=0mm|HoleType=Round|Shape=RoundedRectangle|*
%AMROUNDEDRECTD81*
21,1,4.5000,1.2500,0,0,0.0*
21,1,3.2500,2.5000,0,0,0.0*
1,1,1.2500,1.6250,-0.6250*
1,1,1.2500,-1.6250,-0.6250*
1,1,1.2500,-1.6250,0.6250*
1,1,1.2500,1.6250,0.6250*
%
%ADD81ROUNDEDRECTD81*%
%ADD82C,0.4500*%
%ADD83C,0.4000*%
%ADD84R,0.4620X0.1270*%
G04:AMPARAMS|DCode=85|XSize=0.27mm|YSize=0.76mm|CornerRadius=0.0702mm|HoleSize=0mm|Usage=FLASHONLY|Rotation=0.000|XOffset=0mm|YOffset=0mm|HoleType=Round|Shape=RoundedRectangle|*
%AMROUNDEDRECTD85*
21,1,0.2700,0.6196,0,0,0.0*
21,1,0.1296,0.7600,0,0,0.0*
1,1,0.1404,0.0648,-0.3098*
1,1,0.1404,-0.0648,-0.3098*
1,1,0.1404,-0.0648,0.3098*
1,1,0.1404,0.0648,0.3098*
%
%ADD85ROUNDEDRECTD85*%
G04:AMPARAMS|DCode=86|XSize=0.27mm|YSize=0.76mm|CornerRadius=0.0702mm|HoleSize=0mm|Usage=FLASHONLY|Rotation=90.000|XOffset=0mm|YOffset=0mm|HoleType=Round|Shape=RoundedRectangle|*
%AMROUNDEDRECTD86*
21,1,0.2700,0.6196,0,0,90.0*
21,1,0.1296,0.7600,0,0,90.0*
1,1,0.1404,0.3098,0.0648*
1,1,0.1404,0.3098,-0.0648*
1,1,0.1404,-0.3098,-0.0648*
1,1,0.1404,-0.3098,0.0648*
%
%ADD86ROUNDEDRECTD86*%
G04:AMPARAMS|DCode=87|XSize=0.27mm|YSize=0.76mm|CornerRadius=0.0702mm|HoleSize=0mm|Usage=FLASHONLY|Rotation=90.000|XOffset=0mm|YOffset=0mm|HoleType=Round|Shape=RoundedRectangle|*
%AMROUNDEDRECTD87*
21,1,0.2700,0.6196,0,0,90.0*
21,1,0.1296,0.7600,0,0,90.0*
1,1,0.1404,0.3098,0.0648*
1,1,0.1404,0.3098,-0.0648*
1,1,0.1404,-0.3098,-0.0648*
1,1,0.1404,-0.3098,0.0648*
%
%ADD87ROUNDEDRECTD87*%
G04:AMPARAMS|DCode=88|XSize=0.27mm|YSize=0.76mm|CornerRadius=0.0702mm|HoleSize=0mm|Usage=FLASHONLY|Rotation=0.000|XOffset=0mm|YOffset=0mm|HoleType=Round|Shape=RoundedRectangle|*
%AMROUNDEDRECTD88*
21,1,0.2700,0.6196,0,0,0.0*
21,1,0.1296,0.7600,0,0,0.0*
1,1,0.1404,0.0648,-0.3098*
1,1,0.1404,-0.0648,-0.3098*
1,1,0.1404,-0.0648,0.3098*
1,1,0.1404,0.0648,0.3098*
%
%ADD88ROUNDEDRECTD88*%
G04:AMPARAMS|DCode=89|XSize=0.27mm|YSize=0.76mm|CornerRadius=0.0702mm|HoleSize=0mm|Usage=FLASHONLY|Rotation=90.000|XOffset=0mm|YOffset=0mm|HoleType=Round|Shape=RoundedRectangle|*
%AMROUNDEDRECTD89*
21,1,0.2700,0.6196,0,0,90.0*
21,1,0.1296,0.7600,0,0,90.0*
1,1,0.1404,0.3098,0.0648*
1,1,0.1404,0.3098,-0.0648*
1,1,0.1404,-0.3098,-0.0648*
1,1,0.1404,-0.3098,0.0648*
%
%ADD89ROUNDEDRECTD89*%
G04:AMPARAMS|DCode=90|XSize=0.27mm|YSize=0.76mm|CornerRadius=0.0702mm|HoleSize=0mm|Usage=FLASHONLY|Rotation=90.000|XOffset=0mm|YOffset=0mm|HoleType=Round|Shape=RoundedRectangle|*
%AMROUNDEDRECTD90*
21,1,0.2700,0.6196,0,0,90.0*
21,1,0.1296,0.7600,0,0,90.0*
1,1,0.1404,0.3098,0.0648*
1,1,0.1404,0.3098,-0.0648*
1,1,0.1404,-0.3098,-0.0648*
1,1,0.1404,-0.3098,0.0648*
%
%ADD90ROUNDEDRECTD90*%
G04:AMPARAMS|DCode=91|XSize=0.84mm|YSize=0.93mm|CornerRadius=0.21mm|HoleSize=0mm|Usage=FLASHONLY|Rotation=180.000|XOffset=0mm|YOffset=0mm|HoleType=Round|Shape=RoundedRectangle|*
%AMROUNDEDRECTD91*
21,1,0.8400,0.5100,0,0,180.0*
21,1,0.4200,0.9300,0,0,180.0*
1,1,0.4200,-0.2100,0.2550*
1,1,0.4200,0.2100,0.2550*
1,1,0.4200,0.2100,-0.2550*
1,1,0.4200,-0.2100,-0.2550*
%
%ADD91ROUNDEDRECTD91*%
G04:AMPARAMS|DCode=92|XSize=2mm|YSize=0.4mm|CornerRadius=0.1mm|HoleSize=0mm|Usage=FLASHONLY|Rotation=0.000|XOffset=0mm|YOffset=0mm|HoleType=Round|Shape=RoundedRectangle|*
%AMROUNDEDRECTD92*
21,1,2.0000,0.2000,0,0,0.0*
21,1,1.8000,0.4000,0,0,0.0*
1,1,0.2000,0.9000,-0.1000*
1,1,0.2000,-0.9000,-0.1000*
1,1,0.2000,-0.9000,0.1000*
1,1,0.2000,0.9000,0.1000*
%
%ADD92ROUNDEDRECTD92*%
G04:AMPARAMS|DCode=93|XSize=1.4mm|YSize=1.4mm|CornerRadius=0.35mm|HoleSize=0mm|Usage=FLASHONLY|Rotation=180.000|XOffset=0mm|YOffset=0mm|HoleType=Round|Shape=RoundedRectangle|*
%AMROUNDEDRECTD93*
21,1,1.4000,0.7000,0,0,180.0*
21,1,0.7000,1.4000,0,0,180.0*
1,1,0.7000,-0.3500,0.3500*
1,1,0.7000,0.3500,0.3500*
1,1,0.7000,0.3500,-0.3500*
1,1,0.7000,-0.3500,-0.3500*
%
%ADD93ROUNDEDRECTD93*%
G04:AMPARAMS|DCode=94|XSize=0.28mm|YSize=0.625mm|CornerRadius=0.07mm|HoleSize=0mm|Usage=FLASHONLY|Rotation=0.000|XOffset=0mm|YOffset=0mm|HoleType=Round|Shape=RoundedRectangle|*
%AMROUNDEDRECTD94*
21,1,0.2800,0.4850,0,0,0.0*
21,1,0.1400,0.6250,0,0,0.0*
1,1,0.1400,0.0700,-0.2425*
1,1,0.1400,-0.0700,-0.2425*
1,1,0.1400,-0.0700,0.2425*
1,1,0.1400,0.0700,0.2425*
%
%ADD94ROUNDEDRECTD94*%
%ADD95R,2.2500X1.5000*%
G04:AMPARAMS|DCode=96|XSize=0.95mm|YSize=1.38mm|CornerRadius=0.2423mm|HoleSize=0mm|Usage=FLASHONLY|Rotation=270.000|XOffset=0mm|YOffset=0mm|HoleType=Round|Shape=RoundedRectangle|*
%AMROUNDEDRECTD96*
21,1,0.9500,0.8955,0,0,270.0*
21,1,0.4655,1.3800,0,0,270.0*
1,1,0.4845,-0.4478,-0.2328*
1,1,0.4845,-0.4478,0.2328*
1,1,0.4845,0.4478,0.2328*
1,1,0.4845,0.4478,-0.2328*
%
%ADD96ROUNDEDRECTD96*%
G04:AMPARAMS|DCode=97|XSize=0.95mm|YSize=1.38mm|CornerRadius=0.2423mm|HoleSize=0mm|Usage=FLASHONLY|Rotation=270.000|XOffset=0mm|YOffset=0mm|HoleType=Round|Shape=RoundedRectangle|*
%AMROUNDEDRECTD97*
21,1,0.9500,0.8955,0,0,270.0*
21,1,0.4655,1.3800,0,0,270.0*
1,1,0.4845,-0.4478,-0.2328*
1,1,0.4845,-0.4478,0.2328*
1,1,0.4845,0.4478,0.2328*
1,1,0.4845,0.4478,-0.2328*
%
%ADD97ROUNDEDRECTD97*%
G04:AMPARAMS|DCode=98|XSize=1.5mm|YSize=0.85mm|CornerRadius=0.2125mm|HoleSize=0mm|Usage=FLASHONLY|Rotation=180.000|XOffset=0mm|YOffset=0mm|HoleType=Round|Shape=RoundedRectangle|*
%AMROUNDEDRECTD98*
21,1,1.5000,0.4250,0,0,180.0*
21,1,1.0750,0.8500,0,0,180.0*
1,1,0.4250,-0.5375,0.2125*
1,1,0.4250,0.5375,0.2125*
1,1,0.4250,0.5375,-0.2125*
1,1,0.4250,-0.5375,-0.2125*
%
%ADD98ROUNDEDRECTD98*%
G04:AMPARAMS|DCode=99|XSize=1.2mm|YSize=0.4mm|CornerRadius=0.1mm|HoleSize=0mm|Usage=FLASHONLY|Rotation=180.000|XOffset=0mm|YOffset=0mm|HoleType=Round|Shape=RoundedRectangle|*
%AMROUNDEDRECTD99*
21,1,1.2000,0.2000,0,0,180.0*
21,1,1.0000,0.4000,0,0,180.0*
1,1,0.2000,-0.5000,0.1000*
1,1,0.2000,0.5000,0.1000*
1,1,0.2000,0.5000,-0.1000*
1,1,0.2000,-0.5000,-0.1000*
%
%ADD99ROUNDEDRECTD99*%
G04:AMPARAMS|DCode=100|XSize=1.4mm|YSize=1.4mm|CornerRadius=0.35mm|HoleSize=0mm|Usage=FLASHONLY|Rotation=270.000|XOffset=0mm|YOffset=0mm|HoleType=Round|Shape=RoundedRectangle|*
%AMROUNDEDRECTD100*
21,1,1.4000,0.7000,0,0,270.0*
21,1,0.7000,1.4000,0,0,270.0*
1,1,0.7000,-0.3500,-0.3500*
1,1,0.7000,-0.3500,0.3500*
1,1,0.7000,0.3500,0.3500*
1,1,0.7000,0.3500,-0.3500*
%
%ADD100ROUNDEDRECTD100*%
%ADD101C,0.2667*%
%ADD102C,0.2032*%
%ADD103C,0.1016*%
%ADD104C,0.5080*%
%ADD105C,0.3000*%
G36*
X196131Y408198D02*
X196399Y408087D01*
X198087Y406399D01*
X198198Y406131D01*
X198402Y405104D01*
X198359Y405000D01*
Y353258D01*
X198087Y352601D01*
X196399Y350913D01*
X194193Y350000D01*
X193000Y350000D01*
Y350000D01*
X193000Y350000D01*
Y350000D01*
X140000Y350000D01*
X138906Y349900D01*
X136808Y350554D01*
X135120Y351960D01*
X134099Y353906D01*
X134000Y355000D01*
Y402690D01*
X134269Y404042D01*
X134797Y405316D01*
X135563Y406462D01*
X136538Y407437D01*
X137684Y408203D01*
X138060Y408359D01*
X195000D01*
X195104Y408402D01*
X196131Y408198D01*
D02*
G37*
G36*
X129899Y408087D02*
X131587Y406399D01*
X132500Y404193D01*
X132500Y403000D01*
X132500Y403000D01*
X132500Y403000D01*
X132500Y356000D01*
X132500Y354806D01*
X131587Y352601D01*
X129899Y350913D01*
X127693Y350000D01*
X126500Y350000D01*
Y350000D01*
X126500Y350000D01*
Y350000D01*
X73500Y350000D01*
X72406Y349900D01*
X70308Y350554D01*
X68620Y351960D01*
X67599Y353906D01*
X67500Y355000D01*
Y402690D01*
X67769Y404042D01*
X68297Y405316D01*
X69063Y406462D01*
X70038Y407437D01*
X71184Y408203D01*
X71560Y408359D01*
X129242D01*
X129899Y408087D01*
D02*
G37*
G36*
X63399D02*
X65087Y406399D01*
X66000Y404193D01*
X66000Y403000D01*
X66000Y403000D01*
X66000Y403000D01*
X66000Y356000D01*
X66000Y354806D01*
X65087Y352601D01*
X63399Y350913D01*
X61193Y350000D01*
X60000Y350000D01*
Y350000D01*
X60000Y350000D01*
Y350000D01*
X7000Y350000D01*
X5906Y349900D01*
X3808Y350554D01*
X2120Y351960D01*
X1641Y352874D01*
Y404940D01*
X1797Y405316D01*
X2563Y406462D01*
X3538Y407437D01*
X4684Y408203D01*
X5060Y408359D01*
X62742D01*
X63399Y408087D01*
D02*
G37*
G36*
X67383Y351951D02*
X67647Y351449D01*
X67815Y351309D01*
X67916Y351116D01*
X69604Y349709D01*
X69813Y349644D01*
X69981Y349504D01*
X72079Y348850D01*
X72297Y348870D01*
X72506Y348805D01*
X73550Y348900D01*
X126500Y348900D01*
X127693Y348900D01*
X127895Y348984D01*
X128114Y348984D01*
X130320Y349897D01*
X130475Y350051D01*
X130677Y350135D01*
X132365Y351823D01*
X132431Y351984D01*
X132543Y352028D01*
X133334Y352050D01*
X133883Y351951D01*
X134146Y351449D01*
X134315Y351309D01*
X134416Y351116D01*
X136104Y349709D01*
X136313Y349644D01*
X136481Y349504D01*
X138579Y348850D01*
X138797Y348870D01*
X139006Y348805D01*
X140050Y348900D01*
X193000Y348900D01*
X194193Y348900D01*
X194395Y348984D01*
X194614Y348984D01*
X196820Y349897D01*
X196975Y350051D01*
X197177Y350135D01*
X197186Y350144D01*
X198359Y349658D01*
Y45340D01*
X198000Y45100D01*
X167181D01*
X167076Y45057D01*
X167060Y45060D01*
X167000Y45000D01*
X39307D01*
X38837Y44805D01*
X37959Y43927D01*
X37700Y43303D01*
Y19000D01*
X38022Y18222D01*
X38800Y17900D01*
X56068D01*
X56734Y16904D01*
Y15604D01*
X57147Y14607D01*
X57539Y14096D01*
X57842Y13793D01*
X58353Y13401D01*
X59147Y13072D01*
X59786Y12988D01*
X60214D01*
X60852Y13072D01*
X61647Y13401D01*
X62158Y13793D01*
X62461Y14096D01*
X62853Y14607D01*
X63266Y15604D01*
Y16904D01*
X63932Y17900D01*
X74876D01*
X75734Y16654D01*
Y15354D01*
X76147Y14357D01*
X76539Y13846D01*
X76842Y13543D01*
X77353Y13151D01*
X78147Y12822D01*
X78786Y12738D01*
X79214D01*
X79852Y12822D01*
X80647Y13151D01*
X81158Y13543D01*
X81461Y13846D01*
X81853Y14357D01*
X82266Y15354D01*
Y16654D01*
X83124Y17900D01*
X93876D01*
X94734Y16654D01*
Y15354D01*
X95147Y14357D01*
X95539Y13846D01*
X95842Y13543D01*
X96353Y13151D01*
X97147Y12822D01*
X97786Y12738D01*
X98214D01*
X98853Y12822D01*
X99647Y13151D01*
X100158Y13543D01*
X100461Y13846D01*
X100853Y14357D01*
X101266Y15354D01*
Y16654D01*
X102124Y17900D01*
X112876D01*
X113734Y16654D01*
Y15354D01*
X114147Y14357D01*
X114539Y13846D01*
X114842Y13543D01*
X115353Y13151D01*
X116147Y12822D01*
X116786Y12738D01*
X117214D01*
X117852Y12822D01*
X118647Y13151D01*
X119158Y13543D01*
X119461Y13846D01*
X119853Y14357D01*
X120266Y15354D01*
Y16654D01*
X121124Y17900D01*
X154530D01*
X157172Y15258D01*
X157600Y15081D01*
X157722Y15000D01*
X158000D01*
Y1546D01*
X5000D01*
X4972Y1540D01*
X4103Y1654D01*
X3268Y2000D01*
X2551Y2551D01*
X2000Y3268D01*
X2000Y3269D01*
Y3447D01*
X1838Y3690D01*
X1598Y4896D01*
X1641Y5000D01*
X1641Y5000D01*
X1641Y5000D01*
Y52500D01*
X1622Y52546D01*
Y232954D01*
X1641Y233000D01*
Y349431D01*
X2791Y349970D01*
X3104Y349709D01*
X3313Y349644D01*
X3481Y349504D01*
X5579Y348850D01*
X5797Y348870D01*
X6006Y348805D01*
X7050Y348900D01*
X60000Y348900D01*
X61193Y348900D01*
X61395Y348984D01*
X61614Y348984D01*
X63820Y349897D01*
X63974Y350051D01*
X64177Y350135D01*
X65865Y351823D01*
X65931Y351984D01*
X66043Y352028D01*
X66834Y352050D01*
X67383Y351951D01*
D02*
G37*
G36*
X198000Y3269D02*
X198000Y3268D01*
X197449Y2551D01*
X196732Y2000D01*
X195896Y1654D01*
X195478Y1599D01*
X195000Y1546D01*
Y1546D01*
X159036D01*
Y15000D01*
X158957Y15396D01*
X158733Y15733D01*
X158396Y15957D01*
X158000Y16036D01*
X157950D01*
X154986Y19000D01*
X118301D01*
X117853Y19186D01*
X117000Y19298D01*
X116147Y19186D01*
X115698Y19000D01*
X99302D01*
X98853Y19186D01*
X98000Y19298D01*
X97147Y19186D01*
X96698Y19000D01*
X80302D01*
X79853Y19186D01*
X79000Y19298D01*
X78147Y19186D01*
X77698Y19000D01*
X61786D01*
X61647Y19107D01*
X60853Y19436D01*
X60000Y19548D01*
X59147Y19436D01*
X58353Y19107D01*
X58214Y19000D01*
X38800D01*
Y43303D01*
X39461Y43964D01*
X167000D01*
X167181Y44000D01*
X198000D01*
Y3269D01*
D02*
G37*
%LPC*%
G36*
X179994Y341100D02*
X179000Y341100D01*
X147000Y341100D01*
X146999Y341099D01*
X146005Y341099D01*
X145803Y341016D01*
X145584D01*
X143747Y340254D01*
X143592Y340100D01*
X143390Y340016D01*
X141984Y338610D01*
X141900Y338407D01*
X141745Y338253D01*
X140984Y336415D01*
Y336197D01*
X140900Y335994D01*
X140900Y335000D01*
X140900Y305000D01*
X140900Y304204D01*
X140984Y304002D01*
Y303783D01*
X141593Y302313D01*
X141748Y302159D01*
X141831Y301957D01*
X142957Y300831D01*
X143159Y300748D01*
X143313Y300593D01*
X144284Y300191D01*
X144032Y298921D01*
X143478D01*
X142834Y298792D01*
X142288Y298428D01*
X133524Y289664D01*
X133159Y289118D01*
X133031Y288473D01*
Y269411D01*
X109135Y245515D01*
X108770Y244969D01*
X108642Y244325D01*
Y244059D01*
X108401Y243800D01*
X107523Y243193D01*
X107405Y243218D01*
X107147Y243306D01*
X106541Y243716D01*
Y245161D01*
X120810Y259430D01*
X121175Y259976D01*
X121303Y260620D01*
Y275332D01*
X121354Y275439D01*
X121360Y275581D01*
X121373Y275672D01*
X121396Y275765D01*
X121430Y275864D01*
X121477Y275970D01*
X121539Y276083D01*
X121617Y276204D01*
X121714Y276332D01*
X121830Y276467D01*
X121986Y276629D01*
X122063Y276824D01*
X122389Y277150D01*
X122886Y278350D01*
Y279650D01*
X122389Y280850D01*
X121470Y281769D01*
X120270Y282266D01*
X118970D01*
X117770Y281769D01*
X116851Y280850D01*
X116354Y279650D01*
Y278350D01*
X116851Y277150D01*
X117177Y276824D01*
X117254Y276629D01*
X117410Y276467D01*
X117526Y276332D01*
X117623Y276204D01*
X117701Y276083D01*
X117763Y275970D01*
X117810Y275864D01*
X117844Y275765D01*
X117867Y275672D01*
X117880Y275581D01*
X117887Y275439D01*
X117937Y275332D01*
Y261317D01*
X103668Y247048D01*
X103303Y246502D01*
X103175Y245858D01*
Y243512D01*
X103124Y243397D01*
X103118Y243183D01*
X103111Y243095D01*
X102481Y242970D01*
X101646Y242412D01*
X101088Y241577D01*
X100892Y240592D01*
Y239525D01*
X100465Y239250D01*
X99195Y239944D01*
Y240592D01*
X98999Y241577D01*
X98527Y242283D01*
X98464Y242435D01*
X98393Y242464D01*
X98355Y242531D01*
X98186Y242660D01*
X98084Y242761D01*
X97989Y242883D01*
X97900Y243030D01*
X97819Y243208D01*
X97746Y243421D01*
X97685Y243670D01*
X97639Y243956D01*
X97610Y244280D01*
X97599Y244669D01*
X97560Y244755D01*
Y248853D01*
X97383Y249745D01*
X96878Y250501D01*
X82331Y265048D01*
Y275678D01*
X82369Y275765D01*
X82381Y276209D01*
X82410Y276535D01*
X82427Y276636D01*
X82444Y276713D01*
X82455Y276748D01*
X82470Y276774D01*
X82472Y276790D01*
X82480Y276811D01*
X82481Y276857D01*
X82481Y276863D01*
X82769Y277150D01*
X83266Y278350D01*
Y279650D01*
X82769Y280850D01*
X81850Y281769D01*
X80650Y282266D01*
X79350D01*
X78150Y281769D01*
X77231Y280850D01*
X76734Y279650D01*
Y278350D01*
X77231Y277150D01*
X77519Y276863D01*
X77519Y276857D01*
X77519Y276811D01*
X77528Y276790D01*
X77530Y276774D01*
X77545Y276748D01*
X77556Y276713D01*
X77573Y276636D01*
X77588Y276546D01*
X77628Y275996D01*
X77630Y275779D01*
X77669Y275689D01*
Y264083D01*
X77847Y263191D01*
X78352Y262435D01*
X92899Y247888D01*
Y244755D01*
X92860Y244669D01*
X92849Y244280D01*
X92820Y243956D01*
X92774Y243670D01*
X92713Y243421D01*
X92640Y243208D01*
X92558Y243030D01*
X92470Y242883D01*
X92375Y242761D01*
X92273Y242660D01*
X92104Y242531D01*
X92065Y242464D01*
X91995Y242435D01*
X91932Y242283D01*
X91460Y241577D01*
X91264Y240592D01*
Y237808D01*
X91460Y236823D01*
X92018Y235988D01*
X92853Y235430D01*
X93837Y235235D01*
Y233965D01*
X92853Y233770D01*
X92018Y233212D01*
X91460Y232377D01*
X91264Y231392D01*
Y229678D01*
X89994Y229091D01*
X89771Y229281D01*
Y231247D01*
X89576Y232232D01*
X89018Y233066D01*
X88183Y233624D01*
X87198Y233820D01*
X84414D01*
X83429Y233624D01*
X82594Y233066D01*
X82036Y232232D01*
X81840Y231247D01*
X80571D01*
X80375Y232232D01*
X79818Y233066D01*
X78983Y233624D01*
X78651Y233690D01*
X78643Y233711D01*
X78601Y233875D01*
X78566Y234107D01*
X78541Y234402D01*
X78540Y234466D01*
X78541Y234530D01*
X78566Y234825D01*
X78601Y235057D01*
X78643Y235222D01*
X78651Y235242D01*
X78983Y235308D01*
X79818Y235866D01*
X80375Y236701D01*
X80571Y237686D01*
Y240470D01*
X80375Y241455D01*
X79818Y242290D01*
X79102Y242768D01*
X78864Y243753D01*
X78818Y244106D01*
X79376Y244941D01*
X79571Y245925D01*
Y248709D01*
X79376Y249694D01*
X78818Y250529D01*
X77983Y251087D01*
X76998Y251283D01*
Y252552D01*
X77983Y252748D01*
X78818Y253306D01*
X79376Y254141D01*
X79571Y255125D01*
Y257909D01*
X79376Y258894D01*
X78818Y259729D01*
X77983Y260287D01*
X76998Y260483D01*
X74214D01*
X73229Y260287D01*
X72523Y259815D01*
X72371Y259752D01*
X72342Y259681D01*
X72275Y259643D01*
X72146Y259474D01*
X72045Y259372D01*
X71923Y259277D01*
X71776Y259188D01*
X71598Y259107D01*
X71385Y259034D01*
X71206Y258990D01*
X71027Y259034D01*
X70814Y259107D01*
X70636Y259188D01*
X70489Y259277D01*
X70367Y259372D01*
X70266Y259474D01*
X70137Y259643D01*
X70070Y259681D01*
X70041Y259752D01*
X69889Y259815D01*
X69183Y260287D01*
X68198Y260483D01*
X65414D01*
X65110Y260422D01*
X63840Y261305D01*
Y287708D01*
X68948Y292815D01*
X91721D01*
X91883Y292847D01*
X95003D01*
Y292794D01*
X98031D01*
Y289224D01*
X101309D01*
Y295523D01*
X101309Y295523D01*
X101490Y296718D01*
X101617Y296908D01*
X101745Y297552D01*
Y299900D01*
X113000D01*
X113795Y299900D01*
X113998Y299984D01*
X114216Y299984D01*
X115687Y300593D01*
X115841Y300747D01*
X116044Y300831D01*
X117169Y301956D01*
X117253Y302159D01*
X117407Y302313D01*
X118016Y303783D01*
Y304002D01*
X118100Y304205D01*
X118100Y305000D01*
Y307417D01*
X118743Y307847D01*
X120042D01*
X121243Y308344D01*
X121811Y308913D01*
X121851Y308916D01*
X121888Y308935D01*
X121903Y308939D01*
X121914Y308948D01*
X121920Y308950D01*
X121980Y308966D01*
X122076Y308986D01*
X122193Y309002D01*
X122563Y309027D01*
X122783Y309030D01*
X122858Y309063D01*
X122860Y309062D01*
X122931Y309031D01*
X123320Y309020D01*
X123644Y308991D01*
X123930Y308944D01*
X124179Y308884D01*
X124392Y308811D01*
X124570Y308729D01*
X124717Y308640D01*
X124839Y308546D01*
X124940Y308444D01*
X125069Y308274D01*
X125136Y308236D01*
X125165Y308165D01*
X125317Y308102D01*
X126023Y307631D01*
X127008Y307435D01*
X129792D01*
X130777Y307631D01*
X131612Y308188D01*
X132170Y309023D01*
X132365Y310008D01*
Y312792D01*
X132170Y313777D01*
X131612Y314612D01*
X130777Y315170D01*
X129792Y315366D01*
Y316635D01*
X130777Y316831D01*
X131612Y317388D01*
X132170Y318223D01*
X132365Y319208D01*
Y321992D01*
X132170Y322977D01*
X131612Y323812D01*
X130777Y324370D01*
X129792Y324566D01*
X127008D01*
X126023Y324370D01*
X125188Y323812D01*
X124630Y322977D01*
X124505Y322347D01*
X124417Y322340D01*
X124203Y322334D01*
X124088Y322283D01*
X118100D01*
X118100Y335000D01*
X118099Y335000D01*
Y335005D01*
X118084Y335041D01*
X118097Y335078D01*
X118018Y336259D01*
X117937Y336423D01*
X117937Y336607D01*
X117255Y338253D01*
X117100Y338408D01*
X117017Y338610D01*
X115610Y340016D01*
X115408Y340100D01*
X115253Y340255D01*
X113415Y341016D01*
X113197D01*
X112994Y341100D01*
X112000Y341100D01*
X80000Y341100D01*
X79999Y341099D01*
X79005Y341099D01*
X78803Y341016D01*
X78584D01*
X76747Y340254D01*
X76592Y340100D01*
X76390Y340016D01*
X74984Y338610D01*
X74900Y338407D01*
X74745Y338253D01*
X73984Y336415D01*
Y336197D01*
X73900Y335994D01*
X73900Y335000D01*
X73900Y305000D01*
X73900Y304204D01*
X73984Y304002D01*
Y303783D01*
X74593Y302313D01*
X74748Y302159D01*
X74831Y301957D01*
X75957Y300831D01*
X76159Y300748D01*
X76313Y300593D01*
X77783Y299984D01*
X78002D01*
X78204Y299900D01*
X79000Y299900D01*
X98378D01*
Y298491D01*
X67274D01*
X66630Y298363D01*
X66084Y297998D01*
X58524Y290438D01*
X58159Y289892D01*
X58031Y289247D01*
Y251407D01*
X56416Y249792D01*
X56051Y249246D01*
X55923Y248602D01*
Y243389D01*
X55872Y243275D01*
X55866Y243061D01*
X55858Y242973D01*
X55229Y242848D01*
X54394Y242290D01*
X53836Y241455D01*
X53640Y240470D01*
Y237686D01*
X53836Y236701D01*
X54394Y235866D01*
X55229Y235308D01*
X56214Y235113D01*
X58998D01*
X59204Y235154D01*
X60474Y234225D01*
Y223343D01*
X59204Y222817D01*
X52425Y229596D01*
X52411Y229652D01*
X52342Y229695D01*
X52312Y229771D01*
X51995Y230102D01*
X51738Y230395D01*
X51527Y230663D01*
X51363Y230903D01*
X51244Y231110D01*
X51171Y231271D01*
Y231776D01*
X50975Y232761D01*
X50418Y233596D01*
X49583Y234154D01*
X48598Y234349D01*
Y235619D01*
X49583Y235814D01*
X50418Y236372D01*
X50975Y237207D01*
X51171Y238192D01*
Y240976D01*
X50975Y241961D01*
X50504Y242667D01*
X50441Y242819D01*
X50370Y242848D01*
X50332Y242915D01*
X50162Y243044D01*
X50060Y243145D01*
X49966Y243267D01*
X49877Y243414D01*
X49795Y243592D01*
X49722Y243805D01*
X49661Y244054D01*
X49615Y244340D01*
X49586Y244664D01*
X49575Y245053D01*
X49537Y245139D01*
Y248241D01*
X53681Y252385D01*
X54186Y253141D01*
X54364Y254033D01*
Y275485D01*
X54402Y275572D01*
X54414Y276016D01*
X54443Y276342D01*
X54460Y276443D01*
X54477Y276520D01*
X54488Y276555D01*
X54503Y276581D01*
X54505Y276597D01*
X54514Y276618D01*
X54514Y276664D01*
X54514Y276670D01*
X54802Y276957D01*
X55299Y278157D01*
Y279457D01*
X54802Y280657D01*
X53883Y281576D01*
X52683Y282073D01*
X51383D01*
X50183Y281576D01*
X49264Y280657D01*
X48767Y279457D01*
Y278157D01*
X49264Y276957D01*
X49552Y276670D01*
X49552Y276664D01*
X49552Y276618D01*
X49561Y276597D01*
X49563Y276581D01*
X49578Y276555D01*
X49589Y276520D01*
X49606Y276443D01*
X49621Y276353D01*
X49661Y275803D01*
X49663Y275586D01*
X49702Y275496D01*
Y254998D01*
X45558Y250854D01*
X45053Y250098D01*
X44875Y249206D01*
Y245139D01*
X44837Y245053D01*
X44826Y244664D01*
X44797Y244340D01*
X44750Y244054D01*
X44690Y243805D01*
X44617Y243592D01*
X44535Y243414D01*
X44446Y243267D01*
X44352Y243145D01*
X44250Y243044D01*
X44081Y242915D01*
X44042Y242848D01*
X43971Y242819D01*
X43941Y242745D01*
X43872Y242705D01*
X43728Y242516D01*
X43612Y242394D01*
X43479Y242286D01*
X43325Y242188D01*
X43146Y242100D01*
X42937Y242023D01*
X42695Y241959D01*
X42420Y241911D01*
X42245Y241894D01*
X41973Y241914D01*
X41605Y241966D01*
X41318Y242030D01*
X41203Y242070D01*
X40717Y242798D01*
X40714Y242803D01*
X40713Y242803D01*
X40707Y242813D01*
X40627Y242866D01*
X40611Y242893D01*
X40568Y242905D01*
X39872Y243370D01*
X38887Y243566D01*
X36103D01*
X35118Y243370D01*
X34283Y242813D01*
X33725Y241978D01*
X33529Y240993D01*
Y238209D01*
X33725Y237224D01*
X34283Y236389D01*
X35118Y235831D01*
X36103Y235636D01*
Y234366D01*
X35118Y234170D01*
X34283Y233613D01*
X33983Y233163D01*
X33980Y233162D01*
X33977Y233154D01*
X33725Y232778D01*
X33695Y232626D01*
X33656Y232611D01*
X33485Y232569D01*
X33248Y232533D01*
X32950Y232509D01*
X32570Y232500D01*
X32471Y232456D01*
X18450D01*
X14435Y236471D01*
Y275508D01*
X14479Y275607D01*
X14484Y275811D01*
X14497Y275968D01*
X14516Y276108D01*
X14541Y276228D01*
X14569Y276329D01*
X14601Y276412D01*
X14632Y276479D01*
X14664Y276531D01*
X14695Y276573D01*
X14765Y276649D01*
X14832Y276833D01*
X15149Y277150D01*
X15646Y278350D01*
Y279650D01*
X15149Y280850D01*
X14230Y281769D01*
X13030Y282266D01*
X11730D01*
X11178Y282037D01*
X9908Y282806D01*
Y288303D01*
X14918Y293312D01*
X21780D01*
X21943Y293345D01*
X24906D01*
Y293305D01*
X29457D01*
Y289735D01*
X32735D01*
Y296034D01*
X32735D01*
X32295Y297281D01*
X32660Y297828D01*
X32788Y298472D01*
Y299900D01*
X45000D01*
X45795Y299900D01*
X45998Y299984D01*
X46216Y299984D01*
X47687Y300593D01*
X47841Y300747D01*
X48043Y300831D01*
X49169Y301956D01*
X49253Y302159D01*
X49407Y302313D01*
X50016Y303783D01*
Y304002D01*
X50100Y304205D01*
X50100Y305000D01*
Y307108D01*
X51370Y307957D01*
X51400Y307944D01*
X52700D01*
X53900Y308441D01*
X54371Y308912D01*
X54423Y308915D01*
X54454Y308930D01*
X54470Y308934D01*
X54487Y308945D01*
X54503Y308951D01*
X54569Y308968D01*
X54645Y308982D01*
X54678Y308985D01*
X54930Y308944D01*
X55179Y308884D01*
X55392Y308811D01*
X55570Y308729D01*
X55717Y308640D01*
X55839Y308546D01*
X55940Y308444D01*
X56069Y308274D01*
X56136Y308236D01*
X56165Y308165D01*
X56317Y308102D01*
X57023Y307630D01*
X58008Y307435D01*
X60792D01*
X61777Y307630D01*
X62612Y308188D01*
X63170Y309023D01*
X63366Y310008D01*
Y312792D01*
X63170Y313777D01*
X62612Y314612D01*
X61777Y315170D01*
X60792Y315366D01*
Y316635D01*
X61777Y316831D01*
X62612Y317388D01*
X63170Y318223D01*
X63366Y319208D01*
Y321992D01*
X63170Y322977D01*
X62612Y323812D01*
X61777Y324370D01*
X60792Y324566D01*
X58008D01*
X57023Y324370D01*
X56188Y323812D01*
X55888Y323362D01*
X55885Y323361D01*
X55882Y323353D01*
X55630Y322977D01*
X55600Y322825D01*
X55561Y322810D01*
X55390Y322768D01*
X55153Y322732D01*
X54855Y322709D01*
X54475Y322699D01*
X54376Y322655D01*
X51351D01*
X50100Y323865D01*
X50100Y335000D01*
X50099Y335000D01*
Y335005D01*
X50084Y335041D01*
X50097Y335078D01*
X50018Y336259D01*
X49937Y336423D01*
X49937Y336607D01*
X49255Y338253D01*
X49100Y338408D01*
X49016Y338610D01*
X47610Y340016D01*
X47408Y340100D01*
X47253Y340255D01*
X45415Y341016D01*
X45197D01*
X44994Y341100D01*
X44000Y341100D01*
X12000Y341100D01*
X11999Y341099D01*
X11005Y341099D01*
X10803Y341016D01*
X10584D01*
X8747Y340254D01*
X8592Y340100D01*
X8390Y340016D01*
X6984Y338610D01*
X6900Y338407D01*
X6745Y338253D01*
X5984Y336415D01*
Y336197D01*
X5900Y335994D01*
X5900Y335000D01*
X5900Y305000D01*
X5900Y304204D01*
X5984Y304002D01*
Y303783D01*
X6593Y302313D01*
X6748Y302159D01*
X6831Y301957D01*
X7957Y300831D01*
X8159Y300748D01*
X8313Y300593D01*
X9783Y299984D01*
X10002D01*
X10204Y299900D01*
X11000Y299900D01*
X11897D01*
X12282Y298630D01*
X12160Y298549D01*
X4749Y291137D01*
X4384Y290591D01*
X4256Y289947D01*
Y232061D01*
X4384Y231417D01*
X4749Y230871D01*
X13012Y222607D01*
Y214312D01*
X12961Y214197D01*
X12956Y213983D01*
X12948Y213895D01*
X12319Y213769D01*
X11484Y213212D01*
X10926Y212377D01*
X10730Y211392D01*
Y208608D01*
X10926Y207623D01*
X11484Y206788D01*
X12126Y206359D01*
X12232Y205667D01*
X12126Y204974D01*
X11613Y204631D01*
X11461Y204568D01*
X11431Y204497D01*
X11365Y204459D01*
X11235Y204289D01*
X11133Y204186D01*
X11011Y204090D01*
X10864Y204001D01*
X10685Y203919D01*
X10473Y203846D01*
X10224Y203785D01*
X9959Y203742D01*
X9818Y203883D01*
X8710Y204342D01*
X7510D01*
X6402Y203883D01*
X5553Y203034D01*
X5094Y201926D01*
Y200726D01*
X5553Y199617D01*
X6402Y198769D01*
X7510Y198310D01*
X8710D01*
X9818Y198769D01*
X9959Y198910D01*
X9992Y198912D01*
X10228Y198874D01*
X10477Y198813D01*
X10690Y198741D01*
X10868Y198659D01*
X11015Y198571D01*
X11136Y198477D01*
X11236Y198376D01*
X11365Y198208D01*
X11432Y198169D01*
X11461Y198099D01*
X11613Y198035D01*
X12319Y197564D01*
X13304Y197368D01*
X16088D01*
X17073Y197564D01*
X17908Y198122D01*
X18465Y198957D01*
X18661Y199941D01*
X19930D01*
X20126Y198957D01*
X20684Y198122D01*
X21326Y197693D01*
X21432Y197000D01*
X21326Y196307D01*
X20684Y195878D01*
X20126Y195044D01*
X19930Y194059D01*
Y191275D01*
X20126Y190290D01*
X20684Y189455D01*
X21519Y188897D01*
X22504Y188701D01*
X25288D01*
X26273Y188897D01*
X27108Y189455D01*
X27665Y190290D01*
X27861Y191275D01*
Y194059D01*
X27665Y195044D01*
X27108Y195878D01*
X26466Y196307D01*
X26359Y197000D01*
X26466Y197693D01*
X27108Y198122D01*
X27665Y198957D01*
X27861Y199941D01*
Y202725D01*
X27665Y203710D01*
X27108Y204545D01*
X26466Y204974D01*
X26359Y205667D01*
X26466Y206359D01*
X27108Y206788D01*
X27665Y207623D01*
X27861Y208608D01*
Y211392D01*
X27665Y212377D01*
X27108Y213212D01*
X26273Y213769D01*
X25643Y213895D01*
X25636Y213983D01*
X25630Y214197D01*
X25579Y214312D01*
Y218407D01*
X28489Y221317D01*
X45303D01*
X50649Y215970D01*
X49930Y214893D01*
X49902Y214905D01*
X48602D01*
X47402Y214408D01*
X46989Y213995D01*
X46403Y213507D01*
X45223Y213764D01*
X45215Y213769D01*
X44230Y213965D01*
X41446D01*
X40461Y213769D01*
X39626Y213212D01*
X39069Y212377D01*
X38873Y211392D01*
X37603D01*
X37408Y212377D01*
X36850Y213212D01*
X36146Y214093D01*
X36463Y214881D01*
X36599Y215209D01*
Y216409D01*
X36140Y217517D01*
X35291Y218366D01*
X34183Y218825D01*
X32983D01*
X31875Y218366D01*
X31026Y217517D01*
X30567Y216409D01*
Y215209D01*
X31026Y214101D01*
X30426Y213212D01*
X29868Y212377D01*
X29673Y211392D01*
Y208608D01*
X29868Y207623D01*
X30426Y206788D01*
X31261Y206230D01*
X32246Y206035D01*
X35030D01*
X36015Y206230D01*
X36850Y206788D01*
X37408Y207623D01*
X37603Y208608D01*
X38873D01*
X39069Y207623D01*
X39626Y206788D01*
X40076Y206488D01*
X40077Y206485D01*
X40085Y206482D01*
X40268Y206359D01*
X40375Y205667D01*
X40268Y204974D01*
X40085Y204852D01*
X40077Y204848D01*
X40076Y204846D01*
X39626Y204545D01*
X39069Y203710D01*
X38873Y202725D01*
Y199941D01*
X39069Y198957D01*
X39626Y198122D01*
X40076Y197821D01*
X40077Y197818D01*
X40085Y197815D01*
X40268Y197693D01*
X40375Y197000D01*
X40268Y196307D01*
X40085Y196185D01*
X40077Y196182D01*
X40076Y196179D01*
X39626Y195878D01*
X39069Y195044D01*
X38873Y194059D01*
Y191275D01*
X39069Y190290D01*
X39626Y189455D01*
X40268Y189026D01*
X40375Y188333D01*
X40268Y187641D01*
X39626Y187212D01*
X39069Y186377D01*
X38873Y185392D01*
Y182608D01*
X39069Y181623D01*
X38733Y180518D01*
X38694Y180502D01*
X37846Y179654D01*
X37499Y178817D01*
X37109Y178424D01*
X36116Y177993D01*
X35800Y178055D01*
X33800D01*
X33800Y178055D01*
X33800Y178055D01*
X17800D01*
X17013Y177899D01*
X16346Y177453D01*
X15901Y176787D01*
X15745Y176000D01*
Y174000D01*
X15901Y173213D01*
X16346Y172547D01*
X17013Y172101D01*
X17800Y171945D01*
X33955D01*
X33960Y171942D01*
X33965Y171945D01*
X34687D01*
X34717Y171927D01*
X34963Y171754D01*
X35636Y171181D01*
X36024Y170807D01*
X36127Y170766D01*
X39846Y167047D01*
X40513Y166601D01*
X41300Y166444D01*
X41300Y166444D01*
X45592D01*
X45977Y165175D01*
X45647Y164953D01*
X35938Y155245D01*
X35840Y155208D01*
X35088Y154510D01*
X34797Y154276D01*
X34542Y154098D01*
X34469Y154056D01*
X17800D01*
X17013Y153899D01*
X16346Y153454D01*
X15901Y152787D01*
X15745Y152000D01*
Y150000D01*
X15901Y149213D01*
X16346Y148546D01*
X17013Y148101D01*
X17800Y147944D01*
X35800D01*
X36587Y148101D01*
X36877Y148295D01*
X38044Y148213D01*
X38445Y148043D01*
X39141Y147347D01*
X40250Y146888D01*
X41450D01*
X42558Y147347D01*
X43407Y148195D01*
X43866Y149304D01*
Y150056D01*
X43929Y150258D01*
X43914Y150418D01*
X43913Y150524D01*
X43918Y150594D01*
X43984Y150675D01*
X44334Y150991D01*
X44619Y151200D01*
X44873Y151250D01*
X45434Y151313D01*
X45891Y151100D01*
X46336Y150026D01*
X47255Y149107D01*
X48455Y148610D01*
X49754D01*
X50955Y149107D01*
X51323Y149476D01*
X51553Y149525D01*
X52846Y149308D01*
X52922Y149195D01*
X54325Y147792D01*
X53799Y146522D01*
X53452D01*
X52252Y146025D01*
X51333Y145106D01*
X50884Y144021D01*
X50811Y143989D01*
X49612Y144547D01*
X49524Y144622D01*
X49044Y145780D01*
X48125Y146699D01*
X46925Y147196D01*
X45625D01*
X44425Y146699D01*
X43506Y145780D01*
X43009Y144580D01*
Y143281D01*
X42045Y142288D01*
X41422Y142214D01*
X38986Y144650D01*
X38230Y145155D01*
X37338Y145333D01*
X25201D01*
X25110Y145372D01*
X24695Y145377D01*
X24394Y145390D01*
X24211Y145408D01*
X24060Y145559D01*
X22952Y146018D01*
X21752D01*
X20644Y145559D01*
X19795Y144710D01*
X19336Y143602D01*
Y142402D01*
X19795Y141294D01*
X19198Y140249D01*
X19163Y140223D01*
X19124Y140155D01*
X19052Y140125D01*
X18989Y139973D01*
X18517Y139267D01*
X18321Y138282D01*
Y135498D01*
X18517Y134514D01*
X18989Y133808D01*
X19052Y133656D01*
X19123Y133626D01*
X19161Y133560D01*
X19330Y133430D01*
X19432Y133329D01*
X19527Y133208D01*
X19615Y133061D01*
X19697Y132883D01*
X19770Y132670D01*
X19831Y132421D01*
X19877Y132135D01*
X19906Y131811D01*
X19912Y131615D01*
X19907Y130417D01*
X19905Y130353D01*
X19916Y130323D01*
X19901Y130287D01*
X19923Y130234D01*
X19882Y130026D01*
Y125176D01*
X18759Y124310D01*
X13629D01*
X12866Y125073D01*
X12831Y125177D01*
X12802Y125191D01*
X12790Y125221D01*
X12497Y125523D01*
X12036Y126047D01*
X11889Y126240D01*
X11785Y126399D01*
X11782Y126404D01*
Y130026D01*
X11648Y130695D01*
X11269Y131263D01*
X10702Y131642D01*
X10032Y131776D01*
X8632D01*
X7962Y131642D01*
X7395Y131263D01*
X7016Y130695D01*
X6882Y130026D01*
Y125176D01*
X7016Y124506D01*
X7395Y123939D01*
X7962Y123560D01*
X8632Y123426D01*
X9292D01*
X9297Y123425D01*
X9301Y123426D01*
X9612D01*
X10027Y123070D01*
X10278Y122828D01*
X10398Y122780D01*
X11741Y121437D01*
X12287Y121072D01*
X12932Y120944D01*
X30317D01*
X31496Y119765D01*
Y118778D01*
X31624Y118134D01*
X31989Y117588D01*
X34276Y115301D01*
X34276Y115301D01*
X39291Y110286D01*
X38765Y109016D01*
X38400D01*
X37292Y108557D01*
X36443Y107708D01*
X35984Y106600D01*
Y105400D01*
X36443Y104292D01*
X37211Y103523D01*
X37241Y102954D01*
X37155Y102125D01*
X37154Y102125D01*
X36866Y101837D01*
X36673Y101762D01*
X36548Y101642D01*
X36450Y101560D01*
X36357Y101493D01*
X36268Y101438D01*
X36183Y101395D01*
X36101Y101361D01*
X36020Y101336D01*
X35938Y101318D01*
X35854Y101307D01*
X35719Y101302D01*
X35611Y101251D01*
X31625D01*
X31510Y101302D01*
X31296Y101308D01*
X31279Y101309D01*
Y101776D01*
X31146Y102446D01*
X30766Y103013D01*
X30199Y103392D01*
X29529Y103526D01*
X28129D01*
X27459Y103392D01*
X26892Y103013D01*
X26513Y102446D01*
X26379Y101776D01*
Y96926D01*
X26513Y96257D01*
X26892Y95689D01*
X27459Y95310D01*
X28129Y95176D01*
X29529D01*
X30199Y95310D01*
X30766Y95689D01*
X31146Y96257D01*
X31279Y96926D01*
Y97827D01*
X31296Y97828D01*
X31510Y97834D01*
X31625Y97885D01*
X35611D01*
X35719Y97834D01*
X35854Y97829D01*
X35939Y97818D01*
X36020Y97800D01*
X36101Y97775D01*
X36183Y97741D01*
X36268Y97698D01*
X36357Y97643D01*
X36450Y97576D01*
X36548Y97494D01*
X36673Y97374D01*
X36866Y97299D01*
X37154Y97011D01*
X38262Y96552D01*
X39462D01*
X40570Y97011D01*
X41419Y97860D01*
X41878Y98968D01*
Y100168D01*
X41419Y101276D01*
X40651Y102045D01*
X40621Y102614D01*
X40707Y103443D01*
X40708Y103443D01*
X40832Y103567D01*
X41544Y103613D01*
X41738Y103614D01*
X41830Y103653D01*
X48445D01*
X48531Y103615D01*
X48920Y103604D01*
X49244Y103575D01*
X49530Y103528D01*
X49779Y103468D01*
X49992Y103395D01*
X50170Y103313D01*
X50317Y103224D01*
X50438Y103130D01*
X50540Y103028D01*
X50669Y102858D01*
X50736Y102820D01*
X50765Y102749D01*
X50917Y102686D01*
X51623Y102214D01*
X52608Y102018D01*
X55097D01*
X55102Y102016D01*
X55108Y102018D01*
X55392D01*
X55434Y102027D01*
X55448Y102017D01*
X55817Y101706D01*
X56034Y101497D01*
X56153Y101450D01*
X57459Y100145D01*
X58005Y99780D01*
X58649Y99652D01*
X67592D01*
X68520Y98382D01*
X68479Y98176D01*
Y95392D01*
X68675Y94407D01*
X69233Y93572D01*
X69432Y93439D01*
X69437Y93428D01*
X69463Y93418D01*
X70068Y93014D01*
X70155Y92997D01*
X70193Y92890D01*
X70256Y92620D01*
X70306Y92270D01*
X70339Y91843D01*
X70351Y91321D01*
X70389Y91233D01*
Y89789D01*
X70567Y88897D01*
X71072Y88141D01*
X72343Y86870D01*
X71817Y85600D01*
X70500D01*
X70476Y85590D01*
X70452Y85599D01*
X70365Y85595D01*
X70319Y85573D01*
X70269Y85587D01*
X70183Y85575D01*
X70139Y85549D01*
X70088Y85558D01*
X70003Y85540D01*
X69961Y85510D01*
X69911Y85515D01*
X69827Y85489D01*
X69788Y85456D01*
X69737D01*
X69656Y85422D01*
X69620Y85386D01*
X69570Y85382D01*
X69492Y85342D01*
X69460Y85302D01*
X69409Y85294D01*
X69336Y85247D01*
X69306Y85205D01*
X69257Y85192D01*
X69188Y85139D01*
X69162Y85094D01*
X69114Y85077D01*
X69050Y85018D01*
X69028Y84972D01*
X68982Y84950D01*
X68923Y84886D01*
X68906Y84838D01*
X68861Y84812D01*
X68808Y84743D01*
X68795Y84694D01*
X68753Y84664D01*
X68706Y84591D01*
X68698Y84541D01*
X68658Y84508D01*
X68618Y84430D01*
X68614Y84380D01*
X68578Y84344D01*
X68544Y84263D01*
Y84212D01*
X68511Y84173D01*
X68485Y84089D01*
X68490Y84039D01*
X68460Y83997D01*
X68442Y83912D01*
X68450Y83861D01*
X68425Y83817D01*
X68414Y83731D01*
X68427Y83681D01*
X68405Y83635D01*
X68401Y83548D01*
X68410Y83524D01*
X68400Y83500D01*
Y81024D01*
X68396Y81000D01*
Y74000D01*
X68400Y73976D01*
Y71500D01*
X68410Y71476D01*
X68401Y71452D01*
X68405Y71365D01*
X68427Y71319D01*
X68414Y71269D01*
X68425Y71183D01*
X68450Y71139D01*
X68442Y71088D01*
X68460Y71003D01*
X68490Y70961D01*
X68485Y70911D01*
X68511Y70827D01*
X68544Y70788D01*
Y70737D01*
X68578Y70656D01*
X68614Y70620D01*
X68618Y70570D01*
X68658Y70492D01*
X68698Y70459D01*
X68706Y70409D01*
X68753Y70336D01*
X68795Y70306D01*
X68808Y70257D01*
X68861Y70188D01*
X68906Y70162D01*
X68923Y70114D01*
X68982Y70050D01*
X69028Y70028D01*
X69050Y69982D01*
X69114Y69923D01*
X69162Y69906D01*
X69188Y69861D01*
X69257Y69808D01*
X69306Y69795D01*
X69336Y69753D01*
X69409Y69706D01*
X69460Y69698D01*
X69492Y69658D01*
X69570Y69618D01*
X69620Y69614D01*
X69656Y69578D01*
X69737Y69544D01*
X69788D01*
X69827Y69511D01*
X69911Y69485D01*
X69961Y69490D01*
X70003Y69461D01*
X70088Y69442D01*
X70139Y69450D01*
X70183Y69425D01*
X70269Y69413D01*
X70319Y69427D01*
X70365Y69405D01*
X70452Y69401D01*
X70476Y69410D01*
X70500Y69400D01*
X72976D01*
X73000Y69395D01*
X80000D01*
X80024Y69400D01*
X82500D01*
X82524Y69410D01*
X82548Y69401D01*
X82635Y69405D01*
X82681Y69427D01*
X82731Y69413D01*
X82817Y69425D01*
X82861Y69450D01*
X82912Y69442D01*
X82997Y69461D01*
X83039Y69490D01*
X83089Y69485D01*
X83173Y69511D01*
X83212Y69544D01*
X83263D01*
X83344Y69578D01*
X83380Y69614D01*
X83430Y69618D01*
X83508Y69658D01*
X83540Y69698D01*
X83591Y69706D01*
X83664Y69753D01*
X83694Y69795D01*
X83743Y69808D01*
X83812Y69861D01*
X83838Y69906D01*
X83886Y69923D01*
X83950Y69982D01*
X83972Y70028D01*
X84018Y70050D01*
X84077Y70114D01*
X84094Y70162D01*
X84138Y70188D01*
X84192Y70257D01*
X84205Y70306D01*
X84247Y70336D01*
X84294Y70409D01*
X84302Y70459D01*
X84341Y70492D01*
X84382Y70570D01*
X84386Y70620D01*
X84422Y70656D01*
X84456Y70737D01*
Y70788D01*
X84489Y70827D01*
X84515Y70911D01*
X84510Y70961D01*
X84539Y71003D01*
X84558Y71088D01*
X84550Y71139D01*
X84575Y71183D01*
X84586Y71269D01*
X84573Y71319D01*
X84595Y71365D01*
X84599Y71452D01*
X84590Y71476D01*
X84600Y71500D01*
Y73976D01*
X84605Y74000D01*
Y81000D01*
X84600Y81024D01*
Y83000D01*
X84590Y83024D01*
X84599Y83048D01*
X84593Y83179D01*
X84571Y83225D01*
X84585Y83274D01*
X84567Y83404D01*
X84542Y83448D01*
X84551Y83498D01*
X84522Y83626D01*
X84493Y83668D01*
X84498Y83719D01*
X84458Y83844D01*
X84425Y83883D01*
Y83934D01*
X84375Y84055D01*
X84339Y84091D01*
X84335Y84142D01*
X84274Y84258D01*
X84235Y84291D01*
X84227Y84341D01*
X84156Y84451D01*
X84114Y84480D01*
X84101Y84530D01*
X84022Y84634D01*
X83977Y84659D01*
X83960Y84707D01*
X83871Y84804D01*
X83825Y84825D01*
X83804Y84871D01*
X83707Y84960D01*
X83659Y84977D01*
X83634Y85021D01*
X83530Y85101D01*
X83481Y85114D01*
X83451Y85156D01*
X83341Y85227D01*
X83291Y85235D01*
X83258Y85274D01*
X83142Y85335D01*
X83091Y85339D01*
X83055Y85375D01*
X82934Y85426D01*
X82883D01*
X82844Y85458D01*
X82719Y85498D01*
X82668Y85493D01*
X82626Y85523D01*
X82499Y85551D01*
X82448Y85542D01*
X82404Y85568D01*
X82274Y85585D01*
X82225Y85571D01*
X82179Y85593D01*
X82048Y85599D01*
X82024Y85590D01*
X82000Y85600D01*
X80024D01*
X80000Y85604D01*
X78882D01*
X78872Y85758D01*
X78870Y86018D01*
X78793Y86199D01*
X78653Y86901D01*
X78148Y87657D01*
X75051Y90754D01*
Y91265D01*
X75090Y91354D01*
X75098Y91780D01*
X75122Y92142D01*
X75160Y92461D01*
X75210Y92733D01*
X75269Y92958D01*
X75333Y93134D01*
X75395Y93261D01*
X75448Y93343D01*
X75488Y93387D01*
X75590Y93469D01*
X75627Y93536D01*
X75696Y93566D01*
X75757Y93724D01*
X76214Y94407D01*
X76410Y95392D01*
Y97376D01*
X77042Y97900D01*
X77055Y97903D01*
X77069Y97900D01*
X77701Y97376D01*
Y95392D01*
X77897Y94407D01*
X78455Y93572D01*
X79290Y93014D01*
X80275Y92818D01*
X81022D01*
X81027Y92816D01*
X81032Y92818D01*
X82032D01*
X82134Y92760D01*
X82467Y92525D01*
X83342Y91782D01*
X83842Y91299D01*
X83846Y91297D01*
X83847Y91294D01*
X83936Y91259D01*
X88597Y86599D01*
X88704Y86221D01*
X88708Y86200D01*
X88710Y86136D01*
X88584Y85368D01*
X88543Y85272D01*
X88373Y85027D01*
X88366Y85021D01*
X88341Y84977D01*
X88293Y84960D01*
X88196Y84871D01*
X88175Y84825D01*
X88129Y84804D01*
X88040Y84707D01*
X88023Y84659D01*
X87978Y84634D01*
X87899Y84530D01*
X87886Y84480D01*
X87844Y84451D01*
X87773Y84341D01*
X87765Y84291D01*
X87725Y84258D01*
X87665Y84142D01*
X87661Y84091D01*
X87625Y84055D01*
X87575Y83934D01*
Y83883D01*
X87542Y83844D01*
X87502Y83719D01*
X87507Y83668D01*
X87477Y83626D01*
X87449Y83498D01*
X87458Y83448D01*
X87432Y83404D01*
X87415Y83274D01*
X87429Y83225D01*
X87407Y83179D01*
X87401Y83048D01*
X87410Y83024D01*
X87400Y83000D01*
Y81024D01*
X87395Y81000D01*
Y74000D01*
X87400Y73976D01*
Y71500D01*
X87410Y71476D01*
X87401Y71452D01*
X87405Y71365D01*
X87427Y71319D01*
X87414Y71269D01*
X87425Y71183D01*
X87450Y71139D01*
X87442Y71088D01*
X87460Y71003D01*
X87490Y70961D01*
X87485Y70911D01*
X87511Y70827D01*
X87544Y70788D01*
Y70737D01*
X87578Y70656D01*
X87614Y70620D01*
X87618Y70570D01*
X87659Y70492D01*
X87697Y70459D01*
X87706Y70409D01*
X87753Y70336D01*
X87795Y70306D01*
X87808Y70257D01*
X87861Y70188D01*
X87906Y70162D01*
X87923Y70114D01*
X87982Y70050D01*
X88028Y70028D01*
X88050Y69982D01*
X88114Y69923D01*
X88162Y69906D01*
X88188Y69861D01*
X88257Y69808D01*
X88306Y69795D01*
X88336Y69753D01*
X88409Y69706D01*
X88460Y69698D01*
X88492Y69658D01*
X88570Y69618D01*
X88620Y69614D01*
X88656Y69578D01*
X88737Y69544D01*
X88788D01*
X88827Y69511D01*
X88911Y69485D01*
X88961Y69490D01*
X89003Y69461D01*
X89088Y69442D01*
X89139Y69450D01*
X89183Y69425D01*
X89269Y69413D01*
X89319Y69427D01*
X89365Y69405D01*
X89452Y69401D01*
X89476Y69410D01*
X89500Y69400D01*
X91976D01*
X92000Y69395D01*
X99000D01*
X99024Y69400D01*
X101500D01*
X101524Y69410D01*
X101548Y69401D01*
X101635Y69405D01*
X101681Y69427D01*
X101731Y69413D01*
X101817Y69425D01*
X101861Y69450D01*
X101912Y69442D01*
X101997Y69461D01*
X102039Y69490D01*
X102089Y69485D01*
X102172Y69511D01*
X102212Y69544D01*
X102263D01*
X102344Y69578D01*
X102380Y69614D01*
X102430Y69618D01*
X102508Y69658D01*
X102541Y69698D01*
X102591Y69706D01*
X102664Y69753D01*
X102694Y69795D01*
X102743Y69808D01*
X102812Y69861D01*
X102838Y69906D01*
X102886Y69923D01*
X102950Y69982D01*
X102972Y70028D01*
X103018Y70050D01*
X103077Y70114D01*
X103094Y70162D01*
X103139Y70188D01*
X103192Y70257D01*
X103205Y70306D01*
X103247Y70336D01*
X103294Y70409D01*
X103302Y70459D01*
X103342Y70492D01*
X103382Y70570D01*
X103386Y70620D01*
X103422Y70656D01*
X103456Y70737D01*
Y70788D01*
X103489Y70827D01*
X103515Y70911D01*
X103510Y70961D01*
X103539Y71003D01*
X103558Y71088D01*
X103549Y71139D01*
X103575Y71183D01*
X103587Y71269D01*
X103573Y71319D01*
X103595Y71365D01*
X103599Y71452D01*
X103590Y71476D01*
X103600Y71500D01*
Y73976D01*
X103604Y74000D01*
Y81000D01*
X103600Y81024D01*
Y83500D01*
X103590Y83524D01*
X103599Y83548D01*
X103595Y83635D01*
X103573Y83681D01*
X103587Y83731D01*
X103575Y83817D01*
X103549Y83861D01*
X103558Y83912D01*
X103539Y83997D01*
X103510Y84039D01*
X103515Y84089D01*
X103489Y84172D01*
X103456Y84212D01*
Y84263D01*
X103422Y84344D01*
X103386Y84380D01*
X103382Y84430D01*
X103342Y84508D01*
X103302Y84541D01*
X103294Y84591D01*
X103247Y84664D01*
X103205Y84694D01*
X103192Y84743D01*
X103139Y84812D01*
X103094Y84838D01*
X103077Y84886D01*
X103018Y84950D01*
X102972Y84972D01*
X102950Y85018D01*
X102886Y85077D01*
X102838Y85094D01*
X102812Y85139D01*
X102743Y85192D01*
X102694Y85205D01*
X102664Y85247D01*
X102591Y85294D01*
X102541Y85302D01*
X102508Y85342D01*
X102430Y85382D01*
X102380Y85386D01*
X102344Y85422D01*
X102263Y85456D01*
X102212D01*
X102172Y85489D01*
X102089Y85515D01*
X102039Y85510D01*
X101997Y85540D01*
X101912Y85558D01*
X101861Y85549D01*
X101817Y85575D01*
X101730Y85587D01*
X101681Y85573D01*
X101635Y85595D01*
X101548Y85599D01*
X101524Y85590D01*
X101500Y85600D01*
X99024D01*
X99000Y85604D01*
X95625D01*
X95549Y85989D01*
X95043Y86745D01*
X87198Y94590D01*
X87166Y94676D01*
X86257Y95654D01*
X85943Y96045D01*
X85701Y96389D01*
X85632Y96509D01*
Y97526D01*
X85634Y97532D01*
X85632Y97537D01*
Y98176D01*
X85591Y98382D01*
X86519Y99652D01*
X93462D01*
X93526Y99664D01*
X93589Y99652D01*
X95258D01*
X96186Y98382D01*
X96145Y98176D01*
Y95392D01*
X96341Y94407D01*
X96899Y93572D01*
X97734Y93014D01*
X98719Y92818D01*
X101503D01*
X102488Y93014D01*
X103323Y93572D01*
X103881Y94407D01*
X104076Y95392D01*
Y97376D01*
X104709Y97900D01*
X104722Y97903D01*
X104735Y97900D01*
X105368Y97376D01*
Y95392D01*
X105564Y94407D01*
X106122Y93572D01*
X106956Y93014D01*
X107941Y92818D01*
X108634D01*
X108639Y92816D01*
X108645Y92818D01*
X109653D01*
X109764Y92754D01*
X110097Y92521D01*
X110969Y91780D01*
X111468Y91299D01*
X111558Y91263D01*
X112169Y90652D01*
Y87155D01*
X112131Y87068D01*
X112119Y86613D01*
X112087Y86252D01*
X112039Y85960D01*
X111982Y85743D01*
X111926Y85605D01*
X111925Y85604D01*
X111000D01*
X110976Y85600D01*
X108500D01*
X108476Y85590D01*
X108452Y85599D01*
X108365Y85595D01*
X108319Y85573D01*
X108269Y85587D01*
X108183Y85575D01*
X108139Y85549D01*
X108088Y85558D01*
X108003Y85540D01*
X107961Y85510D01*
X107911Y85515D01*
X107828Y85489D01*
X107788Y85456D01*
X107737D01*
X107656Y85422D01*
X107620Y85386D01*
X107570Y85382D01*
X107492Y85342D01*
X107459Y85302D01*
X107409Y85294D01*
X107336Y85247D01*
X107306Y85205D01*
X107257Y85192D01*
X107188Y85139D01*
X107162Y85094D01*
X107114Y85077D01*
X107050Y85018D01*
X107028Y84972D01*
X106982Y84950D01*
X106923Y84886D01*
X106906Y84838D01*
X106861Y84812D01*
X106808Y84743D01*
X106795Y84694D01*
X106753Y84664D01*
X106706Y84591D01*
X106698Y84541D01*
X106658Y84508D01*
X106618Y84430D01*
X106614Y84380D01*
X106578Y84344D01*
X106544Y84263D01*
Y84212D01*
X106511Y84173D01*
X106485Y84089D01*
X106490Y84039D01*
X106461Y83997D01*
X106442Y83912D01*
X106451Y83861D01*
X106425Y83817D01*
X106413Y83731D01*
X106427Y83681D01*
X106405Y83635D01*
X106401Y83548D01*
X106410Y83524D01*
X106400Y83500D01*
Y81024D01*
X106396Y81000D01*
Y74000D01*
X106400Y73976D01*
Y71500D01*
X106410Y71476D01*
X106401Y71452D01*
X106405Y71365D01*
X106427Y71319D01*
X106413Y71269D01*
X106425Y71183D01*
X106451Y71139D01*
X106442Y71088D01*
X106461Y71003D01*
X106490Y70961D01*
X106485Y70911D01*
X106511Y70827D01*
X106544Y70788D01*
Y70737D01*
X106578Y70656D01*
X106614Y70620D01*
X106618Y70570D01*
X106658Y70492D01*
X106698Y70459D01*
X106706Y70409D01*
X106753Y70336D01*
X106795Y70306D01*
X106808Y70257D01*
X106861Y70188D01*
X106906Y70162D01*
X106923Y70114D01*
X106982Y70050D01*
X107028Y70028D01*
X107050Y69982D01*
X107114Y69923D01*
X107162Y69906D01*
X107188Y69861D01*
X107257Y69808D01*
X107306Y69795D01*
X107336Y69753D01*
X107409Y69706D01*
X107459Y69698D01*
X107492Y69658D01*
X107570Y69618D01*
X107620Y69614D01*
X107656Y69578D01*
X107737Y69544D01*
X107788D01*
X107827Y69511D01*
X107911Y69485D01*
X107961Y69490D01*
X108003Y69461D01*
X108088Y69442D01*
X108139Y69450D01*
X108183Y69425D01*
X108269Y69413D01*
X108319Y69427D01*
X108365Y69405D01*
X108452Y69401D01*
X108476Y69410D01*
X108500Y69400D01*
X110976D01*
X111000Y69395D01*
X118000D01*
X118024Y69400D01*
X120500D01*
X120524Y69410D01*
X120548Y69401D01*
X120635Y69405D01*
X120681Y69427D01*
X120731Y69413D01*
X120817Y69425D01*
X120861Y69450D01*
X120912Y69442D01*
X120997Y69461D01*
X121039Y69490D01*
X121089Y69485D01*
X121173Y69511D01*
X121212Y69544D01*
X121263D01*
X121344Y69578D01*
X121380Y69614D01*
X121430Y69618D01*
X121508Y69658D01*
X121540Y69698D01*
X121591Y69706D01*
X121664Y69753D01*
X121694Y69795D01*
X121743Y69808D01*
X121812Y69861D01*
X121838Y69906D01*
X121886Y69923D01*
X121950Y69982D01*
X121972Y70028D01*
X122018Y70050D01*
X122077Y70114D01*
X122094Y70162D01*
X122139Y70188D01*
X122192Y70257D01*
X122205Y70306D01*
X122247Y70336D01*
X122294Y70409D01*
X122302Y70459D01*
X122341Y70492D01*
X122382Y70570D01*
X122386Y70620D01*
X122422Y70656D01*
X122456Y70737D01*
Y70788D01*
X122489Y70827D01*
X122515Y70911D01*
X122510Y70961D01*
X122540Y71003D01*
X122558Y71088D01*
X122549Y71139D01*
X122575Y71183D01*
X122586Y71269D01*
X122573Y71319D01*
X122595Y71365D01*
X122599Y71452D01*
X122590Y71476D01*
X122600Y71500D01*
Y73976D01*
X122605Y74000D01*
Y81000D01*
X122600Y81024D01*
Y83500D01*
X122590Y83524D01*
X122599Y83548D01*
X122595Y83635D01*
X122573Y83681D01*
X122586Y83731D01*
X122575Y83817D01*
X122549Y83861D01*
X122558Y83912D01*
X122540Y83997D01*
X122510Y84039D01*
X122515Y84089D01*
X122489Y84172D01*
X122456Y84212D01*
Y84263D01*
X122422Y84344D01*
X122386Y84380D01*
X122382Y84430D01*
X122341Y84508D01*
X122302Y84541D01*
X122294Y84591D01*
X122247Y84664D01*
X122205Y84694D01*
X122192Y84743D01*
X122139Y84812D01*
X122094Y84838D01*
X122077Y84886D01*
X122018Y84950D01*
X121972Y84972D01*
X121950Y85018D01*
X121886Y85077D01*
X121838Y85094D01*
X121812Y85139D01*
X121743Y85192D01*
X121694Y85205D01*
X121664Y85247D01*
X121591Y85294D01*
X121540Y85302D01*
X121508Y85342D01*
X121430Y85382D01*
X121380Y85386D01*
X121344Y85422D01*
X121263Y85456D01*
X121212D01*
X121173Y85489D01*
X121089Y85515D01*
X121039Y85510D01*
X120997Y85540D01*
X120912Y85558D01*
X120861Y85549D01*
X120817Y85575D01*
X120730Y85587D01*
X120681Y85573D01*
X120635Y85595D01*
X120548Y85599D01*
X120524Y85590D01*
X120500Y85600D01*
X118024D01*
X118000Y85604D01*
X117075D01*
X117074Y85605D01*
X117018Y85743D01*
X116961Y85960D01*
X116913Y86252D01*
X116881Y86613D01*
X116869Y87068D01*
X116831Y87155D01*
Y91590D01*
X116831Y91618D01*
X116872Y91764D01*
X117499Y92572D01*
X117858Y92818D01*
X118735D01*
X118873Y92739D01*
X119205Y92507D01*
X120069Y91774D01*
X120207Y91641D01*
X120211Y91636D01*
X120359Y91462D01*
Y90352D01*
X120818Y89243D01*
X121666Y88395D01*
X122775Y87935D01*
X123975D01*
X125083Y88395D01*
X125932Y89243D01*
X126391Y90352D01*
Y91552D01*
X125932Y92660D01*
X125083Y93508D01*
X124849Y93605D01*
X124743Y93763D01*
X124107Y94400D01*
X124081Y94477D01*
X124062Y94486D01*
X124055Y94506D01*
X123132Y95498D01*
X122813Y95893D01*
X122569Y96240D01*
X122521Y96324D01*
Y97306D01*
X122522Y97309D01*
X122521Y97313D01*
Y98176D01*
X122325Y99161D01*
X121767Y99996D01*
X120932Y100554D01*
X119947Y100749D01*
Y102018D01*
X120932Y102214D01*
X121638Y102686D01*
X121790Y102749D01*
X121820Y102820D01*
X121886Y102858D01*
X122016Y103028D01*
X122117Y103130D01*
X122238Y103224D01*
X122385Y103313D01*
X122563Y103395D01*
X122776Y103468D01*
X123025Y103528D01*
X123167Y103551D01*
X123308Y103528D01*
X123557Y103468D01*
X123770Y103395D01*
X123948Y103313D01*
X124095Y103224D01*
X124216Y103130D01*
X124317Y103028D01*
X124447Y102858D01*
X124513Y102820D01*
X124543Y102749D01*
X124695Y102686D01*
X125401Y102214D01*
X126386Y102018D01*
X129170D01*
X130154Y102214D01*
X130860Y102686D01*
X131012Y102749D01*
X131042Y102820D01*
X131108Y102858D01*
X131238Y103028D01*
X131339Y103130D01*
X131460Y103224D01*
X131608Y103313D01*
X131785Y103395D01*
X131998Y103468D01*
X132247Y103528D01*
X132389Y103551D01*
X132530Y103528D01*
X132779Y103468D01*
X132992Y103395D01*
X133170Y103313D01*
X133317Y103224D01*
X133438Y103130D01*
X133540Y103028D01*
X133669Y102858D01*
X133736Y102820D01*
X133765Y102749D01*
X133917Y102686D01*
X134623Y102214D01*
X135608Y102018D01*
Y100749D01*
X134623Y100554D01*
X133788Y99996D01*
X133230Y99161D01*
X133034Y98176D01*
Y95392D01*
X133230Y94407D01*
X133702Y93701D01*
X133765Y93549D01*
X133818Y93527D01*
X133845Y93477D01*
X133950Y93391D01*
X133993Y93339D01*
X134056Y93237D01*
X134128Y93075D01*
X134201Y92853D01*
X134268Y92572D01*
X134321Y92248D01*
X134391Y91387D01*
X134400Y90887D01*
X134434Y90809D01*
Y87679D01*
X134408Y87632D01*
X134424Y87577D01*
X134401Y87525D01*
X134386Y86902D01*
X134347Y86397D01*
X134285Y85991D01*
X134211Y85692D01*
X134176Y85604D01*
X130000D01*
X129976Y85600D01*
X127500D01*
X127476Y85590D01*
X127452Y85599D01*
X127365Y85595D01*
X127319Y85573D01*
X127269Y85587D01*
X127183Y85575D01*
X127139Y85549D01*
X127088Y85558D01*
X127003Y85540D01*
X126961Y85510D01*
X126911Y85515D01*
X126827Y85489D01*
X126788Y85456D01*
X126737D01*
X126656Y85422D01*
X126620Y85386D01*
X126570Y85382D01*
X126492Y85342D01*
X126460Y85302D01*
X126409Y85294D01*
X126336Y85247D01*
X126306Y85205D01*
X126257Y85192D01*
X126188Y85139D01*
X126162Y85094D01*
X126114Y85077D01*
X126050Y85018D01*
X126028Y84972D01*
X125982Y84950D01*
X125923Y84886D01*
X125906Y84838D01*
X125862Y84812D01*
X125808Y84743D01*
X125795Y84694D01*
X125753Y84664D01*
X125706Y84591D01*
X125697Y84541D01*
X125659Y84508D01*
X125618Y84430D01*
X125614Y84380D01*
X125578Y84344D01*
X125544Y84263D01*
Y84212D01*
X125511Y84173D01*
X125485Y84089D01*
X125490Y84039D01*
X125461Y83997D01*
X125442Y83912D01*
X125450Y83861D01*
X125425Y83817D01*
X125414Y83731D01*
X125427Y83681D01*
X125405Y83635D01*
X125401Y83548D01*
X125410Y83524D01*
X125400Y83500D01*
Y81024D01*
X125395Y81000D01*
Y74000D01*
X125400Y73976D01*
Y71500D01*
X125410Y71476D01*
X125401Y71452D01*
X125405Y71365D01*
X125427Y71319D01*
X125414Y71269D01*
X125425Y71183D01*
X125450Y71139D01*
X125442Y71088D01*
X125461Y71003D01*
X125490Y70961D01*
X125485Y70911D01*
X125511Y70827D01*
X125544Y70788D01*
Y70737D01*
X125578Y70656D01*
X125614Y70620D01*
X125618Y70570D01*
X125659Y70492D01*
X125697Y70459D01*
X125706Y70409D01*
X125753Y70336D01*
X125795Y70306D01*
X125808Y70257D01*
X125862Y70188D01*
X125906Y70162D01*
X125923Y70114D01*
X125982Y70050D01*
X126028Y70028D01*
X126050Y69982D01*
X126114Y69923D01*
X126162Y69906D01*
X126188Y69861D01*
X126257Y69808D01*
X126306Y69795D01*
X126336Y69753D01*
X126409Y69706D01*
X126460Y69698D01*
X126492Y69658D01*
X126570Y69618D01*
X126620Y69614D01*
X126656Y69578D01*
X126737Y69544D01*
X126788D01*
X126827Y69511D01*
X126911Y69485D01*
X126961Y69490D01*
X127003Y69461D01*
X127088Y69442D01*
X127139Y69450D01*
X127183Y69425D01*
X127269Y69413D01*
X127319Y69427D01*
X127365Y69405D01*
X127452Y69401D01*
X127476Y69410D01*
X127500Y69400D01*
X129976D01*
X130000Y69395D01*
X137000D01*
X137024Y69400D01*
X139500D01*
X139524Y69410D01*
X139548Y69401D01*
X139635Y69405D01*
X139681Y69427D01*
X139731Y69413D01*
X139817Y69425D01*
X139861Y69450D01*
X139912Y69442D01*
X139997Y69461D01*
X140039Y69490D01*
X140089Y69485D01*
X140173Y69511D01*
X140212Y69544D01*
X140263D01*
X140344Y69578D01*
X140380Y69614D01*
X140430Y69618D01*
X140508Y69658D01*
X140541Y69698D01*
X140591Y69706D01*
X140664Y69753D01*
X140694Y69795D01*
X140743Y69808D01*
X140812Y69861D01*
X140838Y69906D01*
X140886Y69923D01*
X140950Y69982D01*
X140972Y70028D01*
X141018Y70050D01*
X141077Y70114D01*
X141094Y70162D01*
X141138Y70188D01*
X141192Y70257D01*
X141205Y70306D01*
X141247Y70336D01*
X141294Y70409D01*
X141302Y70459D01*
X141341Y70492D01*
X141382Y70570D01*
X141386Y70620D01*
X141422Y70656D01*
X141456Y70737D01*
Y70788D01*
X141489Y70827D01*
X141515Y70911D01*
X141510Y70961D01*
X141539Y71003D01*
X141558Y71088D01*
X141550Y71139D01*
X141575Y71183D01*
X141587Y71269D01*
X141573Y71319D01*
X141595Y71365D01*
X141599Y71452D01*
X141590Y71476D01*
X141600Y71500D01*
Y73976D01*
X141604Y74000D01*
Y81000D01*
X141254Y82762D01*
X140995Y83149D01*
X140996Y83183D01*
X140945Y83235D01*
X140936Y83307D01*
X140838Y83384D01*
X140256Y84256D01*
X139891Y84500D01*
X139807Y84796D01*
X139723Y85238D01*
X139614Y86441D01*
X139600Y87156D01*
X139565Y87234D01*
Y90793D01*
X139599Y90866D01*
X139636Y91855D01*
X139676Y92234D01*
X139732Y92572D01*
X139798Y92853D01*
X139871Y93075D01*
X139944Y93237D01*
X140007Y93339D01*
X140050Y93391D01*
X140155Y93477D01*
X140182Y93527D01*
X140235Y93549D01*
X140298Y93701D01*
X140769Y94407D01*
X140965Y95392D01*
Y98176D01*
X140769Y99161D01*
X140211Y99996D01*
X139377Y100554D01*
X138392Y100749D01*
Y102018D01*
X139377Y102214D01*
X140211Y102772D01*
X140769Y103607D01*
X140965Y104592D01*
Y107376D01*
X140769Y108361D01*
X140211Y109196D01*
X139377Y109754D01*
X138392Y109949D01*
X135608D01*
X134623Y109754D01*
X133917Y109282D01*
X133765Y109219D01*
X133736Y109148D01*
X133669Y109109D01*
X133540Y108940D01*
X133438Y108838D01*
X133317Y108744D01*
X133170Y108655D01*
X132992Y108573D01*
X132779Y108500D01*
X132530Y108440D01*
X132389Y108417D01*
X132247Y108440D01*
X131998Y108500D01*
X131785Y108573D01*
X131608Y108655D01*
X131460Y108744D01*
X131339Y108838D01*
X131238Y108940D01*
X131108Y109109D01*
X131096Y109117D01*
X131038Y109158D01*
X131012Y109219D01*
X130647Y110386D01*
X130632Y110455D01*
X131087Y111554D01*
Y112754D01*
X130628Y113862D01*
X130444Y114047D01*
X130970Y115317D01*
X147903D01*
X155317Y107903D01*
Y100468D01*
X155267Y100361D01*
X155260Y100219D01*
X155247Y100128D01*
X155224Y100035D01*
X155190Y99936D01*
X155143Y99830D01*
X155081Y99717D01*
X155003Y99596D01*
X154906Y99467D01*
X154790Y99333D01*
X154634Y99171D01*
X154557Y98976D01*
X154231Y98650D01*
X153734Y97450D01*
Y96150D01*
X154231Y94950D01*
X155150Y94031D01*
X155454Y93905D01*
X155557Y93305D01*
X155473Y92523D01*
X154834Y92096D01*
X154277Y91261D01*
X154081Y90276D01*
Y87492D01*
X154277Y86507D01*
X154834Y85672D01*
X155669Y85114D01*
X156654Y84918D01*
Y83649D01*
X155669Y83454D01*
X154834Y82896D01*
X154277Y82061D01*
X154081Y81076D01*
Y78292D01*
X154277Y77307D01*
X154834Y76472D01*
X155669Y75914D01*
X156654Y75718D01*
X159438D01*
X160423Y75914D01*
X161258Y76472D01*
X161816Y77307D01*
X162012Y78292D01*
Y79590D01*
X162410Y79737D01*
X163647Y79997D01*
X164093Y79331D01*
X164759Y78885D01*
X165546Y78728D01*
X175546D01*
X176333Y78885D01*
X176999Y79331D01*
X177264Y79394D01*
X178501Y79293D01*
X178568Y79227D01*
X179676Y78768D01*
X180876D01*
X181984Y79227D01*
X182178Y79420D01*
X183093Y79330D01*
X183759Y78885D01*
X184546Y78728D01*
X187327D01*
X187546Y78400D01*
Y77200D01*
X188005Y76092D01*
X188147Y75950D01*
Y75713D01*
X187031Y74598D01*
X186945Y74566D01*
X185964Y73653D01*
X185572Y73338D01*
X185227Y73096D01*
X185116Y73032D01*
X184108D01*
X184102Y73034D01*
X184097Y73032D01*
X183404D01*
X182419Y72836D01*
X181584Y72278D01*
X181026Y71443D01*
X180830Y70458D01*
Y67674D01*
X181026Y66689D01*
X181584Y65854D01*
X182419Y65297D01*
X183404Y65101D01*
X186188D01*
X187173Y65297D01*
X188008Y65854D01*
X188565Y66689D01*
X188761Y67674D01*
Y68367D01*
X188764Y68373D01*
X188761Y68378D01*
Y69386D01*
X188825Y69497D01*
X189059Y69830D01*
X189800Y70702D01*
X190281Y71200D01*
X190317Y71291D01*
X192126Y73100D01*
X192631Y73856D01*
X192808Y74748D01*
Y75781D01*
X193119Y76092D01*
X193578Y77200D01*
Y78400D01*
X194751Y78769D01*
X195333Y78885D01*
X196000Y79331D01*
X196445Y79997D01*
X196602Y80784D01*
Y82784D01*
X196445Y83570D01*
X196000Y84237D01*
X195333Y84683D01*
X194546Y84839D01*
X184546D01*
X183759Y84683D01*
X183093Y84237D01*
X183040Y84232D01*
X182511Y84702D01*
X182449Y84834D01*
X182470Y86321D01*
X182833Y86684D01*
X183292Y87792D01*
Y88992D01*
X182833Y90100D01*
X181984Y90949D01*
X180876Y91408D01*
X179676D01*
X178568Y90949D01*
X178458Y90840D01*
X178173Y90817D01*
X177685Y91261D01*
X176999Y92331D01*
X177445Y92997D01*
X177602Y93784D01*
Y94550D01*
X177639Y94619D01*
X177729Y94755D01*
X178339Y95483D01*
X178611Y95763D01*
X178659Y95884D01*
X184424Y101649D01*
X184544Y101696D01*
X184768Y101912D01*
X184954Y102076D01*
X185113Y102203D01*
X185188Y102255D01*
X187388D01*
X187408Y102259D01*
X187764D01*
X188749Y102454D01*
X189584Y103012D01*
X190142Y103847D01*
X190338Y104832D01*
Y107616D01*
X190142Y108601D01*
X189584Y109436D01*
X188749Y109994D01*
X187764Y110189D01*
X184980D01*
X183995Y109994D01*
X183160Y109436D01*
X182603Y108601D01*
X182407Y107616D01*
X181138D01*
X180942Y108601D01*
X180384Y109436D01*
X179549Y109994D01*
X178920Y110119D01*
X178912Y110207D01*
X178907Y110421D01*
X178855Y110535D01*
Y111292D01*
X178727Y111936D01*
X178363Y112482D01*
X160150Y130695D01*
X159604Y131060D01*
X158959Y131188D01*
X158965Y132456D01*
X159240Y132456D01*
X160348Y132915D01*
X160754Y133321D01*
X160776Y133324D01*
X161384Y133365D01*
X161578Y133366D01*
X161665Y133404D01*
X161758Y133383D01*
X161794Y133405D01*
X175803D01*
X175890Y133367D01*
X176368Y133355D01*
X176752Y133323D01*
X177066Y133274D01*
X177304Y133214D01*
X177461Y133153D01*
X177524Y133117D01*
X177532Y133058D01*
X177564Y133003D01*
X177634Y132649D01*
X178328Y131610D01*
X179368Y130916D01*
X180593Y130672D01*
X191343D01*
X192569Y130916D01*
X193608Y131610D01*
X194302Y132649D01*
X194545Y133875D01*
Y138125D01*
X194302Y139351D01*
X193608Y140389D01*
X192569Y141084D01*
X191343Y141327D01*
X180593D01*
X179368Y141084D01*
X178328Y140389D01*
X177634Y139351D01*
X177449Y138419D01*
X177422Y138367D01*
X177418Y138327D01*
X177393Y138312D01*
X177251Y138256D01*
X177028Y138197D01*
X176728Y138149D01*
X176356Y138117D01*
X175890Y138105D01*
X175803Y138067D01*
X166456D01*
X166071Y139337D01*
X166163Y139399D01*
X174581Y147817D01*
X177045D01*
X177159Y147766D01*
X177373Y147760D01*
X177390Y147759D01*
Y147375D01*
X177634Y146149D01*
X178328Y145110D01*
X179368Y144416D01*
X180593Y144172D01*
X191343D01*
X192569Y144416D01*
X193608Y145110D01*
X194302Y146149D01*
X194545Y147375D01*
Y151625D01*
X194302Y152851D01*
X193608Y153890D01*
X192569Y154584D01*
X191343Y154827D01*
X180593D01*
X179368Y154584D01*
X178328Y153890D01*
X177634Y152851D01*
X177390Y151625D01*
Y151241D01*
X177373Y151240D01*
X177159Y151234D01*
X177045Y151183D01*
X173884D01*
X173240Y151055D01*
X172694Y150690D01*
X164276Y142272D01*
X157394D01*
X156750Y142144D01*
X156204Y141779D01*
X147899Y133474D01*
X138400D01*
X133534Y138340D01*
X132988Y138705D01*
X132344Y138833D01*
X127246D01*
X127082Y139552D01*
X127038Y140157D01*
X127385Y140615D01*
X128025Y141100D01*
X133948D01*
X134618Y141234D01*
X135058Y141527D01*
X135210Y141590D01*
X135234Y141650D01*
X135257Y141658D01*
X135275Y141676D01*
X135296Y141687D01*
X135298Y141690D01*
X135320Y141698D01*
X135383Y141717D01*
X135458Y141732D01*
X135751Y141762D01*
X135928Y141766D01*
X136043Y141817D01*
X152898D01*
X153542Y141945D01*
X154088Y142310D01*
X173095Y161317D01*
X177045D01*
X177159Y161266D01*
X177373Y161260D01*
X177390Y161259D01*
Y160875D01*
X177634Y159649D01*
X178328Y158610D01*
X179368Y157916D01*
X180593Y157672D01*
X191343D01*
X192569Y157916D01*
X193608Y158610D01*
X194302Y159649D01*
X194545Y160875D01*
Y165125D01*
X194302Y166350D01*
X193608Y167390D01*
X192569Y168084D01*
X191343Y168328D01*
X180593D01*
X179368Y168084D01*
X178328Y167390D01*
X177634Y166350D01*
X177390Y165125D01*
Y164741D01*
X177373Y164740D01*
X177159Y164734D01*
X177045Y164683D01*
X172398D01*
X171754Y164555D01*
X171208Y164190D01*
X152753Y145736D01*
X152275Y145759D01*
X151801Y146987D01*
X151820Y147100D01*
X160741Y156021D01*
X161096Y156552D01*
X161192Y156648D01*
X161244Y156775D01*
X161387Y156988D01*
X161437Y157239D01*
X161651Y157757D01*
Y158957D01*
X161192Y160065D01*
X160344Y160914D01*
X159235Y161373D01*
X158035D01*
X157854Y161298D01*
X157135Y162374D01*
X180390Y185630D01*
X180755Y186176D01*
X180883Y186820D01*
Y204732D01*
X180933Y204839D01*
X180940Y204981D01*
X180953Y205072D01*
X180976Y205165D01*
X181010Y205264D01*
X181057Y205370D01*
X181119Y205483D01*
X181197Y205604D01*
X181294Y205732D01*
X181409Y205867D01*
X181566Y206029D01*
X181643Y206224D01*
X181969Y206550D01*
X182466Y207750D01*
Y209050D01*
X181969Y210250D01*
X181050Y211169D01*
X179850Y211666D01*
X178550D01*
X177350Y211169D01*
X176431Y210250D01*
X175934Y209050D01*
Y207750D01*
X176431Y206550D01*
X176757Y206224D01*
X176834Y206029D01*
X176991Y205867D01*
X177106Y205732D01*
X177203Y205604D01*
X177281Y205483D01*
X177343Y205370D01*
X177390Y205264D01*
X177424Y205165D01*
X177447Y205072D01*
X177460Y204981D01*
X177467Y204839D01*
X177517Y204732D01*
Y187517D01*
X163770Y173771D01*
X162500Y174297D01*
Y174828D01*
X162041Y175937D01*
X161193Y176785D01*
X160750Y176968D01*
Y178343D01*
X161193Y178526D01*
X162041Y179375D01*
X162500Y180483D01*
Y181683D01*
X162041Y182792D01*
X161193Y183640D01*
X160084Y184099D01*
X158884D01*
X158851Y184085D01*
X158776Y184100D01*
X158671Y184079D01*
X158633Y184076D01*
X158601Y184077D01*
X158570Y184081D01*
X158535Y184090D01*
X158493Y184107D01*
X158441Y184135D01*
X158377Y184176D01*
X158302Y184235D01*
X158189Y184341D01*
X158080Y184381D01*
X158045Y184416D01*
X157991Y184487D01*
X157972Y184489D01*
X157477Y184984D01*
X156889Y185378D01*
X156195Y185515D01*
X144132D01*
X143644Y185418D01*
X143365Y185413D01*
X142127Y186015D01*
X141887Y186595D01*
X140968Y187513D01*
X140012Y187909D01*
X139660Y188771D01*
X139588Y189281D01*
X142768Y192461D01*
X142866Y192497D01*
X143628Y193206D01*
X143922Y193442D01*
X144178Y193622D01*
X144200Y193635D01*
X144924D01*
X144930Y193632D01*
X144935Y193635D01*
X146392D01*
X147377Y193830D01*
X148212Y194388D01*
X148512Y194838D01*
X148515Y194839D01*
X148518Y194847D01*
X148770Y195223D01*
X148800Y195375D01*
X148839Y195390D01*
X149010Y195432D01*
X149247Y195468D01*
X149545Y195492D01*
X149925Y195501D01*
X150000Y195534D01*
X150075Y195501D01*
X150455Y195492D01*
X150753Y195468D01*
X150990Y195432D01*
X151161Y195390D01*
X151200Y195375D01*
X151230Y195223D01*
X151482Y194847D01*
X151485Y194839D01*
X151488Y194838D01*
X151788Y194388D01*
X152623Y193830D01*
X153608Y193634D01*
X156392D01*
X157377Y193830D01*
X158212Y194388D01*
X158770Y195223D01*
X158965Y196208D01*
Y198992D01*
X158770Y199977D01*
X158212Y200812D01*
X157377Y201369D01*
X156747Y201495D01*
X156740Y201583D01*
X156734Y201797D01*
X156683Y201912D01*
Y202378D01*
X156555Y203022D01*
X156190Y203568D01*
X152571Y207187D01*
X152627Y207915D01*
X153208Y209035D01*
X155697D01*
X155702Y209032D01*
X155708Y209035D01*
X155992D01*
X156033Y209043D01*
X156048Y209033D01*
X156417Y208722D01*
X156634Y208513D01*
X156753Y208466D01*
X157865Y207355D01*
X158411Y206990D01*
X159055Y206862D01*
X171009D01*
X171653Y206990D01*
X172200Y207355D01*
X173345Y208501D01*
X173710Y209047D01*
X173838Y209691D01*
Y223041D01*
X173710Y223685D01*
X173345Y224231D01*
X169658Y227919D01*
X169611Y228038D01*
X169392Y228265D01*
X169226Y228453D01*
X169100Y228611D01*
X169081Y228638D01*
X169089Y228680D01*
Y228964D01*
X169092Y228970D01*
X169089Y228975D01*
Y230137D01*
X169092Y230142D01*
X169089Y230147D01*
Y230872D01*
X169102Y230895D01*
X169273Y231138D01*
X169841Y231807D01*
X170212Y232191D01*
X170253Y232294D01*
X188454Y250495D01*
X188899Y251161D01*
X189056Y251948D01*
X189056Y251948D01*
Y275508D01*
X189099Y275607D01*
X189104Y275811D01*
X189117Y275968D01*
X189136Y276108D01*
X189161Y276228D01*
X189189Y276329D01*
X189221Y276412D01*
X189252Y276479D01*
X189284Y276531D01*
X189315Y276573D01*
X189385Y276649D01*
X189452Y276833D01*
X189769Y277150D01*
X190266Y278350D01*
Y279650D01*
X189769Y280850D01*
X188850Y281769D01*
X187650Y282266D01*
X186350D01*
X185150Y281769D01*
X184231Y280850D01*
X183734Y279650D01*
Y278350D01*
X184231Y277150D01*
X184548Y276833D01*
X184615Y276650D01*
X184685Y276573D01*
X184716Y276531D01*
X184748Y276479D01*
X184779Y276412D01*
X184811Y276329D01*
X184839Y276228D01*
X184864Y276108D01*
X184883Y275968D01*
X184896Y275811D01*
X184901Y275607D01*
X184944Y275508D01*
Y252799D01*
X167356Y235211D01*
X167258Y235175D01*
X166496Y234466D01*
X166202Y234230D01*
X165946Y234050D01*
X165924Y234037D01*
X165200D01*
X165194Y234040D01*
X165189Y234037D01*
X163732D01*
X163187Y233929D01*
X161917Y234698D01*
Y239414D01*
X161740Y240306D01*
X161235Y241062D01*
X149711Y252585D01*
Y275468D01*
X149749Y275555D01*
X149761Y275999D01*
X149790Y276325D01*
X149807Y276426D01*
X149824Y276503D01*
X149834Y276538D01*
X149850Y276564D01*
X149852Y276580D01*
X149860Y276601D01*
X149861Y276647D01*
X149861Y276653D01*
X150149Y276940D01*
X150646Y278140D01*
Y279440D01*
X150149Y280640D01*
X149230Y281559D01*
X148030Y282056D01*
X146730D01*
X145530Y281559D01*
X144611Y280640D01*
X144114Y279440D01*
Y278140D01*
X144611Y276940D01*
X144899Y276653D01*
X144899Y276647D01*
X144900Y276601D01*
X144908Y276580D01*
X144910Y276564D01*
X144925Y276538D01*
X144936Y276503D01*
X144953Y276426D01*
X144968Y276336D01*
X145008Y275786D01*
X145010Y275569D01*
X145049Y275479D01*
Y251620D01*
X145227Y250728D01*
X145732Y249972D01*
X157256Y238448D01*
Y226409D01*
X157306Y226155D01*
X156975Y225772D01*
X156208Y225239D01*
X155484Y225383D01*
X152700D01*
X151715Y225187D01*
X150880Y224629D01*
X150322Y223794D01*
X150126Y222810D01*
X148857D01*
X148662Y223794D01*
X148190Y224500D01*
X148127Y224653D01*
X148056Y224682D01*
X148018Y224748D01*
X147848Y224878D01*
X147746Y224979D01*
X147652Y225100D01*
X147563Y225248D01*
X147481Y225426D01*
X147408Y225638D01*
X147404Y225657D01*
X147408Y225676D01*
X147481Y225889D01*
X147563Y226067D01*
X147652Y226214D01*
X147746Y226336D01*
X147848Y226437D01*
X148018Y226567D01*
X148056Y226633D01*
X148127Y226662D01*
X148190Y226814D01*
X148662Y227520D01*
X148857Y228505D01*
Y231289D01*
X148662Y232274D01*
X148104Y233109D01*
X147269Y233667D01*
X146284Y233862D01*
X145591D01*
X145586Y233865D01*
X145580Y233862D01*
X144572D01*
X144461Y233927D01*
X144128Y234160D01*
X143256Y234901D01*
X142758Y235382D01*
X142667Y235418D01*
X141613Y236472D01*
X141581Y236558D01*
X140640Y237568D01*
X140318Y237967D01*
X140088Y238294D01*
Y239374D01*
X140090Y239379D01*
X140088Y239384D01*
Y240592D01*
X139892Y241577D01*
X139334Y242412D01*
X138499Y242970D01*
X137514Y243165D01*
X134730D01*
X133746Y242970D01*
X132911Y242412D01*
X132353Y241577D01*
X132157Y240592D01*
Y237808D01*
X132353Y236823D01*
X132911Y235988D01*
X133746Y235430D01*
X134730Y235235D01*
Y233965D01*
X133746Y233770D01*
X132911Y233212D01*
X132610Y232762D01*
X132607Y232761D01*
X132604Y232753D01*
X132353Y232377D01*
X132323Y232225D01*
X132283Y232210D01*
X132112Y232168D01*
X131875Y232132D01*
X131578Y232108D01*
X131382Y232104D01*
X131187Y232108D01*
X130890Y232132D01*
X130652Y232168D01*
X130481Y232210D01*
X130442Y232225D01*
X130412Y232377D01*
X130160Y232753D01*
X130157Y232761D01*
X130154Y232762D01*
X129854Y233212D01*
X129019Y233770D01*
X128034Y233965D01*
X125250D01*
X124265Y233770D01*
X123431Y233212D01*
X123130Y232762D01*
X123127Y232761D01*
X123124Y232753D01*
X122873Y232377D01*
X122842Y232225D01*
X122803Y232210D01*
X122632Y232168D01*
X122395Y232132D01*
X122097Y232108D01*
X121902Y232104D01*
X121707Y232108D01*
X121409Y232132D01*
X121172Y232168D01*
X121001Y232210D01*
X120962Y232225D01*
X120932Y232377D01*
X120680Y232753D01*
X120677Y232761D01*
X120674Y232762D01*
X120374Y233212D01*
X119539Y233770D01*
X118554Y233965D01*
X115770D01*
X115564Y233925D01*
X114294Y234853D01*
Y241637D01*
X138190Y265533D01*
X138555Y266079D01*
X138683Y266723D01*
Y286829D01*
X145098Y293244D01*
X159367D01*
X159530Y293276D01*
X165321D01*
Y289706D01*
X168600D01*
Y296005D01*
X168600Y296005D01*
X168744Y297215D01*
X168826Y297337D01*
X168954Y297981D01*
Y299900D01*
X180000D01*
X180795Y299900D01*
X180998Y299984D01*
X181216Y299984D01*
X182687Y300593D01*
X182841Y300747D01*
X183043Y300831D01*
X184169Y301956D01*
X184252Y302159D01*
X184407Y302313D01*
X185016Y303783D01*
Y304002D01*
X185100Y304205D01*
X185100Y305000D01*
Y307243D01*
X185677Y307628D01*
X186976D01*
X188176Y308125D01*
X188193Y308127D01*
X189380Y308151D01*
X189537Y308089D01*
X190223Y307630D01*
X191208Y307435D01*
X193992D01*
X194977Y307630D01*
X195812Y308188D01*
X196370Y309023D01*
X196565Y310008D01*
Y312792D01*
X196370Y313777D01*
X195812Y314612D01*
X194977Y315170D01*
X193992Y315366D01*
Y316635D01*
X194977Y316831D01*
X195812Y317388D01*
X196370Y318223D01*
X196565Y319208D01*
Y321992D01*
X196370Y322977D01*
X195812Y323812D01*
X194977Y324370D01*
X193992Y324566D01*
X191208D01*
X190223Y324370D01*
X189388Y323812D01*
X188830Y322977D01*
X188705Y322347D01*
X188617Y322340D01*
X188403Y322334D01*
X188288Y322283D01*
X185100D01*
X185100Y335000D01*
X185099Y335000D01*
Y335005D01*
X185084Y335041D01*
X185097Y335078D01*
X185018Y336259D01*
X184937Y336423D01*
X184937Y336607D01*
X184255Y338253D01*
X184100Y338408D01*
X184016Y338610D01*
X182610Y340016D01*
X182408Y340100D01*
X182253Y340255D01*
X180415Y341016D01*
X180197D01*
X179994Y341100D01*
D02*
G37*
G36*
X9046Y166999D02*
X7846D01*
X6738Y166539D01*
X5889Y165691D01*
X5430Y164583D01*
Y163383D01*
X5889Y162274D01*
X6738Y161426D01*
X7846Y160967D01*
X9046D01*
X10155Y161426D01*
X11003Y162274D01*
X11462Y163383D01*
Y164583D01*
X11003Y165691D01*
X10155Y166539D01*
X9046Y166999D01*
D02*
G37*
G36*
X23032Y103526D02*
X21632D01*
X20962Y103392D01*
X20394Y103013D01*
X20015Y102446D01*
X19882Y101776D01*
Y96926D01*
X20015Y96257D01*
X20308Y95818D01*
X20371Y95666D01*
X20598Y94567D01*
X20580Y94178D01*
X20563Y94044D01*
X20538Y93906D01*
X20507Y93777D01*
X20470Y93656D01*
X20427Y93543D01*
X20380Y93437D01*
X20326Y93337D01*
X20248Y93211D01*
X20236Y93138D01*
X20182Y93088D01*
X20177Y92941D01*
X20001Y92054D01*
X18731D01*
X18536Y93039D01*
X17978Y93874D01*
X17619Y94113D01*
X17608Y94165D01*
X17569Y94550D01*
X17564Y94793D01*
X17790Y95666D01*
X17853Y95818D01*
X18146Y96257D01*
X18279Y96926D01*
Y101776D01*
X18146Y102446D01*
X17767Y103013D01*
X17199Y103392D01*
X16529Y103526D01*
X15129D01*
X14460Y103392D01*
X13892Y103013D01*
X13513Y102446D01*
X13380Y101776D01*
Y96926D01*
X13513Y96257D01*
X13753Y95898D01*
X13629Y95329D01*
X13607Y95270D01*
X13393Y94850D01*
X13227Y94642D01*
X12978Y94556D01*
X12904Y94534D01*
X12389Y94432D01*
X11554Y93874D01*
X10996Y93039D01*
X10801Y92054D01*
Y89270D01*
X10996Y88285D01*
X11554Y87450D01*
X12100Y87086D01*
X12121Y86875D01*
X11053Y85604D01*
X8930D01*
X7168Y85254D01*
X5674Y84256D01*
X4676Y82762D01*
X4326Y81000D01*
Y74000D01*
X4676Y72238D01*
X5674Y70744D01*
X7168Y69746D01*
X8930Y69395D01*
X15930D01*
X17692Y69746D01*
X19186Y70744D01*
X20184Y72238D01*
X20535Y74000D01*
Y81000D01*
X20184Y82762D01*
X19186Y84256D01*
X17692Y85254D01*
X17042Y86389D01*
X17143Y86892D01*
X17978Y87450D01*
X18536Y88285D01*
X18731Y89270D01*
X20001D01*
X20196Y88285D01*
X20754Y87450D01*
X21589Y86892D01*
X22574Y86697D01*
X24662D01*
X25435Y86032D01*
X25377Y84726D01*
X24674Y84256D01*
X23676Y82762D01*
X23326Y81000D01*
Y74000D01*
X23676Y72238D01*
X24674Y70744D01*
X26168Y69746D01*
X27930Y69395D01*
X34930D01*
X36692Y69746D01*
X38186Y70744D01*
X39184Y72238D01*
X39534Y74000D01*
Y81000D01*
X39184Y82762D01*
X38186Y84256D01*
X36692Y85254D01*
X34930Y85604D01*
X31724D01*
X31643Y85634D01*
X31546Y85679D01*
X31438Y85740D01*
X31332Y85811D01*
X31040Y86048D01*
X30887Y86194D01*
X30770Y86239D01*
X28500Y88509D01*
X28453Y88628D01*
X28234Y88855D01*
X28068Y89043D01*
X27942Y89201D01*
X27923Y89228D01*
X27931Y89270D01*
Y89554D01*
X27934Y89560D01*
X27931Y89565D01*
Y92054D01*
X27736Y93039D01*
X27178Y93874D01*
X26343Y94432D01*
X25358Y94628D01*
X25232D01*
X25172Y94644D01*
X24927Y94751D01*
X24863Y94790D01*
X24443Y95949D01*
X24648Y96257D01*
X24781Y96926D01*
Y101776D01*
X24648Y102446D01*
X24269Y103013D01*
X23701Y103392D01*
X23032Y103526D01*
D02*
G37*
%LPD*%
G36*
X181832Y339239D02*
X183239Y337832D01*
X183920Y336186D01*
X184000Y335005D01*
Y335000D01*
X184000Y335000D01*
X184000Y335000D01*
X184000Y321254D01*
X184141Y321241D01*
X184388Y321235D01*
Y319965D01*
X184141Y319959D01*
X184000Y319946D01*
Y313187D01*
X183557Y312744D01*
X183060Y311544D01*
Y310245D01*
X183557Y309044D01*
X184000Y308602D01*
Y305000D01*
X184000Y304204D01*
X183391Y302734D01*
X182266Y301609D01*
X180796Y301000D01*
X180000Y301000D01*
X167946D01*
X167940Y300971D01*
X167914Y300780D01*
X167906Y300590D01*
X166636Y300430D01*
X166626Y300630D01*
X166595Y300825D01*
X166549Y301000D01*
X146000D01*
X145204Y301000D01*
X143734Y301609D01*
X142609Y302734D01*
X142000Y304204D01*
X142000Y305000D01*
X142000Y335000D01*
X142000Y335994D01*
X142761Y337832D01*
X144168Y339238D01*
X146005Y340000D01*
X147000Y340000D01*
X147000Y340000D01*
X179000Y340000D01*
X179995Y340000D01*
X181832Y339239D01*
D02*
G37*
G36*
X114832D02*
X116239Y337832D01*
X116920Y336186D01*
X117000Y335005D01*
Y335000D01*
X117000Y335000D01*
X117000Y335000D01*
X117000Y321254D01*
X117141Y321241D01*
X117388Y321235D01*
Y319965D01*
X117141Y319959D01*
X117000Y319947D01*
Y313339D01*
X116624Y312963D01*
X116127Y311763D01*
Y310463D01*
X116624Y309263D01*
X117000Y308887D01*
Y305000D01*
X117000Y305000D01*
X117000D01*
X117000Y304204D01*
X116391Y302734D01*
X115266Y301609D01*
X113796Y301000D01*
X113000Y301000D01*
X100758D01*
X100733Y300899D01*
X100706Y300705D01*
X100696Y300511D01*
X99426Y300474D01*
X99417Y300671D01*
X99388Y300866D01*
X99355Y301000D01*
X79000D01*
X78204Y301000D01*
X76734Y301609D01*
X75609Y302734D01*
X75000Y304204D01*
X75000Y305000D01*
X75000Y335000D01*
X75000Y335994D01*
X75761Y337832D01*
X77168Y339238D01*
X79005Y340000D01*
X80000Y340000D01*
X80000Y340000D01*
X112000Y340000D01*
X112995Y340000D01*
X114832Y339239D01*
D02*
G37*
G36*
X46832D02*
X48239Y337832D01*
X48920Y336186D01*
X49000Y335005D01*
Y335000D01*
X49000Y335000D01*
X49000Y335000D01*
X49000Y321712D01*
X49082Y321690D01*
X49387Y321640D01*
X49732Y321610D01*
X50118Y321600D01*
Y319600D01*
X49732Y319590D01*
X49387Y319560D01*
X49082Y319510D01*
X49000Y319488D01*
X49000Y312381D01*
X48784Y311860D01*
Y310560D01*
X49000Y310039D01*
Y305000D01*
X49000Y304204D01*
X48391Y302734D01*
X47266Y301609D01*
X45796Y301000D01*
X45000Y301000D01*
X11000D01*
X10204Y301000D01*
X8734Y301609D01*
X7609Y302734D01*
X7000Y304204D01*
X7000Y305000D01*
X7000Y335000D01*
X7000Y335994D01*
X7761Y337832D01*
X9168Y339238D01*
X11005Y340000D01*
X12000Y340000D01*
X12000Y340000D01*
X44000Y340000D01*
X44995Y340000D01*
X46832Y339239D01*
D02*
G37*
G36*
X125532Y319330D02*
X125519Y319451D01*
X125480Y319559D01*
X125415Y319654D01*
X125324Y319736D01*
X125207Y319806D01*
X125064Y319863D01*
X124895Y319908D01*
X124700Y319940D01*
X124479Y319959D01*
X124232Y319965D01*
Y321235D01*
X124479Y321241D01*
X124700Y321260D01*
X124895Y321292D01*
X125064Y321337D01*
X125207Y321394D01*
X125324Y321464D01*
X125415Y321546D01*
X125480Y321641D01*
X125519Y321749D01*
X125532Y321870D01*
Y319330D01*
D02*
G37*
G36*
X189732Y319330D02*
X189719Y319451D01*
X189680Y319559D01*
X189615Y319654D01*
X189524Y319736D01*
X189407Y319806D01*
X189264Y319863D01*
X189095Y319908D01*
X188900Y319940D01*
X188679Y319959D01*
X188431Y319965D01*
Y321235D01*
X188679Y321241D01*
X188900Y321260D01*
X189095Y321292D01*
X189264Y321337D01*
X189407Y321394D01*
X189524Y321464D01*
X189615Y321546D01*
X189680Y321641D01*
X189719Y321749D01*
X189732Y321870D01*
Y319330D01*
D02*
G37*
G36*
X56663Y318617D02*
X56641Y318804D01*
X56576Y318971D01*
X56468Y319118D01*
X56317Y319246D01*
X56122Y319354D01*
X55885Y319443D01*
X55604Y319512D01*
X55279Y319561D01*
X54912Y319590D01*
X54502Y319600D01*
Y321600D01*
X54912Y321610D01*
X55279Y321639D01*
X55604Y321688D01*
X55885Y321757D01*
X56122Y321846D01*
X56317Y321954D01*
X56468Y322082D01*
X56576Y322229D01*
X56641Y322396D01*
X56663Y322583D01*
Y318617D01*
D02*
G37*
G36*
X56943Y308943D02*
X56770Y309168D01*
X56570Y309370D01*
X56341Y309548D01*
X56085Y309703D01*
X55801Y309833D01*
X55489Y309940D01*
X55149Y310023D01*
X54781Y310082D01*
X54695Y310090D01*
X54497Y310073D01*
X54328Y310042D01*
X54179Y310003D01*
X54050Y309957D01*
X53941Y309904D01*
X53853Y309844D01*
X53784Y309776D01*
X53518Y312915D01*
X53585Y312868D01*
X53673Y312827D01*
X53781Y312790D01*
X53910Y312758D01*
X54059Y312731D01*
X54419Y312692D01*
X54472Y312690D01*
X54781Y312717D01*
X55149Y312777D01*
X55489Y312860D01*
X55801Y312967D01*
X56085Y313097D01*
X56341Y313252D01*
X56570Y313430D01*
X56770Y313632D01*
X56943Y313857D01*
Y308943D01*
D02*
G37*
G36*
X190143D02*
X190001Y309120D01*
X189825Y309279D01*
X189615Y309419D01*
X189370Y309541D01*
X189092Y309643D01*
X188779Y309728D01*
X188571Y309767D01*
X188491Y309745D01*
X188363Y309697D01*
X188255Y309642D01*
X188167Y309580D01*
X188100Y309510D01*
X188063Y309838D01*
X188052Y309840D01*
X187637Y309868D01*
X187188Y309877D01*
X187162Y312417D01*
X187715Y312430D01*
X187769Y312434D01*
X187746Y312640D01*
X187811Y312598D01*
X187897Y312560D01*
X188004Y312526D01*
X188131Y312497D01*
X188265Y312475D01*
X188647Y312530D01*
X189024Y312618D01*
X189343Y312730D01*
X189603Y312868D01*
X189804Y313031D01*
X189946Y313219D01*
X190030Y313432D01*
X190054Y313670D01*
X190143Y308943D01*
D02*
G37*
G36*
X120849Y312840D02*
X120934Y312805D01*
X121040Y312773D01*
X121166Y312746D01*
X121314Y312723D01*
X121672Y312689D01*
X122114Y312672D01*
X122367Y312670D01*
X122767Y310130D01*
X122517Y310126D01*
X122080Y310096D01*
X121892Y310070D01*
X121724Y310037D01*
X121576Y309995D01*
X121448Y309947D01*
X121341Y309891D01*
X121254Y309827D01*
X121187Y309756D01*
X120786Y312880D01*
X120849Y312840D01*
D02*
G37*
G36*
X125943Y308943D02*
X125770Y309168D01*
X125570Y309370D01*
X125341Y309548D01*
X125085Y309703D01*
X124801Y309833D01*
X124489Y309940D01*
X124149Y310023D01*
X123781Y310082D01*
X123385Y310118D01*
X122962Y310130D01*
Y312670D01*
X123385Y312682D01*
X123781Y312717D01*
X124149Y312777D01*
X124489Y312860D01*
X124801Y312967D01*
X125085Y313097D01*
X125341Y313252D01*
X125570Y313430D01*
X125770Y313632D01*
X125943Y313857D01*
Y308943D01*
D02*
G37*
G36*
X167641Y290791D02*
X167660Y290570D01*
X167692Y290375D01*
X167737Y290206D01*
X167794Y290063D01*
X167864Y289946D01*
X167946Y289855D01*
X168041Y289790D01*
X168149Y289750D01*
X168270Y289737D01*
X165730D01*
X165851Y289750D01*
X165959Y289790D01*
X166054Y289855D01*
X166136Y289946D01*
X166206Y290063D01*
X166263Y290206D01*
X166308Y290375D01*
X166340Y290570D01*
X166359Y290791D01*
X166365Y291038D01*
X167635D01*
X167641Y290791D01*
D02*
G37*
G36*
X100641D02*
X100660Y290570D01*
X100692Y290375D01*
X100737Y290206D01*
X100794Y290063D01*
X100864Y289946D01*
X100946Y289855D01*
X101041Y289790D01*
X101149Y289750D01*
X101270Y289737D01*
X98730D01*
X98851Y289750D01*
X98959Y289790D01*
X99054Y289855D01*
X99136Y289946D01*
X99206Y290063D01*
X99263Y290206D01*
X99308Y290375D01*
X99340Y290570D01*
X99359Y290791D01*
X99365Y291038D01*
X100635D01*
X100641Y290791D01*
D02*
G37*
G36*
X31769D02*
X31788Y290570D01*
X31819Y290375D01*
X31864Y290206D01*
X31921Y290063D01*
X31991Y289946D01*
X32073Y289855D01*
X32169Y289790D01*
X32277Y289750D01*
X32397Y289737D01*
X29857D01*
X29978Y289750D01*
X30086Y289790D01*
X30181Y289855D01*
X30264Y289946D01*
X30333Y290063D01*
X30391Y290206D01*
X30435Y290375D01*
X30467Y290570D01*
X30486Y290791D01*
X30492Y291038D01*
X31762D01*
X31769Y290791D01*
D02*
G37*
G36*
X81517Y277323D02*
X81465Y277234D01*
X81419Y277124D01*
X81380Y276994D01*
X81346Y276844D01*
X81319Y276674D01*
X81282Y276273D01*
X81270Y275793D01*
X78730D01*
X78727Y276043D01*
X78681Y276674D01*
X78654Y276844D01*
X78620Y276994D01*
X78580Y277124D01*
X78535Y277234D01*
X78483Y277323D01*
X78425Y277393D01*
X81575D01*
X81517Y277323D01*
D02*
G37*
G36*
X188466Y277274D02*
X188368Y277143D01*
X188282Y276998D01*
X188207Y276841D01*
X188144Y276672D01*
X188092Y276490D01*
X188052Y276295D01*
X188023Y276087D01*
X188006Y275867D01*
X188000Y275634D01*
X186000D01*
X185994Y275867D01*
X185977Y276087D01*
X185948Y276295D01*
X185908Y276490D01*
X185856Y276672D01*
X185793Y276841D01*
X185718Y276998D01*
X185632Y277143D01*
X185534Y277274D01*
X185425Y277393D01*
X188575D01*
X188466Y277274D01*
D02*
G37*
G36*
X13846D02*
X13748Y277143D01*
X13662Y276998D01*
X13587Y276841D01*
X13524Y276672D01*
X13472Y276490D01*
X13432Y276295D01*
X13403Y276087D01*
X13386Y275867D01*
X13380Y275634D01*
X11380D01*
X11374Y275867D01*
X11357Y276087D01*
X11328Y276295D01*
X11288Y276490D01*
X11236Y276672D01*
X11173Y276841D01*
X11098Y276998D01*
X11012Y277143D01*
X10914Y277274D01*
X10805Y277393D01*
X13955D01*
X13846Y277274D01*
D02*
G37*
G36*
X53550Y277130D02*
X53498Y277041D01*
X53452Y276931D01*
X53413Y276801D01*
X53379Y276651D01*
X53352Y276481D01*
X53315Y276080D01*
X53303Y275600D01*
X50763D01*
X50760Y275850D01*
X50714Y276481D01*
X50687Y276651D01*
X50653Y276801D01*
X50613Y276931D01*
X50568Y277041D01*
X50516Y277130D01*
X50458Y277200D01*
X53608D01*
X53550Y277130D01*
D02*
G37*
G36*
X148897Y277113D02*
X148845Y277024D01*
X148799Y276914D01*
X148760Y276784D01*
X148726Y276634D01*
X148699Y276464D01*
X148662Y276063D01*
X148650Y275583D01*
X146110D01*
X146107Y275833D01*
X146061Y276464D01*
X146034Y276634D01*
X146000Y276784D01*
X145961Y276914D01*
X145915Y277024D01*
X145863Y277113D01*
X145805Y277183D01*
X148955D01*
X148897Y277113D01*
D02*
G37*
G36*
X121016Y277208D02*
X120857Y277022D01*
X120716Y276835D01*
X120593Y276647D01*
X120490Y276457D01*
X120405Y276266D01*
X120340Y276074D01*
X120293Y275881D01*
X120264Y275687D01*
X120255Y275492D01*
X118985D01*
X118976Y275687D01*
X118947Y275881D01*
X118900Y276074D01*
X118835Y276266D01*
X118750Y276457D01*
X118647Y276647D01*
X118524Y276835D01*
X118383Y277022D01*
X118224Y277208D01*
X118045Y277393D01*
X121195D01*
X121016Y277208D01*
D02*
G37*
G36*
X73149Y254060D02*
X72976Y254286D01*
X72776Y254488D01*
X72547Y254666D01*
X72291Y254820D01*
X72007Y254951D01*
X71695Y255058D01*
X71355Y255141D01*
X71206Y255165D01*
X71057Y255141D01*
X70717Y255058D01*
X70405Y254951D01*
X70121Y254820D01*
X69865Y254666D01*
X69636Y254488D01*
X69436Y254286D01*
X69263Y254060D01*
Y255208D01*
X69132Y255199D01*
X68962Y255171D01*
X68812Y255138D01*
X68682Y255098D01*
X68573Y255052D01*
X68483Y255000D01*
X68413Y254942D01*
Y258092D01*
X68483Y258034D01*
X68573Y257983D01*
X68682Y257937D01*
X68812Y257897D01*
X68962Y257864D01*
X69132Y257836D01*
X69263Y257824D01*
Y258975D01*
X69436Y258749D01*
X69636Y258547D01*
X69865Y258369D01*
X70121Y258215D01*
X70405Y258084D01*
X70717Y257977D01*
X71057Y257894D01*
X71206Y257870D01*
X71355Y257894D01*
X71695Y257977D01*
X72007Y258084D01*
X72291Y258215D01*
X72547Y258369D01*
X72776Y258547D01*
X72976Y258749D01*
X73149Y258975D01*
Y254060D01*
D02*
G37*
G36*
X105499Y243121D02*
X105518Y242900D01*
X105550Y242705D01*
X105595Y242536D01*
X105652Y242393D01*
X105722Y242276D01*
X105804Y242185D01*
X105899Y242120D01*
X106007Y242081D01*
X106128Y242068D01*
X103588D01*
X103709Y242081D01*
X103817Y242120D01*
X103912Y242185D01*
X103994Y242276D01*
X104064Y242393D01*
X104121Y242536D01*
X104166Y242705D01*
X104198Y242900D01*
X104217Y243121D01*
X104223Y243368D01*
X105493D01*
X105499Y243121D01*
D02*
G37*
G36*
X48488Y244599D02*
X48524Y244203D01*
X48583Y243835D01*
X48666Y243495D01*
X48773Y243183D01*
X48903Y242899D01*
X49058Y242643D01*
X49236Y242414D01*
X49438Y242214D01*
X49663Y242041D01*
X44749D01*
X44974Y242214D01*
X45176Y242414D01*
X45354Y242643D01*
X45509Y242899D01*
X45639Y243183D01*
X45746Y243495D01*
X45829Y243835D01*
X45889Y244203D01*
X45924Y244599D01*
X45936Y245023D01*
X48476D01*
X48488Y244599D01*
D02*
G37*
G36*
X58247Y242999D02*
X58266Y242778D01*
X58298Y242583D01*
X58343Y242414D01*
X58400Y242271D01*
X58470Y242154D01*
X58552Y242063D01*
X58647Y241998D01*
X58755Y241959D01*
X58876Y241946D01*
X56336D01*
X56457Y241959D01*
X56565Y241998D01*
X56660Y242063D01*
X56742Y242154D01*
X56812Y242271D01*
X56869Y242414D01*
X56914Y242583D01*
X56946Y242778D01*
X56965Y242999D01*
X56971Y243246D01*
X58241D01*
X58247Y242999D01*
D02*
G37*
G36*
X68602Y244558D02*
X68435Y244494D01*
X68288Y244386D01*
X68160Y244234D01*
X68052Y244040D01*
X67963Y243802D01*
X67895Y243521D01*
X67845Y243198D01*
X67895Y242874D01*
X67963Y242593D01*
X68052Y242356D01*
X68160Y242161D01*
X68288Y242010D01*
X68435Y241902D01*
X68602Y241837D01*
X68789Y241815D01*
X64823D01*
X65010Y241837D01*
X65177Y241902D01*
X65324Y242010D01*
X65452Y242161D01*
X65560Y242356D01*
X65649Y242593D01*
X65718Y242874D01*
X65767Y243198D01*
X65718Y243521D01*
X65649Y243802D01*
X65560Y244040D01*
X65452Y244234D01*
X65324Y244386D01*
X65177Y244494D01*
X65010Y244558D01*
X64823Y244580D01*
X68789D01*
X68602Y244558D01*
D02*
G37*
G36*
X96511Y244215D02*
X96547Y243819D01*
X96606Y243451D01*
X96689Y243111D01*
X96796Y242799D01*
X96927Y242515D01*
X97081Y242259D01*
X97259Y242030D01*
X97461Y241830D01*
X97687Y241657D01*
X92772D01*
X92998Y241830D01*
X93200Y242030D01*
X93378Y242259D01*
X93532Y242515D01*
X93663Y242799D01*
X93770Y243111D01*
X93853Y243451D01*
X93912Y243819D01*
X93948Y244215D01*
X93960Y244639D01*
X96500D01*
X96511Y244215D01*
D02*
G37*
G36*
X77402Y244558D02*
X77235Y244494D01*
X77088Y244386D01*
X76960Y244234D01*
X76852Y244040D01*
X76763Y243802D01*
X76694Y243521D01*
X76645Y243197D01*
X76645Y243188D01*
X76646Y243169D01*
X76696Y242841D01*
X76766Y242563D01*
X76856Y242335D01*
X76966Y242157D01*
X77096Y242029D01*
X77246Y241951D01*
X77416Y241924D01*
X77606Y241946D01*
X73822Y241047D01*
X73971Y241286D01*
X74104Y241534D01*
X74222Y241791D01*
X74324Y242057D01*
X74410Y242332D01*
X74481Y242616D01*
X74535Y242908D01*
X74569Y243167D01*
X74567Y243197D01*
X74517Y243521D01*
X74449Y243802D01*
X74360Y244040D01*
X74252Y244234D01*
X74124Y244386D01*
X73977Y244494D01*
X73810Y244558D01*
X73623Y244580D01*
X77589D01*
X77402Y244558D01*
D02*
G37*
G36*
X44749Y237127D02*
X44586Y237336D01*
X44394Y237524D01*
X44171Y237689D01*
X43918Y237833D01*
X43635Y237954D01*
X43322Y238053D01*
X42978Y238131D01*
X42605Y238186D01*
X42347Y238207D01*
X42092Y238186D01*
X41718Y238132D01*
X41374Y238056D01*
X41060Y237958D01*
X40778Y237839D01*
X40525Y237698D01*
X40304Y237535D01*
X40113Y237350D01*
X39952Y237144D01*
X39939Y242023D01*
X39969Y241785D01*
X40060Y241572D01*
X40210Y241384D01*
X40420Y241221D01*
X40689Y241083D01*
X41019Y240970D01*
X41408Y240883D01*
X41856Y240820D01*
X42259Y240790D01*
X42569Y240821D01*
X42931Y240884D01*
X43268Y240973D01*
X43579Y241088D01*
X43864Y241228D01*
X44124Y241393D01*
X44358Y241584D01*
X44566Y241800D01*
X44749Y242041D01*
Y237127D01*
D02*
G37*
G36*
X138826Y239190D02*
X138737Y238978D01*
X138725Y238725D01*
X138789Y238432D01*
X138929Y238097D01*
X139146Y237722D01*
X139439Y237305D01*
X139809Y236847D01*
X140777Y235809D01*
X139158Y233835D01*
X138531Y234445D01*
X137410Y235424D01*
X136917Y235793D01*
X136469Y236083D01*
X136065Y236293D01*
X135705Y236423D01*
X135391Y236472D01*
X135121Y236442D01*
X134895Y236332D01*
X138990Y239360D01*
X138826Y239190D01*
D02*
G37*
G36*
X169421Y232955D02*
X169025Y232545D01*
X168402Y231811D01*
X168174Y231487D01*
X168003Y231191D01*
X167889Y230924D01*
X167830Y230686D01*
X167828Y230476D01*
X167882Y230295D01*
X167992Y230142D01*
X165194Y232940D01*
X165347Y232830D01*
X165528Y232776D01*
X165738Y232778D01*
X165976Y232837D01*
X166243Y232951D01*
X166539Y233123D01*
X166863Y233350D01*
X167216Y233633D01*
X168007Y234369D01*
X169421Y232955D01*
D02*
G37*
G36*
X68602Y236319D02*
X68435Y236254D01*
X68288Y236146D01*
X68160Y235995D01*
X68052Y235800D01*
X67963Y235563D01*
X67895Y235282D01*
X67845Y234958D01*
X67816Y234590D01*
X67813Y234466D01*
X67816Y234343D01*
X67845Y233975D01*
X67895Y233651D01*
X67963Y233370D01*
X68052Y233132D01*
X68160Y232938D01*
X68288Y232787D01*
X68435Y232679D01*
X68602Y232614D01*
X68789Y232592D01*
X64823D01*
X65010Y232614D01*
X65177Y232679D01*
X65324Y232787D01*
X65452Y232938D01*
X65560Y233132D01*
X65649Y233370D01*
X65718Y233651D01*
X65767Y233975D01*
X65796Y234343D01*
X65799Y234466D01*
X65796Y234590D01*
X65767Y234958D01*
X65718Y235282D01*
X65649Y235563D01*
X65560Y235800D01*
X65452Y235995D01*
X65324Y236146D01*
X65177Y236254D01*
X65010Y236319D01*
X64823Y236341D01*
X68789D01*
X68602Y236319D01*
D02*
G37*
G36*
X78427Y236296D02*
X78238Y236282D01*
X78069Y236224D01*
X77920Y236122D01*
X77791Y235977D01*
X77681Y235787D01*
X77592Y235553D01*
X77523Y235276D01*
X77473Y234954D01*
X77443Y234589D01*
X77440Y234466D01*
X77443Y234344D01*
X77473Y233978D01*
X77523Y233657D01*
X77592Y233379D01*
X77681Y233146D01*
X77791Y232956D01*
X77920Y232810D01*
X78069Y232709D01*
X78238Y232651D01*
X78427Y232637D01*
X74450Y232477D01*
X74637Y232506D01*
X74804Y232580D01*
X74951Y232698D01*
X75079Y232860D01*
X75187Y233065D01*
X75276Y233315D01*
X75345Y233609D01*
X75394Y233946D01*
X75423Y234328D01*
X75426Y234466D01*
X75423Y234605D01*
X75394Y234986D01*
X75345Y235324D01*
X75276Y235618D01*
X75187Y235867D01*
X75079Y236073D01*
X74951Y236235D01*
X74804Y236352D01*
X74637Y236426D01*
X74450Y236456D01*
X78427Y236296D01*
D02*
G37*
G36*
X98470Y232560D02*
X97947Y232014D01*
X96916Y232809D01*
X96923Y232815D01*
X96943Y232834D01*
X97572Y233458D01*
X98470Y232560D01*
D02*
G37*
G36*
X133385Y228017D02*
X133363Y228204D01*
X133299Y228371D01*
X133190Y228518D01*
X133039Y228646D01*
X132845Y228754D01*
X132607Y228843D01*
X132326Y228911D01*
X132002Y228961D01*
X131635Y228990D01*
X131382Y228996D01*
X131130Y228990D01*
X130763Y228961D01*
X130438Y228911D01*
X130158Y228843D01*
X129920Y228754D01*
X129725Y228646D01*
X129574Y228518D01*
X129466Y228371D01*
X129401Y228204D01*
X129380Y228017D01*
Y231983D01*
X129401Y231796D01*
X129466Y231629D01*
X129574Y231482D01*
X129725Y231354D01*
X129920Y231246D01*
X130158Y231157D01*
X130438Y231089D01*
X130763Y231039D01*
X131130Y231010D01*
X131382Y231004D01*
X131635Y231010D01*
X132002Y231039D01*
X132326Y231089D01*
X132607Y231157D01*
X132845Y231246D01*
X133039Y231354D01*
X133190Y231482D01*
X133299Y231629D01*
X133363Y231796D01*
X133385Y231983D01*
Y228017D01*
D02*
G37*
G36*
X123905D02*
X123883Y228204D01*
X123818Y228371D01*
X123710Y228518D01*
X123559Y228646D01*
X123364Y228754D01*
X123127Y228843D01*
X122846Y228911D01*
X122522Y228961D01*
X122154Y228990D01*
X121902Y228996D01*
X121650Y228990D01*
X121283Y228961D01*
X120958Y228911D01*
X120677Y228843D01*
X120440Y228754D01*
X120245Y228646D01*
X120094Y228518D01*
X119986Y228371D01*
X119921Y228204D01*
X119899Y228017D01*
Y231983D01*
X119921Y231796D01*
X119986Y231629D01*
X120094Y231482D01*
X120245Y231354D01*
X120440Y231246D01*
X120677Y231157D01*
X120958Y231089D01*
X121283Y231039D01*
X121650Y231010D01*
X121902Y231004D01*
X122154Y231010D01*
X122522Y231039D01*
X122846Y231089D01*
X123127Y231157D01*
X123364Y231246D01*
X123559Y231354D01*
X123710Y231482D01*
X123818Y231629D01*
X123883Y231796D01*
X123905Y231983D01*
Y228017D01*
D02*
G37*
G36*
X142517Y234086D02*
X143455Y233289D01*
X143869Y232999D01*
X144246Y232780D01*
X144587Y232634D01*
X144892Y232559D01*
X145160Y232556D01*
X145391Y232624D01*
X145586Y232765D01*
X142024Y229203D01*
X142165Y229398D01*
X142233Y229630D01*
X142230Y229897D01*
X142156Y230202D01*
X142009Y230543D01*
X141790Y230920D01*
X141500Y231334D01*
X141138Y231785D01*
X140197Y232796D01*
X141994Y234592D01*
X142517Y234086D01*
D02*
G37*
G36*
X34757Y228418D02*
X34736Y228605D01*
X34671Y228772D01*
X34563Y228919D01*
X34412Y229047D01*
X34217Y229155D01*
X33979Y229244D01*
X33698Y229312D01*
X33374Y229362D01*
X33007Y229391D01*
X32596Y229401D01*
Y231401D01*
X33007Y231411D01*
X33374Y231440D01*
X33698Y231489D01*
X33979Y231558D01*
X34217Y231647D01*
X34412Y231755D01*
X34563Y231883D01*
X34671Y232030D01*
X34736Y232197D01*
X34757Y232384D01*
Y228418D01*
D02*
G37*
G36*
X117092Y227132D02*
X116939Y227242D01*
X116758Y227296D01*
X116548Y227294D01*
X116310Y227235D01*
X116043Y227121D01*
X115747Y226950D01*
X115423Y226722D01*
X115070Y226439D01*
X114279Y225703D01*
X112865Y227117D01*
X113261Y227527D01*
X113884Y228261D01*
X114112Y228585D01*
X114283Y228881D01*
X114397Y229148D01*
X114456Y229386D01*
X114458Y229596D01*
X114404Y229777D01*
X114294Y229930D01*
X117092Y227132D01*
D02*
G37*
G36*
X50016Y231628D02*
X50015Y231395D01*
X50056Y231147D01*
X50139Y230885D01*
X50264Y230609D01*
X50431Y230318D01*
X50640Y230012D01*
X50891Y229692D01*
X51184Y229358D01*
X51519Y229009D01*
X51121Y226578D01*
X50731Y226955D01*
X50053Y227522D01*
X49765Y227712D01*
X49512Y227840D01*
X49293Y227906D01*
X49109Y227910D01*
X48958Y227852D01*
X48842Y227731D01*
X48760Y227549D01*
X50059Y231847D01*
X50016Y231628D01*
D02*
G37*
G36*
X167922Y228874D02*
X167886Y228763D01*
X167884Y228635D01*
X167916Y228490D01*
X167982Y228329D01*
X168082Y228151D01*
X168215Y227957D01*
X168383Y227746D01*
X168584Y227519D01*
X168820Y227274D01*
X167922Y226376D01*
X167677Y226612D01*
X167239Y226981D01*
X167045Y227114D01*
X166867Y227214D01*
X166706Y227280D01*
X166561Y227312D01*
X166433Y227310D01*
X166321Y227274D01*
X166226Y227204D01*
X167992Y228970D01*
X167922Y228874D01*
D02*
G37*
G36*
X88604Y228657D02*
X88568Y228546D01*
X88566Y228418D01*
X88598Y228273D01*
X88664Y228112D01*
X88764Y227934D01*
X88897Y227740D01*
X89065Y227529D01*
X89266Y227301D01*
X89501Y227057D01*
X88603Y226159D01*
X88359Y226395D01*
X87921Y226763D01*
X87727Y226897D01*
X87549Y226997D01*
X87388Y227062D01*
X87243Y227094D01*
X87115Y227092D01*
X87003Y227057D01*
X86908Y226987D01*
X88674Y228752D01*
X88604Y228657D01*
D02*
G37*
G36*
X104598Y227132D02*
X104598Y226101D01*
X102598D01*
X102614Y227437D01*
X104598Y227132D01*
D02*
G37*
G36*
X78427Y227073D02*
X78238Y227059D01*
X78069Y227001D01*
X77920Y226899D01*
X77791Y226753D01*
X77681Y226564D01*
X77592Y226330D01*
X77523Y226052D01*
X77473Y225731D01*
X77443Y225366D01*
X77433Y224956D01*
X75433D01*
X75423Y225382D01*
X75394Y225763D01*
X75345Y226101D01*
X75276Y226394D01*
X75187Y226644D01*
X75079Y226850D01*
X74951Y227011D01*
X74804Y227129D01*
X74637Y227203D01*
X74450Y227233D01*
X78427Y227073D01*
D02*
G37*
G36*
X68602Y227096D02*
X68435Y227031D01*
X68288Y226923D01*
X68160Y226772D01*
X68052Y226577D01*
X67963Y226339D01*
X67895Y226058D01*
X67845Y225734D01*
X67816Y225367D01*
X67806Y224956D01*
X65806D01*
X65796Y225367D01*
X65767Y225734D01*
X65718Y226058D01*
X65649Y226339D01*
X65560Y226577D01*
X65452Y226772D01*
X65324Y226923D01*
X65177Y227031D01*
X65010Y227096D01*
X64823Y227117D01*
X68789D01*
X68602Y227096D01*
D02*
G37*
G36*
X147124Y227267D02*
X146922Y227067D01*
X146744Y226838D01*
X146589Y226582D01*
X146459Y226298D01*
X146352Y225986D01*
X146272Y225657D01*
X146352Y225329D01*
X146459Y225017D01*
X146589Y224733D01*
X146744Y224476D01*
X146922Y224248D01*
X147124Y224048D01*
X147349Y223875D01*
X142435D01*
X142660Y224048D01*
X142862Y224248D01*
X143040Y224476D01*
X143195Y224733D01*
X143325Y225017D01*
X143432Y225329D01*
X143512Y225657D01*
X143432Y225986D01*
X143325Y226298D01*
X143195Y226582D01*
X143040Y226838D01*
X142862Y227067D01*
X142660Y227267D01*
X142435Y227440D01*
X147349D01*
X147124Y227267D01*
D02*
G37*
G36*
X162749Y225061D02*
X163687Y224264D01*
X164101Y223974D01*
X164478Y223755D01*
X164819Y223608D01*
X165124Y223534D01*
X165391Y223531D01*
X165623Y223599D01*
X165818Y223740D01*
X162256Y220178D01*
X162397Y220373D01*
X162465Y220604D01*
X162462Y220872D01*
X162388Y221177D01*
X162241Y221518D01*
X162022Y221895D01*
X161732Y222309D01*
X161369Y222760D01*
X160429Y223771D01*
X162225Y225567D01*
X162749Y225061D01*
D02*
G37*
G36*
X142435Y218960D02*
X142259Y219192D01*
X142055Y219398D01*
X141825Y219581D01*
X141567Y219739D01*
X141283Y219873D01*
X140971Y219983D01*
X140632Y220068D01*
X140267Y220129D01*
X139874Y220165D01*
X139453Y220177D01*
Y222717D01*
X139881Y222729D01*
X140279Y222764D01*
X140649Y222822D01*
X140990Y222903D01*
X141303Y223007D01*
X141587Y223134D01*
X141842Y223285D01*
X142068Y223458D01*
X142266Y223655D01*
X142435Y223875D01*
Y218960D01*
D02*
G37*
G36*
X152990Y218550D02*
X152894Y218619D01*
X152783Y218655D01*
X152655Y218657D01*
X152510Y218625D01*
X152349Y218560D01*
X152171Y218460D01*
X151977Y218326D01*
X151766Y218159D01*
X151538Y217957D01*
X151294Y217722D01*
X150396Y218620D01*
X150632Y218864D01*
X151001Y219302D01*
X151134Y219497D01*
X151234Y219674D01*
X151300Y219836D01*
X151332Y219981D01*
X151330Y220109D01*
X151294Y220220D01*
X151224Y220315D01*
X152990Y218550D01*
D02*
G37*
G36*
X111645Y223049D02*
X111405Y222749D01*
X111193Y222437D01*
X111009Y222113D01*
X110854Y221777D01*
X110726Y221430D01*
X110627Y221071D01*
X110556Y220700D01*
X110514Y220318D01*
X110500Y219924D01*
X108500Y217924D01*
X108486Y218290D01*
X108443Y218587D01*
X108373Y218817D01*
X108274Y218978D01*
X108146Y219070D01*
X107991Y219095D01*
X107807Y219051D01*
X107595Y218939D01*
X107354Y218758D01*
X107086Y218510D01*
X108793Y223045D01*
X111914Y223338D01*
X111645Y223049D01*
D02*
G37*
G36*
X169273Y216604D02*
X169319Y215974D01*
X169346Y215804D01*
X169380Y215654D01*
X169419Y215524D01*
X169465Y215414D01*
X169517Y215324D01*
X169575Y215254D01*
X166425D01*
X166483Y215324D01*
X166535Y215414D01*
X166581Y215524D01*
X166620Y215654D01*
X166654Y215804D01*
X166681Y215974D01*
X166718Y216374D01*
X166730Y216855D01*
X169270D01*
X169273Y216604D01*
D02*
G37*
G36*
X24537Y213921D02*
X24556Y213700D01*
X24588Y213505D01*
X24632Y213336D01*
X24690Y213193D01*
X24759Y213076D01*
X24842Y212985D01*
X24937Y212920D01*
X25045Y212881D01*
X25166Y212868D01*
X22626D01*
X22747Y212881D01*
X22854Y212920D01*
X22950Y212985D01*
X23032Y213076D01*
X23102Y213193D01*
X23159Y213336D01*
X23204Y213505D01*
X23235Y213700D01*
X23254Y213921D01*
X23261Y214168D01*
X24531D01*
X24537Y213921D01*
D02*
G37*
G36*
X15337D02*
X15356Y213700D01*
X15388Y213505D01*
X15432Y213336D01*
X15490Y213193D01*
X15559Y213076D01*
X15642Y212985D01*
X15737Y212920D01*
X15845Y212881D01*
X15966Y212868D01*
X13426D01*
X13547Y212881D01*
X13654Y212920D01*
X13750Y212985D01*
X13832Y213076D01*
X13902Y213193D01*
X13959Y213336D01*
X14004Y213505D01*
X14035Y213700D01*
X14054Y213921D01*
X14061Y214168D01*
X15331D01*
X15337Y213921D01*
D02*
G37*
G36*
X34859Y214246D02*
X34730Y214089D01*
X34616Y213929D01*
X34518Y213766D01*
X34435Y213599D01*
X34367Y213430D01*
X34343Y213352D01*
X34347Y213336D01*
X34404Y213193D01*
X34474Y213076D01*
X34557Y212985D01*
X34652Y212920D01*
X34760Y212881D01*
X34880Y212868D01*
X34252D01*
X34246Y212722D01*
X32975Y212703D01*
X32969Y212868D01*
X32341D01*
X32461Y212881D01*
X32569Y212920D01*
X32664Y212985D01*
X32747Y213076D01*
X32817Y213193D01*
X32874Y213336D01*
X32875Y213339D01*
X32852Y213411D01*
X32782Y213579D01*
X32697Y213743D01*
X32597Y213903D01*
X32481Y214060D01*
X32350Y214212D01*
X32203Y214362D01*
X35003Y214400D01*
X34859Y214246D01*
D02*
G37*
G36*
X90520Y216234D02*
X90580Y215894D01*
X90680Y215594D01*
X90820Y215334D01*
X91000Y215114D01*
X91220Y214934D01*
X91480Y214794D01*
X91780Y214694D01*
X92071Y214643D01*
X92158Y214650D01*
X92330Y214678D01*
X92488Y214714D01*
X92631Y214758D01*
X92760Y214810D01*
X92874Y214870D01*
X92974Y214938D01*
X93060Y215014D01*
Y212214D01*
X92974Y212290D01*
X92874Y212358D01*
X92760Y212418D01*
X92631Y212470D01*
X92488Y212514D01*
X92330Y212550D01*
X92158Y212578D01*
X92078Y212587D01*
X91780Y212534D01*
X91480Y212434D01*
X91220Y212294D01*
X91000Y212114D01*
X90820Y211894D01*
X90680Y211634D01*
X90580Y211334D01*
X90520Y210994D01*
X90500Y210614D01*
X88500Y213614D01*
X90500Y216614D01*
X90520Y216234D01*
D02*
G37*
G36*
X62980Y212234D02*
X63012Y211847D01*
X63040Y211675D01*
X63076Y211517D01*
X63120Y211374D01*
X63172Y211245D01*
X63232Y211131D01*
X63300Y211031D01*
X63376Y210945D01*
X60576D01*
X60652Y211031D01*
X60720Y211131D01*
X60780Y211245D01*
X60832Y211374D01*
X60876Y211517D01*
X60912Y211675D01*
X60940Y211847D01*
X60960Y212033D01*
X60976Y212449D01*
X62976D01*
X62980Y212234D01*
D02*
G37*
G36*
X142943Y210543D02*
X142770Y210768D01*
X142570Y210970D01*
X142341Y211148D01*
X142085Y211303D01*
X141801Y211433D01*
X141489Y211540D01*
X141149Y211623D01*
X140781Y211682D01*
X140385Y211718D01*
X139962Y211730D01*
Y214270D01*
X140385Y214282D01*
X140781Y214317D01*
X141149Y214377D01*
X141489Y214460D01*
X141801Y214567D01*
X142085Y214697D01*
X142341Y214852D01*
X142570Y215030D01*
X142770Y215232D01*
X142943Y215457D01*
Y210543D01*
D02*
G37*
G36*
X157398Y211803D02*
X157362Y211691D01*
X157360Y211563D01*
X157392Y211418D01*
X157458Y211257D01*
X157558Y211079D01*
X157691Y210885D01*
X157859Y210674D01*
X158060Y210446D01*
X158296Y210203D01*
X157397Y209305D01*
X157154Y209540D01*
X156715Y209909D01*
X156521Y210042D01*
X156343Y210142D01*
X156182Y210208D01*
X156037Y210240D01*
X155909Y210238D01*
X155798Y210202D01*
X155702Y210132D01*
X157468Y211898D01*
X157398Y211803D01*
D02*
G37*
G36*
X100140Y209683D02*
X100180Y209292D01*
X100215Y209121D01*
X100259Y208966D01*
X100314Y208827D01*
X100379Y208704D01*
X100453Y208597D01*
X100538Y208507D01*
X100632Y208432D01*
X98368D01*
X98462Y208507D01*
X98547Y208597D01*
X98621Y208704D01*
X98686Y208827D01*
X98741Y208966D01*
X98785Y209121D01*
X98820Y209292D01*
X98845Y209480D01*
X98860Y209683D01*
X98865Y209903D01*
X100135D01*
X100140Y209683D01*
D02*
G37*
G36*
X70140D02*
X70180Y209292D01*
X70215Y209121D01*
X70259Y208966D01*
X70314Y208827D01*
X70379Y208704D01*
X70453Y208597D01*
X70538Y208507D01*
X70632Y208432D01*
X68368D01*
X68462Y208507D01*
X68547Y208597D01*
X68621Y208704D01*
X68686Y208827D01*
X68741Y208966D01*
X68785Y209121D01*
X68820Y209292D01*
X68845Y209480D01*
X68860Y209683D01*
X68865Y209903D01*
X70135D01*
X70140Y209683D01*
D02*
G37*
G36*
X125780Y208210D02*
X123219D01*
X123221Y208235D01*
X123223Y208304D01*
X123230Y210421D01*
X125770D01*
X125780Y208210D01*
D02*
G37*
G36*
X120781D02*
X118219D01*
X118221Y208238D01*
X118225Y208447D01*
X118230Y210766D01*
X120770D01*
X120781Y208210D01*
D02*
G37*
G36*
X110503Y210157D02*
X110601Y208781D01*
X110637Y208594D01*
X110680Y208437D01*
X110727Y208309D01*
X110780Y208210D01*
X108219D01*
X108273Y208309D01*
X108320Y208437D01*
X108363Y208594D01*
X108399Y208781D01*
X108455Y209243D01*
X108489Y209823D01*
X108500Y210520D01*
X110500D01*
X110503Y210157D01*
D02*
G37*
G36*
X105503D02*
X105601Y208781D01*
X105638Y208594D01*
X105680Y208437D01*
X105727Y208309D01*
X105780Y208210D01*
X103219D01*
X103273Y208309D01*
X103320Y208437D01*
X103363Y208594D01*
X103399Y208781D01*
X103455Y209243D01*
X103489Y209823D01*
X103500Y210520D01*
X105500D01*
X105503Y210157D01*
D02*
G37*
G36*
X90503D02*
X90601Y208781D01*
X90638Y208594D01*
X90680Y208437D01*
X90727Y208309D01*
X90780Y208210D01*
X88219D01*
X88273Y208309D01*
X88320Y208437D01*
X88363Y208594D01*
X88399Y208781D01*
X88455Y209243D01*
X88489Y209823D01*
X88500Y210520D01*
X90500D01*
X90503Y210157D01*
D02*
G37*
G36*
X85503D02*
X85601Y208781D01*
X85637Y208594D01*
X85680Y208437D01*
X85727Y208309D01*
X85780Y208210D01*
X83219D01*
X83273Y208309D01*
X83320Y208437D01*
X83363Y208594D01*
X83399Y208781D01*
X83455Y209243D01*
X83489Y209823D01*
X83500Y210520D01*
X85500D01*
X85503Y210157D01*
D02*
G37*
G36*
X80503D02*
X80601Y208781D01*
X80638Y208594D01*
X80680Y208437D01*
X80727Y208309D01*
X80780Y208210D01*
X78219D01*
X78273Y208309D01*
X78320Y208437D01*
X78362Y208594D01*
X78399Y208781D01*
X78455Y209243D01*
X78489Y209823D01*
X78500Y210520D01*
X80500D01*
X80503Y210157D01*
D02*
G37*
G36*
X147706Y210418D02*
X147570Y210255D01*
X147451Y210056D01*
X147347Y209819D01*
X147260Y209545D01*
X147188Y209233D01*
X147132Y208885D01*
X147121Y208779D01*
X147138Y208692D01*
X147167Y208591D01*
X147199Y208511D01*
X147235Y208452D01*
X147276Y208414D01*
X147088Y208375D01*
X147061Y207615D01*
X144521Y207561D01*
X144508Y208103D01*
X144471Y208586D01*
X144408Y209011D01*
X144320Y209378D01*
X144207Y209687D01*
X144070Y209938D01*
X143907Y210131D01*
X143719Y210266D01*
X143506Y210343D01*
X143268Y210362D01*
X147857Y210543D01*
X147706Y210418D01*
D02*
G37*
G36*
X63983Y209382D02*
X64005Y209264D01*
X64044Y209140D01*
X64098Y209013D01*
X64168Y208880D01*
X64254Y208743D01*
X64356Y208602D01*
X64474Y208456D01*
X64756Y208151D01*
X63342Y206736D01*
X63187Y206886D01*
X62891Y207137D01*
X62750Y207239D01*
X62613Y207325D01*
X62480Y207395D01*
X62352Y207449D01*
X62229Y207488D01*
X62110Y207510D01*
X61996Y207517D01*
X63976Y209497D01*
X63983Y209382D01*
D02*
G37*
G36*
X25045Y207119D02*
X24937Y207080D01*
X24842Y207015D01*
X24759Y206924D01*
X24690Y206807D01*
X24632Y206664D01*
X24588Y206495D01*
X24556Y206300D01*
X24537Y206079D01*
X24531Y205832D01*
X23261D01*
X23254Y206079D01*
X23235Y206300D01*
X23204Y206495D01*
X23159Y206664D01*
X23102Y206807D01*
X23032Y206924D01*
X22950Y207015D01*
X22854Y207080D01*
X22747Y207119D01*
X22626Y207132D01*
X25166D01*
X25045Y207119D01*
D02*
G37*
G36*
X180596Y206608D02*
X180437Y206422D01*
X180296Y206235D01*
X180173Y206047D01*
X180070Y205857D01*
X179985Y205666D01*
X179920Y205474D01*
X179873Y205281D01*
X179844Y205087D01*
X179835Y204891D01*
X178565D01*
X178556Y205087D01*
X178527Y205281D01*
X178480Y205474D01*
X178415Y205666D01*
X178330Y205857D01*
X178227Y206047D01*
X178104Y206235D01*
X177963Y206422D01*
X177804Y206608D01*
X177625Y206793D01*
X180775D01*
X180596Y206608D01*
D02*
G37*
G36*
X24537Y205255D02*
X24556Y205034D01*
X24588Y204839D01*
X24632Y204669D01*
X24690Y204526D01*
X24759Y204409D01*
X24842Y204318D01*
X24937Y204253D01*
X25045Y204214D01*
X25166Y204201D01*
X22626D01*
X22747Y204214D01*
X22854Y204253D01*
X22950Y204318D01*
X23032Y204409D01*
X23102Y204526D01*
X23159Y204669D01*
X23204Y204839D01*
X23235Y205034D01*
X23254Y205255D01*
X23261Y205502D01*
X24531D01*
X24537Y205255D01*
D02*
G37*
G36*
X44634Y207241D02*
X44467Y207176D01*
X44320Y207068D01*
X44192Y206917D01*
X44084Y206722D01*
X43995Y206485D01*
X43927Y206204D01*
X43877Y205879D01*
X43860Y205667D01*
X43877Y205454D01*
X43927Y205130D01*
X43995Y204849D01*
X44084Y204611D01*
X44192Y204417D01*
X44320Y204265D01*
X44467Y204157D01*
X44634Y204092D01*
X44821Y204071D01*
X40855D01*
X41042Y204092D01*
X41209Y204157D01*
X41356Y204265D01*
X41484Y204417D01*
X41592Y204611D01*
X41681Y204849D01*
X41750Y205130D01*
X41799Y205454D01*
X41816Y205667D01*
X41799Y205879D01*
X41750Y206204D01*
X41681Y206485D01*
X41592Y206722D01*
X41484Y206917D01*
X41356Y207068D01*
X41209Y207176D01*
X41042Y207241D01*
X40855Y207263D01*
X44821D01*
X44634Y207241D01*
D02*
G37*
G36*
X12239Y198876D02*
X12066Y199101D01*
X11866Y199302D01*
X11638Y199480D01*
X11382Y199634D01*
X11098Y199764D01*
X10786Y199870D01*
X10446Y199953D01*
X10078Y200012D01*
X10026Y200017D01*
X9713Y199995D01*
X9635Y199976D01*
X9577Y199953D01*
X9541Y199928D01*
X9541Y200052D01*
X9257Y200060D01*
Y202600D01*
X9536Y202607D01*
X9536Y202729D01*
X9572Y202704D01*
X9629Y202682D01*
X9707Y202663D01*
X9807Y202646D01*
X9930Y202634D01*
X10076Y202647D01*
X10444Y202707D01*
X10783Y202790D01*
X11095Y202897D01*
X11380Y203028D01*
X11636Y203183D01*
X11865Y203362D01*
X12066Y203564D01*
X12239Y203791D01*
Y198876D01*
D02*
G37*
G36*
X155641Y201521D02*
X155660Y201300D01*
X155692Y201105D01*
X155737Y200936D01*
X155794Y200793D01*
X155864Y200676D01*
X155946Y200585D01*
X156041Y200520D01*
X156149Y200481D01*
X156270Y200468D01*
X153730D01*
X153851Y200481D01*
X153959Y200520D01*
X154054Y200585D01*
X154136Y200676D01*
X154206Y200793D01*
X154263Y200936D01*
X154308Y201105D01*
X154340Y201300D01*
X154359Y201521D01*
X154365Y201768D01*
X155635D01*
X155641Y201521D01*
D02*
G37*
G36*
X112613Y200513D02*
X112821Y200375D01*
X113182Y200134D01*
X113852Y200000D01*
X115148D01*
X115818Y200134D01*
X116179Y200375D01*
X117127Y200513D01*
X117613Y200513D01*
X117821Y200375D01*
X118182Y200134D01*
X118852Y200000D01*
X120148D01*
X120818Y200134D01*
X121179Y200375D01*
X121387Y200513D01*
X121873Y200513D01*
X122821Y200375D01*
X123182Y200134D01*
X123852Y200000D01*
X124875D01*
X125515Y199515D01*
X126000Y198875D01*
Y197852D01*
X126134Y197182D01*
X126375Y196821D01*
X126513Y196613D01*
Y195387D01*
X126375Y195179D01*
X126134Y194818D01*
X126000Y194148D01*
Y192852D01*
X126134Y192182D01*
X126375Y191821D01*
X126513Y191613D01*
Y190387D01*
X126375Y190179D01*
X126134Y189818D01*
X126000Y189148D01*
Y187852D01*
X126134Y187182D01*
X126513Y186613D01*
Y185387D01*
X126134Y184818D01*
X126000Y184148D01*
Y182852D01*
X126134Y182182D01*
X126513Y181614D01*
Y180387D01*
X126134Y179818D01*
X126000Y179148D01*
Y177852D01*
X126134Y177182D01*
X126513Y176613D01*
Y175387D01*
X126134Y174818D01*
X126000Y174148D01*
Y172852D01*
X126134Y172182D01*
X126513Y171613D01*
Y170387D01*
X126134Y169818D01*
X126000Y169148D01*
Y167852D01*
X126134Y167182D01*
X126375Y166821D01*
X126513Y165873D01*
Y165387D01*
X126134Y164818D01*
X126000Y164148D01*
Y162852D01*
X126134Y162182D01*
X126513Y161613D01*
Y161127D01*
X126375Y160179D01*
X126134Y159818D01*
X126000Y159148D01*
Y157852D01*
X126134Y157182D01*
X126513Y156614D01*
Y155387D01*
X126134Y154818D01*
X126000Y154148D01*
Y152852D01*
X126134Y152182D01*
X126513Y151613D01*
Y150387D01*
X126134Y149818D01*
X126000Y149148D01*
Y147852D01*
X126134Y147182D01*
X126513Y146613D01*
Y145387D01*
X126134Y144818D01*
X126000Y144148D01*
Y143125D01*
X125515Y142485D01*
X124875Y142000D01*
X123852D01*
X123182Y141866D01*
X122821Y141625D01*
X121873Y141487D01*
X121387D01*
X120818Y141866D01*
X120148Y142000D01*
X118852D01*
X118182Y141866D01*
X117613Y141487D01*
X117127D01*
X116179Y141625D01*
X115818Y141866D01*
X115148Y142000D01*
X113852D01*
X113182Y141866D01*
X112613Y141487D01*
X111386D01*
X110818Y141866D01*
X110148Y142000D01*
X108852D01*
X108182Y141866D01*
X107613Y141487D01*
X106387D01*
X105818Y141866D01*
X105148Y142000D01*
X103852D01*
X103182Y141866D01*
X102613Y141487D01*
X101386D01*
X100818Y141866D01*
X100148Y142000D01*
X98852D01*
X98182Y141866D01*
X97821Y141625D01*
X96873Y141487D01*
X96387D01*
X95818Y141866D01*
X95148Y142000D01*
X93852D01*
X93182Y141866D01*
X92613Y141487D01*
X92127D01*
X91179Y141625D01*
X90818Y141866D01*
X90148Y142000D01*
X88852D01*
X88182Y141866D01*
X87613Y141487D01*
X86386D01*
X85818Y141866D01*
X85148Y142000D01*
X83852D01*
X83182Y141866D01*
X82613Y141487D01*
X81387D01*
X80818Y141866D01*
X80148Y142000D01*
X78852D01*
X78182Y141866D01*
X77613Y141487D01*
X76386D01*
X75818Y141866D01*
X75148Y142000D01*
X74273D01*
X73852Y142000D01*
X73099Y143000D01*
X72990Y143264D01*
X72953Y143548D01*
X72353Y144593D01*
X72234Y144685D01*
X72177Y144823D01*
X71256Y145744D01*
X71175Y145778D01*
X71175Y145778D01*
X71054Y145828D01*
X70899Y145983D01*
X70819Y146016D01*
X70600Y146016D01*
X70398Y146100D01*
X70000Y146100D01*
X68671D01*
X68137Y146817D01*
X67904Y147370D01*
X68000Y147852D01*
Y149148D01*
X67866Y149818D01*
X67625Y150179D01*
X67487Y150387D01*
Y151613D01*
X67625Y151821D01*
X67866Y152182D01*
X68000Y152852D01*
Y154148D01*
X67866Y154818D01*
X67625Y155179D01*
X67487Y155387D01*
Y156614D01*
X67625Y156821D01*
X67866Y157182D01*
X68000Y157852D01*
Y159148D01*
X67866Y159818D01*
X67625Y160179D01*
X67487Y161127D01*
X67487Y161613D01*
X67625Y161821D01*
X67866Y162182D01*
X68000Y162852D01*
Y164148D01*
X67866Y164818D01*
X67625Y165179D01*
X67487Y165387D01*
X67487Y165873D01*
X67625Y166821D01*
X67866Y167182D01*
X68000Y167852D01*
Y169148D01*
X67866Y169818D01*
X67487Y170387D01*
Y171614D01*
X67866Y172182D01*
X68000Y172852D01*
Y174148D01*
X67866Y174818D01*
X67487Y175387D01*
Y175874D01*
X67625Y176821D01*
X67731Y176980D01*
X67831Y177047D01*
X68277Y177713D01*
X68433Y178500D01*
X68277Y179287D01*
X67831Y179953D01*
X67731Y180020D01*
X67625Y180179D01*
X67487Y181126D01*
Y181614D01*
X67866Y182182D01*
X68000Y182852D01*
Y184148D01*
X67866Y184818D01*
X67625Y185179D01*
X67487Y185387D01*
Y186613D01*
X67625Y186821D01*
X67866Y187182D01*
X68000Y187852D01*
Y189148D01*
X67866Y189818D01*
X67625Y190179D01*
X67487Y190387D01*
Y191613D01*
X67625Y191821D01*
X67866Y192182D01*
X68000Y192852D01*
Y194148D01*
X67866Y194818D01*
X67487Y195387D01*
Y196614D01*
X67866Y197182D01*
X68000Y197852D01*
Y198875D01*
X68485Y199515D01*
X69125Y200000D01*
X70148D01*
X70818Y200134D01*
X71179Y200375D01*
X71387Y200513D01*
X71873Y200513D01*
X72821Y200375D01*
X73182Y200134D01*
X73852Y200000D01*
X75148D01*
X75818Y200134D01*
X76179Y200375D01*
X76387Y200513D01*
X77613D01*
X77821Y200375D01*
X78182Y200134D01*
X78852Y200000D01*
X80148D01*
X80818Y200134D01*
X81179Y200375D01*
X81387Y200513D01*
X82613D01*
X82821Y200375D01*
X83182Y200134D01*
X83852Y200000D01*
X85148D01*
X85818Y200134D01*
X86179Y200375D01*
X86387Y200513D01*
X87613D01*
X87821Y200375D01*
X88182Y200134D01*
X88852Y200000D01*
X90148D01*
X90818Y200134D01*
X91179Y200375D01*
X92127Y200513D01*
X92613Y200513D01*
X92821Y200375D01*
X93182Y200134D01*
X93852Y200000D01*
X95148D01*
X95818Y200134D01*
X96179Y200375D01*
X96387Y200513D01*
X96873Y200513D01*
X97821Y200375D01*
X98182Y200134D01*
X98852Y200000D01*
X100148D01*
X100818Y200134D01*
X101387Y200513D01*
X102613D01*
X103182Y200134D01*
X103852Y200000D01*
X105148D01*
X105818Y200134D01*
X106387Y200513D01*
X107613D01*
X108182Y200134D01*
X108852Y200000D01*
X110148D01*
X110818Y200134D01*
X111179Y200375D01*
X111387Y200513D01*
X112613Y200513D01*
X112613Y200513D01*
D02*
G37*
G36*
X65530Y201439D02*
X65559Y201087D01*
X65608Y200775D01*
X65677Y200505D01*
X65766Y200276D01*
X65874Y200088D01*
X66002Y199942D01*
X66149Y199836D01*
X66316Y199772D01*
X66503Y199749D01*
X62520Y199802D01*
X62710Y199820D01*
X62880Y199879D01*
X63030Y199979D01*
X63160Y200121D01*
X63270Y200303D01*
X63360Y200527D01*
X63430Y200791D01*
X63480Y201097D01*
X63510Y201444D01*
X63520Y201833D01*
X65520D01*
X65530Y201439D01*
D02*
G37*
G36*
X155708Y198307D02*
X154292D01*
X154306Y198340D01*
X154319Y198412D01*
X154330Y198523D01*
X154353Y199085D01*
X154365Y200373D01*
X155635D01*
X155708Y198307D01*
D02*
G37*
G36*
X25045Y198452D02*
X24937Y198413D01*
X24842Y198348D01*
X24759Y198257D01*
X24690Y198140D01*
X24632Y197997D01*
X24588Y197828D01*
X24556Y197633D01*
X24537Y197412D01*
X24531Y197165D01*
X23261D01*
X23254Y197412D01*
X23235Y197633D01*
X23204Y197828D01*
X23159Y197997D01*
X23102Y198140D01*
X23032Y198257D01*
X22950Y198348D01*
X22854Y198413D01*
X22747Y198452D01*
X22626Y198465D01*
X25166D01*
X25045Y198452D01*
D02*
G37*
G36*
X152263Y195617D02*
X152241Y195804D01*
X152176Y195971D01*
X152068Y196118D01*
X151917Y196246D01*
X151722Y196354D01*
X151485Y196443D01*
X151204Y196511D01*
X150879Y196561D01*
X150512Y196590D01*
X150101Y196600D01*
Y198600D01*
X150512Y198610D01*
X150879Y198639D01*
X151204Y198689D01*
X151485Y198757D01*
X151722Y198846D01*
X151917Y198954D01*
X152068Y199082D01*
X152176Y199229D01*
X152241Y199396D01*
X152263Y199583D01*
Y195617D01*
D02*
G37*
G36*
X147759Y199396D02*
X147824Y199229D01*
X147932Y199082D01*
X148083Y198954D01*
X148278Y198846D01*
X148515Y198757D01*
X148796Y198689D01*
X149121Y198639D01*
X149488Y198610D01*
X149899Y198600D01*
Y196600D01*
X149488Y196590D01*
X149121Y196561D01*
X148796Y196511D01*
X148515Y196443D01*
X148278Y196354D01*
X148083Y196246D01*
X147932Y196118D01*
X147824Y195971D01*
X147759Y195804D01*
X147737Y195617D01*
X147737Y199583D01*
X147759Y199396D01*
D02*
G37*
G36*
X24537Y196588D02*
X24556Y196367D01*
X24588Y196172D01*
X24632Y196003D01*
X24690Y195860D01*
X24759Y195743D01*
X24842Y195652D01*
X24937Y195587D01*
X25045Y195548D01*
X25166Y195535D01*
X22626D01*
X22747Y195548D01*
X22854Y195587D01*
X22950Y195652D01*
X23032Y195743D01*
X23102Y195860D01*
X23159Y196003D01*
X23204Y196172D01*
X23235Y196367D01*
X23254Y196588D01*
X23261Y196835D01*
X24531D01*
X24537Y196588D01*
D02*
G37*
G36*
X44634Y198574D02*
X44467Y198510D01*
X44320Y198401D01*
X44192Y198250D01*
X44084Y198056D01*
X43995Y197818D01*
X43927Y197537D01*
X43877Y197213D01*
X43860Y197000D01*
X43877Y196787D01*
X43927Y196463D01*
X43995Y196182D01*
X44084Y195944D01*
X44192Y195750D01*
X44320Y195599D01*
X44467Y195490D01*
X44634Y195426D01*
X44821Y195404D01*
X40855D01*
X41042Y195426D01*
X41209Y195490D01*
X41356Y195599D01*
X41484Y195750D01*
X41592Y195944D01*
X41681Y196182D01*
X41750Y196463D01*
X41799Y196787D01*
X41816Y197000D01*
X41799Y197213D01*
X41750Y197537D01*
X41681Y197818D01*
X41592Y198056D01*
X41484Y198250D01*
X41356Y198401D01*
X41209Y198510D01*
X41042Y198574D01*
X40855Y198596D01*
X44821D01*
X44634Y198574D01*
D02*
G37*
G36*
X144930Y194732D02*
X144777Y194842D01*
X144596Y194896D01*
X144386Y194894D01*
X144148Y194835D01*
X143881Y194721D01*
X143585Y194550D01*
X143261Y194322D01*
X142908Y194039D01*
X142117Y193303D01*
X140703Y194717D01*
X141099Y195127D01*
X141722Y195861D01*
X141950Y196185D01*
X142121Y196481D01*
X142235Y196748D01*
X142294Y196986D01*
X142296Y197196D01*
X142242Y197377D01*
X142132Y197530D01*
X144930Y194732D01*
D02*
G37*
G36*
X59568Y192368D02*
X59493Y192462D01*
X59403Y192547D01*
X59296Y192621D01*
X59173Y192686D01*
X59034Y192741D01*
X58879Y192785D01*
X58708Y192820D01*
X58520Y192845D01*
X58317Y192860D01*
X58097Y192865D01*
Y194135D01*
X58317Y194140D01*
X58708Y194180D01*
X58879Y194215D01*
X59034Y194259D01*
X59173Y194314D01*
X59296Y194379D01*
X59403Y194453D01*
X59493Y194538D01*
X59568Y194632D01*
Y192368D01*
D02*
G37*
G36*
X45630Y193172D02*
X45603Y192964D01*
X45625Y192734D01*
X45696Y192484D01*
X45816Y192211D01*
X45984Y191918D01*
X46202Y191603D01*
X46469Y191267D01*
X46786Y190909D01*
X47151Y190530D01*
X46318Y188534D01*
X45906Y188933D01*
X45179Y189549D01*
X44865Y189766D01*
X44584Y189923D01*
X44335Y190019D01*
X44120Y190055D01*
X43937Y190030D01*
X43787Y189944D01*
X43670Y189799D01*
X45706Y193359D01*
X45630Y193172D01*
D02*
G37*
G36*
X134463Y189607D02*
X134519Y189585D01*
X134601Y189565D01*
X134709Y189548D01*
X135003Y189521D01*
X135637Y189501D01*
X135900Y189500D01*
Y187500D01*
X135637Y187499D01*
X134601Y187435D01*
X134519Y187416D01*
X134463Y187393D01*
X134432Y187368D01*
Y189632D01*
X134463Y189607D01*
D02*
G37*
G36*
X59568Y182368D02*
X59493Y182462D01*
X59403Y182547D01*
X59296Y182621D01*
X59173Y182686D01*
X59034Y182741D01*
X58879Y182785D01*
X58708Y182820D01*
X58520Y182845D01*
X58317Y182860D01*
X58097Y182865D01*
Y184135D01*
X58317Y184140D01*
X58708Y184180D01*
X58879Y184215D01*
X59034Y184259D01*
X59173Y184314D01*
X59296Y184379D01*
X59403Y184453D01*
X59493Y184538D01*
X59568Y184632D01*
Y182368D01*
D02*
G37*
G36*
X134479Y184243D02*
X134442Y184102D01*
X134448Y183940D01*
X134498Y183755D01*
X134592Y183547D01*
X134728Y183316D01*
X134909Y183063D01*
X135132Y182787D01*
X135710Y182167D01*
X134633Y181090D01*
X134316Y181396D01*
X133749Y181879D01*
X133500Y182055D01*
X133273Y182188D01*
X133069Y182277D01*
X132887Y182322D01*
X132728Y182324D01*
X132591Y182283D01*
X132477Y182198D01*
X134559Y184360D01*
X134479Y184243D01*
D02*
G37*
G36*
X157586Y183400D02*
X157734Y183283D01*
X157884Y183185D01*
X158036Y183105D01*
X158190Y183045D01*
X158346Y183003D01*
X158504Y182979D01*
X158665Y182975D01*
X158827Y182989D01*
X158991Y183022D01*
X157537Y180629D01*
X157492Y180798D01*
X157437Y180964D01*
X157373Y181126D01*
X157299Y181285D01*
X157215Y181441D01*
X157122Y181593D01*
X157019Y181742D01*
X156906Y181888D01*
X156650Y182170D01*
X157440Y183535D01*
X157586Y183400D01*
D02*
G37*
G36*
X45630Y184505D02*
X45603Y184297D01*
X45625Y184068D01*
X45696Y183817D01*
X45816Y183545D01*
X45984Y183251D01*
X46202Y182936D01*
X46469Y182600D01*
X46786Y182243D01*
X47151Y181863D01*
X46318Y179867D01*
X45906Y180266D01*
X45179Y180882D01*
X44865Y181099D01*
X44584Y181256D01*
X44335Y181352D01*
X44120Y181388D01*
X43937Y181363D01*
X43787Y181278D01*
X43670Y181132D01*
X45706Y184692D01*
X45630Y184505D01*
D02*
G37*
G36*
X134563Y179194D02*
X134587Y179087D01*
X134643Y178993D01*
X134730Y178911D01*
X134848Y178842D01*
X134997Y178785D01*
X135177Y178741D01*
X135388Y178710D01*
X135630Y178691D01*
X135903Y178685D01*
X135733Y177415D01*
X135497Y177413D01*
X134737Y177366D01*
X134594Y177344D01*
X134470Y177319D01*
X134364Y177290D01*
X134278Y177257D01*
X134210Y177220D01*
X134569Y179314D01*
X134563Y179194D01*
D02*
G37*
G36*
X59790Y177220D02*
X59691Y177273D01*
X59563Y177320D01*
X59406Y177363D01*
X59219Y177399D01*
X58757Y177455D01*
X58177Y177489D01*
X57480Y177500D01*
Y179500D01*
X57843Y179503D01*
X59219Y179601D01*
X59406Y179638D01*
X59563Y179680D01*
X59691Y179727D01*
X59790Y179781D01*
Y177220D01*
D02*
G37*
G36*
X146358Y174940D02*
X146205Y174964D01*
X146050Y174967D01*
X145893Y174950D01*
X145734Y174912D01*
X145573Y174853D01*
X145410Y174774D01*
X145245Y174674D01*
X145078Y174554D01*
X144909Y174413D01*
X144739Y174252D01*
X143652Y176039D01*
X143816Y176208D01*
X144101Y176537D01*
X144222Y176697D01*
X144421Y177006D01*
X144499Y177155D01*
X144563Y177302D01*
X144613Y177445D01*
X144648Y177585D01*
X146358Y174940D01*
D02*
G37*
G36*
X157793Y176697D02*
X157936Y176588D01*
X158088Y176492D01*
X158247Y176411D01*
X158414Y176344D01*
X158590Y176292D01*
X158773Y176254D01*
X158965Y176230D01*
X159164Y176220D01*
X159372Y176225D01*
X157486Y174155D01*
X157472Y174367D01*
X157446Y174570D01*
X157408Y174765D01*
X157358Y174950D01*
X157296Y175127D01*
X157221Y175295D01*
X157135Y175454D01*
X157037Y175605D01*
X156926Y175746D01*
X156804Y175879D01*
X157658Y176821D01*
X157793Y176697D01*
D02*
G37*
G36*
X134305Y174730D02*
X134430Y174685D01*
X134586Y174646D01*
X134773Y174611D01*
X135239Y174558D01*
X135829Y174527D01*
X136542Y174516D01*
Y172484D01*
X136170Y172481D01*
X134773Y172389D01*
X134586Y172354D01*
X134430Y172315D01*
X134305Y172270D01*
X134210Y172220D01*
Y174781D01*
X134305Y174730D01*
D02*
G37*
G36*
X59790Y172220D02*
X59691Y172273D01*
X59563Y172320D01*
X59406Y172363D01*
X59219Y172399D01*
X58757Y172455D01*
X58177Y172489D01*
X57480Y172500D01*
Y174500D01*
X57843Y174503D01*
X59219Y174601D01*
X59406Y174638D01*
X59563Y174680D01*
X59691Y174727D01*
X59790Y174781D01*
Y172220D01*
D02*
G37*
G36*
X36648Y175687D02*
X36594Y175505D01*
X36597Y175295D01*
X36657Y175055D01*
X36773Y174787D01*
X36946Y174490D01*
X37175Y174163D01*
X37461Y173808D01*
X38203Y173011D01*
X36788Y171597D01*
X36376Y171996D01*
X35637Y172625D01*
X35310Y172854D01*
X35013Y173027D01*
X34745Y173143D01*
X34505Y173202D01*
X34295Y173206D01*
X34113Y173152D01*
X33960Y173042D01*
X36758Y175840D01*
X36648Y175687D01*
D02*
G37*
G36*
X59790Y167220D02*
X59691Y167273D01*
X59563Y167320D01*
X59406Y167363D01*
X59219Y167399D01*
X58757Y167455D01*
X58177Y167489D01*
X57480Y167500D01*
Y169500D01*
X57843Y169503D01*
X59219Y169601D01*
X59406Y169638D01*
X59563Y169680D01*
X59691Y169727D01*
X59790Y169781D01*
Y167220D01*
D02*
G37*
G36*
X134259Y169763D02*
X134352Y169748D01*
X134489Y169734D01*
X135165Y169704D01*
X136682Y169690D01*
Y167150D01*
X134210Y167220D01*
Y169781D01*
X134259Y169763D01*
D02*
G37*
G36*
X147186Y163633D02*
X147116Y163691D01*
X147026Y163743D01*
X146916Y163788D01*
X146786Y163828D01*
X146636Y163862D01*
X146466Y163889D01*
X146066Y163926D01*
X145585Y163938D01*
Y166478D01*
X145836Y166481D01*
X146466Y166527D01*
X146636Y166554D01*
X146786Y166588D01*
X146916Y166627D01*
X147026Y166673D01*
X147116Y166725D01*
X147186Y166783D01*
Y163633D01*
D02*
G37*
G36*
X59790Y162220D02*
X59691Y162273D01*
X59563Y162320D01*
X59406Y162362D01*
X59219Y162399D01*
X58757Y162455D01*
X58177Y162489D01*
X57480Y162500D01*
Y164500D01*
X57843Y164503D01*
X59219Y164601D01*
X59406Y164638D01*
X59563Y164680D01*
X59691Y164727D01*
X59790Y164781D01*
Y162220D01*
D02*
G37*
G36*
X178488Y161730D02*
X178475Y161851D01*
X178436Y161959D01*
X178371Y162054D01*
X178280Y162136D01*
X178163Y162206D01*
X178020Y162263D01*
X177851Y162308D01*
X177656Y162340D01*
X177435Y162359D01*
X177188Y162365D01*
Y163635D01*
X177435Y163641D01*
X177656Y163660D01*
X177851Y163692D01*
X178020Y163737D01*
X178163Y163794D01*
X178280Y163864D01*
X178371Y163946D01*
X178436Y164041D01*
X178475Y164149D01*
X178488Y164270D01*
Y161730D01*
D02*
G37*
G36*
X136899Y163498D02*
X137229Y163212D01*
X137381Y163099D01*
X137524Y163005D01*
X137658Y162932D01*
X137783Y162879D01*
X137899Y162846D01*
X138006Y162833D01*
X138104Y162839D01*
X136279Y160272D01*
X136261Y160337D01*
X136225Y160415D01*
X136171Y160507D01*
X136100Y160610D01*
X135904Y160856D01*
X135636Y161153D01*
X135298Y161501D01*
X136720Y163672D01*
X136899Y163498D01*
D02*
G37*
G36*
X134535Y158902D02*
X134503Y158786D01*
X134507Y158652D01*
X134547Y158500D01*
X134622Y158329D01*
X134733Y158141D01*
X134879Y157934D01*
X135061Y157709D01*
X135531Y157204D01*
X134669Y156269D01*
X134404Y156525D01*
X133931Y156929D01*
X133723Y157076D01*
X133534Y157187D01*
X133364Y157262D01*
X133213Y157300D01*
X133081Y157302D01*
X132967Y157268D01*
X132873Y157198D01*
X134602Y159000D01*
X134535Y158902D01*
D02*
G37*
G36*
X147682Y154559D02*
X147592Y154551D01*
X147492Y154524D01*
X147381Y154479D01*
X147261Y154415D01*
X147132Y154332D01*
X146992Y154231D01*
X146683Y153974D01*
X146335Y153643D01*
X144539Y155439D01*
X144713Y155618D01*
X145127Y156096D01*
X145228Y156236D01*
X145310Y156366D01*
X145374Y156486D01*
X145419Y156596D01*
X145446Y156696D01*
X145455Y156786D01*
X147682Y154559D01*
D02*
G37*
G36*
X38203Y153188D02*
X37795Y152767D01*
X37155Y152016D01*
X36922Y151687D01*
X36748Y151388D01*
X36633Y151121D01*
X36577Y150884D01*
X36579Y150679D01*
X36639Y150504D01*
X36758Y150360D01*
X33760Y152958D01*
X33922Y152857D01*
X34110Y152810D01*
X34326Y152818D01*
X34569Y152881D01*
X34838Y152998D01*
X35134Y153170D01*
X35457Y153396D01*
X35807Y153677D01*
X36588Y154403D01*
X38203Y153188D01*
D02*
G37*
G36*
X134238Y154779D02*
X134447Y154775D01*
X136766Y154770D01*
Y152230D01*
X134210Y152219D01*
Y154781D01*
X134238Y154779D01*
D02*
G37*
G36*
X43367Y151855D02*
X43242Y151718D01*
X43133Y151574D01*
X43039Y151423D01*
X42962Y151264D01*
X42901Y151098D01*
X42855Y150925D01*
X42826Y150744D01*
X42813Y150556D01*
X42815Y150361D01*
X42834Y150158D01*
X40635Y151892D01*
X40849Y151921D01*
X41053Y151960D01*
X41248Y152009D01*
X41434Y152069D01*
X41611Y152138D01*
X41779Y152218D01*
X41937Y152309D01*
X42086Y152409D01*
X42226Y152520D01*
X42357Y152641D01*
X43367Y151855D01*
D02*
G37*
G36*
X178488Y148230D02*
X178475Y148351D01*
X178436Y148459D01*
X178371Y148554D01*
X178280Y148636D01*
X178163Y148706D01*
X178020Y148763D01*
X177851Y148808D01*
X177656Y148840D01*
X177435Y148859D01*
X177188Y148865D01*
Y150135D01*
X177435Y150141D01*
X177656Y150160D01*
X177851Y150192D01*
X178020Y150237D01*
X178163Y150294D01*
X178280Y150364D01*
X178371Y150446D01*
X178436Y150541D01*
X178475Y150649D01*
X178488Y150770D01*
Y148230D01*
D02*
G37*
G36*
X59568Y147368D02*
X59493Y147462D01*
X59403Y147547D01*
X59296Y147621D01*
X59173Y147686D01*
X59034Y147741D01*
X58879Y147786D01*
X58708Y147820D01*
X58520Y147845D01*
X58317Y147860D01*
X58097Y147865D01*
Y149135D01*
X58317Y149140D01*
X58708Y149180D01*
X58879Y149215D01*
X59034Y149259D01*
X59173Y149314D01*
X59296Y149379D01*
X59403Y149453D01*
X59493Y149538D01*
X59568Y149632D01*
Y147368D01*
D02*
G37*
G36*
X146545Y150377D02*
X146617Y150362D01*
X146737Y150349D01*
X147120Y150327D01*
X148908Y150305D01*
Y146495D01*
X146809Y146396D01*
X146519Y150393D01*
X146545Y150377D01*
D02*
G37*
G36*
X141430Y145850D02*
X141429Y146100D01*
X141361Y146324D01*
X141227Y146521D01*
X141027Y146693D01*
X140760Y146837D01*
X140428Y146956D01*
X140029Y147048D01*
X139564Y147114D01*
X139032Y147153D01*
X138434Y147167D01*
X138506Y149833D01*
X138897Y149844D01*
X139280Y149875D01*
X139654Y149927D01*
X140019Y149999D01*
X140376Y150092D01*
X140724Y150206D01*
X141064Y150340D01*
X141395Y150496D01*
X141718Y150671D01*
X142031Y150868D01*
X141430Y145850D01*
D02*
G37*
G36*
X134507Y144538D02*
X134597Y144453D01*
X134704Y144379D01*
X134827Y144314D01*
X134966Y144259D01*
X135121Y144215D01*
X135292Y144180D01*
X135479Y144155D01*
X135683Y144140D01*
X135903Y144135D01*
Y142865D01*
X135683Y142860D01*
X135292Y142820D01*
X135121Y142786D01*
X134966Y142741D01*
X134827Y142686D01*
X134704Y142621D01*
X134597Y142547D01*
X134507Y142462D01*
X134432Y142368D01*
Y144632D01*
X134507Y144538D01*
D02*
G37*
G36*
X23816Y144377D02*
X23874Y144355D01*
X23952Y144336D01*
X24052Y144319D01*
X24316Y144293D01*
X24664Y144277D01*
X25097Y144272D01*
Y141732D01*
X24870Y141731D01*
X23952Y141668D01*
X23874Y141649D01*
X23816Y141627D01*
X23780Y141602D01*
Y144402D01*
X23816Y144377D01*
D02*
G37*
G36*
X23601Y141901D02*
X23631Y141553D01*
X23728Y141551D01*
X23702Y141514D01*
X23678Y141456D01*
X23658Y141377D01*
X23656Y141370D01*
X23693Y141132D01*
X23774Y140791D01*
X23878Y140479D01*
X24005Y140195D01*
X24155Y139940D01*
X24328Y139714D01*
X24524Y139516D01*
X24744Y139348D01*
X19829D01*
X20061Y139524D01*
X20268Y139728D01*
X20452Y139958D01*
X20610Y140216D01*
X20744Y140500D01*
X20854Y140812D01*
X20940Y141151D01*
X20988Y141439D01*
X20972Y141505D01*
X20952Y141562D01*
X20929Y141597D01*
X21008Y141595D01*
X21037Y141909D01*
X21049Y142329D01*
X23589D01*
X23601Y141901D01*
D02*
G37*
G36*
X70000Y145000D02*
X70398Y145000D01*
X70478Y144967D01*
X71399Y144046D01*
X72000Y143000D01*
X72000Y141826D01*
X72000Y124000D01*
X72000Y123938D01*
X71062Y123000D01*
X71000Y123000D01*
X52000D01*
X51602Y123000D01*
X50867Y123304D01*
X50304Y123867D01*
X50000Y124602D01*
X50000Y125000D01*
Y141306D01*
X51252Y141555D01*
X51273Y141551D01*
X51333Y141406D01*
X52252Y140487D01*
X53452Y139990D01*
X54752D01*
X55952Y140487D01*
X56871Y141406D01*
X57368Y142606D01*
Y143730D01*
X57527Y144205D01*
X58058Y145000D01*
X70000Y145000D01*
D02*
G37*
G36*
X125815Y138299D02*
X125854Y138191D01*
X125919Y138096D01*
X126010Y138014D01*
X126127Y137944D01*
X126270Y137887D01*
X126439Y137842D01*
X126635Y137810D01*
X126856Y137791D01*
X127103Y137785D01*
Y136515D01*
X126856Y136509D01*
X126635Y136490D01*
X126439Y136458D01*
X126270Y136413D01*
X126127Y136356D01*
X126010Y136286D01*
X125919Y136204D01*
X125854Y136109D01*
X125815Y136001D01*
X125802Y135880D01*
Y138420D01*
X125815Y138299D01*
D02*
G37*
G36*
X159893Y137040D02*
X159938Y137033D01*
X160007Y137027D01*
X160508Y137010D01*
X161123Y137006D01*
X161569Y134466D01*
X161342Y134464D01*
X160645Y134418D01*
X160522Y134396D01*
X160421Y134371D01*
X160340Y134342D01*
X160280Y134310D01*
X160241Y134273D01*
X159871Y137048D01*
X159893Y137040D01*
D02*
G37*
G36*
X178622Y133202D02*
X178591Y133442D01*
X178506Y133657D01*
X178368Y133847D01*
X178177Y134011D01*
X177933Y134150D01*
X177636Y134264D01*
X177286Y134352D01*
X176883Y134416D01*
X176427Y134453D01*
X175917Y134466D01*
Y137006D01*
X176416Y137019D01*
X176862Y137057D01*
X177254Y137120D01*
X177594Y137208D01*
X177880Y137322D01*
X178114Y137461D01*
X178294Y137626D01*
X178422Y137815D01*
X178496Y138030D01*
X178517Y138270D01*
X178622Y133202D01*
D02*
G37*
G36*
X120732Y135033D02*
X120698Y134919D01*
X120700Y134787D01*
X120738Y134636D01*
X120813Y134466D01*
X120924Y134277D01*
X121071Y134069D01*
X121255Y133842D01*
X121731Y133331D01*
X120796Y132469D01*
X120535Y132722D01*
X120066Y133121D01*
X119859Y133267D01*
X119671Y133378D01*
X119500Y133453D01*
X119348Y133493D01*
X119214Y133497D01*
X119098Y133465D01*
X119000Y133398D01*
X120802Y135127D01*
X120732Y135033D01*
D02*
G37*
G36*
X90406Y133504D02*
X90322Y133469D01*
X90249Y133411D01*
X90185Y133329D01*
X90131Y133224D01*
X90087Y133097D01*
X90052Y132945D01*
X90028Y132771D01*
X90013Y132573D01*
X90008Y132351D01*
X88992D01*
X88987Y132573D01*
X88948Y132945D01*
X88913Y133097D01*
X88869Y133224D01*
X88815Y133329D01*
X88751Y133411D01*
X88678Y133469D01*
X88594Y133504D01*
X88501Y133516D01*
X90499D01*
X90406Y133504D01*
D02*
G37*
G36*
X115697Y133988D02*
X115624Y133942D01*
X115574Y133885D01*
X115550Y133818D01*
X115550Y133740D01*
X115574Y133652D01*
X115623Y133553D01*
X115697Y133444D01*
X115795Y133324D01*
X115919Y133193D01*
X114935Y132310D01*
X114733Y132510D01*
X113836Y133295D01*
X113739Y133356D01*
X113657Y133398D01*
X113590Y133420D01*
X115796Y134024D01*
X115697Y133988D01*
D02*
G37*
G36*
X100128Y134150D02*
X100137Y133954D01*
X100166Y133760D01*
X100212Y133568D01*
X100632D01*
X100536Y133492D01*
X100451Y133401D01*
X100375Y133294D01*
X100342Y133231D01*
X100363Y133184D01*
X100466Y132994D01*
X100588Y132805D01*
X100728Y132617D01*
X100888Y132431D01*
X101066Y132245D01*
X100132Y132248D01*
X100128Y132097D01*
X98858D01*
X98855Y132252D01*
X97916Y132255D01*
X98095Y132439D01*
X98255Y132625D01*
X98397Y132811D01*
X98519Y132999D01*
X98623Y133188D01*
X98647Y133243D01*
X98618Y133298D01*
X98544Y133404D01*
X98461Y133494D01*
X98368Y133568D01*
X98772D01*
X98773Y133571D01*
X98820Y133764D01*
X98849Y133958D01*
X98858Y134154D01*
X100128Y134150D01*
D02*
G37*
G36*
X75538Y133493D02*
X75453Y133403D01*
X75379Y133296D01*
X75314Y133173D01*
X75259Y133034D01*
X75215Y132879D01*
X75180Y132708D01*
X75155Y132521D01*
X75140Y132317D01*
X75135Y132097D01*
X73865D01*
X73860Y132317D01*
X73820Y132708D01*
X73785Y132879D01*
X73741Y133034D01*
X73686Y133173D01*
X73621Y133296D01*
X73547Y133403D01*
X73462Y133493D01*
X73368Y133568D01*
X75632D01*
X75538Y133493D01*
D02*
G37*
G36*
X85682Y133631D02*
X85594Y133465D01*
X85516Y133291D01*
X85449Y133110D01*
X85392Y132921D01*
X85345Y132725D01*
X85309Y132521D01*
X85283Y132310D01*
X85262Y131866D01*
X83738D01*
X83733Y132092D01*
X83691Y132521D01*
X83655Y132725D01*
X83608Y132921D01*
X83551Y133110D01*
X83484Y133291D01*
X83406Y133465D01*
X83318Y133631D01*
X83219Y133790D01*
X85780D01*
X85682Y133631D01*
D02*
G37*
G36*
X80682D02*
X80594Y133465D01*
X80516Y133291D01*
X80449Y133110D01*
X80392Y132921D01*
X80345Y132725D01*
X80309Y132521D01*
X80283Y132310D01*
X80262Y131866D01*
X78738D01*
X78733Y132092D01*
X78691Y132521D01*
X78655Y132725D01*
X78608Y132921D01*
X78551Y133110D01*
X78484Y133291D01*
X78406Y133465D01*
X78318Y133631D01*
X78219Y133790D01*
X80780D01*
X80682Y133631D01*
D02*
G37*
G36*
X95727Y133691D02*
X95680Y133563D01*
X95638Y133406D01*
X95601Y133219D01*
X95545Y132757D01*
X95511Y132177D01*
X95500Y131480D01*
X93500D01*
X93497Y131843D01*
X93399Y133219D01*
X93363Y133406D01*
X93320Y133563D01*
X93273Y133691D01*
X93219Y133790D01*
X95781D01*
X95727Y133691D01*
D02*
G37*
G36*
X24518Y134261D02*
X24316Y134060D01*
X24138Y133832D01*
X23984Y133575D01*
X23853Y133291D01*
X23747Y132979D01*
X23663Y132639D01*
X23604Y132271D01*
X23591Y132121D01*
X23663Y130287D01*
X21001D01*
X21004Y130317D01*
X21007Y130397D01*
X21012Y131628D01*
X21005Y131876D01*
X20969Y132271D01*
X20910Y132639D01*
X20827Y132979D01*
X20720Y133291D01*
X20589Y133575D01*
X20435Y133832D01*
X20257Y134060D01*
X20055Y134261D01*
X19829Y134433D01*
X24744D01*
X24518Y134261D01*
D02*
G37*
G36*
X122656Y132417D02*
X122808Y132300D01*
X122974Y132191D01*
X123154Y132092D01*
X123349Y132001D01*
X123557Y131919D01*
X123780Y131846D01*
X124269Y131727D01*
X124534Y131680D01*
X121975Y129844D01*
X122008Y130085D01*
X122023Y130316D01*
X122019Y130537D01*
X121997Y130748D01*
X121955Y130949D01*
X121895Y131139D01*
X121816Y131320D01*
X121718Y131490D01*
X121601Y131650D01*
X121466Y131800D01*
X122518Y132543D01*
X122656Y132417D01*
D02*
G37*
G36*
X95510Y129294D02*
X95539Y128912D01*
X95589Y128574D01*
X95657Y128280D01*
X95746Y128029D01*
X95854Y127823D01*
X95982Y127661D01*
X96129Y127542D01*
X96296Y127468D01*
X96483Y127438D01*
X92506Y127606D01*
X92695Y127619D01*
X92864Y127677D01*
X93013Y127779D01*
X93142Y127924D01*
X93251Y128113D01*
X93341Y128347D01*
X93411Y128624D01*
X93460Y128946D01*
X93490Y129311D01*
X93500Y129720D01*
X95500D01*
X95510Y129294D01*
D02*
G37*
G36*
X110581Y122839D02*
X110559Y123026D01*
X110494Y123193D01*
X110386Y123340D01*
X110235Y123468D01*
X110040Y123576D01*
X109803Y123665D01*
X109522Y123734D01*
X109198Y123783D01*
X108830Y123812D01*
X108818Y123813D01*
X108806Y123812D01*
X108439Y123783D01*
X108114Y123734D01*
X107833Y123665D01*
X107596Y123576D01*
X107401Y123468D01*
X107250Y123340D01*
X107142Y123193D01*
X107077Y123026D01*
X107055Y122839D01*
Y126805D01*
X107077Y126618D01*
X107142Y126451D01*
X107250Y126304D01*
X107401Y126176D01*
X107596Y126068D01*
X107833Y125979D01*
X108114Y125911D01*
X108439Y125861D01*
X108806Y125832D01*
X108818Y125832D01*
X108830Y125832D01*
X109198Y125861D01*
X109522Y125911D01*
X109803Y125979D01*
X110040Y126068D01*
X110235Y126176D01*
X110386Y126304D01*
X110494Y126451D01*
X110559Y126618D01*
X110581Y126805D01*
Y122839D01*
D02*
G37*
G36*
X10635Y126524D02*
X10626Y126386D01*
X10657Y126225D01*
X10728Y126041D01*
X10840Y125834D01*
X10992Y125604D01*
X11184Y125351D01*
X11689Y124776D01*
X12002Y124454D01*
X11043Y123618D01*
X10768Y123883D01*
X10284Y124298D01*
X10075Y124447D01*
X9886Y124557D01*
X9720Y124628D01*
X9575Y124661D01*
X9451Y124654D01*
X9349Y124608D01*
X9269Y124524D01*
X10684Y126640D01*
X10635Y126524D01*
D02*
G37*
G36*
X101581Y122839D02*
X101559Y123026D01*
X101494Y123193D01*
X101386Y123340D01*
X101235Y123468D01*
X101040Y123576D01*
X100803Y123665D01*
X100522Y123734D01*
X100197Y123783D01*
X99830Y123812D01*
X99419Y123822D01*
Y125822D01*
X99830Y125832D01*
X100197Y125861D01*
X100522Y125911D01*
X100803Y125979D01*
X101040Y126068D01*
X101235Y126176D01*
X101386Y126304D01*
X101494Y126451D01*
X101559Y126618D01*
X101581Y126805D01*
Y122839D01*
D02*
G37*
G36*
X97077Y126618D02*
X97142Y126451D01*
X97250Y126304D01*
X97401Y126176D01*
X97596Y126068D01*
X97833Y125979D01*
X98114Y125911D01*
X98439Y125861D01*
X98806Y125832D01*
X99216Y125822D01*
Y123822D01*
X98806Y123812D01*
X98439Y123783D01*
X98114Y123734D01*
X97833Y123665D01*
X97596Y123576D01*
X97401Y123468D01*
X97250Y123340D01*
X97142Y123193D01*
X97077Y123026D01*
X97055Y122839D01*
Y126805D01*
X97077Y126618D01*
D02*
G37*
G36*
X103845Y113614D02*
X103696Y113459D01*
X103447Y113162D01*
X103347Y113020D01*
X103263Y112882D01*
X103206Y112769D01*
X103223Y112754D01*
X103201Y112759D01*
X103196Y112749D01*
X103145Y112620D01*
X103110Y112496D01*
X103091Y112375D01*
X103089Y112260D01*
X102809Y112517D01*
X102803Y112513D01*
X102271Y112030D01*
X101799Y111568D01*
X100385Y112982D01*
X100610Y113210D01*
X101253Y113945D01*
X101026Y114153D01*
X101138Y114164D01*
X101255Y114191D01*
X101376Y114233D01*
X101456Y114269D01*
X101450Y114285D01*
X101464Y114273D01*
X101503Y114290D01*
X101634Y114363D01*
X101769Y114451D01*
X101910Y114555D01*
X102206Y114808D01*
X102361Y114958D01*
X103845Y113614D01*
D02*
G37*
G36*
X95173Y114942D02*
X95205Y114555D01*
X95233Y114383D01*
X95269Y114225D01*
X95313Y114082D01*
X95365Y113953D01*
X95425Y113839D01*
X95493Y113739D01*
X95569Y113653D01*
X92769D01*
X92845Y113739D01*
X92913Y113839D01*
X92973Y113953D01*
X93025Y114082D01*
X93069Y114225D01*
X93105Y114383D01*
X93133Y114555D01*
X93153Y114741D01*
X93169Y115157D01*
X95169D01*
X95173Y114942D01*
D02*
G37*
G36*
X39551Y137492D02*
X40308Y136987D01*
X41200Y136810D01*
X48900D01*
Y125000D01*
X48900Y124602D01*
X48984Y124400D01*
Y124181D01*
X49288Y123446D01*
X49443Y123292D01*
X49527Y123089D01*
X50089Y122527D01*
X50292Y122443D01*
X50446Y122288D01*
X51181Y121984D01*
X51400D01*
X51602Y121900D01*
X52000Y121900D01*
X70999D01*
X71062Y121900D01*
X71062Y121900D01*
X71062Y121900D01*
X71425Y122051D01*
X71547Y122101D01*
X72472Y121692D01*
X72817Y121403D01*
Y113728D01*
X71476Y112388D01*
X41950D01*
X36657Y117681D01*
X36657Y117681D01*
X34862Y119476D01*
Y120462D01*
X34734Y121107D01*
X34369Y121653D01*
X32205Y123817D01*
X31659Y124182D01*
X31637Y124186D01*
X31146Y124507D01*
X31279Y125176D01*
Y130026D01*
X31277Y130036D01*
X31725Y130484D01*
X32222Y131684D01*
Y132984D01*
X31725Y134184D01*
X30806Y135103D01*
X29606Y135600D01*
X28306D01*
X27495Y135264D01*
X27282Y135304D01*
X26480Y135774D01*
X26252Y136019D01*
Y138282D01*
X26056Y139267D01*
X25967Y139401D01*
X26645Y140671D01*
X36373D01*
X39551Y137492D01*
D02*
G37*
G36*
X177813Y110145D02*
X177833Y109924D01*
X177864Y109729D01*
X177909Y109560D01*
X177966Y109417D01*
X178036Y109300D01*
X178118Y109209D01*
X178214Y109144D01*
X178321Y109105D01*
X178442Y109092D01*
X175902D01*
X176023Y109105D01*
X176131Y109144D01*
X176226Y109209D01*
X176309Y109300D01*
X176378Y109417D01*
X176436Y109560D01*
X176480Y109729D01*
X176512Y109924D01*
X176531Y110145D01*
X176537Y110393D01*
X177807D01*
X177813Y110145D01*
D02*
G37*
G36*
X82436Y110106D02*
X82459Y109838D01*
X82497Y109601D01*
X82549Y109395D01*
X82618Y109221D01*
X82701Y109079D01*
X82799Y108968D01*
X82912Y108890D01*
X83041Y108842D01*
X83185Y108826D01*
X80148D01*
X80292Y108842D01*
X80421Y108890D01*
X80534Y108968D01*
X80632Y109079D01*
X80716Y109221D01*
X80784Y109395D01*
X80836Y109601D01*
X80874Y109838D01*
X80897Y110106D01*
X80905Y110407D01*
X82429D01*
X82436Y110106D01*
D02*
G37*
G36*
X106876Y103527D02*
X106727Y103709D01*
X106535Y103871D01*
X106299Y104015D01*
X106022Y104139D01*
X105701Y104245D01*
X105338Y104331D01*
X104932Y104398D01*
X104750Y104417D01*
X104513Y104398D01*
X104106Y104331D01*
X103743Y104245D01*
X103422Y104139D01*
X103145Y104015D01*
X102910Y103871D01*
X102718Y103709D01*
X102568Y103527D01*
Y108441D01*
X102718Y108259D01*
X102910Y108097D01*
X103145Y107953D01*
X103422Y107829D01*
X103743Y107723D01*
X104106Y107637D01*
X104513Y107570D01*
X104694Y107551D01*
X104932Y107570D01*
X105338Y107637D01*
X105701Y107723D01*
X106022Y107829D01*
X106299Y107953D01*
X106535Y108097D01*
X106727Y108259D01*
X106876Y108441D01*
Y103527D01*
D02*
G37*
G36*
X97654D02*
X97504Y103709D01*
X97312Y103871D01*
X97077Y104015D01*
X96800Y104139D01*
X96479Y104245D01*
X96116Y104331D01*
X95709Y104398D01*
X95528Y104417D01*
X95290Y104398D01*
X94884Y104331D01*
X94521Y104245D01*
X94200Y104139D01*
X93922Y104015D01*
X93687Y103871D01*
X93495Y103709D01*
X93346Y103527D01*
Y108441D01*
X93495Y108259D01*
X93687Y108097D01*
X93922Y107953D01*
X94200Y107829D01*
X94521Y107723D01*
X94884Y107637D01*
X95290Y107570D01*
X95472Y107551D01*
X95709Y107570D01*
X96116Y107637D01*
X96479Y107723D01*
X96800Y107829D01*
X97077Y107953D01*
X97312Y108097D01*
X97504Y108259D01*
X97654Y108441D01*
Y103527D01*
D02*
G37*
G36*
X134543D02*
X134370Y103752D01*
X134170Y103954D01*
X133941Y104132D01*
X133685Y104287D01*
X133401Y104417D01*
X133089Y104524D01*
X132749Y104607D01*
X132389Y104665D01*
X132029Y104607D01*
X131689Y104524D01*
X131377Y104417D01*
X131093Y104287D01*
X130836Y104132D01*
X130608Y103954D01*
X130407Y103752D01*
X130235Y103527D01*
Y108441D01*
X130407Y108216D01*
X130608Y108014D01*
X130836Y107836D01*
X131093Y107681D01*
X131377Y107551D01*
X131689Y107444D01*
X132029Y107361D01*
X132389Y107303D01*
X132749Y107361D01*
X133089Y107444D01*
X133401Y107551D01*
X133685Y107681D01*
X133941Y107836D01*
X134170Y108014D01*
X134370Y108216D01*
X134543Y108441D01*
Y103527D01*
D02*
G37*
G36*
X125320D02*
X125148Y103752D01*
X124947Y103954D01*
X124719Y104132D01*
X124463Y104287D01*
X124178Y104417D01*
X123866Y104524D01*
X123526Y104607D01*
X123167Y104665D01*
X122807Y104607D01*
X122467Y104524D01*
X122155Y104417D01*
X121870Y104287D01*
X121614Y104132D01*
X121386Y103954D01*
X121185Y103752D01*
X121013Y103527D01*
Y108441D01*
X121185Y108216D01*
X121386Y108014D01*
X121614Y107836D01*
X121870Y107681D01*
X122155Y107551D01*
X122467Y107444D01*
X122807Y107361D01*
X123167Y107303D01*
X123526Y107361D01*
X123866Y107444D01*
X124178Y107551D01*
X124463Y107681D01*
X124719Y107836D01*
X124947Y108014D01*
X125148Y108216D01*
X125320Y108441D01*
Y103527D01*
D02*
G37*
G36*
X79209D02*
X79037Y103752D01*
X78836Y103954D01*
X78608Y104132D01*
X78352Y104287D01*
X78067Y104417D01*
X77755Y104524D01*
X77415Y104607D01*
X77055Y104665D01*
X76696Y104607D01*
X76356Y104524D01*
X76044Y104417D01*
X75759Y104287D01*
X75503Y104132D01*
X75275Y103954D01*
X75074Y103752D01*
X74902Y103527D01*
Y108441D01*
X75074Y108216D01*
X75275Y108014D01*
X75503Y107836D01*
X75759Y107681D01*
X76044Y107551D01*
X76356Y107444D01*
X76696Y107361D01*
X77055Y107303D01*
X77415Y107361D01*
X77755Y107444D01*
X78067Y107551D01*
X78352Y107681D01*
X78608Y107836D01*
X78836Y108014D01*
X79037Y108216D01*
X79209Y108441D01*
Y103527D01*
D02*
G37*
G36*
X69987D02*
X69815Y103752D01*
X69614Y103954D01*
X69386Y104132D01*
X69129Y104287D01*
X68845Y104417D01*
X68533Y104524D01*
X68193Y104607D01*
X67833Y104665D01*
X67473Y104607D01*
X67133Y104524D01*
X66821Y104417D01*
X66537Y104287D01*
X66281Y104132D01*
X66052Y103954D01*
X65852Y103752D01*
X65679Y103527D01*
Y108441D01*
X65852Y108216D01*
X66052Y108014D01*
X66281Y107836D01*
X66537Y107681D01*
X66821Y107551D01*
X67133Y107444D01*
X67473Y107361D01*
X67833Y107303D01*
X68193Y107361D01*
X68533Y107444D01*
X68845Y107551D01*
X69129Y107681D01*
X69386Y107836D01*
X69614Y108014D01*
X69815Y108216D01*
X69987Y108441D01*
Y103527D01*
D02*
G37*
G36*
X88791Y109678D02*
X89325Y109228D01*
X89566Y109060D01*
X89790Y108930D01*
X89997Y108838D01*
X90187Y108784D01*
X90360Y108769D01*
X90515Y108791D01*
X90654Y108852D01*
X88021Y107235D01*
X88129Y107326D01*
X88193Y107440D01*
X88213Y107577D01*
X88189Y107737D01*
X88121Y107920D01*
X88010Y108126D01*
X87855Y108354D01*
X87656Y108606D01*
X87413Y108880D01*
X87126Y109177D01*
X88498Y109960D01*
X88791Y109678D01*
D02*
G37*
G36*
X115995Y109270D02*
X116328Y108992D01*
X116476Y108893D01*
X116612Y108819D01*
X116736Y108771D01*
X116848Y108750D01*
X116948Y108754D01*
X117036Y108785D01*
X117111Y108841D01*
X116776Y108506D01*
X117715Y107681D01*
X117929Y107528D01*
X118121Y107408D01*
X118289Y107322D01*
X118434Y107271D01*
X118556Y107254D01*
X117285Y105983D01*
X117268Y106105D01*
X117217Y106250D01*
X117132Y106419D01*
X117012Y106610D01*
X116858Y106825D01*
X116448Y107323D01*
X116037Y107767D01*
X115698Y107428D01*
X115755Y107504D01*
X115785Y107591D01*
X115790Y107691D01*
X115768Y107803D01*
X115720Y107927D01*
X115647Y108063D01*
X115547Y108211D01*
X115421Y108372D01*
X115270Y108544D01*
X115092Y108729D01*
X115810Y109447D01*
X115995Y109270D01*
D02*
G37*
G36*
X40476Y107363D02*
X40534Y107340D01*
X40613Y107320D01*
X40713Y107302D01*
X40976Y107275D01*
X41325Y107259D01*
X41758Y107254D01*
X41732Y104714D01*
X41504Y104713D01*
X40588Y104653D01*
X40510Y104634D01*
X40453Y104612D01*
X40417Y104589D01*
X40439Y107388D01*
X40476Y107363D01*
D02*
G37*
G36*
X51543Y103527D02*
X51370Y103752D01*
X51170Y103954D01*
X50941Y104132D01*
X50685Y104287D01*
X50401Y104417D01*
X50089Y104524D01*
X49749Y104607D01*
X49381Y104667D01*
X48985Y104702D01*
X48562Y104714D01*
Y107254D01*
X48985Y107266D01*
X49381Y107302D01*
X49749Y107361D01*
X50089Y107444D01*
X50401Y107551D01*
X50685Y107681D01*
X50941Y107836D01*
X51170Y108014D01*
X51370Y108216D01*
X51543Y108441D01*
Y103527D01*
D02*
G37*
G36*
X185516Y103356D02*
X185410Y103414D01*
X185289Y103441D01*
X185153Y103435D01*
X185001Y103396D01*
X184835Y103326D01*
X184654Y103223D01*
X184458Y103087D01*
X184247Y102920D01*
X184021Y102720D01*
X183780Y102487D01*
X182756Y103259D01*
X182987Y103499D01*
X183345Y103926D01*
X183472Y104114D01*
X183564Y104284D01*
X183622Y104437D01*
X183645Y104573D01*
X183633Y104691D01*
X183586Y104792D01*
X183504Y104875D01*
X185516Y103356D01*
D02*
G37*
G36*
X55287Y105896D02*
X55340Y105780D01*
X55428Y105637D01*
X55550Y105466D01*
X55901Y105041D01*
X56445Y104458D01*
X56868Y104882D01*
X56798Y104787D01*
X56762Y104675D01*
X56760Y104547D01*
X56792Y104402D01*
X56858Y104241D01*
X56958Y104063D01*
X57091Y103869D01*
X57259Y103658D01*
X57460Y103431D01*
X57695Y103187D01*
X56797Y102288D01*
X56554Y102524D01*
X56115Y102893D01*
X55921Y103026D01*
X55743Y103126D01*
X55582Y103192D01*
X55437Y103224D01*
X55309Y103222D01*
X55197Y103186D01*
X55102Y103116D01*
X55518Y103531D01*
X54347Y104556D01*
X54204Y104644D01*
X54088Y104696D01*
X53999Y104714D01*
X55270Y105985D01*
X55287Y105896D01*
D02*
G37*
G36*
X100752Y100705D02*
X100771Y100484D01*
X100803Y100289D01*
X100848Y100120D01*
X100905Y99977D01*
X100975Y99860D01*
X101057Y99769D01*
X101152Y99704D01*
X101260Y99665D01*
X101381Y99652D01*
X98841D01*
X98962Y99665D01*
X99070Y99704D01*
X99165Y99769D01*
X99247Y99860D01*
X99317Y99977D01*
X99374Y100120D01*
X99419Y100289D01*
X99451Y100484D01*
X99470Y100705D01*
X99476Y100953D01*
X100746D01*
X100752Y100705D01*
D02*
G37*
G36*
X73086D02*
X73105Y100484D01*
X73137Y100289D01*
X73181Y100120D01*
X73238Y99977D01*
X73308Y99860D01*
X73390Y99769D01*
X73486Y99704D01*
X73594Y99665D01*
X73714Y99652D01*
X71174D01*
X71295Y99665D01*
X71403Y99704D01*
X71498Y99769D01*
X71581Y99860D01*
X71651Y99977D01*
X71708Y100120D01*
X71752Y100289D01*
X71784Y100484D01*
X71803Y100705D01*
X71809Y100953D01*
X73079D01*
X73086Y100705D01*
D02*
G37*
G36*
X157644Y100113D02*
X157673Y99919D01*
X157720Y99726D01*
X157785Y99534D01*
X157870Y99343D01*
X157973Y99153D01*
X158096Y98965D01*
X158237Y98778D01*
X158396Y98592D01*
X158575Y98407D01*
X155425D01*
X155604Y98592D01*
X155763Y98778D01*
X155904Y98965D01*
X156027Y99153D01*
X156130Y99343D01*
X156215Y99534D01*
X156280Y99726D01*
X156327Y99919D01*
X156356Y100113D01*
X156365Y100309D01*
X157635D01*
X157644Y100113D01*
D02*
G37*
G36*
X30194Y100717D02*
X30233Y100609D01*
X30298Y100514D01*
X30389Y100432D01*
X30506Y100362D01*
X30649Y100305D01*
X30819Y100260D01*
X31014Y100228D01*
X31235Y100209D01*
X31482Y100203D01*
Y98933D01*
X31235Y98927D01*
X31014Y98908D01*
X30819Y98876D01*
X30649Y98831D01*
X30506Y98774D01*
X30389Y98704D01*
X30298Y98622D01*
X30233Y98527D01*
X30194Y98419D01*
X30181Y98298D01*
Y100838D01*
X30194Y100717D01*
D02*
G37*
G36*
X37434Y98168D02*
X37282Y98313D01*
X37127Y98443D01*
X36969Y98558D01*
X36807Y98658D01*
X36642Y98742D01*
X36473Y98811D01*
X36301Y98864D01*
X36126Y98902D01*
X35947Y98925D01*
X35766Y98933D01*
Y100203D01*
X35947Y100211D01*
X36126Y100234D01*
X36301Y100272D01*
X36473Y100325D01*
X36642Y100394D01*
X36807Y100478D01*
X36969Y100578D01*
X37127Y100693D01*
X37282Y100823D01*
X37434Y100968D01*
Y98168D01*
D02*
G37*
G36*
X116002Y100244D02*
X116440Y99875D01*
X116635Y99742D01*
X116812Y99642D01*
X116974Y99576D01*
X117118Y99544D01*
X117246Y99546D01*
X117358Y99582D01*
X117453Y99652D01*
X115687Y97886D01*
X115757Y97981D01*
X115793Y98093D01*
X115795Y98221D01*
X115763Y98366D01*
X115697Y98527D01*
X115598Y98705D01*
X115464Y98899D01*
X115297Y99110D01*
X115095Y99338D01*
X114860Y99581D01*
X115758Y100479D01*
X116002Y100244D01*
D02*
G37*
G36*
X174795Y111288D02*
X174795Y110903D01*
X174495Y109793D01*
X173960Y109436D01*
X173403Y108601D01*
X173207Y107616D01*
Y104832D01*
X173403Y103847D01*
X173960Y103012D01*
X174795Y102454D01*
X175780Y102259D01*
X178477D01*
X178651Y102059D01*
X179081Y101066D01*
X176364Y98350D01*
X176259Y98315D01*
X176247Y98289D01*
X176220Y98278D01*
X175980Y98046D01*
X175784Y97872D01*
X175704Y97808D01*
X175546Y97839D01*
X165546D01*
X164759Y97683D01*
X164093Y97237D01*
X163647Y96571D01*
X163491Y95784D01*
Y93784D01*
X163647Y92997D01*
X164093Y92331D01*
X164189Y92266D01*
Y90983D01*
X163236Y90137D01*
X162397Y90273D01*
X161978Y90443D01*
X161816Y91261D01*
X161258Y92096D01*
X160423Y92654D01*
X159438Y92849D01*
X159316D01*
X158979Y93704D01*
X158938Y94119D01*
X159769Y94950D01*
X160266Y96150D01*
Y97450D01*
X159769Y98650D01*
X159443Y98976D01*
X159366Y99171D01*
X159209Y99333D01*
X159094Y99467D01*
X158997Y99596D01*
X158919Y99717D01*
X158857Y99830D01*
X158810Y99936D01*
X158776Y100035D01*
X158753Y100128D01*
X158740Y100219D01*
X158733Y100361D01*
X158683Y100468D01*
Y108600D01*
X158555Y109244D01*
X158190Y109790D01*
X149790Y118190D01*
X149244Y118555D01*
X148600Y118683D01*
X126782D01*
X126729Y118673D01*
X125516Y118914D01*
X125308Y119247D01*
X126013Y120517D01*
X133197D01*
X133841Y120645D01*
X134387Y121010D01*
X141199Y127822D01*
X158262D01*
X174795Y111288D01*
D02*
G37*
G36*
X177822Y96530D02*
X177522Y96220D01*
X176845Y95413D01*
X176695Y95185D01*
X176581Y94976D01*
X176506Y94788D01*
X176468Y94620D01*
X176467Y94472D01*
X176504Y94344D01*
X175371Y96742D01*
X175438Y96643D01*
X175525Y96583D01*
X175633Y96562D01*
X175763Y96578D01*
X175914Y96634D01*
X176085Y96727D01*
X176278Y96860D01*
X176493Y97030D01*
X176728Y97240D01*
X176984Y97487D01*
X177822Y96530D01*
D02*
G37*
G36*
X112060Y97283D02*
X111992Y97051D01*
X111995Y96784D01*
X112070Y96479D01*
X112216Y96138D01*
X112435Y95761D01*
X112725Y95347D01*
X113088Y94896D01*
X114028Y93885D01*
X112232Y92090D01*
X111708Y92595D01*
X110770Y93392D01*
X110356Y93682D01*
X109979Y93901D01*
X109638Y94047D01*
X109334Y94122D01*
X109066Y94125D01*
X108834Y94057D01*
X108639Y93916D01*
X112201Y97478D01*
X112060Y97283D01*
D02*
G37*
G36*
X84396Y97322D02*
X84328Y97090D01*
X84333Y96821D01*
X84408Y96516D01*
X84555Y96174D01*
X84773Y95797D01*
X85063Y95384D01*
X85424Y94934D01*
X86361Y93927D01*
X84607Y92090D01*
X84081Y92597D01*
X83141Y93396D01*
X82726Y93687D01*
X82349Y93906D01*
X82008Y94052D01*
X81704Y94127D01*
X81437Y94129D01*
X81207Y94059D01*
X81014Y93916D01*
X84535Y97519D01*
X84396Y97322D01*
D02*
G37*
G36*
X121277Y97160D02*
X121204Y96933D01*
X121204Y96668D01*
X121277Y96366D01*
X121423Y96025D01*
X121642Y95647D01*
X121934Y95231D01*
X122300Y94778D01*
X123250Y93757D01*
X123208Y93720D01*
X123981Y92857D01*
X121481Y91596D01*
X121489Y91652D01*
X121479Y91720D01*
X121450Y91799D01*
X121403Y91890D01*
X121337Y91993D01*
X121253Y92108D01*
X121029Y92372D01*
X120986Y92417D01*
X120807Y92590D01*
X119877Y93378D01*
X119465Y93667D01*
X119088Y93885D01*
X118747Y94032D01*
X118440Y94109D01*
X118169Y94115D01*
X117934Y94051D01*
X117733Y93916D01*
X121423Y97349D01*
X121277Y97160D01*
D02*
G37*
G36*
X74728Y94188D02*
X74573Y94014D01*
X74437Y93805D01*
X74318Y93562D01*
X74218Y93285D01*
X74136Y92972D01*
X74072Y92625D01*
X74027Y92243D01*
X73999Y91827D01*
X73990Y91376D01*
X71450Y91346D01*
X71438Y91897D01*
X71400Y92390D01*
X71337Y92825D01*
X71250Y93200D01*
X71137Y93518D01*
X70999Y93776D01*
X70836Y93976D01*
X70648Y94117D01*
X70435Y94199D01*
X70197Y94223D01*
X74902Y94327D01*
X74728Y94188D01*
D02*
G37*
G36*
X139275Y94177D02*
X139112Y93985D01*
X138969Y93750D01*
X138844Y93473D01*
X138739Y93152D01*
X138653Y92789D01*
X138586Y92382D01*
X138538Y91933D01*
X138500Y90907D01*
X135500D01*
X135490Y91442D01*
X135414Y92382D01*
X135347Y92789D01*
X135260Y93152D01*
X135155Y93473D01*
X135031Y93750D01*
X134887Y93985D01*
X134724Y94177D01*
X134543Y94327D01*
X139457D01*
X139275Y94177D01*
D02*
G37*
G36*
X178886Y86954D02*
X178730Y87096D01*
X178571Y87224D01*
X178409Y87336D01*
X178244Y87433D01*
X178077Y87516D01*
X177906Y87583D01*
X177734Y87636D01*
X177558Y87673D01*
X177441Y87688D01*
X177319Y87678D01*
X177117Y87646D01*
X176943Y87602D01*
X176795Y87546D01*
X176674Y87477D01*
X176580Y87395D01*
X176514Y87300D01*
X176474Y87193D01*
X176462Y87074D01*
X176440Y89602D01*
X176455Y89482D01*
X176496Y89376D01*
X176565Y89281D01*
X176661Y89199D01*
X176784Y89130D01*
X176934Y89074D01*
X177111Y89030D01*
X177315Y88998D01*
X177415Y88990D01*
X177524Y89004D01*
X177699Y89043D01*
X177869Y89098D01*
X178036Y89168D01*
X178199Y89254D01*
X178358Y89355D01*
X178513Y89472D01*
X178664Y89605D01*
X178810Y89753D01*
X178886Y86954D01*
D02*
G37*
G36*
X164641Y87020D02*
X164627Y87139D01*
X164587Y87246D01*
X164519Y87341D01*
X164424Y87423D01*
X164303Y87492D01*
X164154Y87548D01*
X163978Y87592D01*
X163775Y87624D01*
X163545Y87643D01*
X163288Y87649D01*
Y88919D01*
X163545Y88925D01*
X163775Y88944D01*
X163978Y88976D01*
X164154Y89020D01*
X164303Y89076D01*
X164424Y89145D01*
X164519Y89227D01*
X164587Y89321D01*
X164627Y89429D01*
X164641Y89548D01*
Y87020D01*
D02*
G37*
G36*
X160923Y89433D02*
X160958Y89325D01*
X161021Y89230D01*
X161111Y89148D01*
X161227Y89078D01*
X161371Y89021D01*
X161541Y88976D01*
X161739Y88944D01*
X161963Y88925D01*
X162215Y88919D01*
Y87649D01*
X161954Y87643D01*
X161720Y87624D01*
X161513Y87592D01*
X161333Y87548D01*
X161180Y87492D01*
X161054Y87423D01*
X160955Y87341D01*
X160883Y87246D01*
X160838Y87139D01*
X160819Y87020D01*
X160914Y89554D01*
X160923Y89433D01*
D02*
G37*
G36*
X138500Y87134D02*
X138515Y86381D01*
X138633Y85085D01*
X138736Y84543D01*
X138869Y84072D01*
X139031Y83670D01*
X139223Y83340D01*
X139445Y83080D01*
X139695Y82890D01*
X139976Y82771D01*
X137246Y83547D01*
X140500Y80293D01*
Y71500D01*
X140496Y71413D01*
X140485Y71326D01*
X140466Y71241D01*
X140440Y71158D01*
X140406Y71077D01*
X140366Y71000D01*
X140319Y70926D01*
X140266Y70857D01*
X140207Y70793D01*
X140143Y70734D01*
X140074Y70681D01*
X140000Y70634D01*
X139923Y70594D01*
X139842Y70560D01*
X139759Y70534D01*
X139674Y70515D01*
X139587Y70504D01*
X139500Y70500D01*
X127500D01*
X127413Y70504D01*
X127326Y70515D01*
X127241Y70534D01*
X127158Y70560D01*
X127077Y70594D01*
X127000Y70634D01*
X126926Y70681D01*
X126857Y70734D01*
X126793Y70793D01*
X126734Y70857D01*
X126681Y70926D01*
X126634Y71000D01*
X126594Y71077D01*
X126560Y71158D01*
X126534Y71241D01*
X126515Y71326D01*
X126504Y71413D01*
X126500Y71500D01*
Y83500D01*
X126504Y83587D01*
X126515Y83674D01*
X126534Y83759D01*
X126560Y83842D01*
X126594Y83923D01*
X126634Y84000D01*
X126681Y84074D01*
X126734Y84143D01*
X126793Y84207D01*
X126857Y84266D01*
X126926Y84319D01*
X127000Y84366D01*
X127077Y84406D01*
X127158Y84440D01*
X127241Y84466D01*
X127326Y84485D01*
X127413Y84496D01*
X127500Y84500D01*
X134635D01*
X134765Y84563D01*
X134960Y84749D01*
X135125Y85014D01*
X135260Y85355D01*
X135365Y85775D01*
X135440Y86272D01*
X135485Y86847D01*
X135500Y87499D01*
X138500Y87134D01*
D02*
G37*
G36*
X178848Y80384D02*
X178696Y80529D01*
X178541Y80659D01*
X178383Y80774D01*
X178221Y80873D01*
X178056Y80958D01*
X177887Y81026D01*
X177715Y81080D01*
X177540Y81118D01*
X177428Y81133D01*
X177317Y81124D01*
X177114Y81092D01*
X176938Y81048D01*
X176789Y80992D01*
X176667Y80922D01*
X176573Y80841D01*
X176505Y80746D01*
X176464Y80639D01*
X176451Y80520D01*
Y83048D01*
X176464Y82928D01*
X176505Y82822D01*
X176573Y82727D01*
X176667Y82645D01*
X176789Y82576D01*
X176938Y82520D01*
X177114Y82476D01*
X177317Y82444D01*
X177428Y82435D01*
X177540Y82450D01*
X177715Y82488D01*
X177887Y82541D01*
X178056Y82610D01*
X178221Y82694D01*
X178383Y82794D01*
X178541Y82908D01*
X178696Y83039D01*
X178848Y83184D01*
Y80384D01*
D02*
G37*
G36*
X164641Y80520D02*
X164627Y80639D01*
X164587Y80746D01*
X164519Y80841D01*
X164424Y80922D01*
X164303Y80992D01*
X164154Y81048D01*
X163978Y81092D01*
X163775Y81124D01*
X163545Y81143D01*
X163288Y81149D01*
Y82419D01*
X163545Y82425D01*
X163775Y82444D01*
X163978Y82476D01*
X164154Y82520D01*
X164303Y82576D01*
X164424Y82645D01*
X164519Y82727D01*
X164587Y82822D01*
X164627Y82928D01*
X164641Y83048D01*
Y80520D01*
D02*
G37*
G36*
X191833Y80318D02*
X191867Y79826D01*
X192557D01*
X192419Y79806D01*
X192296Y79745D01*
X192187Y79644D01*
X192093Y79502D01*
X192013Y79320D01*
X191948Y79097D01*
X191897Y78833D01*
X191861Y78529D01*
X191839Y78185D01*
X191832Y77800D01*
X189292D01*
X189285Y78185D01*
X189227Y78833D01*
X189176Y79097D01*
X189111Y79320D01*
X189031Y79502D01*
X188937Y79644D01*
X188828Y79745D01*
X188704Y79806D01*
X188567Y79826D01*
X189274D01*
X189287Y80112D01*
X189292Y80545D01*
X191832D01*
X191833Y80318D01*
D02*
G37*
G36*
X189490Y71965D02*
X188984Y71441D01*
X188188Y70503D01*
X187898Y70089D01*
X187679Y69712D01*
X187532Y69371D01*
X187457Y69067D01*
X187454Y68799D01*
X187523Y68567D01*
X187664Y68373D01*
X184102Y71934D01*
X184297Y71793D01*
X184528Y71725D01*
X184796Y71728D01*
X185101Y71803D01*
X185442Y71949D01*
X185819Y72168D01*
X186233Y72458D01*
X186684Y72821D01*
X187694Y73761D01*
X189490Y71965D01*
D02*
G37*
G36*
X115783Y86551D02*
X115821Y86114D01*
X115884Y85729D01*
X115973Y85394D01*
X116088Y85112D01*
X116227Y84880D01*
X116392Y84700D01*
X116583Y84572D01*
X116784Y84500D01*
X120500D01*
X120587Y84496D01*
X120674Y84485D01*
X120759Y84466D01*
X120842Y84440D01*
X120923Y84406D01*
X121000Y84366D01*
X121074Y84319D01*
X121143Y84266D01*
X121207Y84207D01*
X121266Y84143D01*
X121319Y84074D01*
X121366Y84000D01*
X121406Y83923D01*
X121440Y83842D01*
X121466Y83759D01*
X121485Y83674D01*
X121496Y83587D01*
X121500Y83500D01*
Y71500D01*
X121496Y71413D01*
X121485Y71326D01*
X121466Y71241D01*
X121440Y71158D01*
X121406Y71077D01*
X121366Y71000D01*
X121319Y70926D01*
X121266Y70857D01*
X121207Y70793D01*
X121143Y70734D01*
X121074Y70681D01*
X121000Y70634D01*
X120923Y70594D01*
X120842Y70560D01*
X120759Y70534D01*
X120674Y70515D01*
X120587Y70504D01*
X120500Y70500D01*
X108500D01*
X108413Y70504D01*
X108326Y70515D01*
X108241Y70534D01*
X108158Y70560D01*
X108077Y70594D01*
X108000Y70634D01*
X107926Y70681D01*
X107857Y70734D01*
X107793Y70793D01*
X107734Y70857D01*
X107681Y70926D01*
X107634Y71000D01*
X107594Y71077D01*
X107560Y71158D01*
X107534Y71241D01*
X107515Y71326D01*
X107504Y71413D01*
X107500Y71500D01*
Y83500D01*
X107504Y83587D01*
X107515Y83674D01*
X107534Y83759D01*
X107560Y83842D01*
X107594Y83923D01*
X107634Y84000D01*
X107681Y84074D01*
X107734Y84143D01*
X107793Y84207D01*
X107857Y84266D01*
X107926Y84319D01*
X108000Y84366D01*
X108077Y84406D01*
X108158Y84440D01*
X108241Y84466D01*
X108326Y84485D01*
X108413Y84496D01*
X108500Y84500D01*
X112216D01*
X112417Y84572D01*
X112608Y84700D01*
X112773Y84880D01*
X112913Y85112D01*
X113027Y85394D01*
X113116Y85729D01*
X113179Y86114D01*
X113217Y86551D01*
X113230Y87039D01*
X115770D01*
X115783Y86551D01*
D02*
G37*
G36*
X101587Y84496D02*
X101674Y84485D01*
X101759Y84466D01*
X101842Y84440D01*
X101923Y84406D01*
X102000Y84366D01*
X102074Y84319D01*
X102143Y84266D01*
X102207Y84207D01*
X102266Y84143D01*
X102319Y84074D01*
X102366Y84000D01*
X102406Y83923D01*
X102440Y83842D01*
X102466Y83759D01*
X102485Y83674D01*
X102496Y83587D01*
X102500Y83500D01*
Y71500D01*
X102496Y71413D01*
X102485Y71326D01*
X102466Y71241D01*
X102440Y71158D01*
X102406Y71077D01*
X102366Y71000D01*
X102319Y70926D01*
X102266Y70857D01*
X102207Y70793D01*
X102143Y70734D01*
X102074Y70681D01*
X102000Y70634D01*
X101923Y70594D01*
X101842Y70560D01*
X101759Y70534D01*
X101674Y70515D01*
X101587Y70504D01*
X101500Y70500D01*
X89500D01*
X89413Y70504D01*
X89326Y70515D01*
X89241Y70534D01*
X89158Y70560D01*
X89077Y70594D01*
X89000Y70634D01*
X88926Y70681D01*
X88857Y70734D01*
X88793Y70793D01*
X88734Y70857D01*
X88681Y70926D01*
X88634Y71000D01*
X88594Y71077D01*
X88560Y71158D01*
X88534Y71241D01*
X88515Y71326D01*
X88504Y71413D01*
X88500Y71500D01*
Y83000D01*
X88506Y83131D01*
X88523Y83260D01*
X88551Y83388D01*
X88590Y83513D01*
X88640Y83634D01*
X88701Y83750D01*
X88771Y83860D01*
X88851Y83964D01*
X88939Y84061D01*
X89036Y84149D01*
X89140Y84229D01*
X89250Y84299D01*
X89366Y84360D01*
X89487Y84410D01*
X89612Y84449D01*
X89740Y84477D01*
X89869Y84494D01*
X90000Y84500D01*
X101500D01*
X101587Y84496D01*
D02*
G37*
G36*
X77772Y85717D02*
X77830Y84854D01*
X77856Y84715D01*
X77888Y84608D01*
X77923Y84531D01*
X77950Y84500D01*
X82000D01*
X82131Y84494D01*
X82261Y84477D01*
X82388Y84449D01*
X82513Y84410D01*
X82634Y84360D01*
X82750Y84299D01*
X82860Y84229D01*
X82964Y84149D01*
X83061Y84061D01*
X83149Y83964D01*
X83229Y83860D01*
X83299Y83750D01*
X83359Y83634D01*
X83410Y83513D01*
X83449Y83388D01*
X83477Y83260D01*
X83494Y83131D01*
X83500Y83000D01*
Y71500D01*
X83496Y71413D01*
X83485Y71326D01*
X83466Y71241D01*
X83440Y71158D01*
X83406Y71077D01*
X83366Y71000D01*
X83319Y70926D01*
X83266Y70857D01*
X83207Y70793D01*
X83143Y70734D01*
X83074Y70681D01*
X83000Y70634D01*
X82923Y70594D01*
X82842Y70560D01*
X82759Y70534D01*
X82674Y70515D01*
X82587Y70504D01*
X82500Y70500D01*
X70500D01*
X70413Y70504D01*
X70326Y70515D01*
X70241Y70534D01*
X70158Y70560D01*
X70077Y70594D01*
X70000Y70634D01*
X69926Y70681D01*
X69857Y70734D01*
X69793Y70793D01*
X69734Y70857D01*
X69681Y70926D01*
X69634Y71000D01*
X69594Y71077D01*
X69560Y71158D01*
X69534Y71241D01*
X69515Y71326D01*
X69504Y71413D01*
X69500Y71500D01*
Y83500D01*
X69504Y83587D01*
X69515Y83674D01*
X69534Y83759D01*
X69560Y83842D01*
X69594Y83923D01*
X69634Y84000D01*
X69681Y84074D01*
X69734Y84143D01*
X69793Y84207D01*
X69857Y84266D01*
X69926Y84319D01*
X70000Y84366D01*
X70077Y84406D01*
X70158Y84440D01*
X70241Y84466D01*
X70326Y84485D01*
X70413Y84496D01*
X70500Y84500D01*
X75050D01*
X75077Y84531D01*
X75113Y84608D01*
X75144Y84715D01*
X75170Y84854D01*
X75192Y85023D01*
X75220Y85455D01*
X75230Y86009D01*
X77770D01*
X77772Y85717D01*
D02*
G37*
G36*
X23410Y96363D02*
X23317Y96267D01*
X23235Y96157D01*
X23164Y96032D01*
X23104Y95893D01*
X23054Y95739D01*
X23016Y95569D01*
X22989Y95386D01*
X22972Y95187D01*
X22967Y94973D01*
X21697D01*
X21691Y95187D01*
X21675Y95386D01*
X21648Y95569D01*
X21609Y95739D01*
X21560Y95893D01*
X21500Y96032D01*
X21428Y96157D01*
X21346Y96267D01*
X21253Y96363D01*
X21149Y96443D01*
X23514D01*
X23410Y96363D01*
D02*
G37*
G36*
X16908D02*
X16815Y96267D01*
X16733Y96157D01*
X16661Y96032D01*
X16601Y95893D01*
X16552Y95739D01*
X16514Y95569D01*
X16486Y95386D01*
X16470Y95187D01*
X16464Y94973D01*
X15194D01*
X15189Y95187D01*
X15172Y95386D01*
X15145Y95569D01*
X15107Y95739D01*
X15057Y95893D01*
X14997Y96032D01*
X14926Y96157D01*
X14844Y96267D01*
X14751Y96363D01*
X14647Y96443D01*
X17012D01*
X16908Y96363D01*
D02*
G37*
G36*
X16464Y94770D02*
X16471Y94482D01*
X16520Y93994D01*
X16563Y93792D01*
X16619Y93618D01*
X16687Y93473D01*
X16767Y93356D01*
X16860Y93268D01*
X16965Y93208D01*
X17082Y93177D01*
X14559Y93530D01*
X14680Y93527D01*
X14788Y93554D01*
X14883Y93610D01*
X14966Y93695D01*
X15036Y93811D01*
X15093Y93955D01*
X15137Y94130D01*
X15169Y94334D01*
X15188Y94567D01*
X15194Y94831D01*
X16464Y94770D01*
D02*
G37*
G36*
X22973Y94541D02*
X22992Y94287D01*
X23024Y94068D01*
X23068Y93885D01*
X23126Y93737D01*
X23195Y93625D01*
X23278Y93548D01*
X23373Y93506D01*
X23481Y93500D01*
X23602Y93530D01*
X21182Y92631D01*
X21280Y92788D01*
X21367Y92952D01*
X21445Y93124D01*
X21511Y93302D01*
X21568Y93487D01*
X21614Y93679D01*
X21651Y93877D01*
X21676Y94083D01*
X21697Y94515D01*
X22967Y94831D01*
X22973Y94541D01*
D02*
G37*
G36*
X26764Y89465D02*
X26728Y89353D01*
X26726Y89225D01*
X26758Y89080D01*
X26824Y88919D01*
X26924Y88741D01*
X27057Y88547D01*
X27225Y88336D01*
X27426Y88109D01*
X27662Y87865D01*
X26764Y86966D01*
X26520Y87202D01*
X26081Y87571D01*
X25887Y87704D01*
X25709Y87804D01*
X25548Y87870D01*
X25403Y87902D01*
X25275Y87900D01*
X25164Y87864D01*
X25068Y87794D01*
X26834Y89560D01*
X26764Y89465D01*
D02*
G37*
G36*
X15915Y87781D02*
X15807Y87742D01*
X15712Y87677D01*
X15630Y87586D01*
X15560Y87469D01*
X15503Y87326D01*
X15458Y87157D01*
X15426Y86962D01*
X15407Y86741D01*
X15401Y86494D01*
X14131D01*
X14125Y86741D01*
X14106Y86962D01*
X14074Y87157D01*
X14029Y87326D01*
X13972Y87469D01*
X13902Y87586D01*
X13820Y87677D01*
X13725Y87742D01*
X13617Y87781D01*
X13496Y87794D01*
X16036D01*
X15915Y87781D01*
D02*
G37*
G36*
X30314Y85221D02*
X30680Y84924D01*
X30862Y84803D01*
X31042Y84701D01*
X31221Y84618D01*
X31399Y84552D01*
X31575Y84506D01*
X31751Y84478D01*
X31925Y84469D01*
X28333D01*
X28500Y84478D01*
X28630Y84506D01*
X28723Y84552D01*
X28778Y84618D01*
X28797Y84701D01*
X28778Y84803D01*
X28723Y84924D01*
X28630Y85063D01*
X28500Y85221D01*
X28333Y85398D01*
X30129D01*
X30314Y85221D01*
D02*
G37*
G36*
X15407Y85520D02*
X15426Y85297D01*
X15458Y85101D01*
X15502Y84930D01*
X15559Y84785D01*
X15628Y84667D01*
X15710Y84575D01*
X15805Y84509D01*
X15912Y84469D01*
X16032Y84455D01*
X13496Y84469D01*
X13617Y84481D01*
X13725Y84520D01*
X13820Y84585D01*
X13902Y84675D01*
X13972Y84792D01*
X14029Y84936D01*
X14074Y85105D01*
X14106Y85300D01*
X14125Y85522D01*
X14131Y85770D01*
X15401D01*
X15407Y85520D01*
D02*
G37*
D10*
X35550Y320600D02*
X59400D01*
X32000Y324150D02*
X35550Y320600D01*
X97824Y220328D02*
X103598Y226101D01*
Y228485D02*
X104985Y229873D01*
X103598Y226101D02*
Y228485D01*
X92728Y220328D02*
X97824D01*
X89500Y217100D02*
X92728Y220328D01*
X89500Y213614D02*
Y217100D01*
X84500Y204850D02*
Y215668D01*
X76433Y223735D02*
Y229855D01*
Y223735D02*
X84500Y215668D01*
X76433Y229855D02*
Y239997D01*
X66806Y224281D02*
X79500Y211587D01*
Y204850D02*
Y211587D01*
X66806Y224281D02*
Y239078D01*
X144532Y136079D02*
X144915Y135696D01*
X144532Y136079D02*
Y138339D01*
X144000Y138871D02*
X144532Y138339D01*
X33800Y176000D02*
X41300Y168500D01*
X51500D01*
X43600Y184000D02*
X54100Y173500D01*
X63150D01*
X22000Y176000D02*
X33800D01*
X26800Y151000D02*
X34800D01*
X35800Y152000D02*
Y152200D01*
X47100Y163500D01*
X63150D01*
X34800Y151000D02*
X35800Y152000D01*
X51500Y168500D02*
X63150D01*
X75606Y240078D02*
X76606Y239078D01*
X75606Y240078D02*
Y247317D01*
X89500Y204850D02*
Y213614D01*
X94488D01*
X17599Y230401D02*
X37495D01*
X12380Y235620D02*
X17599Y230401D01*
X12380Y235620D02*
Y279000D01*
X165096Y230100D02*
X165152D01*
X187000Y251948D01*
Y279000D01*
X47968Y231146D02*
X61976Y217138D01*
X47714Y231400D02*
X47968Y231146D01*
Y231146D02*
Y231146D01*
X61976Y209517D02*
Y217138D01*
Y209517D02*
X64520Y206973D01*
X66806Y239078D02*
Y248317D01*
X104394Y115577D02*
Y116287D01*
X101092Y112275D02*
X104394Y115577D01*
X63150Y198500D02*
X64170D01*
X64520Y198850D02*
Y206973D01*
X64170Y198500D02*
X64520Y198850D01*
X94318Y124822D02*
X113318D01*
X101092Y112154D02*
Y112275D01*
X94169Y112225D02*
Y115531D01*
X94500Y127100D02*
X95000Y126600D01*
X94500Y127100D02*
Y137150D01*
X130850Y188500D02*
X135900D01*
X145000Y197600D01*
X42838Y192667D02*
Y210000D01*
X54500Y178500D02*
X66378D01*
X48897Y184103D02*
Y187370D01*
Y184103D02*
X54500Y178500D01*
X43600Y192667D02*
X48897Y187370D01*
X155000Y188400D02*
X155093Y188307D01*
X53995Y96789D02*
X54000Y96784D01*
X104500Y204850D02*
Y217338D01*
X109500Y222338D01*
Y204850D02*
Y222338D01*
X117162Y230000D01*
X126642D01*
X136122D01*
X117162Y239200D02*
X119025D01*
X118994Y239232D02*
X119025Y239200D01*
X145000Y197600D02*
X155000D01*
D13*
X165124Y220743D02*
Y220872D01*
Y220743D02*
X168000Y217867D01*
X159586Y226409D02*
X165124Y220872D01*
X168000Y213647D02*
Y217867D01*
X143584Y148500D02*
X144000Y148084D01*
X52050Y311210D02*
X52240Y311400D01*
X59400D01*
X119393Y311113D02*
X119680Y311400D01*
X128400D01*
X192347Y311147D02*
X192600Y311400D01*
X186326Y310894D02*
X186579Y311147D01*
X192347D01*
X144000Y148084D02*
X144316Y148400D01*
X158640Y135472D02*
X158904Y135736D01*
X185704D01*
X158635Y158127D02*
Y158357D01*
X139894Y165208D02*
X148793D01*
X130850Y153500D02*
X144396D01*
X138126Y166976D02*
X138126D01*
X137971Y160625D02*
X138501D01*
X144396Y153500D02*
X147705Y156809D01*
X138126Y166976D02*
X139894Y165208D01*
X136682Y168420D02*
X138126Y166976D01*
X130930Y168420D02*
X136682D01*
X185704Y135736D02*
X185968Y136000D01*
X118555Y96655D02*
X123095Y92115D01*
Y91231D02*
Y92115D01*
Y91231D02*
X123375Y90951D01*
X66806Y256517D02*
X75606D01*
X95230Y239771D02*
Y248853D01*
X80000Y264083D02*
X95230Y248853D01*
Y239771D02*
X96000Y239000D01*
X80000Y264083D02*
Y279000D01*
X159586Y226409D02*
Y239414D01*
X52033Y254033D02*
Y278807D01*
X52000Y279000D02*
X52033Y278967D01*
Y278807D02*
Y278967D01*
X47206Y249206D02*
X52033Y254033D01*
X8114Y201330D02*
X14692D01*
X8110Y201326D02*
X8114Y201330D01*
X14692D02*
X14696Y201333D01*
X47206Y239584D02*
Y249206D01*
X147380Y251620D02*
X159586Y239414D01*
X147380Y251620D02*
Y278790D01*
X137605Y237184D02*
Y237588D01*
X144836Y230164D02*
X144892Y230108D01*
Y221508D02*
Y230108D01*
X136122Y238878D02*
X136316D01*
X136122Y239122D02*
Y239200D01*
X144892Y221508D02*
X144952Y221448D01*
X137605Y237184D02*
X144625Y230164D01*
X144836D01*
X136316Y238878D02*
X137605Y237588D01*
X136000Y239000D02*
X136122Y239122D01*
X127778Y105984D02*
X137000D01*
X118555D02*
X127778D01*
X53053Y134397D02*
X55450Y132000D01*
X53053Y134397D02*
Y137531D01*
X51444Y139140D02*
X53053Y137531D01*
X41200Y139140D02*
X51444D01*
X22287Y127646D02*
Y136890D01*
X15829Y125798D02*
Y133882D01*
X13087Y136624D02*
Y136890D01*
Y136624D02*
X15829Y133882D01*
X22319Y136161D02*
Y142969D01*
X22352Y143002D02*
X37338D01*
X22319Y142969D02*
X22352Y143002D01*
X37338D02*
X41200Y139140D01*
X190478Y74748D02*
Y77716D01*
X184796Y69066D02*
X190478Y74748D01*
Y77716D02*
X190562Y77800D01*
X38500Y239500D02*
X47122D01*
X38251Y239749D02*
X38500Y239500D01*
X145400Y213000D02*
X145791Y212609D01*
Y207529D02*
X146189Y207130D01*
X145791Y207529D02*
Y212609D01*
X146189Y206735D02*
Y207130D01*
X127079Y213000D02*
X145400D01*
X124500Y204850D02*
Y210421D01*
X127079Y213000D01*
X135176Y163420D02*
X137971Y160625D01*
X130930Y163420D02*
X135176D01*
X130850Y163500D02*
X130930Y163420D01*
X130850Y168500D02*
X130930Y168420D01*
X119025Y239200D02*
X124642D01*
X114500Y77500D02*
Y91617D01*
X127448Y221448D02*
X144952D01*
X119500Y213500D02*
X127448Y221448D01*
X119500Y204850D02*
Y213500D01*
X190562Y77800D02*
Y81784D01*
X39016Y105984D02*
X54000D01*
X63150Y132150D02*
Y143500D01*
X63000Y132000D02*
X63150Y132150D01*
X55450Y132000D02*
X63000D01*
X69000Y126000D01*
X69500Y126500D02*
Y137150D01*
X69000Y126000D02*
X69500Y126500D01*
X72720Y89789D02*
Y96508D01*
Y89789D02*
X76500Y86009D01*
Y77500D02*
Y86009D01*
X93395Y79605D02*
Y85097D01*
X83062Y95430D02*
X93395Y85097D01*
X109333Y96784D02*
X114500Y91617D01*
X54000Y96784D02*
X63222D01*
X83062Y94922D02*
Y95385D01*
X93395Y79605D02*
X95500Y77500D01*
X81462Y96984D02*
X83062Y95385D01*
X63222Y105984D02*
X63461Y106223D01*
X63222Y105984D02*
X72444D01*
X81667D01*
D21*
X192600Y320600D02*
D03*
Y311400D02*
D03*
X128400Y320600D02*
D03*
Y311400D02*
D03*
X75606Y256517D02*
D03*
Y247317D02*
D03*
X37495Y230401D02*
D03*
Y239601D02*
D03*
X66806Y247317D02*
D03*
Y256517D02*
D03*
X47206Y230384D02*
D03*
Y239584D02*
D03*
X59400Y320600D02*
D03*
Y311400D02*
D03*
X95230Y230000D02*
D03*
Y239200D02*
D03*
X117162Y230000D02*
D03*
Y239200D02*
D03*
X126642Y230000D02*
D03*
Y239200D02*
D03*
X104858D02*
D03*
Y230000D02*
D03*
X136122Y239200D02*
D03*
Y230000D02*
D03*
X69000Y116800D02*
D03*
Y126000D02*
D03*
X104318Y124822D02*
D03*
Y115622D02*
D03*
X94318Y124822D02*
D03*
Y115622D02*
D03*
X113318Y124822D02*
D03*
Y115622D02*
D03*
X144000Y138884D02*
D03*
Y148084D02*
D03*
X90889Y96784D02*
D03*
Y105984D02*
D03*
X118555Y96784D02*
D03*
Y105984D02*
D03*
X63222Y96784D02*
D03*
Y105984D02*
D03*
X165124Y230072D02*
D03*
Y220872D02*
D03*
X72444Y96784D02*
D03*
Y105984D02*
D03*
X81667Y96784D02*
D03*
Y105984D02*
D03*
X100111D02*
D03*
Y96784D02*
D03*
X109333Y105984D02*
D03*
Y96784D02*
D03*
X127778Y105984D02*
D03*
Y96784D02*
D03*
X137000D02*
D03*
Y105984D02*
D03*
X158046Y79684D02*
D03*
Y88884D02*
D03*
X54000Y105984D02*
D03*
Y96784D02*
D03*
X145000Y197600D02*
D03*
Y188400D02*
D03*
X155000Y197600D02*
D03*
Y188400D02*
D03*
D23*
X76606Y239078D02*
D03*
X85806D02*
D03*
X76606Y229855D02*
D03*
X85806D02*
D03*
X57606D02*
D03*
X66806D02*
D03*
Y239078D02*
D03*
X57606D02*
D03*
X33638Y201333D02*
D03*
X42838D02*
D03*
X23896Y192667D02*
D03*
X14696D02*
D03*
Y210000D02*
D03*
X23896D02*
D03*
X33638Y192667D02*
D03*
X42838D02*
D03*
X14696Y201333D02*
D03*
X23896D02*
D03*
X33638Y184000D02*
D03*
X42838D02*
D03*
X144892Y229897D02*
D03*
X154092D02*
D03*
X154600Y213000D02*
D03*
X145400D02*
D03*
X144892Y221418D02*
D03*
X154092D02*
D03*
X33638Y210000D02*
D03*
X42838D02*
D03*
X22287Y136890D02*
D03*
X13087D02*
D03*
X186372Y106224D02*
D03*
X177172D02*
D03*
X175596Y69066D02*
D03*
X184796D02*
D03*
X23966Y90662D02*
D03*
X14766D02*
D03*
D41*
X167000Y324150D02*
D03*
X100000D02*
D03*
X32000D02*
D03*
D42*
X167000Y275850D02*
D03*
X100000D02*
D03*
X32000D02*
D03*
D76*
X121350Y119250D02*
G03*
X126782Y117000I5432J5432D01*
G01*
X120155Y125984D02*
G03*
X121243Y123358I3714J0D01*
G01*
X121824Y122777D02*
G03*
X123219Y122200I1396J1400D01*
G01*
X121822Y122779D02*
G03*
X121824Y122777I1398J1398D01*
G01*
X120155Y127522D02*
G03*
X119482Y129142I-2286J0D01*
G01*
X117869Y126214D02*
G03*
X116950Y128441I-3159J0D01*
G01*
X117869Y124446D02*
G03*
X117870Y124370I2286J0D01*
G01*
D02*
G03*
X119100Y121500I4203J102D01*
G01*
X115924Y129467D02*
G03*
X113587Y130435I-2337J-2337D01*
G01*
X116937Y128454D02*
G03*
X116920Y128471I-2227J-2240D01*
G01*
X116950Y128441D02*
G03*
X116937Y128454I-2240J-2227D01*
G01*
X110297Y131230D02*
G03*
X112218Y130435I1921J1923D01*
G01*
X109500Y133153D02*
G03*
X110296Y131231I2718J0D01*
G01*
D02*
G03*
X110297Y131230I1922J1922D01*
G01*
X114786Y134042D02*
G03*
X114894Y133509I16732J3108D01*
G01*
X116576Y132049D02*
G03*
X115705Y132595I-1620J-1613D01*
G01*
X114894Y133509D02*
G03*
X115705Y132595I1238J282D01*
G01*
X171009Y208545D02*
X172155Y209691D01*
X159055Y208545D02*
X171009D01*
X172155Y209691D02*
Y223041D01*
X154600Y213000D02*
X159055Y208545D01*
X103550Y320600D02*
X128400D01*
X170550Y320600D02*
X192600D01*
X29708Y294996D02*
X31127Y293576D01*
Y276723D02*
Y293576D01*
X26050Y294996D02*
X29708D01*
X31127Y276723D02*
X32000Y275850D01*
X14221Y294996D02*
X21780D01*
X100000Y275850D02*
Y293755D01*
X99256Y294499D02*
X100000Y293755D01*
X95991Y294499D02*
X99256D01*
X68297D02*
X91721D01*
X68274Y294522D02*
X68297Y294499D01*
X166256Y294927D02*
X167000Y294183D01*
X163637Y294927D02*
X166256D01*
X167000Y275850D02*
Y294183D01*
X144425Y294951D02*
X144449Y294927D01*
X159367D01*
X62157Y288405D02*
X68274Y294522D01*
X102022Y236837D02*
X104385Y239200D01*
X98021Y233647D02*
X101211Y236837D01*
X95230Y230217D02*
X98021Y233009D01*
X95230Y230000D02*
Y230217D01*
X101211Y236837D02*
X102022D01*
X98021Y233009D02*
Y233647D01*
X104858Y239200D02*
Y245858D01*
X126782Y117000D02*
X148600D01*
X119100Y121500D02*
X121350Y119250D01*
X123219Y122200D02*
X133197D01*
X121243Y123358D02*
X121822Y122779D01*
X120155Y125984D02*
Y127522D01*
X117869Y124446D02*
Y126214D01*
X116897Y128495D02*
X116920Y128471D01*
X115924Y129467D02*
X116897Y128495D01*
X112218Y130435D02*
X113587D01*
X109500Y133153D02*
Y137150D01*
X114786Y134042D02*
Y134052D01*
X114500Y137150D02*
X114786Y134052D01*
X116576Y132049D02*
X119482Y129142D01*
X99318Y296808D02*
X100061Y297552D01*
X67274Y296808D02*
X99318D01*
X100061Y297552D02*
Y303939D01*
X28000Y304000D02*
X28618Y303382D01*
X30003D02*
X31105Y302281D01*
Y298472D02*
Y302281D01*
X28618Y303382D02*
X30003D01*
X29991Y297358D02*
X31105Y298472D01*
X13350Y297358D02*
X29991D01*
X59714Y289247D02*
X67274Y296808D01*
X59714Y250710D02*
Y289247D01*
X134714Y288473D02*
X143478Y297237D01*
X166527D01*
X134714Y268714D02*
Y288473D01*
X110325Y244325D02*
X134714Y268714D01*
X167000Y304000D02*
X167271Y303729D01*
Y297981D02*
Y303729D01*
X166527Y297237D02*
X167271Y297981D01*
X137000Y287526D02*
X144425Y294951D01*
X137000Y266723D02*
Y287526D01*
X23896Y201333D02*
Y219104D01*
X46000Y223000D02*
X53533Y215467D01*
X23896Y219104D02*
X27792Y223000D01*
X46000D01*
X17714Y225286D02*
X47714D01*
X8225Y234775D02*
X17714Y225286D01*
X47714D02*
X56021Y216979D01*
X33583Y215809D02*
X33610Y215781D01*
Y210790D02*
Y215781D01*
Y210790D02*
X34271Y210129D01*
X62157Y221815D02*
Y288405D01*
X8225Y289000D02*
X14221Y294996D01*
X5939Y289947D02*
X13350Y297358D01*
X5939Y232061D02*
Y289947D01*
X57295Y193500D02*
X65226D01*
X53533Y185670D02*
Y215467D01*
X55702Y183500D02*
X63150D01*
X56021Y194774D02*
Y216979D01*
X53533Y185670D02*
X55702Y183500D01*
X56021Y194774D02*
X57295Y193500D01*
X153433Y161053D02*
X179200Y186820D01*
Y208400D01*
X158959Y129505D02*
X177172Y111292D01*
X140502Y129505D02*
X158959D01*
X133197Y122200D02*
X140502Y129505D01*
X140222Y156470D02*
X144806Y161053D01*
X153433D01*
X135367Y156470D02*
X140222D01*
X132344Y137150D02*
X137703Y131791D01*
X124500Y137150D02*
X132344D01*
X137703Y131791D02*
X148596D01*
X157394Y140589D01*
X119500Y134664D02*
X124191Y129973D01*
Y129457D02*
Y129973D01*
X119500Y134664D02*
Y137150D01*
X116641Y115790D02*
X116809Y115958D01*
X114928Y115790D02*
X116641D01*
X164973Y140589D02*
X173884Y149500D01*
X157394Y140589D02*
X164973D01*
X173884Y149500D02*
X185968D01*
X177172Y106224D02*
Y111292D01*
X114500Y134700D02*
Y137150D01*
X105735Y130992D02*
X105855Y131112D01*
X104500Y134664D02*
X105855Y133309D01*
X104500Y134664D02*
Y137150D01*
X105855Y131112D02*
Y133309D01*
X148600Y117000D02*
X157000Y108600D01*
Y96800D02*
Y108600D01*
X40850Y150236D02*
X47586Y156972D01*
X51666D01*
X40850Y149904D02*
Y150236D01*
X141891Y178050D02*
X145131Y181290D01*
X131300Y178050D02*
X141891D01*
X145131Y181290D02*
X152291D01*
X62157Y221815D02*
X69500Y214472D01*
X14696Y210000D02*
Y223304D01*
X5939Y232061D02*
X14696Y223304D01*
X8225Y234775D02*
Y289000D01*
X57606Y248602D02*
X59714Y250710D01*
X57606Y239078D02*
Y248602D01*
X165124Y230072D02*
X172155Y223041D01*
X104858Y245858D02*
X119620Y260620D01*
Y278380D01*
X100307Y232701D02*
X102157Y234551D01*
X100307Y227826D02*
Y232701D01*
X102157Y234551D02*
X107460D01*
X110325Y237416D01*
X99500Y216848D02*
X112611Y229959D01*
Y242334D01*
X104385Y239200D02*
X104858D01*
X110325Y237416D02*
Y244325D01*
X97930Y225449D02*
X100307Y227826D01*
X85806Y229855D02*
X90212Y225449D01*
X112611Y242334D02*
X137000Y266723D01*
X90212Y225449D02*
X97930D01*
X161827Y326200D02*
X167000Y321027D01*
Y315186D02*
Y321027D01*
Y324150D02*
X170550Y320600D01*
X100000Y324150D02*
X103550Y320600D01*
X164084Y312270D02*
X167000Y315186D01*
X74500Y113031D02*
Y137150D01*
X41253Y110705D02*
X72174D01*
X74500Y113031D01*
X35466Y116491D02*
X41253Y110705D01*
X180222Y88338D02*
X180276Y88392D01*
X170600Y88338D02*
X180222D01*
X170546Y88284D02*
X170600Y88338D01*
X159662Y88284D02*
X170546D01*
X161162Y81784D02*
X180276D01*
X30898Y82096D02*
Y83730D01*
X22332Y92296D02*
X23966Y90662D01*
X30898Y83730D01*
X14766Y79836D02*
Y90662D01*
X12430Y77500D02*
X14766Y79836D01*
X22332Y92296D02*
Y99351D01*
X31014Y122627D02*
X33179Y120462D01*
Y118778D02*
Y120462D01*
Y118778D02*
X35466Y116491D01*
X35466D01*
X12932Y122627D02*
X31014D01*
X9332Y125911D02*
Y127601D01*
X10407Y125151D02*
X12932Y122627D01*
X9332Y125911D02*
X10092Y125151D01*
X10407D01*
X30898Y82096D02*
X35494Y77500D01*
X28829Y99568D02*
X38862D01*
X14766Y90662D02*
X15829Y91725D01*
Y99351D01*
X184333Y103938D02*
X187388D01*
X172702Y95924D02*
X176318D01*
X171562Y94784D02*
X172702Y95924D01*
X176318D02*
X184333Y103938D01*
X172398Y163000D02*
X185968D01*
X133336Y158500D02*
X135367Y156470D01*
X130850Y158500D02*
X133336D01*
X69500Y204850D02*
Y214472D01*
X99500Y204850D02*
Y216848D01*
X150049Y217375D02*
X154092Y221418D01*
X150049Y207329D02*
Y217375D01*
X165096Y230100D02*
X165124Y230072D01*
X165096Y230100D02*
Y230100D01*
X114004Y101335D02*
X118555Y96784D01*
X93589Y101335D02*
X114004D01*
X118555Y96655D02*
Y96784D01*
X159353Y174228D02*
X159484D01*
X152291Y181290D02*
X159353Y174228D01*
X99493Y130650D02*
Y137143D01*
X99486Y130643D02*
X99493Y130650D01*
Y137143D02*
X99500Y137150D01*
X130850Y178500D02*
X131300Y178050D01*
X54112Y150385D02*
X55998Y148500D01*
X54112Y150385D02*
Y154525D01*
X55998Y148500D02*
X63150D01*
X51666Y156972D02*
X54112Y154525D01*
X155000Y197600D02*
Y202378D01*
X150049Y207329D02*
X155000Y202378D01*
X100111Y101127D02*
X100192Y101208D01*
X58649Y101335D02*
X93462D01*
X72444Y96784D02*
Y101208D01*
X54000Y105984D02*
X58649Y101335D01*
X130850Y143500D02*
X152898D01*
X172398Y163000D01*
X23896Y192667D02*
Y201333D01*
X39000Y106000D02*
X39016Y105984D01*
X72444Y96784D02*
X72720Y96508D01*
X100111Y96784D02*
Y101127D01*
X159062Y79684D02*
X161162Y81784D01*
X159062Y88884D02*
X159662Y88284D01*
D77*
X140892Y180463D02*
X144132Y183703D01*
X158814Y181083D02*
X159484D01*
X136337Y180463D02*
X140892D01*
X144132Y183703D02*
X156195D01*
X158814Y181083D01*
X133300Y183500D02*
X136337Y180463D01*
X130850Y183500D02*
X133300D01*
X84500Y112881D02*
X90889Y106492D01*
X84500Y112881D02*
Y137150D01*
X81667Y107000D02*
Y114675D01*
X79500Y116842D02*
X81667Y114675D01*
X79500Y116842D02*
Y137150D01*
D79*
X144316Y148400D02*
X148908D01*
X158635Y158127D01*
D81*
X170000Y395000D02*
D03*
X100000D02*
D03*
X30000D02*
D03*
D82*
X168000Y213647D02*
D03*
X85000Y316000D02*
D03*
X90000D02*
D03*
X95000D02*
D03*
X100000D02*
D03*
X105000D02*
D03*
X110000D02*
D03*
X49252Y211639D02*
D03*
X179200Y208400D02*
D03*
X147705Y156809D02*
D03*
X141675Y170201D02*
D03*
X138501Y160625D02*
D03*
X148793Y165208D02*
D03*
X124191Y129457D02*
D03*
X132600Y129200D02*
D03*
X157000Y96800D02*
D03*
X49105Y151876D02*
D03*
X139118Y184745D02*
D03*
X146852Y177135D02*
D03*
X66806Y256517D02*
D03*
X52033Y278807D02*
D03*
X80000Y279000D02*
D03*
X12380D02*
D03*
X43230Y363496D02*
D03*
X53230Y353496D02*
D03*
X48230D02*
D03*
X28230Y363496D02*
D03*
X18230D02*
D03*
X53230D02*
D03*
X48230D02*
D03*
X38230D02*
D03*
X33230D02*
D03*
X53230Y358496D02*
D03*
X43230D02*
D03*
X48230D02*
D03*
X43230Y353496D02*
D03*
X23230Y363496D02*
D03*
X13230D02*
D03*
X18230Y358496D02*
D03*
Y353496D02*
D03*
X13230Y358496D02*
D03*
Y353496D02*
D03*
X33230Y358496D02*
D03*
Y353496D02*
D03*
X23230D02*
D03*
Y358496D02*
D03*
X28230D02*
D03*
Y353496D02*
D03*
X38230Y358496D02*
D03*
Y353496D02*
D03*
X120283Y363496D02*
D03*
X115283D02*
D03*
X110283D02*
D03*
X105283D02*
D03*
X95283D02*
D03*
X85283D02*
D03*
X100283D02*
D03*
X90283D02*
D03*
X80283D02*
D03*
X120283Y358496D02*
D03*
X115283D02*
D03*
X110283D02*
D03*
X105283D02*
D03*
X100283D02*
D03*
X95283D02*
D03*
X90283D02*
D03*
X85283D02*
D03*
X80283D02*
D03*
X120283Y353496D02*
D03*
X115283D02*
D03*
X100283D02*
D03*
X95283D02*
D03*
X90283D02*
D03*
X80283D02*
D03*
X105283D02*
D03*
X110283D02*
D03*
X85283D02*
D03*
X147230Y363496D02*
D03*
X167230D02*
D03*
X157230D02*
D03*
X187230D02*
D03*
X182230D02*
D03*
X177230D02*
D03*
X172230D02*
D03*
X162230D02*
D03*
X152230D02*
D03*
X187230Y358496D02*
D03*
X182230D02*
D03*
X177230D02*
D03*
X172230D02*
D03*
X167230D02*
D03*
X162230D02*
D03*
X157230D02*
D03*
X152230D02*
D03*
X147230D02*
D03*
X162230Y353496D02*
D03*
X167230D02*
D03*
X177230D02*
D03*
X182230D02*
D03*
X187230D02*
D03*
X157230D02*
D03*
X152230D02*
D03*
X147230D02*
D03*
X172230D02*
D03*
X187000Y279000D02*
D03*
X119620D02*
D03*
X186326Y310894D02*
D03*
X147380Y278790D02*
D03*
X119393Y311113D02*
D03*
X52050Y311210D02*
D03*
X167000Y304000D02*
D03*
X152000Y316000D02*
D03*
X162000D02*
D03*
X147000D02*
D03*
X162000Y304000D02*
D03*
X172000Y310000D02*
D03*
X177000Y316000D02*
D03*
X152000Y310000D02*
D03*
X172000Y304000D02*
D03*
X157000Y310000D02*
D03*
X177000Y304000D02*
D03*
X162000Y310000D02*
D03*
X157000Y304000D02*
D03*
X167000Y310000D02*
D03*
X157000Y316000D02*
D03*
X152000Y304000D02*
D03*
X177000Y310000D02*
D03*
X147000Y304000D02*
D03*
Y310000D02*
D03*
X172000Y316000D02*
D03*
X167000D02*
D03*
X38000D02*
D03*
X13000D02*
D03*
X18000D02*
D03*
X23000D02*
D03*
X43000D02*
D03*
X33000D02*
D03*
X28000D02*
D03*
X28000Y310000D02*
D03*
X33000D02*
D03*
X43000D02*
D03*
X23000D02*
D03*
X18000D02*
D03*
X13000D02*
D03*
X38000D02*
D03*
X28000Y304000D02*
D03*
X33000D02*
D03*
X43000D02*
D03*
X23000D02*
D03*
X18000D02*
D03*
X13000D02*
D03*
X38000D02*
D03*
X80000Y316000D02*
D03*
X95000Y310000D02*
D03*
X100000D02*
D03*
X110000D02*
D03*
X90000D02*
D03*
X85000D02*
D03*
X80000D02*
D03*
X105000D02*
D03*
X95000Y304000D02*
D03*
X100000D02*
D03*
X110000D02*
D03*
X90000D02*
D03*
X85000D02*
D03*
X80000D02*
D03*
X105000D02*
D03*
X117000Y16004D02*
D03*
X28956Y132334D02*
D03*
X36001Y50001D02*
D03*
X26001D02*
D03*
X16001D02*
D03*
X6001Y170001D02*
D03*
Y150001D02*
D03*
X11001Y60001D02*
D03*
X6001Y50001D02*
D03*
X172230Y369496D02*
D03*
X49249Y194362D02*
D03*
X46275Y143930D02*
D03*
X99486Y130643D02*
D03*
X54102Y143256D02*
D03*
X60000Y16254D02*
D03*
X79000Y16004D02*
D03*
X98000D02*
D03*
X169314Y39000D02*
D03*
Y31000D02*
D03*
X176314D02*
D03*
X183314Y23000D02*
D03*
Y15000D02*
D03*
X176314D02*
D03*
Y23000D02*
D03*
X190314Y15000D02*
D03*
X190314Y39000D02*
D03*
X176314Y7000D02*
D03*
X190314Y31000D02*
D03*
X169814Y7000D02*
D03*
X190314D02*
D03*
X183314Y31000D02*
D03*
X183314Y7000D02*
D03*
X183314Y39000D02*
D03*
X169314Y15000D02*
D03*
X190314Y23000D02*
D03*
X169314D02*
D03*
X176314Y39000D02*
D03*
X179000Y388000D02*
D03*
Y402500D02*
D03*
X170000D02*
D03*
X152000D02*
D03*
X188000D02*
D03*
X179000Y395000D02*
D03*
X161000Y402500D02*
D03*
X152000Y395000D02*
D03*
X188000D02*
D03*
X170000Y388000D02*
D03*
X161000Y395000D02*
D03*
X188000Y388000D02*
D03*
X161000D02*
D03*
X152000D02*
D03*
X100000D02*
D03*
X82000Y402500D02*
D03*
X118000D02*
D03*
X109000Y395000D02*
D03*
X91000Y402500D02*
D03*
X82000Y395000D02*
D03*
X118000D02*
D03*
X109000Y388000D02*
D03*
X91000Y395000D02*
D03*
X82000Y388000D02*
D03*
X118000D02*
D03*
X91000D02*
D03*
X109000Y402500D02*
D03*
X100000D02*
D03*
X147230Y369496D02*
D03*
X152230D02*
D03*
X157230D02*
D03*
X187230D02*
D03*
X182230D02*
D03*
X177230D02*
D03*
X167230D02*
D03*
X162230D02*
D03*
X147230Y374496D02*
D03*
X152230D02*
D03*
X157230D02*
D03*
X162230D02*
D03*
X167230D02*
D03*
X172230D02*
D03*
X177230D02*
D03*
X182230D02*
D03*
X187230D02*
D03*
X152230Y379496D02*
D03*
X162230D02*
D03*
X172230D02*
D03*
X177230D02*
D03*
X182230D02*
D03*
X187230D02*
D03*
X157230D02*
D03*
X167230D02*
D03*
X147230D02*
D03*
X85283Y369496D02*
D03*
X110283D02*
D03*
X105283D02*
D03*
X80283D02*
D03*
X90283D02*
D03*
X95283D02*
D03*
X100283D02*
D03*
X115283D02*
D03*
X120283D02*
D03*
X80283Y374496D02*
D03*
X85283D02*
D03*
X90283D02*
D03*
X95283D02*
D03*
X100283D02*
D03*
X105283D02*
D03*
X110283D02*
D03*
X115283D02*
D03*
X120283D02*
D03*
X80283Y379496D02*
D03*
X90283D02*
D03*
X100283D02*
D03*
X85283D02*
D03*
X95283D02*
D03*
X105283D02*
D03*
X110283D02*
D03*
X115283D02*
D03*
X120283D02*
D03*
X38230Y369496D02*
D03*
Y374496D02*
D03*
X28230Y369496D02*
D03*
Y374496D02*
D03*
X23230D02*
D03*
Y369496D02*
D03*
X33230D02*
D03*
Y374496D02*
D03*
X13230Y369496D02*
D03*
Y374496D02*
D03*
X18230Y369496D02*
D03*
Y374496D02*
D03*
X13230Y379496D02*
D03*
X23230D02*
D03*
X43230Y369496D02*
D03*
X48230Y374496D02*
D03*
X43230D02*
D03*
X53230D02*
D03*
X33230Y379496D02*
D03*
X38230D02*
D03*
X48230D02*
D03*
X53230D02*
D03*
X18230D02*
D03*
X28230D02*
D03*
X48230Y369496D02*
D03*
X9294Y39000D02*
D03*
Y23000D02*
D03*
Y31000D02*
D03*
Y7000D02*
D03*
Y15000D02*
D03*
X16294Y7000D02*
D03*
Y15000D02*
D03*
Y23000D02*
D03*
Y31000D02*
D03*
Y39000D02*
D03*
X23294Y7000D02*
D03*
Y15000D02*
D03*
Y23000D02*
D03*
Y31000D02*
D03*
Y39000D02*
D03*
X30294Y7000D02*
D03*
Y15000D02*
D03*
Y23000D02*
D03*
Y31000D02*
D03*
Y39000D02*
D03*
X53230Y369496D02*
D03*
X43230Y379496D02*
D03*
X30000Y388000D02*
D03*
Y402500D02*
D03*
X48000D02*
D03*
Y395000D02*
D03*
Y388000D02*
D03*
X39000Y402500D02*
D03*
Y395000D02*
D03*
Y388000D02*
D03*
X21000Y402500D02*
D03*
Y395000D02*
D03*
Y388000D02*
D03*
X12000Y402500D02*
D03*
Y388000D02*
D03*
Y395000D02*
D03*
D83*
X33583Y215809D02*
D03*
X158640Y135472D02*
D03*
X158635Y158357D02*
D03*
X144915Y135696D02*
D03*
X147008Y125600D02*
D03*
X116809Y115958D02*
D03*
X105735Y130992D02*
D03*
X40402Y177945D02*
D03*
X45200Y174800D02*
D03*
X40850Y149904D02*
D03*
X159484Y181083D02*
D03*
X128071Y112154D02*
D03*
X123375Y90951D02*
D03*
X60250Y203466D02*
D03*
X94488Y213614D02*
D03*
X8110Y201326D02*
D03*
X5842Y187706D02*
D03*
X136000Y239000D02*
D03*
X157763Y68820D02*
D03*
X180276Y88392D02*
D03*
Y81784D02*
D03*
X22352Y143002D02*
D03*
X143256Y62484D02*
D03*
X38862Y99568D02*
D03*
X34798Y87770D02*
D03*
X129120Y203120D02*
D03*
X146189Y206735D02*
D03*
X61976Y209517D02*
D03*
X18400Y62400D02*
D03*
X68485Y67705D02*
D03*
X73152Y64770D02*
D03*
X4672Y88314D02*
D03*
X5864Y180271D02*
D03*
X8446Y163983D02*
D03*
X17587Y109702D02*
D03*
X37084Y120396D02*
D03*
X39000Y106000D02*
D03*
X81850Y177326D02*
D03*
Y171944D02*
D03*
Y182709D02*
D03*
Y188105D02*
D03*
X88554Y171944D02*
D03*
Y182709D02*
D03*
X96279Y66293D02*
D03*
X150216Y62642D02*
D03*
X157763D02*
D03*
X190562Y77800D02*
D03*
X88554Y177326D02*
D03*
X94169Y112225D02*
D03*
X95257Y182723D02*
D03*
Y171958D02*
D03*
Y177340D02*
D03*
X101092Y112154D02*
D03*
X101961Y182709D02*
D03*
Y171944D02*
D03*
Y177326D02*
D03*
X115459Y164194D02*
D03*
X121504Y164442D02*
D03*
X159484Y174228D02*
D03*
X81850Y193487D02*
D03*
X88554D02*
D03*
Y188105D02*
D03*
X95257Y193487D02*
D03*
Y188105D02*
D03*
X101961Y193487D02*
D03*
Y188105D02*
D03*
D84*
X163637Y294927D02*
D03*
X159367D02*
D03*
X91721Y294499D02*
D03*
X95991D02*
D03*
X26050Y294996D02*
D03*
X21780D02*
D03*
D85*
X74500Y204850D02*
D03*
X99500Y137150D02*
D03*
X104500D02*
D03*
X114500Y204850D02*
D03*
X109500D02*
D03*
X104500D02*
D03*
X99500D02*
D03*
X114500Y137150D02*
D03*
X79500Y204850D02*
D03*
X109500Y137150D02*
D03*
X84500Y204850D02*
D03*
X124500D02*
D03*
X89500D02*
D03*
X79500Y137150D02*
D03*
X84500D02*
D03*
X124500D02*
D03*
X89500D02*
D03*
X74500D02*
D03*
D86*
X63150Y188500D02*
D03*
Y158500D02*
D03*
Y143500D02*
D03*
Y153500D02*
D03*
Y168500D02*
D03*
Y198500D02*
D03*
Y193500D02*
D03*
Y183500D02*
D03*
Y173500D02*
D03*
Y148500D02*
D03*
Y178500D02*
D03*
D87*
X130850Y193500D02*
D03*
Y148500D02*
D03*
Y198500D02*
D03*
Y183500D02*
D03*
Y153500D02*
D03*
Y168500D02*
D03*
Y173500D02*
D03*
Y188500D02*
D03*
Y143500D02*
D03*
Y178500D02*
D03*
Y158500D02*
D03*
D88*
X119500Y204850D02*
D03*
X69500Y137150D02*
D03*
X94500Y204850D02*
D03*
X69500D02*
D03*
X94500Y137150D02*
D03*
X119500D02*
D03*
D89*
X63150Y163500D02*
D03*
D90*
X130850D02*
D03*
D91*
X55450Y132000D02*
D03*
X40550D02*
D03*
D92*
X26800Y163000D02*
D03*
Y175000D02*
D03*
Y151000D02*
D03*
D93*
X133500Y77500D02*
D03*
X76500D02*
D03*
X57500D02*
D03*
X114500D02*
D03*
X95500D02*
D03*
D94*
X9332Y127601D02*
D03*
X15829D02*
D03*
X22332D02*
D03*
X28829D02*
D03*
Y99351D02*
D03*
X22332D02*
D03*
X15829D02*
D03*
X9332D02*
D03*
D95*
X19081Y113476D02*
D03*
D96*
X83333Y36900D02*
D03*
X116667D02*
D03*
X100000D02*
D03*
Y25200D02*
D03*
X83333D02*
D03*
X116667D02*
D03*
X133333D02*
D03*
Y36900D02*
D03*
X66667D02*
D03*
X50000D02*
D03*
X66667Y25200D02*
D03*
X50000D02*
D03*
X150000D02*
D03*
Y36900D02*
D03*
D97*
X83333Y54700D02*
D03*
X116667D02*
D03*
X100000D02*
D03*
Y7400D02*
D03*
X83333D02*
D03*
X116667D02*
D03*
X133333D02*
D03*
Y54700D02*
D03*
X66667D02*
D03*
X50000D02*
D03*
X66667Y7400D02*
D03*
X50000D02*
D03*
X150000D02*
D03*
Y54700D02*
D03*
D98*
X185968Y149500D02*
D03*
Y136000D02*
D03*
Y122500D02*
D03*
Y163000D02*
D03*
D99*
X189546Y94784D02*
D03*
Y88284D02*
D03*
Y81784D02*
D03*
X170546D02*
D03*
Y88284D02*
D03*
Y94784D02*
D03*
D100*
X31430Y77500D02*
D03*
X12430D02*
D03*
D101*
X130850Y148500D02*
X143584D01*
D102*
X138298Y173500D02*
X139663Y174865D01*
X130850Y173500D02*
X138298D01*
X139663Y174865D02*
X143914D01*
X146185Y177135D01*
X146852D01*
D103*
X92485Y120345D02*
X107065D01*
X108894Y112594D02*
X110978Y110510D01*
X91670Y120398D02*
X92432D01*
X110978Y110510D02*
X114029D01*
X89500Y122568D02*
X91670Y120398D01*
X89500Y122568D02*
Y137150D01*
X108894Y112594D02*
Y118516D01*
X107065Y120345D02*
X108894Y118516D01*
X114029Y110510D02*
X118555Y105984D01*
X92432Y120398D02*
X92485Y120345D01*
D104*
X33638Y192667D02*
Y201333D01*
Y184000D02*
Y192667D01*
X40550Y121910D02*
Y132000D01*
Y121910D02*
X45660Y116800D01*
X69000D01*
X145000Y188400D02*
X155000D01*
D105*
X137000Y83976D02*
Y96784D01*
X133500Y80477D02*
X137000Y83976D01*
X133500Y77500D02*
Y80477D01*
X90889Y105984D02*
X100111D01*
X109333D01*
M02*
