G04*
G04 #@! TF.GenerationSoftware,Altium Limited,Altium Designer,22.8.2 (66)*
G04*
G04 Layer_Physical_Order=3*
G04 Layer_Color=16737945*
%FSLAX44Y44*%
%MOMM*%
G71*
G04*
G04 #@! TF.SameCoordinates,6741D891-8A7F-4893-A487-0B18702EF547*
G04*
G04*
G04 #@! TF.FilePolarity,Positive*
G04*
G01*
G75*
G04:AMPARAMS|DCode=76|XSize=4.5mm|YSize=2.5mm|CornerRadius=0.625mm|HoleSize=0mm|Usage=FLASHONLY|Rotation=0.000|XOffset=0mm|YOffset=0mm|HoleType=Round|Shape=RoundedRectangle|*
%AMROUNDEDRECTD76*
21,1,4.5000,1.2500,0,0,0.0*
21,1,3.2500,2.5000,0,0,0.0*
1,1,1.2500,1.6250,-0.6250*
1,1,1.2500,-1.6250,-0.6250*
1,1,1.2500,-1.6250,0.6250*
1,1,1.2500,1.6250,0.6250*
%
%ADD76ROUNDEDRECTD76*%
%ADD77C,0.4500*%
%ADD78C,0.4000*%
G36*
X194316Y408203D02*
X195462Y407437D01*
X196437Y406462D01*
X197203Y405316D01*
X197731Y404042D01*
X198000Y402690D01*
Y402000D01*
X198000Y366000D01*
X198000Y365005D01*
X197239Y363168D01*
X195832Y361761D01*
X193995Y361000D01*
X193000Y361000D01*
X139000D01*
X138005Y361000D01*
X136168Y361761D01*
X134761Y363168D01*
X134000Y365005D01*
X134000Y366000D01*
Y366000D01*
Y402000D01*
X134000Y402690D01*
X134269Y404042D01*
X134797Y405316D01*
X135563Y406462D01*
X136538Y407437D01*
X137684Y408203D01*
X138060Y408359D01*
X193940D01*
X194316Y408203D01*
D02*
G37*
G36*
X128562D02*
X129708Y407437D01*
X130683Y406462D01*
X131449Y405316D01*
X131977Y404042D01*
X132246Y402690D01*
Y402000D01*
X132246Y366000D01*
X132246Y365005D01*
X131485Y363168D01*
X130078Y361761D01*
X128240Y361000D01*
X127246Y361000D01*
X72746D01*
X71751Y361000D01*
X69914Y361761D01*
X68507Y363168D01*
X67746Y365005D01*
X67746Y366000D01*
Y366000D01*
Y402000D01*
Y402690D01*
X68015Y404042D01*
X68543Y405316D01*
X69309Y406462D01*
X70284Y407437D01*
X71430Y408203D01*
X71806Y408359D01*
X128186D01*
X128562Y408203D01*
D02*
G37*
G36*
X63399Y408087D02*
X65087Y406399D01*
X66000Y404193D01*
X66000Y403000D01*
X66000D01*
X66000Y403000D01*
X66000Y366000D01*
X66000Y365005D01*
X65239Y363167D01*
X63833Y361761D01*
X61995Y361000D01*
X61000Y361000D01*
X6500D01*
X5505Y361000D01*
X3668Y361761D01*
X2261Y363168D01*
X1641Y364665D01*
Y403398D01*
X1769Y404042D01*
X2297Y405316D01*
X3063Y406462D01*
X4038Y407437D01*
X5184Y408203D01*
X5560Y408359D01*
X62741D01*
X63399Y408087D01*
D02*
G37*
G36*
X133837Y362655D02*
X133900Y362592D01*
X133983Y362390D01*
X135390Y360984D01*
X135592Y360900D01*
X135747Y360745D01*
X137585Y359984D01*
X137803D01*
X138006Y359900D01*
X139000Y359900D01*
X151919D01*
X151963Y359874D01*
X152128Y359729D01*
X152672Y358850D01*
X152709Y358630D01*
X152674Y358581D01*
X152410Y357420D01*
X152431Y357294D01*
X152382Y357176D01*
Y357176D01*
X152382Y357176D01*
Y345350D01*
X152373Y345326D01*
Y344027D01*
X152382Y344003D01*
X152382Y339747D01*
X152373Y339723D01*
Y338424D01*
X152382Y338400D01*
Y334143D01*
X152373Y334119D01*
Y332820D01*
X152382Y332796D01*
Y328540D01*
X152373Y328516D01*
Y327217D01*
X152382Y327193D01*
Y322936D01*
X152373Y322913D01*
Y321613D01*
X152870Y320413D01*
X153030Y320253D01*
X153103Y320077D01*
X153841Y319338D01*
X154044Y319254D01*
X154199Y319100D01*
X155164Y318701D01*
X155383Y318701D01*
X155585Y318617D01*
X156108Y318618D01*
X183568Y318618D01*
X184091Y318583D01*
X184298Y318653D01*
X184517Y318638D01*
X185579Y318997D01*
X185744Y319141D01*
X185951Y319211D01*
X186795Y319949D01*
X186892Y320145D01*
X187057Y320289D01*
X187554Y321294D01*
X187569Y321512D01*
X187666Y321708D01*
X187703Y322268D01*
X187691Y322305D01*
X187706Y322341D01*
X187706Y348875D01*
X187622Y349077D01*
Y349296D01*
X187256Y350179D01*
X187101Y350334D01*
X187018Y350536D01*
X186342Y351212D01*
X186140Y351296D01*
X185985Y351450D01*
X185102Y351816D01*
X184883D01*
X184681Y351900D01*
X184203D01*
X184203Y351900D01*
X181315D01*
X180789Y353170D01*
X181331Y353712D01*
X181828Y354912D01*
Y356212D01*
X181331Y357412D01*
X180412Y358331D01*
X179689Y358630D01*
X179942Y359900D01*
X193000D01*
X193995Y359900D01*
X194197Y359984D01*
X194415Y359984D01*
X196253Y360745D01*
X196408Y360900D01*
X196610Y360983D01*
X197089Y361462D01*
X198359Y360936D01*
Y45226D01*
X198029Y44887D01*
X197750Y44709D01*
X197120Y44559D01*
X196018Y45016D01*
X195799D01*
X195597Y45100D01*
X166204D01*
X166002Y45016D01*
X165784D01*
X164313Y44407D01*
X164159Y44252D01*
X163957Y44169D01*
X162831Y43043D01*
X162748Y42841D01*
X162593Y42687D01*
X161984Y41217D01*
Y40998D01*
X161900Y40796D01*
Y18000D01*
Y3403D01*
X161984Y3201D01*
Y2982D01*
X162014Y2911D01*
X161165Y1641D01*
X5000D01*
X4896Y1598D01*
X3690Y1838D01*
X2580Y2580D01*
X1838Y3690D01*
X1598Y4896D01*
X1641Y5000D01*
X1641Y5000D01*
X1641Y5000D01*
Y52500D01*
X1622Y52546D01*
Y232954D01*
X1641Y233000D01*
Y360573D01*
X2814Y361059D01*
X2890Y360984D01*
X3092Y360900D01*
X3247Y360745D01*
X5085Y359984D01*
X5303D01*
X5505Y359900D01*
X6500Y359900D01*
X11607D01*
X12020Y359518D01*
X12465Y358630D01*
X12248Y357674D01*
X12269Y357548D01*
X12220Y357430D01*
Y357430D01*
X12220Y357430D01*
Y356068D01*
X10950Y355815D01*
X10819Y356132D01*
X9901Y357051D01*
X8700Y357548D01*
X7401D01*
X6200Y357051D01*
X5282Y356132D01*
X4785Y354931D01*
Y353632D01*
X5282Y352432D01*
X6200Y351513D01*
X7401Y351016D01*
X8700D01*
X9901Y351513D01*
X10819Y352432D01*
X10950Y352749D01*
X12220Y352496D01*
X12220Y322597D01*
X12220Y322075D01*
X12303Y321872D01*
X12303Y321653D01*
X12702Y320688D01*
X12857Y320533D01*
X12941Y320331D01*
X13679Y319592D01*
X13882Y319508D01*
X14037Y319354D01*
X15002Y318955D01*
X15221Y318955D01*
X15424Y318871D01*
X15946Y318872D01*
X43406Y318872D01*
X43929Y318837D01*
X44137Y318907D01*
X44355Y318892D01*
X45417Y319251D01*
X45582Y319395D01*
X45789Y319465D01*
X46633Y320203D01*
X46730Y320399D01*
X46895Y320543D01*
X47392Y321548D01*
X47407Y321766D01*
X47504Y321962D01*
X47541Y322522D01*
X47529Y322559D01*
X47544Y322595D01*
X47544Y349129D01*
X47460Y349331D01*
Y349550D01*
X47094Y350433D01*
X46939Y350588D01*
X46856Y350790D01*
X46180Y351466D01*
X45978Y351549D01*
X45823Y351704D01*
X44940Y352070D01*
X44721D01*
X44519Y352154D01*
X44041D01*
X44041Y352154D01*
X41569D01*
X41043Y353424D01*
X41269Y353650D01*
X41766Y354850D01*
Y356150D01*
X41269Y357350D01*
X40350Y358269D01*
X39477Y358630D01*
X39730Y359900D01*
X61000D01*
X61994Y359900D01*
X62196Y359984D01*
X62415Y359984D01*
X64253Y360745D01*
X64408Y360899D01*
X64610Y360983D01*
X66017Y362390D01*
X66101Y362592D01*
X66157Y362649D01*
X66873Y362701D01*
X67589Y362649D01*
X67646Y362592D01*
X67730Y362390D01*
X69136Y360984D01*
X69338Y360900D01*
X69493Y360745D01*
X71331Y359984D01*
X71549D01*
X71751Y359900D01*
X72746Y359900D01*
X81965D01*
X82009Y359874D01*
X82175Y359729D01*
X82718Y358850D01*
X82755Y358630D01*
X82720Y358581D01*
X82456Y357420D01*
X82477Y357294D01*
X82429Y357176D01*
Y357176D01*
X82429Y357176D01*
X82429Y322343D01*
X82428Y321821D01*
X82511Y321618D01*
X82511Y321399D01*
X82910Y320434D01*
X83065Y320279D01*
X83149Y320077D01*
X83887Y319338D01*
X84090Y319254D01*
X84245Y319100D01*
X85210Y318701D01*
X85429Y318701D01*
X85632Y318617D01*
X86154Y318618D01*
X113614Y318618D01*
X114137Y318583D01*
X114345Y318653D01*
X114563Y318638D01*
X115625Y318997D01*
X115790Y319141D01*
X115997Y319211D01*
X116841Y319949D01*
X116938Y320145D01*
X117103Y320289D01*
X117600Y321294D01*
X117615Y321512D01*
X117712Y321708D01*
X117749Y322268D01*
X117737Y322305D01*
X117752Y322341D01*
X117752Y348875D01*
X117668Y349077D01*
Y349296D01*
X117302Y350179D01*
X117147Y350334D01*
X117064Y350536D01*
X116388Y351212D01*
X116186Y351296D01*
X116031Y351450D01*
X115147Y351816D01*
X114929D01*
X114727Y351900D01*
X114249D01*
X114249Y351900D01*
X111315D01*
X110789Y353170D01*
X111269Y353650D01*
X111766Y354850D01*
Y356150D01*
X111269Y357350D01*
X110350Y358269D01*
X109477Y358630D01*
X109730Y359900D01*
X127246D01*
X128240Y359900D01*
X128442Y359984D01*
X128661D01*
X130499Y360745D01*
X130654Y360900D01*
X130856Y360983D01*
X132262Y362390D01*
X132346Y362592D01*
X132409Y362654D01*
X133123Y362704D01*
X133837Y362655D01*
D02*
G37*
G36*
X29360Y359674D02*
X30064Y358970D01*
X30444Y358051D01*
X30444Y357554D01*
X30444Y352054D01*
X30444Y352054D01*
X30517Y351815D01*
X30794Y351402D01*
X31207Y351126D01*
X31695Y351029D01*
X31944Y351054D01*
X44041Y351054D01*
X44041Y351054D01*
X44519D01*
X45402Y350688D01*
X46078Y350012D01*
X46444Y349129D01*
X46444Y322595D01*
X46406Y322036D01*
X45909Y321031D01*
X45065Y320293D01*
X44003Y319934D01*
X43444Y319972D01*
X15944Y319972D01*
X15422Y319971D01*
X14457Y320370D01*
X13718Y321108D01*
X13319Y322073D01*
X13320Y322595D01*
X13320Y357430D01*
X13320Y357430D01*
X13320Y357430D01*
Y357430D01*
X13584Y358591D01*
X13719Y358917D01*
X14457Y359655D01*
X15050Y359900D01*
X28813D01*
X29360Y359674D01*
D02*
G37*
G36*
X156106Y359800D02*
X168106Y359800D01*
X168106Y359800D01*
X168603Y359800D01*
X169522Y359420D01*
X170226Y358716D01*
X170606Y357797D01*
X170606Y357300D01*
X170606Y351800D01*
X170606Y351800D01*
X170679Y351561D01*
X170956Y351148D01*
X171369Y350872D01*
X171857Y350775D01*
X172106Y350800D01*
X184203Y350800D01*
X184203Y350800D01*
X184681D01*
X185564Y350434D01*
X186240Y349758D01*
X186606Y348875D01*
X186606Y322341D01*
X186569Y321782D01*
X186071Y320777D01*
X185227Y320039D01*
X184165Y319680D01*
X183606Y319718D01*
X156106Y319718D01*
X155584Y319717D01*
X154619Y320116D01*
X153880Y320854D01*
X153482Y321819D01*
X153482Y322341D01*
X153482Y357176D01*
X153482Y357176D01*
X153482Y357176D01*
Y357176D01*
X153746Y358337D01*
X153881Y358663D01*
X154619Y359401D01*
X155584Y359800D01*
X156106Y359800D01*
D02*
G37*
G36*
X86152D02*
X98152Y359800D01*
X98152Y359800D01*
X98649Y359800D01*
X99568Y359420D01*
X100272Y358716D01*
X100652Y357797D01*
X100652Y357300D01*
X100652Y351800D01*
X100652Y351800D01*
X100725Y351561D01*
X101002Y351148D01*
X101415Y350872D01*
X101903Y350775D01*
X102152Y350800D01*
X114249Y350800D01*
X114249Y350800D01*
X114727D01*
X115610Y350434D01*
X116286Y349758D01*
X116652Y348875D01*
X116652Y322341D01*
X116614Y321782D01*
X116117Y320777D01*
X115273Y320039D01*
X114211Y319680D01*
X113652Y319718D01*
X86152Y319718D01*
X85630Y319717D01*
X84665Y320116D01*
X83926Y320854D01*
X83527Y321819D01*
X83528Y322341D01*
X83528Y357176D01*
X83528Y357176D01*
X83528Y357176D01*
Y357176D01*
X83792Y358337D01*
X83927Y358663D01*
X84665Y359401D01*
X85630Y359800D01*
X86152Y359800D01*
D02*
G37*
G36*
X196699Y43543D02*
X197543Y42699D01*
X198000Y41597D01*
Y3447D01*
X197420Y2580D01*
X196310Y1838D01*
X196198Y1815D01*
X195000Y1641D01*
Y1641D01*
X164116D01*
X163457Y2301D01*
X163000Y3403D01*
Y18000D01*
Y40796D01*
X163609Y42266D01*
X164734Y43391D01*
X166204Y44000D01*
X195597D01*
X196699Y43543D01*
D02*
G37*
%LPC*%
G36*
X137302Y352008D02*
X136002D01*
X134802Y351511D01*
X133883Y350592D01*
X133386Y349392D01*
Y348092D01*
X133883Y346892D01*
X134802Y345973D01*
X136002Y345476D01*
X137302D01*
X138502Y345973D01*
X139421Y346892D01*
X139918Y348092D01*
Y349392D01*
X139421Y350592D01*
X138502Y351511D01*
X137302Y352008D01*
D02*
G37*
G36*
X71135Y351769D02*
X69836D01*
X68636Y351272D01*
X67717Y350354D01*
X67220Y349153D01*
Y347854D01*
X67717Y346653D01*
X68636Y345735D01*
X69836Y345238D01*
X71135D01*
X72336Y345735D01*
X73254Y346653D01*
X73752Y347854D01*
Y349153D01*
X73254Y350354D01*
X72336Y351272D01*
X71135Y351769D01*
D02*
G37*
G36*
X50704Y271720D02*
X49504D01*
X48396Y271261D01*
X47547Y270413D01*
X47088Y269304D01*
Y268104D01*
X47547Y266996D01*
X48396Y266147D01*
X49504Y265688D01*
X50704D01*
X51813Y266147D01*
X52661Y266996D01*
X53120Y268104D01*
Y269304D01*
X52661Y270413D01*
X51813Y271261D01*
X50704Y271720D01*
D02*
G37*
G36*
X67456Y260783D02*
X66156D01*
X64956Y260286D01*
X64037Y259368D01*
X63540Y258167D01*
Y256868D01*
X64037Y255667D01*
X64956Y254749D01*
X66156Y254251D01*
X67456D01*
X68656Y254749D01*
X69575Y255667D01*
X70072Y256868D01*
Y258167D01*
X69575Y259368D01*
X68656Y260286D01*
X67456Y260783D01*
D02*
G37*
G36*
X110328Y256254D02*
X109128D01*
X108020Y255795D01*
X107171Y254946D01*
X106712Y253838D01*
Y252638D01*
X107171Y251530D01*
X108020Y250681D01*
X109128Y250222D01*
X110328D01*
X111436Y250681D01*
X112285Y251530D01*
X112744Y252638D01*
Y253838D01*
X112285Y254946D01*
X111436Y255795D01*
X110328Y256254D01*
D02*
G37*
G36*
X179100Y242516D02*
X177900D01*
X176792Y242057D01*
X175943Y241208D01*
X175484Y240100D01*
Y238900D01*
X175943Y237792D01*
X176792Y236943D01*
X177900Y236484D01*
X179100D01*
X180208Y236943D01*
X181057Y237792D01*
X181516Y238900D01*
Y240100D01*
X181057Y241208D01*
X180208Y242057D01*
X179100Y242516D01*
D02*
G37*
G36*
X22100D02*
X20900D01*
X19792Y242057D01*
X18943Y241208D01*
X18484Y240100D01*
Y238900D01*
X18943Y237792D01*
X19792Y236943D01*
X20900Y236484D01*
X22100D01*
X23208Y236943D01*
X24057Y237792D01*
X24516Y238900D01*
Y240100D01*
X24057Y241208D01*
X23208Y242057D01*
X22100Y242516D01*
D02*
G37*
G36*
X162144Y242284D02*
X160944D01*
X159836Y241825D01*
X158987Y240976D01*
X158528Y239868D01*
Y238668D01*
X158987Y237560D01*
X159836Y236711D01*
X160944Y236252D01*
X162144D01*
X163252Y236711D01*
X164101Y237560D01*
X164560Y238668D01*
Y239868D01*
X164101Y240976D01*
X163252Y241825D01*
X162144Y242284D01*
D02*
G37*
G36*
X95579Y242766D02*
X94280D01*
X93079Y242269D01*
X92161Y241350D01*
X91664Y240150D01*
Y238850D01*
X92161Y237650D01*
X93079Y236731D01*
X94280Y236234D01*
X95579D01*
X96779Y236731D01*
X97698Y237650D01*
X98195Y238850D01*
Y240150D01*
X97698Y241350D01*
X96779Y242269D01*
X95579Y242766D01*
D02*
G37*
G36*
X39150D02*
X37850D01*
X36650Y242269D01*
X35731Y241350D01*
X35234Y240150D01*
Y238850D01*
X35731Y237650D01*
X36650Y236731D01*
X37850Y236234D01*
X39150D01*
X40350Y236731D01*
X41269Y237650D01*
X41766Y238850D01*
Y240150D01*
X41269Y241350D01*
X40350Y242269D01*
X39150Y242766D01*
D02*
G37*
G36*
X145380Y242030D02*
X144180D01*
X143072Y241571D01*
X142223Y240722D01*
X141764Y239614D01*
Y238414D01*
X142223Y237306D01*
X143072Y236457D01*
X144180Y235998D01*
X145380D01*
X146488Y236457D01*
X147337Y237306D01*
X147796Y238414D01*
Y239614D01*
X147337Y240722D01*
X146488Y241571D01*
X145380Y242030D01*
D02*
G37*
G36*
X105508Y242466D02*
X104208D01*
X103008Y241969D01*
X102089Y241050D01*
X101592Y239850D01*
Y238550D01*
X102089Y237350D01*
X103008Y236431D01*
X104208Y235934D01*
X105508D01*
X106708Y236431D01*
X107627Y237350D01*
X108124Y238550D01*
Y239850D01*
X107627Y241050D01*
X106708Y241969D01*
X105508Y242466D01*
D02*
G37*
G36*
X34128Y219678D02*
X32928D01*
X31820Y219219D01*
X30971Y218370D01*
X30512Y217262D01*
Y216062D01*
X30971Y214954D01*
X31820Y214105D01*
X32928Y213646D01*
X34128D01*
X35236Y214105D01*
X36085Y214954D01*
X36544Y216062D01*
Y217262D01*
X36085Y218370D01*
X35236Y219219D01*
X34128Y219678D01*
D02*
G37*
G36*
X49655Y217625D02*
X48355D01*
X47155Y217128D01*
X46236Y216209D01*
X45739Y215009D01*
Y213709D01*
X46236Y212509D01*
X47155Y211590D01*
X48355Y211093D01*
X49655D01*
X50855Y211590D01*
X51774Y212509D01*
X52271Y213709D01*
Y215009D01*
X51774Y216209D01*
X50855Y217128D01*
X49655Y217625D01*
D02*
G37*
G36*
X95088Y216630D02*
X93888D01*
X92780Y216171D01*
X91931Y215322D01*
X91472Y214214D01*
Y213014D01*
X91931Y211906D01*
X92780Y211057D01*
X93888Y210598D01*
X95088D01*
X96196Y211057D01*
X97045Y211906D01*
X97504Y213014D01*
Y214214D01*
X97045Y215322D01*
X96196Y216171D01*
X95088Y216630D01*
D02*
G37*
G36*
X115154Y215360D02*
X113954D01*
X112846Y214901D01*
X111997Y214052D01*
X111538Y212944D01*
Y211744D01*
X111997Y210636D01*
X112846Y209787D01*
X113954Y209328D01*
X115154D01*
X116262Y209787D01*
X117111Y210636D01*
X117570Y211744D01*
Y212944D01*
X117111Y214052D01*
X116262Y214901D01*
X115154Y215360D01*
D02*
G37*
G36*
X62576Y212533D02*
X61376D01*
X60268Y212074D01*
X59419Y211225D01*
X58960Y210117D01*
Y208917D01*
X59419Y207808D01*
X60268Y206960D01*
X61376Y206501D01*
X62576D01*
X63684Y206960D01*
X64533Y207808D01*
X64992Y208917D01*
Y210117D01*
X64533Y211225D01*
X63684Y212074D01*
X62576Y212533D01*
D02*
G37*
G36*
X182006Y211800D02*
X180706D01*
X179506Y211303D01*
X178587Y210384D01*
X178090Y209184D01*
Y207884D01*
X178587Y206684D01*
X179506Y205765D01*
X180706Y205268D01*
X182006D01*
X183206Y205765D01*
X184125Y206684D01*
X184622Y207884D01*
Y209184D01*
X184125Y210384D01*
X183206Y211303D01*
X182006Y211800D01*
D02*
G37*
G36*
X146789Y209751D02*
X145590D01*
X144481Y209292D01*
X143633Y208443D01*
X143174Y207335D01*
Y206135D01*
X143633Y205026D01*
X144481Y204178D01*
X145590Y203719D01*
X146789D01*
X147898Y204178D01*
X148746Y205026D01*
X149206Y206135D01*
Y207335D01*
X148746Y208443D01*
X147898Y209292D01*
X146789Y209751D01*
D02*
G37*
G36*
X129720Y206136D02*
X128520D01*
X127412Y205677D01*
X126563Y204828D01*
X126104Y203720D01*
Y202520D01*
X126563Y201412D01*
X127412Y200563D01*
X128520Y200104D01*
X129720D01*
X130828Y200563D01*
X131677Y201412D01*
X132136Y202520D01*
Y203720D01*
X131677Y204828D01*
X130828Y205677D01*
X129720Y206136D01*
D02*
G37*
G36*
X8838Y204342D02*
X7638D01*
X6529Y203883D01*
X5681Y203034D01*
X5222Y201926D01*
Y200726D01*
X5681Y199617D01*
X6529Y198769D01*
X7638Y198310D01*
X8838D01*
X9946Y198769D01*
X10795Y199617D01*
X11254Y200726D01*
Y201926D01*
X10795Y203034D01*
X9946Y203883D01*
X8838Y204342D01*
D02*
G37*
G36*
X49899Y197628D02*
X48599D01*
X47399Y197131D01*
X46480Y196212D01*
X45983Y195012D01*
Y193713D01*
X46480Y192512D01*
X47399Y191593D01*
X48599Y191096D01*
X49899D01*
X51099Y191593D01*
X52018Y192512D01*
X52515Y193713D01*
Y195012D01*
X52018Y196212D01*
X51099Y197131D01*
X49899Y197628D01*
D02*
G37*
G36*
X139768Y188011D02*
X138469D01*
X137268Y187513D01*
X136349Y186595D01*
X135852Y185394D01*
Y184095D01*
X136349Y182895D01*
X137268Y181976D01*
X138469Y181479D01*
X139768D01*
X140968Y181976D01*
X141887Y182895D01*
X142384Y184095D01*
Y185394D01*
X141887Y186595D01*
X140968Y187513D01*
X139768Y188011D01*
D02*
G37*
G36*
X147502Y180401D02*
X146203D01*
X145002Y179903D01*
X144084Y178985D01*
X143586Y177784D01*
Y176485D01*
X144084Y175285D01*
X145002Y174366D01*
X146203Y173869D01*
X147502D01*
X148702Y174366D01*
X149621Y175285D01*
X150118Y176485D01*
Y177784D01*
X149621Y178985D01*
X148702Y179903D01*
X147502Y180401D01*
D02*
G37*
G36*
X160084Y184099D02*
X158884D01*
X157776Y183640D01*
X156927Y182792D01*
X156468Y181683D01*
Y180483D01*
X156927Y179375D01*
X157776Y178526D01*
X158219Y178343D01*
Y176968D01*
X157776Y176785D01*
X156927Y175937D01*
X156468Y174828D01*
Y173628D01*
X156927Y172520D01*
X157776Y171671D01*
X158884Y171212D01*
X160084D01*
X161193Y171671D01*
X162041Y172520D01*
X162500Y173628D01*
Y174828D01*
X162041Y175937D01*
X161193Y176785D01*
X160750Y176968D01*
Y178343D01*
X161193Y178526D01*
X162041Y179375D01*
X162500Y180483D01*
Y181683D01*
X162041Y182792D01*
X161193Y183640D01*
X160084Y184099D01*
D02*
G37*
G36*
X41002Y180961D02*
X39802D01*
X38694Y180502D01*
X37846Y179654D01*
X37386Y178545D01*
Y177345D01*
X37846Y176237D01*
X38694Y175389D01*
X39796Y174932D01*
X39561Y173756D01*
X39555Y173742D01*
Y172542D01*
X40015Y171434D01*
X40863Y170585D01*
X41971Y170126D01*
X43171D01*
X44280Y170585D01*
X45128Y171434D01*
X45587Y172542D01*
Y173742D01*
X45128Y174851D01*
X44280Y175699D01*
X43178Y176155D01*
X43413Y177332D01*
X43418Y177345D01*
Y178545D01*
X42959Y179654D01*
X42111Y180502D01*
X41002Y180961D01*
D02*
G37*
G36*
X142324Y173467D02*
X141025D01*
X139825Y172970D01*
X138906Y172051D01*
X138409Y170851D01*
Y169551D01*
X138906Y168351D01*
X139825Y167432D01*
X141025Y166935D01*
X142324D01*
X143525Y167432D01*
X144443Y168351D01*
X144941Y169551D01*
Y170851D01*
X144443Y172051D01*
X143525Y172970D01*
X142324Y173467D01*
D02*
G37*
G36*
X149442Y168474D02*
X148143D01*
X146943Y167976D01*
X146024Y167058D01*
X145527Y165857D01*
Y164558D01*
X146024Y163358D01*
X146943Y162439D01*
X148143Y161942D01*
X149442D01*
X150643Y162439D01*
X151561Y163358D01*
X152059Y164558D01*
Y165857D01*
X151561Y167058D01*
X150643Y167976D01*
X149442Y168474D01*
D02*
G37*
G36*
X9046Y166999D02*
X7846D01*
X6738Y166539D01*
X5889Y165691D01*
X5430Y164583D01*
Y163383D01*
X5889Y162274D01*
X6738Y161426D01*
X7846Y160967D01*
X9046D01*
X10155Y161426D01*
X11003Y162274D01*
X11462Y163383D01*
Y164583D01*
X11003Y165691D01*
X10155Y166539D01*
X9046Y166999D01*
D02*
G37*
G36*
X139151Y163891D02*
X137852D01*
X136651Y163393D01*
X135733Y162475D01*
X135235Y161274D01*
Y159975D01*
X135733Y158775D01*
X136651Y157856D01*
X137852Y157359D01*
X139151D01*
X140351Y157856D01*
X141270Y158775D01*
X141767Y159975D01*
Y161274D01*
X141270Y162475D01*
X140351Y163393D01*
X139151Y163891D01*
D02*
G37*
G36*
X159350Y161258D02*
X158150D01*
X157042Y160799D01*
X156193Y159950D01*
X155734Y158842D01*
Y157642D01*
X156193Y156534D01*
X157042Y155685D01*
X158150Y155226D01*
X159350D01*
X160458Y155685D01*
X161307Y156534D01*
X161766Y157642D01*
Y158842D01*
X161307Y159950D01*
X160458Y160799D01*
X159350Y161258D01*
D02*
G37*
G36*
X148354Y160075D02*
X147055D01*
X145855Y159578D01*
X144936Y158659D01*
X144439Y157459D01*
Y156159D01*
X144936Y154959D01*
X145855Y154040D01*
X147055Y153543D01*
X148354D01*
X149555Y154040D01*
X150473Y154959D01*
X150970Y156159D01*
Y157459D01*
X150473Y158659D01*
X149555Y159578D01*
X148354Y160075D01*
D02*
G37*
G36*
X49754Y155275D02*
X48455D01*
X47255Y154777D01*
X46336Y153859D01*
X45839Y152658D01*
Y151359D01*
X46336Y150159D01*
X47255Y149240D01*
X48455Y148743D01*
X49754D01*
X50955Y149240D01*
X51873Y150159D01*
X52371Y151359D01*
Y152658D01*
X51873Y153859D01*
X50955Y154777D01*
X49754Y155275D01*
D02*
G37*
G36*
X41450Y152920D02*
X40250D01*
X39141Y152461D01*
X38293Y151612D01*
X37834Y150504D01*
Y149304D01*
X38293Y148195D01*
X39141Y147347D01*
X40250Y146888D01*
X41450D01*
X42558Y147347D01*
X43407Y148195D01*
X43866Y149304D01*
Y150504D01*
X43407Y151612D01*
X42558Y152461D01*
X41450Y152920D01*
D02*
G37*
G36*
X46925Y147196D02*
X45625D01*
X44425Y146699D01*
X43506Y145780D01*
X43009Y144580D01*
Y143281D01*
X43506Y142080D01*
X44425Y141162D01*
X45625Y140664D01*
X46925D01*
X48125Y141162D01*
X49044Y142080D01*
X49541Y143281D01*
Y144580D01*
X49044Y145780D01*
X48125Y146699D01*
X46925Y147196D01*
D02*
G37*
G36*
X54752Y146522D02*
X53452D01*
X52252Y146025D01*
X51333Y145106D01*
X50836Y143906D01*
Y142606D01*
X51333Y141406D01*
X52252Y140487D01*
X53452Y139990D01*
X54752D01*
X55952Y140487D01*
X56871Y141406D01*
X57368Y142606D01*
Y143906D01*
X56871Y145106D01*
X55952Y146025D01*
X54752Y146522D01*
D02*
G37*
G36*
X22952Y146018D02*
X21752D01*
X20644Y145559D01*
X19795Y144710D01*
X19336Y143602D01*
Y142402D01*
X19795Y141294D01*
X20644Y140445D01*
X21752Y139986D01*
X22952D01*
X24060Y140445D01*
X24909Y141294D01*
X25368Y142402D01*
Y143602D01*
X24909Y144710D01*
X24060Y145559D01*
X22952Y146018D01*
D02*
G37*
G36*
X159240Y139016D02*
X158040D01*
X156932Y138557D01*
X156083Y137708D01*
X155624Y136600D01*
Y135400D01*
X156083Y134292D01*
X156932Y133443D01*
X158040Y132984D01*
X159240D01*
X160348Y133443D01*
X161197Y134292D01*
X161656Y135400D01*
Y136600D01*
X161197Y137708D01*
X160348Y138557D01*
X159240Y139016D01*
D02*
G37*
G36*
X106977Y133961D02*
X105777D01*
X104669Y133502D01*
X103820Y132654D01*
X103692Y132343D01*
X102317Y132343D01*
X102255Y132493D01*
X101336Y133412D01*
X100136Y133909D01*
X98836D01*
X97636Y133412D01*
X96717Y132493D01*
X96220Y131293D01*
Y129994D01*
X96717Y128793D01*
X97636Y127874D01*
X98836Y127377D01*
X100136D01*
X101336Y127874D01*
X102255Y128793D01*
X102442Y129245D01*
X103817D01*
X103820Y129237D01*
X104669Y128388D01*
X105777Y127929D01*
X106977D01*
X108086Y128388D01*
X108934Y129237D01*
X109393Y130345D01*
Y131545D01*
X108934Y132654D01*
X108086Y133502D01*
X106977Y133961D01*
D02*
G37*
G36*
X129682Y133568D02*
X128382D01*
X127182Y133071D01*
X126475Y132363D01*
X126252Y132153D01*
X124929Y132250D01*
X124704Y132475D01*
X123503Y132972D01*
X122204D01*
X121004Y132475D01*
X120085Y131556D01*
X119588Y130356D01*
Y129057D01*
X120085Y127856D01*
X121004Y126938D01*
X122204Y126440D01*
X123503D01*
X124704Y126938D01*
X125411Y127645D01*
X125633Y127855D01*
X126957Y127759D01*
X127182Y127533D01*
X128382Y127036D01*
X129682D01*
X130882Y127533D01*
X131801Y128452D01*
X132298Y129652D01*
Y130952D01*
X131801Y132152D01*
X130882Y133071D01*
X129682Y133568D01*
D02*
G37*
G36*
X29606Y135600D02*
X28306D01*
X27106Y135103D01*
X26187Y134184D01*
X25690Y132984D01*
Y131684D01*
X26187Y130484D01*
X27106Y129565D01*
X28306Y129068D01*
X29606D01*
X30806Y129565D01*
X31725Y130484D01*
X32222Y131684D01*
Y132984D01*
X31725Y134184D01*
X30806Y135103D01*
X29606Y135600D01*
D02*
G37*
G36*
X164224Y130774D02*
X162924D01*
X161724Y130277D01*
X160805Y129358D01*
X160308Y128158D01*
Y126858D01*
X160805Y125658D01*
X161724Y124739D01*
X162924Y124242D01*
X164224D01*
X165424Y124739D01*
X166343Y125658D01*
X166840Y126858D01*
Y128158D01*
X166343Y129358D01*
X165424Y130277D01*
X164224Y130774D01*
D02*
G37*
G36*
X118464Y118675D02*
X117264D01*
X116156Y118216D01*
X115308Y117367D01*
X114848Y116258D01*
Y115059D01*
X115308Y113950D01*
X116156Y113102D01*
X117264Y112643D01*
X118464D01*
X119573Y113102D01*
X120421Y113950D01*
X120880Y115059D01*
Y116258D01*
X120421Y117367D01*
X119573Y118216D01*
X118464Y118675D01*
D02*
G37*
G36*
X128671Y115170D02*
X127471D01*
X126363Y114711D01*
X125514Y113862D01*
X125055Y112754D01*
Y111554D01*
X125514Y110445D01*
X126363Y109597D01*
X127471Y109138D01*
X128671D01*
X129780Y109597D01*
X130628Y110445D01*
X131087Y111554D01*
Y112754D01*
X130628Y113862D01*
X129780Y114711D01*
X128671Y115170D01*
D02*
G37*
G36*
X94769Y115241D02*
X93569D01*
X92460Y114782D01*
X91612Y113933D01*
X91153Y112825D01*
Y111625D01*
X91612Y110516D01*
X92460Y109668D01*
X93569Y109209D01*
X94769D01*
X95877Y109668D01*
X96726Y110516D01*
X96928Y111006D01*
X98303D01*
X98535Y110445D01*
X99384Y109597D01*
X100492Y109138D01*
X101692D01*
X102800Y109597D01*
X103649Y110445D01*
X104108Y111554D01*
Y112754D01*
X103649Y113862D01*
X102800Y114711D01*
X101692Y115170D01*
X100492D01*
X99384Y114711D01*
X98535Y113862D01*
X98332Y113373D01*
X96958D01*
X96726Y113933D01*
X95877Y114782D01*
X94769Y115241D01*
D02*
G37*
G36*
X153866Y110208D02*
X152666D01*
X151558Y109749D01*
X150709Y108901D01*
X150250Y107792D01*
Y106592D01*
X150709Y105484D01*
X151558Y104635D01*
X152666Y104176D01*
X153866D01*
X154974Y104635D01*
X155823Y105484D01*
X156282Y106592D01*
Y107792D01*
X155823Y108901D01*
X154974Y109749D01*
X153866Y110208D01*
D02*
G37*
G36*
X39600Y109016D02*
X38400D01*
X37292Y108557D01*
X36443Y107708D01*
X35984Y106600D01*
Y105400D01*
X36443Y104292D01*
X37211Y103523D01*
X37241Y102954D01*
X37155Y102125D01*
X37154Y102125D01*
X36305Y101276D01*
X35846Y100168D01*
Y98968D01*
X36305Y97860D01*
X37154Y97011D01*
X38262Y96552D01*
X39462D01*
X40570Y97011D01*
X41419Y97860D01*
X41878Y98968D01*
Y100168D01*
X41419Y101276D01*
X40651Y102045D01*
X40621Y102614D01*
X40707Y103443D01*
X40708Y103443D01*
X41557Y104292D01*
X42016Y105400D01*
Y106600D01*
X41557Y107708D01*
X40708Y108557D01*
X39600Y109016D01*
D02*
G37*
G36*
X123975Y93968D02*
X122775D01*
X121666Y93508D01*
X120818Y92660D01*
X120359Y91552D01*
Y90352D01*
X120818Y89243D01*
X121666Y88395D01*
X122775Y87935D01*
X123975D01*
X125083Y88395D01*
X125932Y89243D01*
X126391Y90352D01*
Y91552D01*
X125932Y92660D01*
X125083Y93508D01*
X123975Y93968D01*
D02*
G37*
G36*
X180876Y91408D02*
X179676D01*
X178568Y90949D01*
X177719Y90100D01*
X177260Y88992D01*
Y87792D01*
X177719Y86684D01*
X178568Y85835D01*
X178712Y85775D01*
Y84401D01*
X178568Y84341D01*
X177719Y83492D01*
X177260Y82384D01*
Y81184D01*
X177719Y80076D01*
X178568Y79227D01*
X179676Y78768D01*
X180876D01*
X181984Y79227D01*
X182833Y80076D01*
X183292Y81184D01*
Y82384D01*
X182833Y83492D01*
X181984Y84341D01*
X181840Y84401D01*
Y85775D01*
X181984Y85835D01*
X182833Y86684D01*
X183292Y87792D01*
Y88992D01*
X182833Y90100D01*
X181984Y90949D01*
X180876Y91408D01*
D02*
G37*
G36*
X191162Y80816D02*
X189962D01*
X188854Y80357D01*
X188005Y79509D01*
X187546Y78400D01*
Y77200D01*
X188005Y76092D01*
X188854Y75243D01*
X189962Y74784D01*
X191162D01*
X192270Y75243D01*
X193119Y76092D01*
X193578Y77200D01*
Y78400D01*
X193119Y79509D01*
X192270Y80357D01*
X191162Y80816D01*
D02*
G37*
G36*
X60650Y19520D02*
X59350D01*
X58150Y19023D01*
X57231Y18104D01*
X56734Y16904D01*
Y15604D01*
X57231Y14404D01*
X58150Y13485D01*
X59350Y12988D01*
X60650D01*
X61850Y13485D01*
X62769Y14404D01*
X63266Y15604D01*
Y16904D01*
X62769Y18104D01*
X61850Y19023D01*
X60650Y19520D01*
D02*
G37*
G36*
X117650Y19270D02*
X116350D01*
X115150Y18773D01*
X114231Y17854D01*
X113734Y16654D01*
Y15354D01*
X114231Y14154D01*
X115150Y13235D01*
X116350Y12738D01*
X117650D01*
X118850Y13235D01*
X119769Y14154D01*
X120266Y15354D01*
Y16654D01*
X119769Y17854D01*
X118850Y18773D01*
X117650Y19270D01*
D02*
G37*
G36*
X98650D02*
X97350D01*
X96150Y18773D01*
X95231Y17854D01*
X94734Y16654D01*
Y15354D01*
X95231Y14154D01*
X96150Y13235D01*
X97350Y12738D01*
X98650D01*
X99850Y13235D01*
X100769Y14154D01*
X101266Y15354D01*
Y16654D01*
X100769Y17854D01*
X99850Y18773D01*
X98650Y19270D01*
D02*
G37*
G36*
X79650D02*
X78350D01*
X77150Y18773D01*
X76231Y17854D01*
X75734Y16654D01*
Y15354D01*
X76231Y14154D01*
X77150Y13235D01*
X78350Y12738D01*
X79650D01*
X80850Y13235D01*
X81769Y14154D01*
X82266Y15354D01*
Y16654D01*
X81769Y17854D01*
X80850Y18773D01*
X79650Y19270D01*
D02*
G37*
%LPD*%
D76*
X30000Y395000D02*
D03*
X100000D02*
D03*
X170000D02*
D03*
D77*
X36001Y50001D02*
D03*
X26001D02*
D03*
X16001D02*
D03*
X6001Y170001D02*
D03*
Y150001D02*
D03*
X11001Y60001D02*
D03*
X6001Y50001D02*
D03*
X158033Y350656D02*
D03*
X164573D02*
D03*
X164573Y356242D02*
D03*
X158033D02*
D03*
X175230Y369496D02*
D03*
X87884Y356104D02*
D03*
X18097Y356100D02*
D03*
X24638D02*
D03*
X181800Y322330D02*
D03*
X175260D02*
D03*
X181800Y344677D02*
D03*
Y339090D02*
D03*
Y333503D02*
D03*
Y327917D02*
D03*
X175260Y344677D02*
D03*
Y339090D02*
D03*
Y333503D02*
D03*
Y327917D02*
D03*
X162179Y322263D02*
D03*
X168720D02*
D03*
X155639D02*
D03*
X162179Y344677D02*
D03*
X155639D02*
D03*
X168720D02*
D03*
X155639Y339073D02*
D03*
X168720D02*
D03*
X162179D02*
D03*
X168720Y333470D02*
D03*
X162179D02*
D03*
X155639D02*
D03*
X162179Y327866D02*
D03*
X155639D02*
D03*
X168720D02*
D03*
X112966Y322584D02*
D03*
X106426D02*
D03*
X94425Y356104D02*
D03*
X94425Y350517D02*
D03*
X112966Y344931D02*
D03*
Y339344D02*
D03*
Y333757D02*
D03*
Y328171D02*
D03*
X87884Y350517D02*
D03*
X106426Y344931D02*
D03*
Y339344D02*
D03*
Y333757D02*
D03*
Y328171D02*
D03*
X93345Y322517D02*
D03*
X99886D02*
D03*
X86805D02*
D03*
X93345Y344931D02*
D03*
X86805D02*
D03*
X99886D02*
D03*
X86805Y339327D02*
D03*
X99886D02*
D03*
X93345D02*
D03*
X99886Y333724D02*
D03*
X93345D02*
D03*
X86805D02*
D03*
X93345Y328120D02*
D03*
X86805D02*
D03*
X99886D02*
D03*
X31115Y328116D02*
D03*
X18034D02*
D03*
X24574D02*
D03*
X18034Y333720D02*
D03*
X24574D02*
D03*
X31115D02*
D03*
X24574Y339323D02*
D03*
X31115D02*
D03*
X18034D02*
D03*
X31115Y344927D02*
D03*
X18034D02*
D03*
X24574D02*
D03*
X18034Y322513D02*
D03*
X31115D02*
D03*
X24574D02*
D03*
X37655Y328167D02*
D03*
Y333753D02*
D03*
Y339340D02*
D03*
Y344927D02*
D03*
X18097Y350513D02*
D03*
X44196Y328167D02*
D03*
Y333753D02*
D03*
Y339340D02*
D03*
Y344927D02*
D03*
X24638Y350513D02*
D03*
X37655Y322580D02*
D03*
X44196D02*
D03*
X169314Y39000D02*
D03*
Y31000D02*
D03*
X176314D02*
D03*
X183314Y23000D02*
D03*
Y15000D02*
D03*
X176314D02*
D03*
Y23000D02*
D03*
X190314Y15000D02*
D03*
X190314Y39000D02*
D03*
X176314Y7000D02*
D03*
X190314Y31000D02*
D03*
X169814Y7000D02*
D03*
X190314D02*
D03*
X183314Y31000D02*
D03*
X183314Y7000D02*
D03*
X183314Y39000D02*
D03*
X169314Y15000D02*
D03*
X190314Y23000D02*
D03*
X169314D02*
D03*
X176314Y39000D02*
D03*
X179000Y388000D02*
D03*
Y402500D02*
D03*
X170000D02*
D03*
X152000D02*
D03*
X188000D02*
D03*
X179000Y395000D02*
D03*
X161000Y402500D02*
D03*
X152000Y395000D02*
D03*
X188000D02*
D03*
X170000Y388000D02*
D03*
X161000Y395000D02*
D03*
X188000Y388000D02*
D03*
X161000D02*
D03*
X152000D02*
D03*
X100000D02*
D03*
X82000Y402500D02*
D03*
X118000D02*
D03*
X109000Y395000D02*
D03*
X91000Y402500D02*
D03*
X82000Y395000D02*
D03*
X118000D02*
D03*
X109000Y388000D02*
D03*
X91000Y395000D02*
D03*
X82000Y388000D02*
D03*
X118000D02*
D03*
X91000D02*
D03*
X109000Y402500D02*
D03*
X100000D02*
D03*
X150230Y369496D02*
D03*
X155230D02*
D03*
X160230D02*
D03*
X190230D02*
D03*
X185230D02*
D03*
X180230D02*
D03*
X170230D02*
D03*
X165230D02*
D03*
X150230Y374496D02*
D03*
X155230D02*
D03*
X160230D02*
D03*
X165230D02*
D03*
X170230D02*
D03*
X175230D02*
D03*
X180230D02*
D03*
X185230D02*
D03*
X190230D02*
D03*
X155230Y379496D02*
D03*
X165230D02*
D03*
X175230D02*
D03*
X180230D02*
D03*
X185230D02*
D03*
X190230D02*
D03*
X160230D02*
D03*
X170230D02*
D03*
X150230D02*
D03*
X85283Y369496D02*
D03*
X110283D02*
D03*
X105283D02*
D03*
X80283D02*
D03*
X90283D02*
D03*
X95283D02*
D03*
X100283D02*
D03*
X115283D02*
D03*
X120283D02*
D03*
X80283Y374496D02*
D03*
X85283D02*
D03*
X90283D02*
D03*
X95283D02*
D03*
X100283D02*
D03*
X105283D02*
D03*
X110283D02*
D03*
X115283D02*
D03*
X120283D02*
D03*
X80283Y379496D02*
D03*
X90283D02*
D03*
X100283D02*
D03*
X85283D02*
D03*
X95283D02*
D03*
X105283D02*
D03*
X110283D02*
D03*
X115283D02*
D03*
X120283D02*
D03*
X35230Y369496D02*
D03*
Y374496D02*
D03*
X25230Y369496D02*
D03*
Y374496D02*
D03*
X20230D02*
D03*
Y369496D02*
D03*
X30230D02*
D03*
Y374496D02*
D03*
X10230Y369496D02*
D03*
Y374496D02*
D03*
X15230Y369496D02*
D03*
Y374496D02*
D03*
X10230Y379496D02*
D03*
X20230D02*
D03*
X40230Y369496D02*
D03*
X45230Y374496D02*
D03*
X40230D02*
D03*
X50230D02*
D03*
X30230Y379496D02*
D03*
X35230D02*
D03*
X45230D02*
D03*
X50230D02*
D03*
X15230D02*
D03*
X25230D02*
D03*
X45230Y369496D02*
D03*
X9294Y39000D02*
D03*
Y23000D02*
D03*
Y31000D02*
D03*
Y7000D02*
D03*
Y15000D02*
D03*
X16294Y7000D02*
D03*
Y15000D02*
D03*
Y23000D02*
D03*
Y31000D02*
D03*
Y39000D02*
D03*
X23294Y7000D02*
D03*
Y15000D02*
D03*
Y23000D02*
D03*
Y31000D02*
D03*
Y39000D02*
D03*
X30294Y7000D02*
D03*
Y15000D02*
D03*
Y23000D02*
D03*
Y31000D02*
D03*
Y39000D02*
D03*
X50230Y369496D02*
D03*
X40230Y379496D02*
D03*
X30000Y388000D02*
D03*
Y402500D02*
D03*
X48000D02*
D03*
Y395000D02*
D03*
Y388000D02*
D03*
X39000Y402500D02*
D03*
Y395000D02*
D03*
Y388000D02*
D03*
X21000Y402500D02*
D03*
Y395000D02*
D03*
Y388000D02*
D03*
X12000Y402500D02*
D03*
Y388000D02*
D03*
Y395000D02*
D03*
D78*
X157763Y68820D02*
D03*
X143256Y62484D02*
D03*
X34798Y87770D02*
D03*
X18400Y62400D02*
D03*
X68485Y67705D02*
D03*
X73152Y64770D02*
D03*
X4672Y88314D02*
D03*
X5842Y187706D02*
D03*
X5864Y180271D02*
D03*
X17587Y109702D02*
D03*
X37084Y120396D02*
D03*
X81850Y177326D02*
D03*
Y171944D02*
D03*
Y182709D02*
D03*
Y188105D02*
D03*
X88554Y171944D02*
D03*
Y182709D02*
D03*
X96279Y66293D02*
D03*
X149216Y62042D02*
D03*
X157763D02*
D03*
X88554Y177326D02*
D03*
X95257Y182723D02*
D03*
Y171958D02*
D03*
Y177340D02*
D03*
X101961Y182709D02*
D03*
Y171944D02*
D03*
Y177326D02*
D03*
X115459Y164194D02*
D03*
X121504Y164442D02*
D03*
X140317Y122835D02*
D03*
X144000Y134071D02*
D03*
X60250Y203466D02*
D03*
X81850Y193487D02*
D03*
X88554D02*
D03*
Y188105D02*
D03*
X95257Y193487D02*
D03*
Y188105D02*
D03*
X101961Y193487D02*
D03*
Y188105D02*
D03*
M02*
